<svg xmlns="http://www.w3.org/2000/svg" viewBox="0 0 354.8 346.5"><defs><style>.cls-1{fill:#231988;}.cls-2{fill:#f0c042;}.cls-3{fill:#459bd4;}.cls-4{fill:#fefefe;}.cls-5{fill:#fdfdfe;}.cls-6{fill:#fcfcfd;}.cls-7{fill:#fdfdfd;}.cls-8{fill:#fafafc;}.cls-9{fill:#fbfbfc;}.cls-10{fill:#f7f7fa;}.cls-11{fill:#191384;}.cls-12{fill:#191284;}.cls-13{fill:#181282;}.cls-14{fill:#1a1283;}.cls-15{fill:#191383;}.cls-16{fill:#231989;}.cls-17{fill:#241a89;}.cls-18{fill:#29208c;}.cls-19{fill:#2c228d;}</style></defs><g id="Capa_2" data-name="Capa 2"><g id="Capa_1-2" data-name="Capa 1"><path class="cls-1" d="M26.85,251.15Q21.4,227.48,16,203.8C10.83,181.38,5.66,159,.65,136.51c-1.83-8.21.24-15.64,5.49-22.2q28-35,56-70Q75.5,27.57,88.87,10.79C94.63,3.51,102.08,0,111.37,0q66.21.06,132.42,0a26.84,26.84,0,0,1,22.07,10.62q41.34,51.78,82.76,103.49c5.79,7.23,7.37,15.29,5.34,24.15q-11.5,50.28-23.08,100.54L328.09,251c-3.32,2.56-7.22,4.07-10.95,5.84-8.87,4.21-17.7,8.52-26.57,12.73-16,7.6-31.95,15.38-48,23-18.11,8.62-36.08,17.53-54.31,25.89-7.77,3.56-15.65,3.11-23.2-.56-10.48-5.1-21-10.08-31.52-15.13q-30.15-14.49-60.36-28.88C58.81,267,44.37,260.1,30,253.18A8.47,8.47,0,0,1,26.85,251.15Z"/><path class="cls-2" d="M26.85,251.15q16.9,8,33.81,16,52.57,25.13,105.15,50.26a26,26,0,0,0,23.38-.06Q257.61,284.63,326,251.8c.67-.33,1.38-.57,2.08-.85-1.32,5.83-2.51,11.69-4,17.48-2,7.56-6.35,13.38-13.42,16.82-19.15,9.32-38.37,18.5-57.57,27.73L203,337.09c-4.65,2.23-9.27,4.53-13.95,6.7a26,26,0,0,1-23.13,0q-42.78-20.5-85.49-41.11c-11.17-5.38-22.29-10.86-33.56-16-9.19-4.21-14.78-11-16.68-20.91C29.2,260.84,28,256,26.85,251.15Z"/><path class="cls-3" d="M205,77.14c-2.62-1-4.17.38-6,2.47-4.14,4.66-9.58,6.13-15.63,4.31-1.73-.53-2.56-.34-3.55,1.23-7.66,12.12-24.21,11.48-31-1.16-.55-1-1-1.71-2.41-1.56a15.39,15.39,0,0,1-15.22-7c-3.6-5.26-3.94-11-1.1-16.79A14.26,14.26,0,0,1,135,52.76a2,2,0,0,0,.88-2.7c-3-10.29,1.77-20,11.74-23.79a19.33,19.33,0,0,1,20.37,5c1,1.08,1.41,1.14,2.52.22a17.07,17.07,0,0,1,25.22,3.23c.77,1.07,1.24,1.51,2.74,1,11.26-4,23.94,2.49,27.14,13.67,3.52,12.3-3.53,24.62-15.7,27.32A40.06,40.06,0,0,1,205,77.14Z"/><path class="cls-4" d="M292.33,134.55c0-5.65.05-11.31,0-17,0-1.74.55-2.35,2.3-2.31,4.41.09,8.82-.09,13.23.06,8.17.29,14.79,3.5,18.33,11.2,6,13.15-3.33,27.12-18.33,27.49-4.41.11-8.82-.05-13.23.05-1.76,0-2.32-.59-2.3-2.31C292.38,146,292.33,140.29,292.33,134.55Z"/><path class="cls-4" d="M107.77,134.64c0-5.65.07-11.31,0-17,0-1.89.62-2.46,2.45-2.4,4.48.16,9-.17,13.46.3,9.5,1,14.52,8.65,12.09,17.9a10.45,10.45,0,0,1-4.14,6.34c-1.52,1-1.19,1.74-.27,2.9,2.32,2.94,4.54,5.95,6.79,8.94.39.52.95,1,.64,1.78s-1.12.54-1.75.6c-.17,0-.34,0-.5,0-4.67.8-8.22-.58-10.28-5.1-.4-.89-1.31-1.56-1.69-2.45-1.38-3.23-4-3.47-7-3.17-1.11.11-1.42.51-1.4,1.53,0,2.24-.07,4.49,0,6.73.1,1.8-.45,2.49-2.37,2.5-6.07,0-6.07.1-6.07-6Z"/><path class="cls-4" d="M71.21,134.63c0-5.66.05-11.31,0-17,0-1.63.31-2.41,2.18-2.39,7.16.09,14.33.07,21.49,0,1.57,0,2.26.43,2.23,2.12-.14,7.06.76,5.67-5.54,5.79-3.33.06-6.67.07-10,0-1.45,0-2,.3-2.05,1.91-.14,6.56-.2,6.56,6.39,6.56,2.58,0,5.16,0,7.75,0,1.29,0,1.7.49,1.78,1.76.36,5.84.4,5.84-5.43,5.84-2.92,0-5.83.05-8.75,0-1.28,0-1.69.34-1.74,1.68-.17,5.33-.23,5.33,5.12,5.33,3.5,0,7,0,10.49,0,1.36,0,1.9.44,2,1.86.37,6,.41,6-5.58,6-5.75,0-11.5-.1-17.25,0-2.32.06-3.19-.5-3.11-3C71.34,145.62,71.21,140.12,71.21,134.63Z"/><path class="cls-4" d="M256.65,134.49c0-5.57.06-11.15,0-16.72,0-1.78.39-2.53,2.34-2.5q10.62.15,21.23,0c1.92,0,2.43.69,2.4,2.49-.14,6.47.66,5.35-5.43,5.43-3.41,0-6.82.06-10.24,0-1.34,0-1.86.29-1.9,1.77-.22,6.7-.27,6.7,6.46,6.7,2.5,0,5,.06,7.49,0,1.42,0,1.84.53,1.9,1.9.26,5.71.3,5.71-5.3,5.71-2.83,0-5.66.06-8.49,0-1.42,0-2.05.22-2.07,1.87-.06,5.15-.14,5.15,5,5.15,3.5,0,7,.05,10.49,0,1.53,0,2.08.57,2.05,2.06-.11,7.11.78,5.69-5.52,5.78-5.91.08-11.82-.06-17.73.06-2,0-2.76-.5-2.71-2.63C256.75,145.8,256.65,140.14,256.65,134.49Z"/><path class="cls-4" d="M48.4,114.77a29.13,29.13,0,0,1,11.88,2.45c1.33.59,1.65,1.28,1.1,2.71-1.93,5-1.88,5.1-7,3.64a17.9,17.9,0,0,0-9.6-.38,11.35,11.35,0,0,0-8.92,11.93,11.59,11.59,0,0,0,9.78,11.3,20.14,20.14,0,0,0,11.71-1.61c1.67-.72,2.42-.63,3.07,1.26,2,5.72,2.09,5.79-3.77,7.45-7.37,2.08-14.56,1.69-21.14-2.54a19.3,19.3,0,0,1-7.93-21.23,20.69,20.69,0,0,1,18.33-15C46.73,114.72,47.57,114.77,48.4,114.77Z"/><path class="cls-4" d="M202.58,134.54c0-5.66,0-11.32,0-17,0-1.73.51-2.31,2.27-2.29,7.08.08,14.16.09,21.24,0,1.94,0,2.41.71,2.37,2.49-.15,6.48.7,5.34-5.42,5.43q-5.25.07-10.49,0c-1.28,0-1.7.37-1.76,1.69-.35,7.21-.39,7.21,6.71,7.21,2.33,0,4.66.06,7,0,1.4,0,1.92.48,1.9,1.89-.14,7.08.85,5.59-5.55,5.73-2.66.06-5.33.12-8,0-1.74-.1-2.1.59-2.06,2.15.1,3.41,0,6.83.06,10.23,0,1.52-.52,2-2,2.05-6.21.21-6.21.26-6.21-5.81Z"/><path class="cls-5" d="M163.18,123.73a5.11,5.11,0,0,0-.24,2.68c0,8.4-.05,16.8,0,25.2,0,1.78-.45,2.48-2.38,2.48-6,0-6,.09-6-6,0-7.48-.08-15,0-22.45,0-2-.58-2.58-2.53-2.46-2.65.16-5.32,0-8,0-1.37,0-1.88-.5-2-1.9-.33-6-.37-6,5.53-6,8.24,0,16.48,0,24.72,0,1.93,0,2.86.35,2.79,2.59-.21,6.22.72,5.16-5.28,5.37-2.24.07-4.57-.69-6.73.5Z"/><path class="cls-5" d="M183.39,134.79c0-5.65.07-11.31,0-17,0-2,.61-2.57,2.58-2.56,5.84.06,5.84,0,5.84,5.7,0,10.15-.05,20.3,0,30.45,0,2.05-.56,2.72-2.66,2.69-5.77-.09-5.77,0-5.77-5.83Z"/><path class="cls-6" d="M237.56,134.54c0-5.65.05-11.31,0-17,0-1.72.51-2.3,2.27-2.31,6.13,0,6.13-.12,6.13,5.94,0,10.06,0,20.12,0,30.18,0,2.06-.6,2.73-2.69,2.71-5.72-.07-5.72,0-5.72-5.59Z"/><path class="cls-5" d="M311.6,189.8a29.68,29.68,0,0,0,0-3.91c-.34-2.36.65-3,2.88-2.85,1.63.09,2.14.52,2.12,2.16-.07,6.57,0,13.14,0,19.71,0,.9.73,2.26-.48,2.63s-2.82.71-3.77-.31-1.19-.34-1.81,0c-5.67,2.86-10.82.25-11.92-6a13.09,13.09,0,0,1,.37-6.4C300.63,189.5,304.94,187.72,311.6,189.8Z"/><path class="cls-5" d="M69.74,189.59v-3.65c0-2.64,1.57-3.7,4.06-2.81.87.31.8,1,.8,1.62q.09,10.86.17,21.71c0,.5.06,1.14-.61,1.15-1.28,0-2.87.7-3.75-.42-.69-.88-.92-.45-1.5-.16-6.21,3.18-11.42.41-12.28-6.49a13.07,13.07,0,0,1,.61-6.14,8.18,8.18,0,0,1,10.2-5.32C68.15,189.27,68.74,189.89,69.74,189.59Z"/><path class="cls-5" d="M38.09,195.25c0-3.33.06-6.66,0-10,0-1.53.26-2.26,2-2.2,4,.13,8,.12,12,0,1.8,0,1.76.9,1.78,2.17s-.08,2.23-1.82,2.13c-2.33-.14-4.67,0-7-.06-1.38-.05-2,.33-1.88,1.8a12.29,12.29,0,0,1,0,2.5c-.1,1.22.45,1.59,1.61,1.55,2-.07,4,.05,6,0,1.78-.08,1.46,1.1,1.51,2.16s0,2-1.53,1.89c-2-.09-4,0-6,0-1.18,0-1.54.38-1.61,1.56-.28,4.8-.33,4.8,4.35,4.8,1.83,0,3.67.06,5.5,0,1.57-.06,1.5.95,1.45,2s.37,2.28-1.42,2.26c-4.5,0-9,0-13.5,0-1.31,0-1.47-.69-1.46-1.73C38.11,202.4,38.09,198.83,38.09,195.25Z"/><path class="cls-5" d="M89.76,233.55c.12-4.79,1.49-9,5.95-11.33a13.56,13.56,0,0,1,13.37.21c.81.44,2.47.87,1.38,2.27-.78,1-1.21,3.05-3.56,1.67-3.81-2.24-8.13-1.56-10.18,1.23-2.42,3.3-2.11,9.89.59,12.58,2.23,2.22,6.3,2.43,9.5.48,1.47-.89,4,.11,4.31,1.73.19,1.07-.81,1.38-1.45,1.79a13.34,13.34,0,0,1-13.76.76C91.29,242.63,89.89,238.36,89.76,233.55Z"/><path class="cls-5" d="M219.08,195.57c0-4.76,1.29-8.92,5.6-11.33a13.58,13.58,0,0,1,13.59,0c.81.44,2.7.84,1.43,2.41-.81,1-1.35,2.94-3.66,1.52-3.59-2.22-8.22-1.4-10.16,1.38-2.48,3.54-2,10.18,1,12.73a7.71,7.71,0,0,0,9.3.1c2.34-1.74,3,.36,3.85,1.39,1.24,1.48-.58,1.94-1.41,2.44a13.19,13.19,0,0,1-13.55.51C220.53,204.43,219.15,200.24,219.08,195.57Z"/><path class="cls-5" d="M237.34,238.91c0,1.42,0,2.83,0,4.24,0,.85.86,2-.22,2.47s-2.78.68-3.8-.17c-.79-.66-1.09-.58-1.79-.11a7.85,7.85,0,0,1-5.78.9,5.16,5.16,0,0,1-4.54-4.61c-.36-3.18.67-5.3,3.13-6.44a16,16,0,0,1,6.09-1.15c.67,0,1.69.41,1.84-.69a1.92,1.92,0,0,0-1.62-2.19,7.33,7.33,0,0,0-5.35.56c-1.89,1-2-.51-2.62-1.52-.82-1.4.27-1.73,1.18-2.13a14.14,14.14,0,0,1,5.58-1.21c5.2,0,7.67,2.37,7.84,7.56,0,1.5,0,3,0,4.49Z"/><path class="cls-5" d="M135.74,201.18c0,1.25.06,2.5,0,3.74-.06.91.77,2.23-.48,2.63s-2.68.66-3.57-.22-1-.61-1.7-.16a7.78,7.78,0,0,1-5.29,1.05,5.25,5.25,0,0,1-5.05-4.66c-.45-3.36.68-5.56,3.47-6.68a20,20,0,0,1,5.89-1c.65-.06,1.66.41,1.72-.81a1.9,1.9,0,0,0-1.34-1.91,6.82,6.82,0,0,0-5.58.38c-1.77.83-2.08-.22-2.71-1.38-.87-1.6.34-1.85,1.29-2.29a12.72,12.72,0,0,1,5.34-1.11c5.39,0,7.8,2.29,8,7.66,0,1.58,0,3.16,0,4.74Z"/><path class="cls-5" d="M183.42,198.53c0,6-3.81,9.78-9.63,9.74s-9.51-4.05-9.44-10,3.74-9.52,9.53-9.53S183.45,192.51,183.42,198.53Z"/><path class="cls-5" d="M113.13,236.35c.07-5.85,3.79-9.54,9.56-9.49s9.53,3.92,9.47,9.89-3.92,9.72-9.74,9.64S113.06,242.42,113.13,236.35Z"/><path class="cls-5" d="M272.71,198.45c0,6-3.7,9.82-9.5,9.82s-9.52-3.92-9.5-9.87,3.63-9.59,9.41-9.62C269.08,188.75,272.71,192.41,272.71,198.45Z"/><path class="cls-7" d="M97.18,198.63c0,2.08,0,4.16,0,6.23,0,.92.77,2.27-.41,2.67s-2.81.68-3.81-.2c-.81-.73-1.13-.43-1.82-.1-6.09,2.9-11,0-11.15-6.74-.08-3.15.06-6.31,0-9.47-.07-2.07,1.29-1.71,2.49-1.7s2.59-.41,2.51,1.68c-.11,2.91-.06,5.82,0,8.72,0,3.09,1,4.45,3.12,4.52,2.25.08,4-1.64,4.11-4.41s.16-5.81,0-8.71c-.09-2,1.09-1.85,2.38-1.82s2.74-.35,2.61,1.86c-.14,2.49,0,5,0,7.47Z"/><path class="cls-7" d="M187.75,198.21c0-2.08,0-4.16,0-6.23,0-.86-.64-2.14.36-2.5,1.18-.42,2.83-.66,3.81.15s1.11.67,2,.23c5.94-3.07,11-.05,11.06,6.62,0,3.16-.08,6.32,0,9.47.08,2-1.22,1.77-2.45,1.74s-2.58.44-2.49-1.68c.12-3,.06-6,0-9s-1-4.13-3.14-4.23-4,1.41-4.12,4.06a79.08,79.08,0,0,0,0,8.71c.09,1.87-.69,2.26-2.32,2.14-1.4-.1-2.87.29-2.69-2,.18-2.48,0-5,0-7.47Z"/><path class="cls-7" d="M294.18,198.72c0,2.08-.05,4.15,0,6.23.07,2.56-2,4-4.14,2.45-1.06-.73-1.43-.41-2.22,0-5.56,2.72-10.62-.29-10.8-6.47-.09-3.15.12-6.32-.06-9.46-.13-2.18,1-2.11,2.58-2.17,1.78-.08,2.58.33,2.47,2.31-.16,2.82-.07,5.65,0,8.47,0,2,.34,3.92,2.91,4.18,2.16.21,4-1.45,4.2-4a70.47,70.47,0,0,0,0-8.72c-.13-2.08.84-2.25,2.51-2.24s2.69.13,2.53,2.24c-.19,2.39,0,4.81,0,7.22Z"/><path class="cls-7" d="M192.56,236.91c0,2-.06,4,0,6,.11,2.72-1.91,4.19-4.16,2.65-1-.71-1.39-.45-2.2,0-5.31,2.73-10.54-.21-10.85-6.19-.17-3.31.06-6.65-.08-10-.08-2,1.05-1.93,2.37-1.84s2.77-.54,2.67,1.77c-.14,3-.1,6,0,9,.05,1.87.34,3.74,2.78,4a3.67,3.67,0,0,0,4.27-3.56,62.16,62.16,0,0,0,.18-8.95c-.08-1.94.6-2.4,2.42-2.33,1.62.07,2.71.11,2.55,2.23-.17,2.4,0,4.82,0,7.23Z"/><path class="cls-5" d="M242.67,236.51c0-2.08.06-4.16,0-6.24-.08-2.56,1.93-3.93,4.15-2.49.85.56,1.15.59,2,.2,6.22-3,11,0,11,6.9,0,3.08-.1,6.17,0,9.24.09,2.11-1.28,1.69-2.46,1.7s-2.57.36-2.5-1.71c.12-3.08.08-6.16,0-9.24-.05-2.75-1-3.87-3.12-3.93a3.81,3.81,0,0,0-4.06,3.85c-.15,3.07-.18,6.16,0,9.23.1,2.29-1.39,1.76-2.64,1.8s-2.5.21-2.36-1.83c.17-2.48,0-5,0-7.48Z"/><path class="cls-5" d="M136.54,237.24c0-2.25,0-4.49,0-6.73,0-.95-.82-2.3.17-2.76a4,4,0,0,1,4,.15c.82.69,1.14.41,1.8.1,6.36-3,11.13,0,11.14,7.06,0,3-.11,6,0,9,.11,2.28-1.4,1.76-2.64,1.79s-2.49.27-2.38-1.79c.17-3.07.05-6.15,0-9.22,0-2-.57-3.65-2.95-3.86a3.7,3.7,0,0,0-4.17,3.65c-.19,2.48,0,5-.16,7.47-.09,1.61,1.11,3.83-2.38,3.87-3.66,0-2.33-2.31-2.47-4s0-3.16,0-4.73Z"/><path class="cls-5" d="M164.27,246.39a11,11,0,0,1-5.93-1.37c-.74-.44-1.63-.92-.77-1.87.66-.74.78-2.48,2.5-1.66a7.55,7.55,0,0,0,3.87.81c1.1-.07,2.27-.19,2.41-1.62.13-1.28-.87-1.66-1.86-2-1.18-.38-2.41-.66-3.55-1.14a5,5,0,0,1-3.34-5.29,5.12,5.12,0,0,1,3.73-4.8,10.5,10.5,0,0,1,8.46.58c.83.41,1.82.9.88,2-.64.76-.77,2.49-2.52,1.47a6,6,0,0,0-3.85-.76c-.88.11-1.66.42-1.73,1.45a1.54,1.54,0,0,0,1.26,1.63c1,.33,2.08.59,3.11.93,3.33,1.12,4.74,3,4.5,6-.23,2.81-2.19,4.79-5.37,5.37A17.21,17.21,0,0,1,164.27,246.39Z"/><path class="cls-7" d="M209.25,237c0-1,0-2,0-3,0-1.34.26-2.77-1.9-2.48-.88.11-1.1-.58-1-1.33s-.3-2,.84-2c2.29-.09,2.1-1.53,2.08-3.08,0-1.27,3.3-3.39,4.45-2.83,1,.47.52,1.49.48,2.22-.12,2.11-.07,3.87,2.89,3.27,1.44-.3,1.55.72,1.57,1.84s-.18,2.24-1.72,2c-2.5-.45-2.91.84-2.74,2.93a45.44,45.44,0,0,1,0,5.22c0,1.67.45,2.85,2.38,2.64,2.35-.26,1.62,1.69,1.87,2.73.34,1.45-1.05,1.19-1.85,1.28-4.93.56-7.31-1.6-7.33-6.61C209.24,238.77,209.25,237.86,209.25,237Z"/><path class="cls-7" d="M272.33,246.39c-4.27,0-6.35-1.94-6.48-5.9-.07-2,0-4,0-6,0-1.48.58-3.34-2.13-3.07-.9.09-.76-.92-.76-1.56s-.15-1.73.87-1.78c2.07-.1,2-1.41,2-2.9s3-3.38,4.36-3c.55.13.56.54.57.94a15.92,15.92,0,0,1,0,2.49c-.19,1.62.38,2.33,2.07,2.09,1.48-.21,2.46,0,2.45,2s-1.11,2-2.4,1.82c-1.62-.18-2.23.39-2.13,2.06.13,2.16,0,4.33,0,6.49,0,1.18.41,2.39,1.78,2.2,2.57-.36,2.58,1.57,2.49,2.93C274.91,247,273,245.8,272.33,246.39Z"/><path class="cls-7" d="M110.3,208.27c-5.4,0-8.73-3.45-9-9.22s3-9.78,8.28-10.23a12.48,12.48,0,0,1,4.93.51c2.57.83,2.69,1.36,1.32,3.7-.58,1-1.06.93-2,.54-2.24-1-4.55-1.44-6.41.71-1.61,1.86-1.6,6.17-.14,8.28,1.23,1.78,3.37,2.36,6,1.05,2.28-1.12,2.51.49,3.1,1.76.89,1.87-.85,1.81-1.78,2.18A10.78,10.78,0,0,1,110.3,208.27Z"/><path class="cls-7" d="M141.73,198.84c0-1.16,0-2.33,0-3.49s0-2.21-1.63-2c-.91.11-1.43-.28-1.35-1.27s-.3-2.07,1-2.15c1.7-.11,2-1,1.93-2.45-.07-1.76,2.33-3.66,4.13-3.46.68.07.76.5.76,1a18.6,18.6,0,0,1,0,2.24c-.21,1.66.3,2.52,2.14,2.26,1.42-.21,2.3.09,2.31,1.92s-1,2-2.34,1.89c-1.58-.19-2.26.33-2.13,2,.14,2.07.05,4.15,0,6.23,0,1.67.53,2.82,2.43,2.6s1.53,1.28,1.76,2.3c.36,1.53-.74,1.57-1.76,1.7-4.74.57-7.28-1.65-7.31-6.39C141.73,200.83,141.73,199.84,141.73,198.84Z"/><path class="cls-8" d="M244.23,195.45c0-3.49.11-7,0-10.47-.09-2.2,1.27-1.88,2.59-1.88s2.45-.26,2.42,1.78c-.1,7-.12,14,0,21,0,2.25-1.3,1.8-2.58,1.88-1.5.1-2.54,0-2.44-2C244.35,202.28,244.23,198.86,244.23,195.45Z"/><path class="cls-5" d="M202.94,233.66c0,3.49-.09,7,0,10.46.08,2.11-1.28,1.7-2.47,1.7s-2.49.4-2.47-1.7q.15-10.59,0-21.17c0-2.07,1.25-1.72,2.46-1.73S203,220.9,203,223C202.86,226.52,202.94,230.09,202.94,233.66Z"/><path class="cls-9" d="M159.8,198.62c0,2.5-.08,5,0,7.49.08,1.95-1.23,1.63-2.33,1.57s-2.66.62-2.63-1.56q.07-7.6,0-15.22c0-2.14,1.5-1.54,2.62-1.58s2.42-.39,2.34,1.57C159.72,193.46,159.8,196.05,159.8,198.62Z"/><path class="cls-10" d="M157.5,181.37c1.61.13,2.74.84,2.76,2.73s-1.1,2.86-2.95,2.87a2.61,2.61,0,0,1-2.88-3C154.5,182.19,155.67,181.41,157.5,181.37Z"/><path class="cls-11" d="M246.63,116.49v36.6h-.23v-36.7Z"/><path class="cls-12" d="M202.08,116.34v36.79h-.22V116.34Z"/><path class="cls-13" d="M237.11,116.49v36.1h-.23V116.39Z"/><path class="cls-14" d="M163.17,123.74c.18.35.52.71.52,1.07,0,9.45,0,18.91-.51,28.37V123.73Z"/><path class="cls-15" d="M153.87,153.22V124.44h.18v28.79Z"/><path class="cls-16" d="M300.76,134.79c0-3.15.06-6.31,0-9.47-.05-1.55.31-2.31,2.06-2.15s3.32,0,5,0c6.52.21,11.16,4.85,11.3,11.25a11.37,11.37,0,0,1-10.62,11.7c-7.69.74-7.69.74-7.69-6.88Z"/><path class="cls-17" d="M116.18,129.32a4.27,4.27,0,0,1,0-1.24c.5-1.6-1.34-4.23,1.23-4.78,5-1.07,8.76.69,9.66,3.91.95,3.37-.35,6.66-3.11,7.83-2.14.91-4.4.7-6.64.73-1.09,0-1.16-.66-1.16-1.48C116.19,132.64,116.19,131,116.18,129.32Z"/><path class="cls-17" d="M311.6,197.91c0,4.28-1.54,6.45-4.37,6.33s-4.24-2.94-3.69-7,3.15-5.42,6.46-3.94C312.36,194.39,311.36,196.4,311.6,197.91Z"/><path class="cls-17" d="M69.76,197.8a11.22,11.22,0,0,1-.32,3.57,4,4,0,0,1-4.18,2.86c-2.06-.13-3.05-1.53-3.45-3.36a10.76,10.76,0,0,1,0-4.69,4.31,4.31,0,0,1,7-2.4C70.41,194.94,69.43,196.56,69.76,197.8Z"/><path class="cls-18" d="M230.32,237.55c1,0,2-.31,2.05,1.18a3.71,3.71,0,0,1-3.67,3.58c-1.42.05-2.57-.44-2.47-2C226.4,237.58,228.64,237.83,230.32,237.55Z"/><path class="cls-19" d="M126.31,204.26c-.87,0-1.74-.71-1.72-2.25,0-1.75,1.68-2.61,4.68-2.62,1,0,1.57.17,1.52,1.34C130.72,202.54,128.92,204.24,126.31,204.26Z"/><path class="cls-17" d="M178.42,198.59c-.16,2-.28,4-2.32,5.15a4.25,4.25,0,0,1-6.31-2.69,9.75,9.75,0,0,1-.26-3.7c.4-3.18,1.78-4.61,4.49-4.54s4.08,1.6,4.34,4.75C178.39,197.89,178.4,198.22,178.42,198.59Z"/><path class="cls-17" d="M118.17,236.53c0-3.73,1.54-5.63,4.5-5.59s4.5,2,4.5,5.66-1.67,5.79-4.69,5.72S118.15,240.3,118.17,236.53Z"/><path class="cls-17" d="M258.72,198.35c0-3.63,1.69-5.61,4.61-5.54s4.45,2,4.42,5.73-1.59,5.69-4.47,5.71S258.69,202.11,258.72,198.35Z"/></g></g></svg>