<svg xmlns="http://www.w3.org/2000/svg" viewBox="0 0 354.95 347.97"><defs><style>.cls-1{fill:#231988;}.cls-2{fill:#f0c042;}.cls-3{fill:#459bd4;}.cls-4{fill:#fefefe;}.cls-5{fill:#fdfdfe;}.cls-6{fill:#fcfcfd;}.cls-7{fill:#fdfdfd;}.cls-8{fill:#fcfbfd;}.cls-9{fill:#fbfbfd;}.cls-10{fill:#fbfbfc;}.cls-11{fill:#faf9fc;}.cls-12{fill:#1b1484;}.cls-13{fill:#1a1384;}.cls-14{fill:#181283;}.cls-15{fill:#171382;}.cls-16{fill:#191384;}.cls-17{fill:#191283;}.cls-18{fill:#171283;}.cls-19{fill:#171282;}.cls-20{fill:#231989;}.cls-21{fill:#241a89;}.cls-22{fill:#2a208c;}.cls-23{fill:#271e8b;}.cls-24{fill:#271d8b;}</style></defs><g id="Capa_2" data-name="Capa 2"><g id="Capa_1-2" data-name="Capa 1"><path class="cls-1" d="M26.88,252.21q-4.45-19.44-8.9-38.86-8.67-38-17.3-76c-1.87-8.31.15-15.81,5.43-22.45L71.87,32.24C77.57,25.08,83.31,18,89,10.76A26.85,26.85,0,0,1,111.23,0q66.33,0,132.66,0A26.8,26.8,0,0,1,266,10.63q41.4,52.07,82.87,104.07c5.82,7.3,7.3,15.42,5.24,24.4q-12.74,55.62-25.41,111.26c-.13.57-.32,1.12-.49,1.67-1.75,1.92-4.2,2.64-6.43,3.71q-20.36,9.79-40.71,19.61-29.1,14.07-58.25,28.07-16.41,7.92-32.86,15.75a27.14,27.14,0,0,1-24.75,0c-17.46-8.43-35-16.75-52.43-25.17q-19.68-9.5-39.38-18.91C59.24,268.36,45.21,261.45,31,254.87,29.53,254.19,27.85,253.73,26.88,252.21Z"/><path class="cls-2" d="M26.88,252.21q21.51,10.28,43,20.56,47.94,23,95.86,46a26,26,0,0,0,23.6,0q68.49-33,137-65.94c.6-.29,1.23-.51,1.84-.76-1.41,6.23-2.58,12.53-4.29,18.68a24.51,24.51,0,0,1-13.39,15.94q-34,16.5-68.09,32.89-26.51,12.79-53,25.57a26,26,0,0,1-23.57.07Q112,319.26,58.18,293.26c-4.57-2.2-9.17-4.35-13.7-6.65a25.25,25.25,0,0,1-13.73-17.42C29.4,263.54,28.17,257.87,26.88,252.21Z"/><path class="cls-3" d="M204.49,77.36c-2.42-1.07-3.73.81-5.45,2.64a14.51,14.51,0,0,1-15.46,4.3c-2-.59-2.82-.22-3.9,1.54a17.58,17.58,0,0,1-30.57-1.15,3,3,0,0,0-3.24-1.85c-7.5.26-13.69-3.67-16.22-10.11-2.8-7.17-1.19-14.09,4.75-19.15,1.58-1.35,1.9-2.38,1.3-4.37-2.4-8,1.35-17,8.6-21.26s16.9-3.38,22.81,2.56c1.54,1.55,2.36,1.94,4.33.43a16.91,16.91,0,0,1,24.39,3.87c.82,1.15,1.42,1.42,2.8,1a20.79,20.79,0,0,1,24.74,8.79A21.46,21.46,0,0,1,221,70.65,20.49,20.49,0,0,1,204.49,77.36Z"/><path class="cls-4" d="M292.29,116.93c.41-1,1.23-1.16,2.23-1.15,4.65,0,9.31-.13,14,.08,15.06.67,24,14.64,17.66,27.74-3.5,7.26-9.78,10.64-17.64,11.05-4.64.24-9.3,0-14,.06-1,0-1.82-.06-2.23-1.1-.44-.39-.32-.92-.32-1.4q0-16.94,0-33.88C292,117.85,291.86,117.33,292.29,116.93Z"/><path class="cls-4" d="M107.8,135.24c0-5.66.06-11.31,0-17,0-1.78.39-2.58,2.35-2.51,4.4.16,8.85-.15,13.22.26,9.78.92,14.95,8.64,12.43,18.11a11,11,0,0,1-4.35,6.5c-1.13.78-1.11,1.32-.32,2.33,2.36,3,4.63,6.09,6.93,9.15.44.59,1.13,1.16.8,2s-1.28.58-2,.6c-6.73.18-6.73.18-10.65-5.26-1-1.41-2.1-2.8-3-4.27a2.44,2.44,0,0,0-2.44-1.26c-4.46.12-4.47.08-4.47,4.71,0,6.21,0,6.15-6.17,6.13-1.73,0-2.34-.51-2.31-2.27C107.86,146.73,107.8,141,107.8,135.24Z"/><path class="cls-4" d="M256.72,135.17c0-5.65.07-11.31,0-17,0-1.83.53-2.47,2.41-2.45q10.61.13,21.21,0c1.93,0,2.41.71,2.36,2.49-.17,6.48.8,5.37-5.36,5.46-3.49.05-7,.06-10.48,0-1.33,0-1.66.43-1.7,1.71-.27,6.8-.3,6.79,6.58,6.8,2.5,0,5,0,7.49,0,1.26,0,1.74.44,1.86,1.71.53,5.9.54,5.91-5.36,5.91-3,0-6,0-9,0-1.19,0-1.53.39-1.59,1.57-.29,5.46-.33,5.46,5.15,5.46,3.41,0,6.83.06,10.23,0,1.65,0,2.14.58,2.17,2.19.09,5.73.15,5.73-5.55,5.73s-11.48-.12-17.22.06c-2.46.07-3.35-.51-3.25-3.13C256.87,146.15,256.72,140.66,256.72,135.17Z"/><path class="cls-4" d="M71.22,135.24c0-5.74.06-11.47,0-17.21,0-1.76.57-2.29,2.3-2.27,7.16.08,14.31.07,21.47,0,1.63,0,2.21.55,2.18,2.17-.12,7,.74,5.64-5.55,5.77-3.24.06-6.49.09-9.73,0-1.65-.06-2.32.3-2.32,2.15,0,6.36-.07,6.36,6.32,6.36,2.49,0,5,.09,7.48,0,1.67-.08,2.12.58,2.15,2.17.09,5.46.15,5.46-5.3,5.46-3,0-6,0-9,0-1.12,0-1.58.23-1.66,1.49-.32,5.53-.37,5.53,5.12,5.53,3.41,0,6.82.06,10.23,0,1.57,0,2.21.43,2.26,2.1.17,5.81.23,5.81-5.49,5.81-6.08,0-12.15-.06-18.22,0-1.79,0-2.28-.59-2.26-2.3C71.27,146.71,71.22,141,71.22,135.24Z"/><path class="cls-4" d="M48.73,155.33c-8.65-.2-15.92-3.12-19.82-11.35A20.19,20.19,0,0,1,45.8,115.27a29.68,29.68,0,0,1,14.39,2.38c1.42.62,1.94,1.36,1.18,2.86s-1,3.67-2.22,4.64c-1.44,1.17-3.14-.72-4.77-1.11a19.33,19.33,0,0,0-9.61-.32,11.49,11.49,0,0,0-8.85,12.71,11.77,11.77,0,0,0,11.16,10.81,21.74,21.74,0,0,0,10.68-2c1.43-.66,2-.37,2.57,1.07,2.24,5.86,2.14,6.11-3.95,7.93A26,26,0,0,1,48.73,155.33Z"/><path class="cls-4" d="M202.63,135.11c0-5.57.06-11.15,0-16.72,0-1.83.33-2.68,2.45-2.64,7,.12,14,.09,21,0,1.8,0,2.53.46,2.48,2.38-.17,6.72.77,5.46-5.51,5.57-3.41.05-6.83.06-10.24,0-1.37,0-2,.33-1.89,1.81a50.09,50.09,0,0,1,0,5.48c-.06,1.34.48,1.71,1.76,1.69,3.91-.06,7.83,0,11.74,0,1.67,0,2.17.58,2.13,2.18-.13,6.67.73,5.34-5.33,5.46-2.75.05-5.5.12-8.24,0-1.74-.1-2.11.56-2.07,2.13.1,3.41,0,6.82.06,10.23,0,1.64-.56,2.12-2.18,2.15-6.11.08-6.11.13-6.11-5.91Z"/><path class="cls-5" d="M154.34,124.22c-2.52-1.15-5.16-.38-7.74-.46-5-.18-4.32.45-4.36-4.46,0-3.5,0-3.51,3.5-3.51,9,0,18,0,26.95,0,1.95,0,2.63.55,2.57,2.55-.19,6.37.75,5.28-5.45,5.42-2.14,0-4.92-.92-6.25.38s-.45,4.25-.47,6.46c-.07,7.06-.1,14.13,0,21.19,0,2.18-.45,3.08-2.88,3-5.62-.17-5.63,0-5.63-5.68,0-7.48,0-15,0-22.44a4.22,4.22,0,0,0-.24-2.43Z"/><path class="cls-6" d="M246.18,153.65c-.94,1.82-2.64,1-4,1-5.2,0-4.5.81-4.52-4.38,0-9.94,0-19.88,0-29.82,0-4.67,0-4.69,4.8-4.65,1.21,0,2.51-.37,3.59.54.69.37.42,1,.42,1.55q0,17.17,0,34.33C246.48,152.72,246.58,153.24,246.18,153.65Z"/><path class="cls-5" d="M183.35,117c.53-1.51,1.82-1.14,2.93-1.15,5.55,0,5.55,0,5.55,5.4,0,10.19-.09,20.39,0,30.59,0,2.47-.76,3.23-3.09,2.94a17.59,17.59,0,0,0-3.48,0,1.72,1.72,0,0,1-2-1.11c-.44-.39-.32-.92-.32-1.4q0-16.92,0-33.85C183,117.87,182.92,117.35,183.35,117Z"/><path class="cls-5" d="M287.16,190.42c0-1.6.1-3.26,0-4.91-.16-2.12,1.29-1.69,2.47-1.68s2.54-.45,2.5,1.67c-.09,5.73,0,11.46,0,17.2,0,1,.1,2,0,3s.72,2.41-.35,2.69c-1.25.34-3,1-4.05-.56-.66-.94-.91-.14-1.32.07-6.08,3.24-11.45.45-12.31-6.38a13.74,13.74,0,0,1,.43-5.92,8.25,8.25,0,0,1,11.11-5.46C286.08,190.29,286.48,190.69,287.16,190.42Z"/><path class="cls-5" d="M68.75,209.12a13.61,13.61,0,0,1-7.12-1.93c-.65-.42-1.79-.87-.76-1.81.81-.74.85-2.89,2.86-1.8a9.77,9.77,0,0,0,6.5,1.19c1.61-.27,2.86-1,3-2.8a3.07,3.07,0,0,0-2.35-3.39c-1.5-.5-3-.94-4.5-1.46-3.63-1.26-5.38-3.6-5.25-7s2.12-5.57,5.83-6.5A13.08,13.08,0,0,1,76.61,185c.78.42,1.85.89.86,2-.75.85-.9,2.8-2.88,1.68a8.84,8.84,0,0,0-5.79-1c-1.19.18-2.29.63-2.51,2a2.47,2.47,0,0,0,1.85,2.87c1.24.47,2.53.82,3.79,1.23,5,1.59,6.94,4.18,6.47,8.64-.4,3.73-3.41,6.2-8.15,6.64C69.76,209.16,69.25,209.12,68.75,209.12Z"/><path class="cls-5" d="M194.66,195.46c-.14-12.1,12-14.4,19.09-10.49.83.47,2.67.86,1.57,2.38-.78,1.09-1.33,3.06-3.79,1.6-5.59-3.32-11.12-.29-11.61,6.2-.24,3.23.09,6.52,3.13,8.44s6.21,1.45,9.13-.6c2.12-1.49,2.43.93,3.38,1.68,1.21,1-.08,1.57-.75,2a13.28,13.28,0,0,1-14,1.07C196.09,205.44,194.62,201.11,194.66,195.46Z"/><path class="cls-5" d="M84.63,234.6c.06-4.87,1.38-9.17,6-11.51a13.64,13.64,0,0,1,13.59.46c.72.42,2.26.91,1.06,2.14-.84.87-1.11,3-3.37,1.75-4.1-2.26-8.09-1.76-10.23,1-2.57,3.27-2.46,9.57.22,12.59,2.13,2.39,6.38,2.71,9.66.72a3,3,0,0,1,4.3,1.66c.25,1.21-.86,1.55-1.57,2a13.36,13.36,0,0,1-13.78.56C86,243.54,84.72,239.33,84.63,234.6Z"/><path class="cls-5" d="M232.24,240.2c0,1.32,0,2.65,0,4,.08,2.53-1.94,4-3.88,2.44-1.16-.92-1.54-.38-2.35,0-2.74,1.21-5.5,1.42-8-.48-2.22-1.69-2.31-4.09-1.72-6.56s2.58-3.55,4.89-4c1.38-.27,2.8-.31,4.19-.51.66-.09,1.69.42,1.84-.68a2,2,0,0,0-1.42-2.12,6.13,6.13,0,0,0-5.09.3c-2,1.13-2.64,0-3.23-1.5-.74-1.85,1-1.87,1.87-2.21a16,16,0,0,1,4.1-1c5.68-.53,8.67,2.19,8.76,7.86,0,1.49,0,3,0,4.48Z"/><path class="cls-5" d="M92.37,201.2c-1.41,0-2.83,0-4.24,0-.51,0-1.32-.37-1.48.41a2.64,2.64,0,0,0,.49,1.61c1.26,2,4.09,2.49,7.22,1.12,1-.45,1.76-.91,2.71.36,1.19,1.59.91,2.36-.77,3.19-4.2,2.08-9.55,1.55-12.34-1.34s-3.47-9.15-1.16-13.07a8.88,8.88,0,0,1,11-3.34c3.3,1.35,5.82,6.49,5,10-.24,1-.88,1-1.66,1Z"/><path class="cls-5" d="M175.1,201.2c-1.58,0-3.16.05-4.74,0-1.31-.05-1.36.53-1,1.52,1,2.37,4.12,3.25,7.39,1.64,1.79-.89,2.45-.18,3.32,1.11.65.95.36,1.4-.46,2-4,2.86-10.76,2.16-13.69-1.47-3.07-3.82-2.67-11,.8-14.25,2.5-2.37,7.43-2.89,10.5-1.1,2.8,1.63,4.79,6.49,4,9.6-.21.87-.72,1-1.44,1Z"/><path class="cls-5" d="M107.74,237.6c0-6,3.71-9.82,9.52-9.79s9.54,3.87,9.52,9.82-3.81,9.84-9.55,9.83S107.74,243.56,107.74,237.6Z"/><path class="cls-5" d="M229.13,199c.09-6,3.72-9.51,9.78-9.4,5.73.1,9.26,3.84,9.22,9.77s-3.95,9.92-9.83,9.79C232.61,209,229,205.07,229.13,199Z"/><path class="cls-6" d="M237.25,230.13c.38-1.55,2.82-2.48,4.41-1.39.8.54,1.12.64,2,.21,6.14-3.06,11.05,0,11.08,6.86,0,2.91-.16,5.83.05,8.73.15,2.14-.78,2.37-2.58,2.44-2.07.08-2.55-.67-2.46-2.57.15-2.82.07-5.65,0-8.48s-.95-3.91-3-4a3.73,3.73,0,0,0-4.07,3.79,76.71,76.71,0,0,0-.09,9c.11,2-.78,2.29-2.5,2.29s-2.5-.24-2.5-2.27c0-4.72.47-9.46-.27-14.17-.17-.07-.23-.15-.19-.25S237.2,230.13,237.25,230.13Z"/><path class="cls-7" d="M269.6,199.5c0,2.08,0,4.16,0,6.24,0,.92.75,2.27-.41,2.68s-2.89.72-3.79-.2-1.29-.42-2-.06c-5.65,2.86-10.79-.13-11-6.45-.1-3.24.11-6.5-.06-9.73-.11-2.28,1.34-1.82,2.6-1.84s2.52-.34,2.4,1.77c-.17,3-.07,6,0,9,0,2,.48,3.9,3,4.21a3.85,3.85,0,0,0,4.18-3.75c.27-2.64.13-5.32.18-8,0-1.64-.6-3.3,2.38-3.36,3.19-.06,2.51,1.78,2.53,3.5,0,2,0,4,0,6Z"/><path class="cls-7" d="M187.35,237.89c0,2.08.07,4.16,0,6.23,0,.9,1,2.22-.35,2.65s-2.93.7-3.8-.24-1.26-.42-1.94-.06c-5.56,2.91-10.87-.18-11-6.42-.07-3.16.13-6.33-.07-9.47-.14-2.2,1.05-2.09,2.58-2.16,1.74-.07,2.6.29,2.48,2.3-.17,2.9-.09,5.81,0,8.72.06,2.7,1.07,3.89,3.15,3.92a3.8,3.8,0,0,0,3.91-3.74,83.4,83.4,0,0,0,.05-9.22c-.11-2.17,1.17-1.93,2.54-2s2.63-.15,2.48,2c-.17,2.48,0,5,0,7.47Z"/><path class="cls-5" d="M131.3,237.53c0-2.08,0-4.16,0-6.23,0-.92-.73-2.27.42-2.67s2.86-.7,3.8.21,1.1.47,1.78.14c6.38-3.1,11.11-.12,11.14,7,0,3.07-.09,6.15,0,9.23.08,2.09-1.3,1.68-2.5,1.71s-2.51.24-2.42-1.79c.13-3.07.07-6.15,0-9.23,0-2.05-.5-3.87-3.09-4a3.81,3.81,0,0,0-4.11,3.8,81,81,0,0,0,0,9.22c.11,2.09-1,2-2.46,2s-2.72.29-2.57-1.92c.17-2.48,0-5,0-7.48Z"/><path class="cls-7" d="M158.79,247.49a10.38,10.38,0,0,1-4.69-1c-.86-.49-2.64-.58-1.72-2.32.64-1.19,1.3-2.59,3.21-1.43a5.58,5.58,0,0,0,3.89.51,1.78,1.78,0,0,0,1.73-1.52,1.69,1.69,0,0,0-1.35-1.85c-1.33-.46-2.73-.77-4-1.3a5.06,5.06,0,0,1-3.46-5.23,5.25,5.25,0,0,1,3.88-5,10.35,10.35,0,0,1,8.23.54c.79.38,1.92.84,1.06,2-.6.83-.77,2.7-2.66,1.54a5.59,5.59,0,0,0-3.36-.75c-.94.06-1.92.22-2.14,1.33s.66,1.6,1.57,1.9,1.93.53,2.87.85c3.2,1.08,4.62,2.93,4.5,5.78s-2,4.88-5.15,5.58C160.28,247.37,159.36,247.41,158.79,247.49Z"/><path class="cls-5" d="M124.73,202.92c1.26-4,2.33-7.32,3.41-10.68.57-1.75,3.61-2.92,5.15-2,.65.37.33.82.17,1.26-1.92,5.3-3.87,10.6-5.79,15.91-.71,2-2.37,1-3.63,1.18a2,2,0,0,1-2.5-1.4q-2.75-7.74-5.71-15.41c-.59-1.53.06-1.55,1.29-1.66,2.42-.21,4,.22,4.54,3.06A95.11,95.11,0,0,0,124.73,202.92Z"/><path class="cls-7" d="M260.73,238.13c0-1.24-.06-2.49,0-3.73s-.16-2.11-1.72-1.93c-.76.09-1.32-.24-1.23-1.12s-.46-2.18.83-2.26c2.27-.13,2.11-1.54,2.09-3.09,0-1.31,3.23-3.39,4.42-2.86.92.41.56,1.33.5,2-.22,2.34,0,4.08,3.11,3.56,1.6-.27,1.25,1.12,1.31,2s-.11,2-1.41,1.74c-3-.55-3.23,1.13-3,3.4a29,29,0,0,1,0,3.73c-.05,2.1-.2,4.06,3,3.77,1.57-.13.88,1.65,1.21,2.55s-.42,1.22-1.22,1.4c-4.71,1.07-7.88-1.4-7.93-6.2C260.72,240.13,260.73,239.13,260.73,238.13Z"/><path class="cls-7" d="M204.18,238.07c0-1.25,0-2.49,0-3.74s-.09-2-1.56-1.84c-1.06.12-1.52-.39-1.44-1.46.07-.88-.2-2,1.15-2.05,1.82-.06,1.84-1.19,1.82-2.54,0-1.67,2.65-3.73,4.23-3.35.51.13.6.51.61.92a14,14,0,0,1,0,2.24c-.22,1.76.27,2.73,2.26,2.39,1.57-.27,2.17.33,2.16,2s-.76,2-2.13,1.82c-1.94-.31-2.43.58-2.31,2.37.14,2.07,0,4.15,0,6.23,0,1.49.68,2.48,2.26,2.25,2.09-.3,1.71,1.25,2,2.35.35,1.53-.73,1.57-1.75,1.71-4.72.62-7.29-1.59-7.34-6.33C204.17,240.06,204.18,239.07,204.18,238.07Z"/><path class="cls-7" d="M155.62,189.6a12.6,12.6,0,0,1,3.44.49c2.64.89,2.73,1.27,1.45,3.65-.63,1.17-1.16.94-2.16.57-4.84-1.8-7.72.31-7.51,5.41.19,4.56,3.09,6.62,7.22,4.71,2.44-1.13,2.4.69,3,1.81.88,1.62-.57,1.8-1.53,2.1-3.9,1.24-7.82,1.61-11-1.62s-3.22-7.37-2-11.44C147.8,191.48,151.1,189.55,155.62,189.6Z"/><path class="cls-8" d="M224.7,196.23c0,3.49-.12,7,0,10.46.1,2.18-1.21,1.87-2.55,1.92s-2.49.06-2.45-2q.18-10.46,0-20.91c0-2.18,1.2-1.86,2.53-1.9s2.57-.09,2.47,2C224.58,189.26,224.7,192.75,224.7,196.23Z"/><path class="cls-9" d="M197.79,234.62c0,3.5-.1,7,0,10.48.08,2-1.08,1.85-2.38,1.83s-2.62.27-2.58-1.9q.16-10.47,0-20.95c0-2.41,1.47-1.81,2.8-1.94,1.55-.15,2.23.27,2.17,2C197.7,227.64,197.79,231.13,197.79,234.62Z"/><path class="cls-10" d="M102.82,191.69c.41-1.53,3.45-2.43,4.6-1.1.8.94,1,.58,1.62.11a4.23,4.23,0,0,1,2.5-1c.88,0,2-.52,2.54.39s.21,2.28,0,3.41c-.15.77-.9.52-1.45.57-3.05.3-4.32,1.52-4.47,4.56a68.56,68.56,0,0,0,0,7.72c.13,2-.71,2.34-2.47,2.3s-2.56-.1-2.54-2.21c0-4.63.42-9.28-.25-13.9C102.47,192.28,102.55,192,102.82,191.69Z"/><path class="cls-8" d="M141.66,199.61c0,2.48,0,5,0,7.45.05,2.19-1.56,1.44-2.64,1.5s-2.37.45-2.34-1.52q.12-7.69,0-15.4c0-2,1.33-1.52,2.36-1.47s2.68-.72,2.62,1.49C141.6,194.31,141.66,197,141.66,199.61Z"/><path class="cls-11" d="M142.07,185c-.17,2-1.31,2.81-3.19,2.72a2.52,2.52,0,0,1-2.64-2.92c0-2,1.3-2.71,3.14-2.65S142,183.33,142.07,185Z"/><path class="cls-12" d="M183.35,117q.33,18.33,0,36.66c-1.16.18-.55-.74-.55-1.06q-.06-17.56,0-35.14S182.13,115.81,183.35,117Z"/><path class="cls-13" d="M236.81,153.57V117h.24v36.71Z"/><path class="cls-14" d="M201.88,153.72V116.93h.21v36.79Z"/><path class="cls-15" d="M292.29,116.93q.33,18.34,0,36.68c-.75.39-.58-.24-.58-.56q0-17.78,0-35.55a2,2,0,0,1,.17-.66A2.88,2.88,0,0,1,292.29,116.93Z"/><path class="cls-16" d="M70.39,153.57V117h.24v36.71Z"/><path class="cls-17" d="M246.18,153.65q-.06-18.66-.13-37.3c.8.33.68,1.05.68,1.69q0,17.49,0,35a2.29,2.29,0,0,1-.14.68S246.32,153.67,246.18,153.65Z"/><path class="cls-13" d="M154.34,124.21v29.52c-.87-.47-.54-1.06-.54-1.52q0-12.83,0-25.67c0-.81-.23-1.69.55-2.32Z"/><path class="cls-18" d="M237.25,230.13a.27.27,0,0,1,0,.4v15.54h-.52q0-7.56,0-15.1C236.8,230.69,237.09,230.41,237.25,230.13Z"/><path class="cls-19" d="M102.82,191.69c0,.28.05.56.07.84v15.12h-.63C102.7,202.33,101.61,197,102.82,191.69Z"/><path class="cls-20" d="M301.16,124.27c5.48-2.42,13.74.14,16.55,5.13a11.68,11.68,0,0,1-3.35,15.28c-4.09,2.77-8.62,2.56-13.2,1.59.79-1.44,0-2.91,0-4.36C301.24,136,301.28,130.15,301.16,124.27Z"/><path class="cls-14" d="M301.16,124.27c.65.46.55,1.15.55,1.8v18.4c0,.65.11,1.34-.55,1.8Q300.64,135.27,301.16,124.27Z"/><path class="cls-20" d="M116.25,129.94a6.17,6.17,0,0,1,0-1.49c.4-1.55-1.14-3.84.89-4.63,3.39-1.31,8.33.46,9.6,2.94a6.39,6.39,0,0,1-4.8,9.43C116.25,137,116.25,137,116.25,129.94Z"/><path class="cls-21" d="M287.16,198.71c0,4.34-1.53,6.53-4.33,6.41-2.6-.1-4-2.48-3.74-6.49.25-4.2,3-6,6.47-4.48C287.94,195.21,286.89,197.22,287.16,198.71Z"/><path class="cls-22" d="M223.28,243.39c-1.11,0-2.08-.45-2.15-2-.09-1.88,1.34-2.84,4.35-2.87.92,0,1.88-.19,1.82,1.29A4,4,0,0,1,223.28,243.39Z"/><path class="cls-23" d="M89.8,197.3a6.4,6.4,0,0,1-1,0c-.77-.12-1.94.45-2.21-.41-.34-1,.45-2,1.33-2.7a3.66,3.66,0,0,1,4-.37,2.71,2.71,0,0,1,1.74,3c-.25,1.07-1.55.36-2.37.51A8.11,8.11,0,0,1,89.8,197.3Z"/><path class="cls-24" d="M172.63,197.29a7.33,7.33,0,0,1-1.24,0c-.77-.12-1.95.49-2.23-.41-.33-1.07.47-2.05,1.36-2.72a3.63,3.63,0,0,1,3.55-.49,2.8,2.8,0,0,1,2.11,3c-.21,1.24-1.67.4-2.55.61A4.18,4.18,0,0,1,172.63,197.29Z"/><path class="cls-21" d="M121.77,237.55c0,3.8-1.59,5.86-4.55,5.83s-4.39-1.95-4.43-5.67,1.5-5.84,4.51-5.8S121.76,233.89,121.77,237.55Z"/><path class="cls-21" d="M243.18,198.93a7.36,7.36,0,0,1-1.27,4.73,4.29,4.29,0,0,1-7.07-.81,8.67,8.67,0,0,1-.59-5.1c.38-2.72,1.7-4,4.11-4.1,2.6-.09,4,1.11,4.63,3.84C243.11,198.05,243.14,198.63,243.18,198.93Z"/></g></g></svg>