<svg xmlns="http://www.w3.org/2000/svg" viewBox="0 0 354.55 346.54"><defs><style>.cls-1{fill:#231988;}.cls-2{fill:#f0c042;}.cls-3{fill:#459bd4;}.cls-4{fill:#fefefe;}.cls-5{fill:#fdfdfe;}.cls-6{fill:#fdfdfd;}.cls-7{fill:#fbfbfd;}.cls-8{fill:#fcfcfd;}.cls-9{fill:#fbfbfc;}.cls-10{fill:#f7f6fa;}.cls-11{fill:#f7f7fa;}.cls-12{fill:#1a1384;}.cls-13{fill:#191384;}.cls-14{fill:#191283;}.cls-15{fill:#231989;}.cls-16{fill:#241a89;}.cls-17{fill:#281e8b;}.cls-18{fill:#312790;}.cls-19{fill:#2f268f;}</style></defs><g id="Capa_2" data-name="Capa 2"><g id="Capa_1-2" data-name="Capa 1"><path class="cls-1" d="M26.75,251.16,2.09,143.45c-.48-2.11-1-4.2-1.45-6.32a26.49,26.49,0,0,1,5.55-22.94Q44.32,66.51,82.4,18.78c2.34-2.93,4.66-5.87,7-8.77A25.8,25.8,0,0,1,110.3,0Q177.23,0,244.17,0a25.58,25.58,0,0,1,20.88,10q41.81,52.26,83.54,104.58a25.55,25.55,0,0,1,5.24,22.53q-12.78,56.31-25.69,112.58c-.09.41-.23.8-.35,1.2-2,2.27-4.89,3.14-7.5,4.3-5.86,2.62-11.57,5.53-17.34,8.31q-22.72,11-45.46,21.87c-16.72,8.07-33.47,16.06-50.2,24.1-6.3,3-12.54,6.2-18.94,9-7.42,3.25-14.94,3.39-22.27,0-13-6.08-25.84-12.34-38.74-18.54q-29-14-58.12-27.79C56.15,265.86,43.16,259.45,30,253.43A8.58,8.58,0,0,1,26.75,251.16Z"/><path class="cls-2" d="M26.75,251.16q24.77,11.8,49.54,23.6Q120.65,296,165,317.2a27.05,27.05,0,0,0,24.72-.06q68.46-32.92,137-65.78c.37-.18.76-.32,1.14-.48-1.37,6.07-2.57,12.2-4.17,18.21A24.74,24.74,0,0,1,310,285.51q-54.15,26.17-108.4,52.15l-12.12,5.88c-8,3.86-16,4.07-24,.19L103.86,314.1Q74.63,300,45.38,286c-7.81-3.76-12.9-9.79-14.87-18.31C29.23,262.18,28,256.67,26.75,251.16Z"/><path class="cls-3" d="M153.08,25.29c6.31-.08,10.92,1.94,14.6,5.93,1.08,1.16,1.63,1,2.78.11,8.3-6.43,18.68-5,25.06,3.36.93,1.23,1.66,1.36,3.07.9a21.27,21.27,0,1,1,9.25,41.33c-.57.08-1.21.41-1.71.27-4-1.19-6.11,1.28-8.73,3.72-4.09,3.83-9.24,4.73-14.65,2.92-1.42-.48-2.09-.35-2.93,1-3.63,6.06-9.09,9.21-16.18,8.88-6.76-.31-11.76-3.73-15-9.69-.53-1-.88-1.78-2.36-1.61a16.13,16.13,0,0,1-17.84-13.41,15.85,15.85,0,0,1,6-15.92,2.82,2.82,0,0,0,1.1-3.53C132.16,37,141,25.27,153.08,25.29Z"/><path class="cls-4" d="M292,134.6c0-5.66.05-11.31,0-17,0-1.7.5-2.38,2.28-2.34,4.57.1,9.16-.1,13.72.08,14.36.57,23.38,13.4,18.33,26.2-3.22,8.17-9.78,11.94-18.27,12.44-4.65.27-9.32,0-14,.09-1.74,0-2.08-.77-2.07-2.28C292,146.08,292,140.34,292,134.6Z"/><path class="cls-4" d="M107.61,134.55c0-5.58.08-11.16,0-16.74,0-2,.66-2.59,2.6-2.52,4,.13,8-.13,12,.13,10.44.67,16.07,8.44,13.39,18.25a11,11,0,0,1-4.23,6.3c-1.17.83-1.23,1.41-.35,2.52,2.38,3,4.66,6.07,6.95,9.14.42.56,1.17,1.11.64,2-.43.7-1.19.46-1.83.48-6.76.24-6.76.24-10.7-5.22-1-1.35-2-2.66-2.9-4.06a2.85,2.85,0,0,0-2.84-1.5c-4.27.16-4.27.09-4.27,4.43v.5c0,6.36-.46,6.71-6.9,5.88-1.64-.21-1.5-1.24-1.5-2.32Z"/><path class="cls-4" d="M71.05,134.58c0-5.66.06-11.32,0-17,0-1.72.5-2.34,2.27-2.32q10.72.12,21.46,0c1.78,0,2.3.64,2.26,2.34-.16,6.62.82,5.48-5.51,5.57-3.41,0-6.82.08-10.23,0-1.45,0-1.78.47-1.82,1.85-.15,6.65-.2,6.65,6.5,6.65,2.41,0,4.83.08,7.24,0,1.67-.08,2.17.59,2.14,2.18-.12,6.72.7,5.3-5.34,5.43-2.83.06-5.66.07-8.49,0-1.42,0-2,.24-2.06,1.88,0,5.13-.12,5.13,5,5.13,3.49,0,7,0,10.48,0,1.5,0,2.07.52,2,2-.15,7,.89,5.71-5.5,5.79-6,.07-12-.06-18,.06-2,0-2.55-.63-2.52-2.57C71.13,145.89,71.05,140.23,71.05,134.58Z"/><path class="cls-4" d="M256.37,134.52c0-5.57.06-11.15,0-16.72,0-1.76.34-2.55,2.32-2.52,7.16.1,14.31.08,21.47,0,1.64,0,2.21.56,2.17,2.18-.13,6.9.81,5.62-5.6,5.72-3.42.06-6.83.07-10.24,0-1.33,0-1.65.45-1.7,1.72-.25,6.78-.29,6.78,6.38,6.78,2.5,0,5,0,7.49,0,1.37,0,1.88.41,2,1.84.29,5.77.34,5.77-5.51,5.77-2.83,0-5.66.07-8.49,0-1.45-.05-1.8.47-1.83,1.86-.11,5.15-.16,5.14,5,5.14,3.5,0,7,0,10.49,0,1.51,0,2.07.55,2,2.05-.13,7.06.83,5.71-5.52,5.79-5.82.08-11.65-.08-17.48.06-2.21.06-3.07-.46-3-2.87C256.49,145.68,256.37,140.1,256.37,134.52Z"/><path class="cls-4" d="M48.26,114.78a29.53,29.53,0,0,1,11.65,2.34c1.52.64,2,1.33,1.31,3-2,4.94-1.9,5-6.85,3.47a18.89,18.89,0,0,0-7.39-.82c-6.92.66-11.31,5.51-11.12,12.3.18,6.54,4.91,11.28,11.64,11.6a21.47,21.47,0,0,0,10-1.91c1.42-.65,2.14-.62,2.78,1,2.21,5.69,2.08,6.07-3.84,7.79a27.13,27.13,0,0,1-13.57.48c-10.44-2.27-16.61-10.6-15.8-21.3.72-9.39,9.06-17.31,19-18C46.76,114.73,47.52,114.78,48.26,114.78Z"/><path class="cls-4" d="M202.32,134.66c0-5.66.06-11.32,0-17,0-1.89.58-2.43,2.43-2.41,7,.1,14,.09,21,0,1.77,0,2.56.4,2.51,2.34-.18,6.73.76,5.46-5.51,5.57-3.41.06-6.83.06-10.24,0-1.32,0-2,.25-1.91,1.77a50.27,50.27,0,0,1,0,5.49c-.07,1.36.52,1.69,1.77,1.67,3.91-.05,7.82,0,11.73-.05,1.63,0,2.22.55,2.19,2.16-.09,6.79.59,5.35-5.33,5.48-2.75.06-5.5.1-8.24,0-1.63-.07-2.19.41-2.13,2.08.12,3.33,0,6.66.06,10,.05,1.64-.35,2.35-2.19,2.37-6.07.06-6.06.14-6.06-6Z"/><path class="cls-4" d="M158.56,115.32c4.74,0,9.49.05,14.23,0,1.63,0,2.2.54,2.16,2.17-.17,6.89.91,5.59-5.58,5.74-2.07.05-4.79-.66-6,.38-1.45,1.23-.46,4.06-.48,6.18q-.11,10.88,0,21.73c0,1.89-.47,2.64-2.52,2.63-6,0-6,0-6-5.85,0-7.65,0-15.31,0-23,0-1.58-.35-2.23-2.07-2.14-2.66.15-5.33,0-8,.07-1.64.05-2.43-.37-2.38-2.22.21-6.87-1-5.57,5.6-5.69C151.23,115.27,154.89,115.32,158.56,115.32Z"/><path class="cls-5" d="M191.55,134.81c0,5.66-.05,11.31,0,17,0,1.68-.43,2.33-2.23,2.35-6.11.07-6.11.13-6.11-5.94,0-10.06,0-20.13,0-30.19,0-2,.49-2.76,2.64-2.72,5.71.1,5.71,0,5.71,5.82Z"/><path class="cls-5" d="M237.33,134.55c0-5.66.06-11.31,0-17,0-1.73.5-2.3,2.26-2.31,6.09,0,6.09-.1,6.09,6,0,10.06-.05,20.12,0,30.18,0,2.07-.62,2.71-2.69,2.68-5.67-.07-5.67,0-5.67-5.61Z"/><path class="cls-5" d="M146,189.61v-3.89c0-2.3,2.15-3.52,4.3-2.48.7.33.62.9.62,1.47q.07,10.85.13,21.69c0,.49.11,1.18-.48,1.24-1.28.13-2.9.68-3.78-.29-.74-.81-.93-.65-1.67-.26-5.94,3.18-11.3.37-12.18-6.3a13.06,13.06,0,0,1,.66-6.62,8.17,8.17,0,0,1,10.36-5C144.53,189.38,145.06,189.92,146,189.61Z"/><path class="cls-5" d="M172.3,182.59a12.2,12.2,0,0,1,6.31,1.4c.78.44,2.52.57,1.54,2.16-.7,1.13-1.19,2.95-3.33,1.63a7.65,7.65,0,0,0-5.32-.88c-1.27.21-2.45.65-2.62,2.21a2.51,2.51,0,0,0,2,2.78c1.72.61,3.5,1.07,5.19,1.75,3.79,1.53,5.23,3.84,5,7.7-.22,3.33-2.38,5.69-6.14,6.57a14,14,0,0,1-10.59-1.52c-.67-.39-1.79-.85-.82-1.81.79-.78.87-2.91,2.85-1.83a9.77,9.77,0,0,0,6.73,1.16,3.1,3.1,0,0,0,.66-6c-1.32-.51-2.69-.88-4-1.32-4.42-1.43-6.36-4-5.91-7.72.43-3.57,3.2-5.84,7.58-6.2C171.78,182.6,172.19,182.59,172.3,182.59Z"/><path class="cls-5" d="M104.26,220.71a12.78,12.78,0,0,1,7.55,2.14c.61.42,1.78.93.82,1.86s-1.18,2.86-3.16,1.93c-.37-.17-.7-.44-1.07-.62-5.33-2.58-10.18-.06-11.1,5.75a12,12,0,0,0,0,4c1,5.62,6.2,8.22,11,5.14,2.07-1.31,3-.74,4.23.72.84.95.7,1.47-.2,2.19-5.4,4.37-17.59,4.08-20.08-6.26C90.07,228.17,95.25,220.74,104.26,220.71Z"/><path class="cls-5" d="M228.52,238.56c0,1.5.07,3,0,4.48-.06.91.95,2.2-.29,2.65s-2.82.7-3.77-.25-1.2-.37-1.79,0a8.12,8.12,0,0,1-5.54.88,5.19,5.19,0,0,1-4.69-4.46c-.47-3.18.6-5.46,3.15-6.64a16,16,0,0,1,6.08-1.1c.65,0,1.65.43,1.82-.7a1.9,1.9,0,0,0-1.38-2.12,7.09,7.09,0,0,0-5.57.46c-1.84.9-2-.43-2.65-1.47-.83-1.39.19-1.7,1.11-2.14a13.57,13.57,0,0,1,4.8-1.2c5.73-.46,8.6,2.16,8.7,7.89,0,1.24,0,2.49,0,3.73Z"/><path class="cls-5" d="M113.48,236.57c0-5.89,3.63-9.62,9.39-9.67s9.62,3.75,9.63,9.71-3.74,9.82-9.54,9.81S113.46,242.56,113.48,236.57Z"/><path class="cls-5" d="M114.45,200.38c-1.41,0-2.83,0-4.24,0-.52,0-1.24-.32-1.53.39s.19,1.13.49,1.61c1.27,2.07,4.07,2.51,7.44,1,1-.46,1.64-.58,2.48.47,1.23,1.56,1,2.32-.75,3.16-4.19,2.07-9.55,1.57-12.35-1.32s-3.44-8.72-1.37-12.63c2-3.73,6.73-5.35,11-3.76,3.43,1.27,5.94,6.19,5.13,9.9-.22,1-.76,1.15-1.59,1.13C117.61,200.36,116,200.38,114.45,200.38Z"/><path class="cls-5" d="M272.24,200.38c-1.5,0-3,.05-4.48,0s-1.66.63-1,1.8c1.15,2.18,4,2.73,7.35,1.43.75-.3,1.42-1.17,2.39-.09,1.67,1.85,1.62,2.52-.64,3.63-4.24,2.09-9.54,1.43-12.28-1.54s-3.26-8.8-1.13-12.64c2-3.66,6.9-5.22,11.09-3.54,3.37,1.34,5.85,6.46,4.94,10-.23.88-.77,1-1.47,1Z"/><path class="cls-5" d="M194.24,200.38c-1.41,0-2.82,0-4.23,0-.53,0-1.26-.3-1.52.44s.19,1.13.5,1.61c1.28,2,4,2.4,7.25,1.11.77-.31,1.44-1.09,2.37,0,1.64,1.93,1.6,2.46-.75,3.6-4.16,2-9.37,1.4-12.1-1.44s-3.38-8.76-1.33-12.62a8.9,8.9,0,0,1,11-3.75c3.43,1.28,5.81,6,5.08,9.91-.19,1-.77,1.12-1.57,1.12Z"/><path class="cls-5" d="M188.33,236.8c0,2.08,0,4.16,0,6.23,0,.92.76,2.26-.37,2.67s-2.87.69-3.82-.16-1.29-.42-2-.06c-5.43,2.73-10.59,0-10.95-6-.22-3.48,0-7-.07-10.48,0-2.19,1.58-1.43,2.66-1.5s2.4-.38,2.34,1.57c-.1,3-.06,6,0,9s1,4.21,3.05,4.32c2.24.11,4-1.38,4.15-4.07a78.94,78.94,0,0,0,.06-9c-.08-1.94,1-1.92,2.35-1.87s2.74-.34,2.61,1.87c-.13,2.49,0,5,0,7.48Z"/><path class="cls-5" d="M135.35,237.44c0-2.41,0-4.82,0-7.23,0-.86-.82-2.06.19-2.5,1.25-.53,3-.8,4,.16s1.22.46,1.92.1c5.89-3,11,.09,11,6.73,0,3.15-.1,6.32,0,9.47.09,2.13-1.29,1.7-2.46,1.68s-2.61.55-2.54-1.62c.11-3.15,0-6.31,0-9.47,0-2-.63-3.63-3-3.78a3.65,3.65,0,0,0-4.06,3.51,82.92,82.92,0,0,0-.1,9.46c.11,2.21-1.21,1.89-2.55,1.93s-2.63.15-2.45-2,0-4.32,0-6.48Z"/><path class="cls-5" d="M232.35,236.31c0-2,0-4,0-6,0-.92-.89-2.3.3-2.69s3-.8,4,.32,1.15.35,1.71.06c6.07-3.08,11.08,0,11.1,6.81,0,3.16-.09,6.32,0,9.48.07,2-1.26,1.58-2.33,1.52s-2.68.7-2.64-1.5c.06-3.16,0-6.31,0-9.47,0-2-.51-3.67-2.91-3.88a3.73,3.73,0,0,0-4.19,3.65,78.8,78.8,0,0,0-.07,9.22c.14,2.33-1.28,1.94-2.68,2-1.59.11-2.46-.18-2.33-2.1.16-2.48,0-5,0-7.48Z"/><path class="cls-5" d="M77.05,195.41c0-3.4,0-6.81,0-10.22,0-1.4.21-2.12,1.87-2.07,4.07.11,8.14.1,12.21,0,1.71-.05,1.85.78,1.85,2.13s-.11,2.23-1.84,2.14c-2.32-.12-4.65,0-7,0-1.44-.06-2.1.26-2.05,1.9.16,5.29-.59,4.14,4.11,4.28a14.74,14.74,0,0,0,2.74,0c2.42-.41,2.77.84,2.61,2.84-.09,1.11-.49,1.44-1.52,1.42-2.07,0-4.15.05-6.23,0-1.32-.06-1.75.43-1.7,1.73.08,2.24,0,4.49,0,6.73.06,2.41-1.73,1.41-2.83,1.53s-2.35.34-2.29-1.59C77.13,202.56,77.05,199,77.05,195.41Z"/><path class="cls-6" d="M161.46,246.42a11,11,0,0,1-5.85-1.36c-.72-.43-1.63-.9-.74-1.88.67-.74.79-2.5,2.5-1.66a7.72,7.72,0,0,0,4.11.82c1.05-.09,2-.34,2.14-1.63s-.68-1.61-1.61-1.91c-1.26-.41-2.57-.7-3.8-1.2a5.35,5.35,0,0,1,0-9.89,10.33,10.33,0,0,1,9.14.51c.82.43,1.48,1,.65,1.9-.62.69-.69,2.34-2.29,1.56a6.76,6.76,0,0,0-4.33-.8,1.53,1.53,0,0,0-1.44,1.18,1.47,1.47,0,0,0,1,1.76c.94.34,1.9.61,2.85.9,3.54,1.08,5.2,3,5,5.91-.19,3.05-2.42,5.18-6,5.67C162.28,246.38,161.69,246.4,161.46,246.42Z"/><path class="cls-5" d="M224.64,202.13c1.28-4.11,2.34-7.52,3.41-10.92.5-1.57,3.8-2.68,5.09-1.72.65.48.26,1,.08,1.56-1.87,5.15-3.8,10.28-5.61,15.45-.45,1.29-1.33,1.39-2.34,1.23-1.26-.2-3,.84-3.69-1.08-2-5.35-4-10.72-6-16.08-.15-.4-.32-.75.11-1.08,1.21-.93,4.91.17,5.39,1.63C222.19,194.58,223.31,198,224.64,202.13Z"/><path class="cls-6" d="M202,237c0-1,0-2,0-3,.06-1.39.17-2.73-1.94-2.45-.89.11-1.05-.59-1-1.34s-.22-2,1.12-2.1c1.49-.11,1.91-.81,1.84-2.26-.09-1.9,2.37-3.87,4.23-3.62.73.1.68.6.7,1.08a14,14,0,0,1,0,2.24c-.24,1.75.44,2.47,2.19,2.19s2.33.36,2.3,2.17-1.12,1.79-2.3,1.65c-1.75-.2-2.34.46-2.21,2.21.15,2,.07,4,0,6,0,1.67.43,2.86,2.37,2.63,2.17-.27,1.54,1.49,1.86,2.49.46,1.46-.73,1.38-1.61,1.5-5,.7-7.53-1.56-7.55-6.63Z"/><path class="cls-6" d="M253.83,237.05c0-1.33,0-2.66,0-4,0-1-.23-1.61-1.37-1.52-.91.07-1.64,0-1.6-1.28s-.09-2.24,1.49-2.3c1.41,0,1.45-1,1.45-2.06a4.07,4.07,0,0,1,4.14-3.7c.7.07.76.53.78,1a14,14,0,0,1,0,2.24c-.2,1.68.35,2.51,2.16,2.24,1.47-.22,2.23.17,2.25,2s-1,2-2.32,1.88c-1.63-.2-2.2.43-2.1,2.06.12,2.15,0,4.32,0,6.48,0,1.48.59,2.47,2.21,2.27,2.25-.28,1.78,1.47,2,2.62.28,1.46-.94,1.29-1.79,1.39-4.89.59-7.31-1.59-7.33-6.57C253.82,238.87,253.83,238,253.83,237.05Z"/><path class="cls-6" d="M244.33,198.52c-.11-9.14,8.09-11.25,14.15-8.78,1.18.48,1.63,1.14.82,2.23-.61.82-.44,2.6-2.52,1.65-3.1-1.4-5.26-.94-6.54.91-1.41,2-1.33,6.46.22,8.29,1.7,2,3.93,1.84,5.92.81,2.35-1.21,2.44.66,3.05,1.85.89,1.72-.76,1.75-1.6,2.06C250.24,210.34,244.33,206.37,244.33,198.52Z"/><path class="cls-7" d="M197.22,233.57c0,3.49-.1,7,0,10.47.09,2.24-1.34,1.8-2.62,1.83s-2.38.21-2.34-1.82q.18-10.47,0-21c0-2,1-1.89,2.34-1.85s2.71-.39,2.62,1.84C197.12,226.58,197.22,230.07,197.22,233.57Z"/><path class="cls-8" d="M124.21,195.5c0-3.49.1-7,0-10.47-.08-2.17,1.26-1.89,2.6-1.89s2.42-.26,2.38,1.8q-.18,10.45,0,20.94c0,2.18-1.22,1.83-2.54,1.9-1.52.07-2.53-.07-2.44-2.06C124.31,202.32,124.21,198.91,124.21,195.5Z"/><path class="cls-8" d="M203.94,198.46c0-2.17,0-4.33,0-6.49,0-.85-.66-2.14.4-2.47s2.94-.72,3.79.2,1,.79,1.82.21a4.23,4.23,0,0,1,2-.89c1.09-.1,2.82-1,3,.85.15,1.34.93,3.62-2.22,3.47-2.27-.11-3.71,1.79-3.81,4.4s-.15,5.49,0,8.23c.11,2-1.13,1.83-2.39,1.79s-2.76.44-2.63-1.82c.15-2.49,0-5,0-7.48Z"/><path class="cls-7" d="M99.88,198.52c0,2.48-.1,5,0,7.46.12,2.27-1.43,1.71-2.66,1.78s-2.38.13-2.33-1.84c.13-5,.11-9.94,0-14.91,0-2.15,1.35-1.63,2.5-1.65s2.58-.38,2.48,1.7C99.79,193.54,99.88,196,99.88,198.52Z"/><path class="cls-9" d="M240.72,198.62c0,2.42-.12,4.84,0,7.24.14,2.18-1.23,1.91-2.57,1.91s-2.45.22-2.4-1.8c.12-4.91.14-9.82,0-14.73-.06-2.17,1.21-1.85,2.55-1.92,1.52-.06,2.56.07,2.44,2.07C240.6,193.79,240.72,196.21,240.72,198.62Z"/><path class="cls-10" d="M97.26,187a2.52,2.52,0,0,1-2.78-2.83c0-1.88,1.12-2.67,2.83-2.72,1.89-.06,3,.91,3,2.83S99.23,186.94,97.26,187Z"/><path class="cls-11" d="M238.23,181.41c1.88.07,2.91,1,2.92,2.76,0,2-1.13,2.84-3,2.8s-2.79-.87-2.81-2.73C235.33,182.21,236.52,181.49,238.23,181.41Z"/><path class="cls-12" d="M246.29,116.39V153.1h-.18V116.4Z"/><path class="cls-13" d="M201.58,153.2V116.5h.18v36.7Z"/><path class="cls-14" d="M182.59,153.2V116.5h.18v36.7Z"/><path class="cls-15" d="M300.42,134.57c0-3.16.09-6.33,0-9.49-.07-1.62.59-2,2-1.89,1.66.1,3.33,0,5,0a11.3,11.3,0,0,1,11.35,11.25,11.43,11.43,0,0,1-10.65,11.72c-7.7.7-7.7.7-7.7-6.87Z"/><path class="cls-16" d="M116,129.43c0-.5-.18-1.08,0-1.48.78-1.5-1.89-4.39,1.59-4.69,6.25-.53,9.08,1.14,9.46,5.09.43,4.5-1.62,7-6.07,7.36-5,.43-5,.43-5-4.53Z"/><path class="cls-16" d="M146,197.87a10.29,10.29,0,0,1-.38,3.7,3.93,3.93,0,0,1-3.82,2.69,3.48,3.48,0,0,1-3.57-2.91,11.72,11.72,0,0,1-.3-3.45c.14-3.34,1.72-5.14,4.28-5.06C145.07,192.93,146,194.1,146,197.87Z"/><path class="cls-17" d="M222.05,237.6c1-.16,1.62.19,1.5,1.46a3.84,3.84,0,0,1-4,3.31c-1.37-.05-2.17-.68-2.16-2.12C217.43,238.46,219,237.54,222.05,237.6Z"/><path class="cls-16" d="M127.5,236.56c0,3.83-1.56,5.84-4.57,5.81s-4.41-2-4.41-5.72S120.06,231,123,231,127.48,232.92,127.5,236.56Z"/><path class="cls-18" d="M112.19,196.58a5.6,5.6,0,0,1-1.23,0c-.81-.18-2.08.61-2.36-.58s.58-2,1.47-2.69a3.65,3.65,0,0,1,3.55-.41,2.89,2.89,0,0,1,2.1,3c-.19,1.3-1.66.43-2.54.65A4.08,4.08,0,0,1,112.19,196.58Z"/><path class="cls-19" d="M269.57,196.58a4,4,0,0,1-1,0c-.79-.2-2,.61-2.3-.64a2.74,2.74,0,0,1,1.32-2.51,3.64,3.64,0,0,1,3.73-.52,2.8,2.8,0,0,1,2,3.05c-.26,1.25-1.68.43-2.56.62A5.69,5.69,0,0,1,269.57,196.58Z"/><path class="cls-19" d="M191.88,196.58a3.7,3.7,0,0,1-1,0c-.84-.25-2.25.69-2.45-.76a2.89,2.89,0,0,1,1.83-2.75,3.68,3.68,0,0,1,3.14-.18,2.82,2.82,0,0,1,2.06,3.07c-.26,1.25-1.7.42-2.59.62A4.09,4.09,0,0,1,191.88,196.58Z"/></g></g></svg>