<svg xmlns="http://www.w3.org/2000/svg" viewBox="0 0 354.82 346.48"><defs><style>.cls-1{fill:#231988;}.cls-2{fill:#f0c042;}.cls-3{fill:#459bd4;}.cls-4{fill:#fefefe;}.cls-5{fill:#fefdfe;}.cls-6{fill:#fdfdfe;}.cls-7{fill:#fdfdfd;}.cls-8{fill:#fcfcfd;}.cls-9{fill:#fcfbfd;}.cls-10{fill:#fbfbfc;}.cls-11{fill:#f6f5f9;}.cls-12{fill:#f7f7fa;}.cls-13{fill:#191384;}.cls-14{fill:#191284;}.cls-15{fill:#181283;}.cls-16{fill:#231989;}.cls-17{fill:#241a89;}.cls-18{fill:#281e8b;}</style></defs><g id="Capa_2" data-name="Capa 2"><g id="Capa_1-2" data-name="Capa 1"><path class="cls-1" d="M26.85,251.15q-8.58-37.4-17.14-74.81C6.63,162.9,3.43,149.49.59,136A24.12,24.12,0,0,1,5.44,115.3Q31.94,82,58.55,48.79L89.23,10.38A26.41,26.41,0,0,1,110.91,0H244.07a26.22,26.22,0,0,1,21.49,10.25q41.7,52.14,83.37,104.3c5.64,7.06,7,15,5,23.74q-11.91,52-23.83,104c-.67,2.91-1.38,5.82-2.06,8.73a4.84,4.84,0,0,1-2.4,1.7c-8.66,4.07-17.29,8.22-25.91,12.38-20.08,9.7-40.24,19.26-60.33,28.95-11.55,5.56-23.08,11.16-34.67,16.64-6.23,2.95-12.19,6.54-18.78,8.71a26.39,26.39,0,0,1-20.16-1.25c-15.37-7.22-30.65-14.63-46-22q-29.41-14-58.8-28.12-15.4-7.41-30.89-14.7A11.81,11.81,0,0,1,26.85,251.15Z"/><path class="cls-2" d="M26.85,251.15q18.7,8.89,37.41,17.78Q115.14,293.25,166,317.56a25.58,25.58,0,0,0,22.92,0q49.08-23.46,98.1-47l39.62-19a13.88,13.88,0,0,1,1.4-.53c-1.35,6-2.47,12-4.1,18a25.09,25.09,0,0,1-13.73,16.58Q276.51,301.78,242.75,318q-26.66,12.83-53.32,25.61a26.46,26.46,0,0,1-24,0Q121.2,322.31,77,301.05c-10.12-4.87-20.22-9.8-30.42-14.51-8.88-4.1-14.39-10.72-16.35-20.32C29.2,261.18,28,256.17,26.85,251.15Z"/><path class="cls-3" d="M204.88,77.07c-2.48-.91-4.06.52-5.92,2.56-4.27,4.69-9.77,6.12-15.89,4.22-1.56-.49-2.29-.29-3.16,1.11-7.64,12.29-24.27,11.74-31.11-1-.56-1-1.06-1.67-2.43-1.52-7,.75-12.37-2.24-15.83-8.16s-3.12-11.82.59-17.45c3.86-5.86,4-5.79,4-12.51a18.61,18.61,0,0,1,12.23-17.93,19,19,0,0,1,20.79,5c1,1.06,1.42.82,2.37.09,8.77-6.73,18.89-5.34,25.54,3.55.8,1.07,1.38,1,2.44.6a21.29,21.29,0,1,1,6.43,41.44Z"/><path class="cls-4" d="M292.18,116.43a1.86,1.86,0,0,1,2-1.14c4.9.06,9.83-.18,14.72.12,14.62.91,23.2,14.48,17.22,27.32-3.47,7.44-9.83,10.84-17.8,11.26-4.64.24-9.31,0-14,.07a2.12,2.12,0,0,1-2.13-.95c-.45-.38-.33-.91-.33-1.39q0-16.93,0-33.88C291.88,117.35,291.77,116.83,292.18,116.43Z"/><path class="cls-4" d="M107.75,134.59c0-5.65,0-11.31,0-17,0-1.24,0-2.38,1.73-2.33,4.74.13,9.5-.34,14.22.24,9.55,1.17,14.62,9,12,18.23a11,11,0,0,1-4.29,6.25c-1.11.77-1.1,1.35-.31,2.35,2.36,3,4.65,6.08,6.94,9.14.43.57,1.13,1.17.72,2s-1.32.53-2,.55c-6.6.18-6.6.18-10.47-5.16a13.48,13.48,0,0,1-1.72-2.44c-1.38-3.27-4-3.38-7-3.11-1.14.1-1.36.6-1.35,1.58,0,2.41,0,4.82,0,7.23,0,1.38-.47,1.86-1.88,1.94-6.55.34-6.55.38-6.55-6Z"/><path class="cls-4" d="M71.19,134.52c0-5.66.06-11.32,0-17,0-1.78.59-2.29,2.31-2.27q10.74.1,21.49,0c1.61,0,2.22.54,2.18,2.17-.13,6.88.8,5.64-5.61,5.74-3.42,0-6.83.06-10.25,0-1.32,0-1.65.44-1.71,1.72-.27,6.75-.31,6.75,6.42,6.75,2.5,0,5,.05,7.49,0,1.38,0,1.87.46,2,1.86.3,5.75.34,5.75-5.29,5.75-2.91,0-5.83.07-8.74,0-1.45,0-1.8.47-1.83,1.86-.11,5.16-.16,5.16,5,5.16,3.49,0,7,0,10.49,0,1.48,0,2.1.5,2.07,2-.13,7,.82,5.72-5.51,5.8-5.75.08-11.49,0-17.24,0-3.19,0-3.19,0-3.19-3.31Z"/><path class="cls-4" d="M256.63,134.59c0-5.66.05-11.32,0-17,0-1.69.45-2.37,2.25-2.35,7.16.08,14.32.07,21.48,0,1.55,0,2.27.4,2.24,2.1-.15,7,.79,5.7-5.53,5.8-3.33.06-6.67.08-10,0-1.46,0-2,.3-2,1.9-.11,6.57-.17,6.57,6.34,6.57,2.5,0,5,0,7.5,0,.71,0,1.76-.24,1.84.77a36.06,36.06,0,0,1,0,6c-.09,1.13-1.27.82-2,.83-3.83,0-7.66.07-11.49,0-1.54,0-2.16.3-2.16,2,0,5-.07,5,4.92,5,3.42,0,6.83.09,10.24,0,1.91-.07,2.45.65,2.4,2.47-.17,6.44.8,5.32-5.42,5.39s-12.16,0-18.24,0c-1.72,0-2.34-.51-2.31-2.28C256.68,146.07,256.63,140.33,256.63,134.59Z"/><path class="cls-4" d="M47.43,114.67a32.78,32.78,0,0,1,12.69,2.46c1.43.61,1.85,1.3,1.25,2.86-1.92,5-1.87,5-7,3.56a18,18,0,0,0-9.37-.41c-5.89,1.47-9.36,6.06-9.09,12A11.62,11.62,0,0,0,46.2,146.51a20.76,20.76,0,0,0,11.44-1.81c1.54-.68,2.13-.38,2.71,1.19,2.16,5.83,2.2,5.93-3.76,7.65a25.79,25.79,0,0,1-18.3-1c-7.63-3.44-11.79-10.68-11.22-19.14a20.07,20.07,0,0,1,14-17.63A19.67,19.67,0,0,1,47.43,114.67Z"/><path class="cls-5" d="M202.56,134.43c0-5.65.05-11.31,0-17,0-1.6.43-2.21,2.11-2.19q10.86.1,21.73,0c1.51,0,2.08.54,2.06,2-.09,7.22.7,5.76-5.46,5.87-3.49.07-7,.06-10.49,0-1.27,0-1.7.37-1.76,1.69-.37,7.22-.4,7.22,6.7,7.22,2.33,0,4.66,0,7,0,.73,0,1.7-.18,1.85.81a17.74,17.74,0,0,1,0,5.95c-.21,1.1-1.3.83-2.09.83-3.83,0-7.66.08-11.49,0-1.57,0-2,.51-2,2,.09,3.49,0,7,.05,10.48,0,1.37-.45,1.87-1.86,1.94-6.36.32-6.36.37-6.36-5.92Z"/><path class="cls-4" d="M158.73,115.31c4.75,0,9.49,0,14.24,0,1.61,0,2.21.52,2.17,2.17-.17,6.88.88,5.6-5.58,5.75-2.07,0-4.79-.66-6,.38-1.46,1.24-.48,4.06-.5,6.18-.06,7.24-.07,14.48,0,21.71,0,1.89-.47,2.64-2.53,2.63-6,0-6,.05-6-5.84,0-7.65,0-15.3,0-22.95,0-1.57-.33-2.25-2.07-2.15-2.65.15-5.33,0-8,.06-1.64,0-2.43-.38-2.38-2.22.21-6.83-1-5.57,5.6-5.68C151.4,115.26,155.07,115.31,158.73,115.31Z"/><path class="cls-6" d="M237.57,134.6c0-5.66.05-11.31,0-17,0-1.67.39-2.41,2.22-2.35,7.51.21,6.11-1.1,6.18,6.13.08,10,0,20,.06,30,0,2-.52,2.77-2.66,2.74-5.76-.08-5.76,0-5.76-5.77Q237.58,141.46,237.57,134.6Z"/><path class="cls-6" d="M87.35,182.55c7.79,0,12.76,4.91,12.81,12.76s-4.84,12.92-12.59,13-12.75-4.9-12.8-12.76S79.6,182.59,87.35,182.55Z"/><path class="cls-6" d="M104.45,199.41c0-2.41,0-4.82,0-7.23,0-.93-.82-2.25.34-2.69s2.93-.73,3.8.18,1.45.35,2.19,0c2.94-1.34,5.84-1.45,8.41.75.81.69,1.19.72,2,0a7.3,7.3,0,0,1,8-1c2.79,1.19,3.69,3.72,3.78,6.52.11,3.33,0,6.66.07,10,.09,2.28-1.47,1.67-2.7,1.78-1.39.11-2.37,0-2.27-1.91.15-2.9.07-5.82,0-8.73s-1-4.25-3.09-4.25-3.62,1.61-3.75,4.19a79.45,79.45,0,0,0,0,8.73c.13,2.11-1,2-2.47,2s-2.61.1-2.5-2c.16-3.07.06-6.16,0-9.23,0-1.94-.63-3.54-2.88-3.65s-3.42,1.17-3.78,3.21a44.73,44.73,0,0,0-.19,9c0,1.93-.31,2.78-2.54,2.77s-2.49-.84-2.38-2.65,0-3.82,0-5.73Z"/><path class="cls-6" d="M191.75,134.82c0,5.65-.05,11.3,0,17,0,1.7-.48,2.3-2.25,2.32-6.08.06-6.07.12-6.07-6,0-10.05,0-20.11-.05-30.16,0-2,.53-2.74,2.66-2.7,5.67.09,5.67,0,5.67,5.6Z"/><path class="cls-6" d="M240.3,189.81c0-1.75.09-3.32,0-4.88-.17-2.24,1.38-1.77,2.64-1.82s2.34-.13,2.34,1.84c0,7.15-.33,14.3.19,21.44,0,.51.11,1.15-.52,1.2-1.29.1-2.84.66-3.8-.33-.75-.78-1-.55-1.69-.16-5.58,3-10.83.52-12-5.69a13.76,13.76,0,0,1,.26-6.41,8.23,8.23,0,0,1,10.51-5.87C238.8,189.31,239.42,189.53,240.3,189.81Z"/><path class="cls-6" d="M179.57,182.55a12.43,12.43,0,0,1,6.28,1.69c.81.44,1.79.95.83,2-.72.8-.89,2.64-2.72,1.68a9.22,9.22,0,0,0-5.28-1.14c-1.41.16-2.92.36-3.16,2.21s.95,2.51,2.38,3,3.19.95,4.73,1.55c3.73,1.47,5.3,3.91,5.05,7.67-.22,3.25-2.29,5.62-5.87,6.56a14,14,0,0,1-10.62-1.31c-.66-.37-2.13-.73-1.11-1.9.75-.85.89-3,3.07-1.8a8.94,8.94,0,0,0,6.73,1,2.94,2.94,0,0,0,2.57-2.66,3,3,0,0,0-2-3.33c-1.08-.42-2.19-.79-3.31-1.12-5-1.51-7.21-4-6.72-7.87S174.13,182.56,179.57,182.55Z"/><path class="cls-6" d="M84.63,233.42c.13-4.72,1.45-8.92,6-11.23a13.68,13.68,0,0,1,13.6.41c.75.43,2.23.94,1.09,2.16-.83.89-1.14,3-3.39,1.71-4.06-2.23-8.14-1.7-10.23,1-2.48,3.21-2.39,9.4.17,12.4,2.08,2.43,6.37,2.83,9.64.88a3,3,0,0,1,4.39,1.47c.44,1.17-.61,1.45-1.22,1.85a13.34,13.34,0,0,1-14,.84C86,242.6,84.73,238.3,84.63,233.42Z"/><path class="cls-6" d="M232.18,239.12c0,1.33,0,2.66,0,4,.09,2.52-1.84,4-3.87,2.45-1.24-.92-1.64-.25-2.44.07-2.68,1.06-5.35,1.29-7.84-.47-2.13-1.51-2.26-3.76-1.9-6.07.43-2.81,2.45-4,5-4.52,1.46-.29,3-.34,4.45-.51.6-.07,1.48.28,1.6-.7a1.92,1.92,0,0,0-1.22-2,6,6,0,0,0-5.33.22c-2.1,1.15-2.66-.12-3.2-1.58-.68-1.82,1-1.79,1.94-2.15a15.05,15.05,0,0,1,3.87-.91c5.81-.62,8.82,2.09,8.9,7.94,0,1.41,0,2.82,0,4.24Z"/><path class="cls-6" d="M126.75,236.54c0,6-3.65,9.84-9.47,9.86s-9.57-3.9-9.56-9.82,3.66-9.64,9.39-9.72S126.74,230.57,126.75,236.54Z"/><path class="cls-6" d="M279.11,198.52c0,5.94-3.79,9.79-9.6,9.76s-9.45-3.93-9.41-9.94,3.63-9.55,9.45-9.55S279.13,192.49,279.11,198.52Z"/><path class="cls-7" d="M138.27,198.26c0-2.08,0-4.15,0-6.23,0-.87-.62-2.19.33-2.51,1.25-.42,2.94-.76,4,.24.8.75,1.11.46,1.8.11,6-3.07,11.11,0,11.13,6.86,0,2.82-.11,5.66.05,8.47.1,2-.44,2.63-2.48,2.57-1.82-.05-2.72-.31-2.56-2.44.21-2.73.07-5.48.05-8.22,0-2.91-1-4.17-3.06-4.29-2.37-.13-4.1,1.47-4.24,4.23a70.56,70.56,0,0,0,0,8.48c.14,2.1-.86,2.22-2.51,2.22s-2.67-.19-2.51-2.26c.17-2.4,0-4.82,0-7.23Z"/><path class="cls-7" d="M222.71,198.62c0,2.08.06,4.15,0,6.23,0,.91.87,2.24-.32,2.68s-2.94.72-3.81-.17-1.33-.35-2,0c-5.71,2.8-10.82-.24-10.93-6.52-.06-3.15.11-6.31-.06-9.46-.1-2,.88-2.08,2.41-2.07s2.73,0,2.6,2.16c-.17,2.9-.08,5.82,0,8.72,0,2,.48,3.89,3,4.08a3.84,3.84,0,0,0,4.07-3.84,72.42,72.42,0,0,0,.08-9c-.12-2.18,1.06-2.13,2.61-2.16s2.49.19,2.36,2.12c-.17,2.39,0,4.81,0,7.22Z"/><path class="cls-6" d="M131.14,236.48c0-2.08.06-4.16,0-6.23-.08-2.52,2-3.88,4.15-2.45.85.56,1.14.6,2,.2,6.16-3.05,11,0,11,6.86,0,3-.13,6,.05,9,.12,2-.91,2.06-2.4,2s-2.75,0-2.61-2.15c.19-2.89.05-5.81,0-8.72,0-2.07-.39-3.88-3-4.05a3.84,3.84,0,0,0-4.18,4,83.69,83.69,0,0,0,0,9c.12,2.14-1.1,2-2.49,2s-2.72.35-2.55-1.9c.2-2.48.05-5,.05-7.47Z"/><path class="cls-6" d="M237.54,237.2c0-2.24,0-4.49,0-6.73,0-.93-.91-2.25.18-2.73s3-.76,4,.18c.85.79,1.13.39,1.77.08,6.2-3,11.08,0,11.1,6.82,0,3.08-.12,6.16,0,9.22.12,2.09-1.14,1.82-2.38,1.79s-2.74.46-2.63-1.81c.14-3,0-6,0-9,0-2.07-.37-3.89-2.95-4.09-2.32-.18-4.05,1.33-4.19,3.94a83.88,83.88,0,0,0,0,9c.11,2.12-1.08,2-2.5,2s-2.69.27-2.51-1.92,0-4.48,0-6.73Z"/><path class="cls-6" d="M187.31,236.13c0,2.24,0,4.49,0,6.73,0,.95.88,2.28-.15,2.74-1.22.55-3,.77-4-.15-.84-.74-1.14-.42-1.79-.09-5.91,3-11.06-.11-11.14-6.74,0-3.08.13-6.16-.05-9.23-.13-2.26,1.28-1.83,2.57-1.88s2.61-.14,2.49,2c-.17,2.9-.07,5.82,0,8.73,0,2,.38,3.91,3,4.1,2.3.17,4-1.37,4.14-4a84.75,84.75,0,0,0,0-8.73c-.13-2.26,1.22-2,2.68-2.1,1.66-.1,2.44.31,2.31,2.16-.16,2.15,0,4.32,0,6.49Z"/><path class="cls-7" d="M158.87,246.41a10.25,10.25,0,0,1-5-1c-.82-.47-2.43-.64-1.53-2.21.65-1.14,1.27-2.66,3.21-1.44a5.64,5.64,0,0,0,3.89.5c.88-.13,1.61-.5,1.71-1.51a1.67,1.67,0,0,0-1.35-1.84c-1.1-.38-2.24-.62-3.33-1-2.89-1.06-4.3-3-4.16-5.52s2-4.5,4.93-5.19a10.58,10.58,0,0,1,7,.77c.86.4,2.09.82,1.18,2.15-.62.9-.95,2.54-2.75,1.38a5.29,5.29,0,0,0-3.37-.69c-.95.09-1.9.31-2,1.46s.66,1.45,1.49,1.72,1.76.5,2.63.78c3.5,1.1,5,3,4.83,6s-2.42,5-5.84,5.5C159.9,246.34,159.31,246.37,158.87,246.41Z"/><path class="cls-7" d="M260.66,237.11c0-1.33-.05-2.66,0-4,.05-1.12-.25-1.75-1.51-1.61-1.05.11-1.53-.37-1.46-1.45.05-.91-.14-2,1.18-2,1.6-.08,1.81-1,1.77-2.31-.06-1.83,2.58-3.91,4.31-3.55.54.11.6.48.61.9a18.81,18.81,0,0,1,0,2.49c-.16,1.52.22,2.39,2,2.15,1.44-.2,2.51-.09,2.51,2,0,2.2-1.33,1.94-2.63,1.85s-1.95.32-1.88,1.79c.11,2.15.07,4.31,0,6.47,0,1.73.6,2.74,2.48,2.53,2.19-.23,1.45,1.6,1.75,2.58.45,1.47-.84,1.32-1.68,1.42-4.92.64-7.44-1.54-7.48-6.45Z"/><path class="cls-7" d="M204.14,237.2c0-1.08,0-2.16,0-3.24,0-1.36.24-2.77-1.93-2.47-.88.12-1.09-.56-1-1.31s-.32-2.05,1.05-2.13c1.92-.1,2-1.25,1.91-2.71s3.12-3.77,4.37-3.12c.93.48.55,1.51.49,2.26-.2,2.22.09,3.76,2.94,3.23,1.55-.29,1.4.94,1.44,1.94s-.12,2.11-1.56,1.86c-2.67-.48-3,.93-2.82,3.1.15,1.73,0,3.48,0,5.23,0,1.57.51,2.68,2.28,2.46,2.1-.26,1.68,1.31,1.92,2.42.35,1.59-.82,1.5-1.8,1.61-4.85.53-7.25-1.58-7.28-6.39C204.13,239,204.14,238.11,204.14,237.2Z"/><path class="cls-7" d="M192.59,199c0-1.24,0-2.49,0-3.74s-.06-2-1.54-1.87c-1.11.12-1.47-.42-1.42-1.47s-.07-1.95,1.24-2c1.46-.07,1.71-.89,1.7-2.16a4.11,4.11,0,0,1,4.16-3.7c.68.08.76.52.77,1a16.73,16.73,0,0,1,0,2.24c-.21,1.68.34,2.52,2.16,2.25,1.49-.23,2.23.2,2.25,2,0,1.93-1,2-2.36,1.85-1.71-.23-2.15.53-2.06,2.12.11,2.16,0,4.33,0,6.49,0,1.51.62,2.46,2.23,2.27,2.05-.26,1.74,1.29,2,2.41.32,1.61-1,1.47-1.89,1.58-4.78.54-7.19-1.64-7.23-6.5C192.58,200.8,192.59,199.89,192.59,199Z"/><path class="cls-8" d="M192.71,233.66c0-3.58.08-7.16,0-10.73-.07-2.12,1.32-1.69,2.5-1.69s2.51-.43,2.48,1.69q-.14,10.6,0,21.21c0,2.11-1.3,1.69-2.48,1.69s-2.57.41-2.5-1.69C192.79,240.65,192.71,237.15,192.71,233.66Z"/><path class="cls-9" d="M160.7,198.33c0-2.49.06-5,0-7.46-.07-2,1.29-1.59,2.37-1.53s2.64-.69,2.62,1.51c-.06,5.14,0,10.29,0,15.43,0,2-1.48,1.39-2.47,1.39s-2.52.65-2.49-1.38C160.72,203.64,160.7,201,160.7,198.33Z"/><path class="cls-10" d="M255.68,198.58c0,2.49-.1,5,0,7.46.11,2.15-1.34,1.65-2.49,1.65s-2.55.45-2.51-1.66c.09-5.05.06-10.11,0-15.17,0-2.17,1.55-1.47,2.63-1.53s2.42-.42,2.35,1.54C255.6,193.44,255.68,196,255.68,198.58Z"/><path class="cls-11" d="M163.13,181.36c1.84.08,3,.94,3,2.89a2.59,2.59,0,0,1-2.89,2.73c-1.87,0-3-.92-3-2.88S161.4,181.49,163.13,181.36Z"/><path class="cls-12" d="M253.37,187c-2.15-.09-3.11-1.14-3-3s1.29-2.61,3-2.57a2.54,2.54,0,0,1,2.81,2.76A2.57,2.57,0,0,1,253.37,187Z"/><path class="cls-13" d="M292.18,116.43l0,36.68c-.39.31-.59.14-.59-.28q0-18,0-36.05a.56.56,0,0,1,.15-.41C291.85,116.31,292,116.4,292.18,116.43Z"/><path class="cls-14" d="M183.07,116.49V153.1h-.24V116.38Z"/><path class="cls-15" d="M202,116.47v36.24h-.25V116.4Z"/><path class="cls-16" d="M305.44,123.2c.83,0,1.67,0,2.5,0a11.23,11.23,0,0,1,11.13,11.42,11.41,11.41,0,0,1-10.8,11.55c-7.53.61-7.53.61-7.53-6.82,0-4.41.15-8.82-.05-13.22-.12-2.41.61-3.35,3-3a11.22,11.22,0,0,0,1.74,0Z"/><path class="cls-17" d="M116.16,129.55a31.05,31.05,0,0,0,0-4c-.27-2.09.67-2.62,2.53-2.39,1,.12,2,0,3,.09,3.71.36,5.53,2.22,5.63,5.69.11,3.9-1.53,6-5.23,6.63C116.3,136.6,116.16,136.46,116.16,129.55Z"/><path class="cls-16" d="M94.87,195.22c0,5.22-2.15,8.08-6.12,8.56-5,.61-8.19-1.94-8.61-7a15.48,15.48,0,0,1,.07-3.47c.57-4.23,3.22-6.45,7.47-6.35s6.71,2.49,7.1,6.78C94.83,194.35,94.85,194.93,94.87,195.22Z"/><path class="cls-17" d="M240.29,197.9c0,.58,0,1.16,0,1.74-.12,2.74-1.57,4.47-3.86,4.61s-3.71-1.35-4.14-4.06a8.93,8.93,0,0,1,.32-4.41c.75-2.16,2.2-3.24,4.54-2.91s3.57,1.55,3.16,4a5.45,5.45,0,0,0,0,1Z"/><path class="cls-18" d="M225.1,237.56c1.07,0,2.24-.37,2.15,1.32a3.83,3.83,0,0,1-3.62,3.43c-1.39.08-2.58-.28-2.54-1.95C221.16,237.58,223.42,237.87,225.1,237.56Z"/><path class="cls-17" d="M121.75,236.74q0,5.63-4.51,5.59c-3,0-4.57-2.14-4.48-5.92s1.7-5.56,4.68-5.47S121.79,233,121.75,236.74Z"/><path class="cls-17" d="M274.13,198.17c0,2.13-.31,3.85-1.69,5.12a4.32,4.32,0,0,1-6.59-1.27,8.36,8.36,0,0,1-.58-5.35c.42-2.27,1.62-3.8,4.15-3.86s4,1.18,4.53,3.72A11.77,11.77,0,0,1,274.13,198.17Z"/></g></g></svg>