<svg xmlns="http://www.w3.org/2000/svg" viewBox="0 0 354.82 346.36"><defs><style>.cls-1{fill:#231988;}.cls-2{fill:#f0c042;}.cls-3{fill:#459bd4;}.cls-4{fill:#fefefe;}.cls-5{fill:#fefdfe;}.cls-6{fill:#fcfcfd;}.cls-7{fill:#fdfdfe;}.cls-8{fill:#fdfdfd;}.cls-9{fill:#fdfcfd;}.cls-10{fill:#f9f9fc;}.cls-11{fill:#fafafc;}.cls-12{fill:#f9f8fb;}.cls-13{fill:#191384;}.cls-14{fill:#191284;}.cls-15{fill:#1a1484;}.cls-16{fill:#181283;}.cls-17{fill:#181284;}.cls-18{fill:#171283;}.cls-19{fill:#231989;}.cls-20{fill:#241a89;}.cls-21{fill:#241b89;}.cls-22{fill:#251b89;}.cls-23{fill:#2d238e;}.cls-24{fill:#2a208c;}.cls-25{fill:#29208c;}.cls-26{fill:#2b228d;}</style></defs><g id="Capa_2" data-name="Capa 2"><g id="Capa_1-2" data-name="Capa 1"><path class="cls-1" d="M26.85,251.07q-8.58-37.4-17.14-74.78C6.63,162.85,3.43,149.44.59,136a24.1,24.1,0,0,1,4.85-20.68Q31.93,82,58.54,48.78q15.34-19.2,30.68-38.4A26.42,26.42,0,0,1,110.9,0H244.06a26.27,26.27,0,0,1,21.5,10.24q41.7,52.13,83.36,104.27c5.65,7.06,7,15,5,23.73q-11.91,52-23.84,103.92c-.66,2.91-1.37,5.81-2.05,8.72a5.68,5.68,0,0,1-2.6,1.85q-14.85,7.14-29.73,14.25-28,13.47-56.08,26.86-14.31,6.84-28.59,13.72c-7,3.38-13.95,6.72-20.92,10.1a27.37,27.37,0,0,1-24.8.19c-15-7.13-30-14.35-45.07-21.54-19.82-9.48-39.68-18.88-59.48-28.43q-15.3-7.36-30.67-14.59A11.65,11.65,0,0,1,26.85,251.07Z"/><path class="cls-2" d="M26.85,251.07q18.7,8.88,37.41,17.77,50.88,24.3,101.77,48.61a25.54,25.54,0,0,0,22.92,0q49.08-23.44,98.1-47l39.62-19c.45-.21.93-.35,1.4-.53-1.35,6-2.47,12.05-4.11,18a25.1,25.1,0,0,1-13.72,16.58q-38.46,18.51-76.94,37l-43.87,21.08a26.43,26.43,0,0,1-24,0L77.23,301.05c-10.13-4.86-20.2-9.83-30.42-14.5-9.08-4.15-14.68-10.85-16.63-20.66C29.19,260.93,28,256,26.85,251.07Z"/><path class="cls-3" d="M205,77.06c-2.46-.93-4.08.39-6,2.47-4.32,4.79-9.89,6.21-16.1,4.24-1.51-.47-2.15-.19-2.95,1.08-7.8,12.43-24.14,11.87-31.23-1.06-.54-1-1-1.53-2.28-1.39a16.16,16.16,0,0,1-16.94-10.05c-2.88-7.07-.86-14.47,5.3-19.42a2.52,2.52,0,0,0,1-3.14c-2.58-9.13,1-17.81,9.13-22.37,7.35-4.14,17-2.51,23.23,4.08,1.11,1.16,1.58.48,2.4-.15,8.52-6.56,18.93-5.11,25.38,3.58a1.74,1.74,0,0,0,2.41.73A21.29,21.29,0,1,1,205,77.06Z"/><path class="cls-4" d="M292.18,116.39a1.85,1.85,0,0,1,2-1.14c4.91.06,9.83-.18,14.72.12,14.64.91,23.2,14.48,17.22,27.31-3.46,7.44-9.82,10.84-17.79,11.25-4.65.25-9.32,0-14,.08a2.13,2.13,0,0,1-2.13-.95c-.45-.38-.34-.91-.34-1.39V117.8C291.87,117.31,291.77,116.79,292.18,116.39Z"/><path class="cls-4" d="M107.75,134.57c0-5.57.07-11.14,0-16.7,0-1.88.38-2.75,2.48-2.64,4.89.26,9.82-.36,14.7.44,6.21,1,10.43,5.13,11.17,11.1.66,5.22-.3,10-4.87,13.33-1.1.81-.8,1.36-.15,2.19q3.49,4.54,6.93,9.14c.43.58,1.13,1.16.75,2s-1.31.55-2,.57c-6.63.2-6.63.19-10.48-5.12a13.68,13.68,0,0,1-1.72-2.44c-1.38-3.25-4-3.43-7-3.14-1.11.11-1.4.54-1.38,1.55,0,2.41,0,4.82,0,7.23,0,1.35-.42,1.89-1.85,2-6.58.37-6.58.41-6.58-6.23Z"/><path class="cls-4" d="M71.19,134.75c0-5.74.06-11.48,0-17.22,0-1.75.54-2.31,2.29-2.29q10.74.11,21.48,0c1.59,0,2.24.49,2.21,2.15-.14,6.91.79,5.65-5.59,5.75q-5.13.09-10.24,0c-1.3,0-1.69.38-1.74,1.69-.29,6.77-.33,6.77,6.39,6.77,2.42,0,4.84.08,7.25,0,1.57-.07,2.25.41,2.21,2.09-.15,6.78.78,5.38-5.26,5.51-3,.07-6,.05-9,0-1.19,0-1.53.4-1.6,1.57-.31,5.44-.35,5.44,5,5.44,3.5,0,7,0,10.49,0,1.47,0,2.13.46,2.1,2-.13,7.08.82,5.75-5.49,5.83-6,.07-12-.07-18,.06-2,0-2.54-.66-2.5-2.58C71.26,145.89,71.19,140.32,71.19,134.75Z"/><path class="cls-4" d="M256.63,134.49c0-5.65.05-11.31,0-17,0-1.75.57-2.31,2.3-2.29q10.74.11,21.48,0c1.61,0,2.23.5,2.19,2.15-.14,7,.81,5.64-5.57,5.75q-5.13.09-10.24,0c-1.3,0-1.68.39-1.73,1.69-.27,6.77-.31,6.77,6.38,6.77,2.42,0,4.83.08,7.24,0,1.58-.07,2.26.4,2.22,2.09-.15,6.8.77,5.38-5.24,5.51-3,.07-6,.05-9,0-1.18,0-1.54.38-1.61,1.56-.31,5.45-.35,5.45,5,5.45,3.42,0,6.83.06,10.24,0,1.69,0,2.39.46,2.35,2.25-.17,6.75.81,5.52-5.47,5.59-6,.07-12-.06-18,.06-2,0-2.57-.66-2.53-2.59C256.69,145.8,256.63,140.15,256.63,134.49Z"/><path class="cls-4" d="M47.43,154.63c-7.5-.3-14.86-3.22-18.67-11.64-5.72-12.62,2.88-26.94,16.77-28.22a29.82,29.82,0,0,1,14.64,2.34c1.46.63,1.77,1.36,1.17,2.88-1.94,5-1.89,5-6.82,3.58a18,18,0,0,0-9.6-.46c-5.88,1.49-9.34,6.1-9,12.07A11.59,11.59,0,0,0,46,146.43a20.53,20.53,0,0,0,11.46-1.7c1.55-.67,2.27-.64,2.91,1.16,2.11,5.81,2.17,5.83-3.82,7.63A30.2,30.2,0,0,1,47.43,154.63Z"/><path class="cls-5" d="M202.56,134.54c0-5.57.07-11.14,0-16.71,0-1.87.37-2.65,2.46-2.61,7,.12,14,.1,21,0,1.81,0,2.53.48,2.49,2.38-.15,6.64.63,5.44-5.32,5.53-3.25,0-6.51.18-9.74,0-2.32-.16-2.94.7-2.67,2.81a13,13,0,0,1,0,3.24c-.27,2.18.35,3.1,2.79,2.94,3.57-.23,7.16,0,10.73-.08,1.64,0,2.21.56,2.19,2.17-.09,6.62.55,5.36-5.12,5.45-2.92.05-5.83.08-8.74,0-1.43-.05-1.89.42-1.86,1.84.09,3.49,0,7,.05,10.47,0,1.46-.39,2-2,2.1-6.26.23-6.26.28-6.26-6Z"/><path class="cls-4" d="M163,138.57c0,4.4,0,8.81,0,13.22,0,1.55-.46,2.19-2.14,2.24-6.35.18-6.35.24-6.35-6.18,0-7.49,0-15,0-22.45,0-1.68-.38-2.39-2.2-2.29-2.65.15-5.33,0-8,.07-1.77.07-2.3-.64-2.26-2.34.19-6.65-1-5.5,5.47-5.56,8.32-.07,16.65,0,25,0,1.94,0,2.64.52,2.57,2.54-.21,6.32.84,5.25-5.46,5.4-2.14,0-4.9-.93-6.24.42s-.37,4.11-.42,6.25C163,132.75,163,135.66,163,138.57Z"/><path class="cls-6" d="M237.57,134.75c0-5.74.06-11.48,0-17.22,0-1.74.52-2.29,2.27-2.3,6.15-.06,6.15-.12,6.15,5.94,0,10.07-.05,20.13,0,30.19,0,2.09-.66,2.71-2.72,2.68-5.71-.07-5.71,0-5.71-5.57Z"/><path class="cls-7" d="M183.46,134.58c0-5.65.07-11.3,0-17,0-1.87.6-2.41,2.44-2.4,5.89,0,5.89-.06,5.89,5.87,0,10.14,0,20.27,0,30.41,0,2-.58,2.55-2.54,2.53-5.79,0-5.79,0-5.79-5.75Z"/><path class="cls-7" d="M77.15,202.38c0-3.41,0-6.81,0-10.21,0-.83-.72-2.09.5-2.38s2.91-.74,3.73.36,1.07.5,1.69.19c5.77-2.84,11,.07,11.7,6.49.36,3.52-.05,6.85-2.91,9.34a7.42,7.42,0,0,1-7.71,1.43c-2-.72-2.22,0-2.1,1.67.1,1.48-.1,3,.05,4.48.21,2-1,2.06-2.44,2s-2.61.23-2.51-1.94c.17-3.81,0-7.63,0-11.45Z"/><path class="cls-8" d="M316.11,206.12c-.5,1.56-3.12,2.24-4.44,1-.42-.38-.42-1-1.24-.51-3.22,2-6.61,2.21-9.5-.31-3.23-2.81-3.42-6.73-2.44-10.61,1.41-5.6,5.68-7.48,12.52-5.49,0-1.78.09-3.48,0-5.17-.13-1.91,1.14-1.66,2.28-1.62s2.56-.49,2.53,1.64c-.09,5.66,0,11.32,0,17a7.69,7.69,0,0,0,.27,3.2C316.42,205.51,316.37,205.81,316.11,206.12Z"/><path class="cls-7" d="M39.22,195.41c0-3.32.06-6.65,0-10,0-1.44.26-2.09,1.9-2,4,.12,8,.11,12,0,1.62,0,1.7.75,1.7,2s0,2.27-1.79,2.14-3.67,0-5.5,0c-3.25,0-3.12,0-3.28,3.16-.11,2.05.46,2.87,2.59,2.63,1.48-.17,3,0,4.49-.06s2,.44,2,2-.43,2.24-2.11,2.11-3.49,0-5.24,0c-1.31-.06-1.68.44-1.73,1.73-.16,4.45-.21,4.45,4.21,4.45,1.67,0,3.34.12,5,0,1.91-.17,1.89.91,2,2.29.07,1.55-.49,2-2,2-4.08-.08-8.16-.09-12.24,0-1.58,0-2-.54-1.94-2C39.29,202.23,39.22,198.82,39.22,195.41Z"/><path class="cls-7" d="M224.08,195.84c0-5,1.4-9.12,5.75-11.45a13.11,13.11,0,0,1,13.13.25c.79.43,2.46.92,1.36,2.3-.81,1-1.32,3-3.63,1.59-3.66-2.23-7.95-1.5-9.91,1.3-2.45,3.49-1.95,10,.95,12.49a7.76,7.76,0,0,0,9.11.1c2.28-1.58,2.76.51,3.65,1.43,1.32,1.38-.35,1.85-1.12,2.32a13.07,13.07,0,0,1-13.33.6C225.53,204.48,224.1,200.31,224.08,195.84Z"/><path class="cls-7" d="M91.08,234.56c0-11.33,9.86-17.07,18.7-11.89.84.49,2.64.89,1.45,2.44-.79,1-1.31,2.93-3.61,1.5-3.57-2.22-8-1.41-9.9,1.37-2.44,3.54-1.92,10,1,12.48a7.55,7.55,0,0,0,8.87.17c2.27-1.55,3,.26,3.89,1.4,1.18,1.54-.61,2-1.44,2.44a13.17,13.17,0,0,1-13.33.27C92.33,242.37,91.15,238.2,91.08,234.56Z"/><path class="cls-8" d="M108.05,200.68c-1.5,0-3,0-4.49,0-.46,0-1.06-.22-1.28.42s.14.95.43,1.36c1.28,1.86,4.1,2.31,7.07,1,1.11-.5,1.8-.79,2.69.44,1.12,1.52.85,2.34-.79,3-4,1.58-8.05,2.06-11.57-.91s-3.55-6.81-2.49-10.79c1.2-4.52,5.62-6.83,10.44-5.64,4,1,6.9,5.81,6,10a1.32,1.32,0,0,1-1.56,1.19C111.05,200.66,109.55,200.67,108.05,200.68Z"/><path class="cls-8" d="M206.57,200.68c-1.41,0-2.83,0-4.24,0-.52,0-1.26-.33-1.5.43-.2.6.27,1.1.62,1.55,1.36,1.7,4,2,6.92.8.78-.32,1.44-1.09,2.37,0,1.57,1.82,1.55,2.59-.66,3.47-3.9,1.54-7.87,1.93-11.32-.94s-3.58-6.57-2.66-10.5c1.1-4.66,5.5-7.15,10.43-6,4.11.95,7.06,5.87,6.14,10.1-.22,1-.82,1.09-1.61,1.09C209.56,200.67,208.07,200.68,206.57,200.68Z"/><path class="cls-8" d="M149.64,200.68c-1.33,0-2.67,0-4,0-.52,0-1.26-.29-1.5.47-.19.6.25,1.11.6,1.56,1.32,1.67,4,1.95,6.94.7.81-.35,1.48-1,2.36.09,1.49,1.85,1.45,2.56-.76,3.44-3.73,1.47-7.53,1.84-10.95-.67s-3.81-6.07-3.2-9.88c.8-5.11,5-8,10.23-7,4.35.8,7.32,5.43,6.5,10a1.25,1.25,0,0,1-1.48,1.24C152.8,200.65,151.22,200.68,149.64,200.68Z"/><path class="cls-7" d="M229.16,239.28c0,1.24.06,2.49,0,3.73-.06.9.79,2.21-.47,2.6-1.1.34-2.65.68-3.53-.28s-1.09-.61-1.76-.17a7.7,7.7,0,0,1-5.29.9,5.34,5.34,0,0,1-4.8-4.66,5.5,5.5,0,0,1,3.41-6.24,16.64,16.64,0,0,1,5.85-1c.59,0,1.47.35,1.62-.63a1.72,1.72,0,0,0-1.24-1.93,6.41,6.41,0,0,0-5.32.38c-1.67.84-2.11,0-2.73-1.26-.88-1.75.45-2,1.48-2.4a13.89,13.89,0,0,1,8.09-.53c2.71.59,4.37,2.68,4.6,5.79.13,1.9,0,3.81,0,5.72Z"/><path class="cls-7" d="M274.52,198.69c-.07,5.68-3.78,9.38-9.4,9.35s-9.33-3.92-9.3-9.5,3.76-9.33,9.44-9.29S274.58,193,274.52,198.69Z"/><path class="cls-7" d="M122.45,227.44c5.61.15,9.11,3.79,9,9.38-.08,5.76-3.9,9.44-9.69,9.31-5.51-.11-9.18-4.06-9-9.72S116.63,227.29,122.45,227.44Z"/><path class="cls-8" d="M294.61,198.91c0,2,.06,4,0,6,0,.9.79,2.25-.49,2.6s-2.82.72-3.74-.36c-.65-.75-.85-.53-1.49-.23-6.3,3-11,0-11.09-6.9,0-2.82.11-5.65,0-8.47-.12-2.2,1.27-1.86,2.59-1.88s2.45-.14,2.34,1.85c-.16,2.9-.09,5.81,0,8.72,0,1.91.48,3.72,2.89,3.95a3.82,3.82,0,0,0,4.09-3.82,76.68,76.68,0,0,0,.06-8.71c-.1-2.07,1.06-2,2.5-2s2.55.06,2.4,2.06c-.16,2.4,0,4.81,0,7.22Z"/><path class="cls-8" d="M159.1,198.39c0-2,0-4,0-6,0-.87-.77-2.1.21-2.53,1.16-.51,3.07-.78,3.76.12,1,1.36,1.62.44,2.37.09a8.67,8.67,0,0,1,4.37-.81c3.44.23,5.76,2.41,5.92,5.87s0,7.16.12,10.73c.07,2-1.2,1.74-2.44,1.76s-2.47.17-2.35-1.84c.16-2.82.07-5.65,0-8.48s-1-3.92-3-4a3.69,3.69,0,0,0-4,3.84,80,80,0,0,0,0,8.48c.1,2-1,2-2.48,2s-2.57,0-2.42-2c.17-2.4,0-4.82,0-7.23Z"/><path class="cls-7" d="M134.84,236.4c0-2,0-4,0-6,0-.85-.71-2.14.3-2.47,1.24-.41,3-.85,3.94.31.79,1,1.11.46,1.75.15,6-2.89,10.79,0,10.82,6.64,0,3-.1,6,0,9,.1,2.08-1.23,1.74-2.44,1.73s-2.56.36-2.47-1.71c.11-2.9,0-5.81,0-8.72,0-2-.42-3.69-2.87-3.86a3.76,3.76,0,0,0-4.17,3.69,77,77,0,0,0,0,8.46c.09,1.81-.59,2.25-2.28,2.19s-2.71,0-2.53-2.18c.19-2.39,0-4.81,0-7.22Z"/><path class="cls-7" d="M187.9,236.08c0,2.32,0,4.64,0,7,0,.86.76,2.12-.23,2.49-1.24.46-2.95.81-4-.25-.82-.84-1.15-.42-1.8-.1-5.78,2.79-10.69-.21-10.75-6.57,0-3.07.08-6.15,0-9.21-.08-1.9,1.09-1.69,2.26-1.65s2.59-.43,2.51,1.67c-.11,2.82-.08,5.64,0,8.46.08,3.1,1.08,4.37,3.27,4.36s3.74-1.6,3.88-4.32a80.3,80.3,0,0,0,0-8.21c-.09-1.81.75-2.08,2.23-2,1.3.08,2.74-.33,2.58,1.88s0,4.31,0,6.47Z"/><path class="cls-7" d="M233.48,237.13c0-2.24,0-4.49,0-6.73,0-.86-.78-2.15.3-2.46,1.25-.37,2.91-.8,4,.36.62.67.84.57,1.52.24,6.37-3,10.92-.17,10.94,6.86,0,2.91-.09,5.83,0,8.74.09,2.17-1.42,1.54-2.53,1.61s-2.34.25-2.26-1.65c.13-2.9.07-5.82,0-8.73,0-2-.43-3.71-2.9-3.9a3.71,3.71,0,0,0-4.19,3.67,68.56,68.56,0,0,0-.06,8.72c.12,2.19-1.2,1.88-2.53,1.91s-2.43,0-2.27-1.9c.18-2.23,0-4.49,0-6.74Z"/><path class="cls-8" d="M65.38,195.14c1-1.54,1.89-2.85,2.77-4.16.36-.53.6-1.28,1.39-1.27,1.37,0,3.16-.67,4,.36.69.85-.86,1.94-1.48,2.85-3.71,5.35-3.73,5.33.12,10.48a4.28,4.28,0,0,1,.44.61c.54,1.2,2.4,2,1.75,3.47-.43,1-5-.22-6-1.39-1.1-1.4-1.68-3.89-3.32-3.94-1,0-2.08,2.51-3,4-1.58,2.69-4,.94-6.35,1.64.88-2.36,2.35-3.83,3.52-5.47,2.93-4.08,3-4.06.09-8.06-.72-1-1.43-2-2.16-3s-.6-1.48.82-1.6c2.43-.2,4.4.15,5.46,2.7A18.63,18.63,0,0,0,65.38,195.14Z"/><path class="cls-8" d="M161.24,246.12a9.55,9.55,0,0,1-4.86-.81c-.79-.44-2.56-.4-1.85-2,.54-1.21,1.18-2.92,3.27-1.64a5.54,5.54,0,0,0,3.89.46c.78-.15,1.43-.49,1.52-1.4a1.52,1.52,0,0,0-1.17-1.69c-1.26-.42-2.57-.7-3.8-1.19-2.69-1.08-3.85-3-3.56-5.6a5.31,5.31,0,0,1,4.6-4.58,10.68,10.68,0,0,1,7.28.86c.81.44,1.77.92.89,2.06-.61.8-.8,2.43-2.51,1.45a5.62,5.62,0,0,0-3.84-.75c-.77.13-1.48.41-1.53,1.36a1.4,1.4,0,0,0,1.14,1.43c.94.33,1.91.58,2.86.88,3.51,1.1,4.85,2.77,4.65,5.8-.18,2.64-2.1,4.56-5.24,5.18A11.61,11.61,0,0,1,161.24,246.12Z"/><path class="cls-9" d="M179.21,198.64c0-7.45,7-11.7,13.91-8.44,1.16.56,1.59,1.2.78,2.26-.6.79-.39,2.74-2.47,1.6-1.9-1-4.08-1.37-5.83.26-1.91,1.79-1.82,4.22-1.23,6.53.74,2.93,3.35,4.06,6.57,2.52,2.3-1.11,2.48.46,3.07,1.7.86,1.79-.72,1.91-1.72,2.25C184.89,209.82,179.23,206.05,179.21,198.64Z"/><path class="cls-9" d="M255.12,237.13c0-1.16-.05-2.33,0-3.49s-.09-2-1.55-1.85c-1,.1-1.37-.42-1.3-1.35s-.25-2,.86-2c2.11-.16,2-1.49,2-3,0-1.23,3.14-3.28,4.27-2.77s.64,1.48.55,2.21c-.25,2.23.25,3.52,2.87,3.08,1.6-.26,1.37,1,1.41,2s0,2.12-1.5,1.85c-2.47-.43-3,.79-2.77,2.93.15,1.73.05,3.48,0,5.23,0,1.41.63,2.3,2.09,2.12,2.25-.29,1.84,1.46,2,2.59.27,1.6-1.11,1.35-2,1.44-4.67.41-6.91-1.61-7-6.22C255.11,239,255.12,238.05,255.12,237.13Z"/><path class="cls-8" d="M202.56,237.29c0-1.16,0-2.33,0-3.49s0-2.21-1.65-2c-1,.11-1.33-.43-1.27-1.35s-.25-2,1.09-2.12c1.57-.12,1.85-.95,1.81-2.32-.06-1.73,2.24-3.59,4-3.33,1.14.18.78,1.17.71,1.77-.31,2.46.15,4,3.18,3.55,1.44-.22,1.19,1,1.19,1.9s.23,2.11-1.22,1.87c-3.11-.52-3.4,1.19-3.14,3.58a23.91,23.91,0,0,1,0,3.49c-.07,2,.24,3.46,2.83,3.25,1.7-.13,1.09,1.56,1.41,2.42.41,1.09-.4,1.42-1.34,1.55-4.82.65-8-1.46-7.6-6.26C202.62,239,202.56,238.13,202.56,237.29Z"/><path class="cls-10" d="M252.57,195.66c0,3.4-.1,6.81,0,10.21.08,2.06-1.19,1.8-2.43,1.76s-2.54.46-2.52-1.67q.14-10.46,0-20.92c0-2.16,1.41-1.57,2.54-1.63s2.48-.23,2.4,1.79C252.47,188.68,252.57,192.17,252.57,195.66Z"/><path class="cls-8" d="M117.44,199.47c0-2.41,0-4.81,0-7.22,0-.84-.79-2.06.35-2.42s3-.77,3.75.23c1,1.24,1.33.49,2.06.11a6.08,6.08,0,0,1,2.09-.77c1-.09,2.6-.83,2.57,1.16,0,1.23.79,3.07-1.91,3-2.52,0-3.85,1.62-4,4.47a70.82,70.82,0,0,0,0,7.71c.13,2.21-1.27,1.82-2.58,1.89-1.46.09-2.37-.13-2.24-2,.14-2.06,0-4.15,0-6.22Z"/><path class="cls-11" d="M197.25,233.81c0,3.41-.1,6.83,0,10.23.08,2.1-1.25,1.7-2.45,1.72s-2.42.26-2.38-1.8c.13-6.9.11-13.8,0-20.7,0-2.06,1.22-1.72,2.45-1.75s2.45-.16,2.37,1.83C197.15,226.82,197.25,230.32,197.25,233.81Z"/><path class="cls-7" d="M135.35,198.81c0,2.4-.07,4.81,0,7.21.09,2.16-1.43,1.53-2.55,1.61s-2.27.17-2.23-1.68q.16-7.33,0-14.67c0-1.92,1.15-1.63,2.29-1.62s2.59-.41,2.49,1.69C135.26,193.83,135.35,196.32,135.35,198.81Z"/><path class="cls-12" d="M133.12,187.28c-1.79.05-2.86-.76-3-2.57s1-2.74,2.71-2.79,2.9.69,2.94,2.56A2.47,2.47,0,0,1,133.12,187.28Z"/><path class="cls-13" d="M292.18,116.39l0,36.67c-.42.29-.59.08-.59-.32q0-18,0-36a.64.64,0,0,1,.14-.42C291.85,116.29,292,116.37,292.18,116.39Z"/><path class="cls-14" d="M182.76,153.1V116.38H183V153Z"/><path class="cls-15" d="M236.75,152.64V116.42H237v36.22Z"/><path class="cls-16" d="M201.77,152.65V116.42H202v36.23Z"/><path class="cls-17" d="M192,222.19v22.68h-.17V222.19Z"/><path class="cls-18" d="M316.11,206.12c0-.29-.05-.58-.07-.87v-21h.48q0,10.65,0,21.29C316.5,205.72,316.25,205.92,316.11,206.12Z"/><path class="cls-19" d="M300.74,134.65c0-3.16.06-6.32,0-9.47,0-1.43.27-2.18,1.9-2.06s3.5,0,5.24,0a11.2,11.2,0,0,1,11.2,11.09A11.38,11.38,0,0,1,308.6,146.1c-7.86.84-7.86.84-7.86-7Z"/><path class="cls-20" d="M116.16,129.45a6.31,6.31,0,0,1,0-1.74c.45-1.49-1.25-3.84,1-4.47,4.33-1.18,8.67.61,9.71,3.52,1.53,4.24-.62,8.06-5,8.8-5.54.94-5.82.71-5.82-4.87Z"/><path class="cls-21" d="M90,198.59c0,4.47-2.77,6.74-6.38,5.16a3.06,3.06,0,0,1-1.25-.78c-1-1.31,0-7.65,1.22-8.7a3.66,3.66,0,0,1,4.18-.6C89.76,194.66,89.85,196.66,90,198.59Z"/><path class="cls-22" d="M311,197.88c.1,2.46.05,4.74-2.43,5.93a3.29,3.29,0,0,1-3.76-.33c-2.12-1.83-2-4.32-1.53-6.71.57-3,3.07-4.15,5.89-3.1C311.41,194.51,311,196.32,311,197.88Z"/><path class="cls-23" d="M105.72,196.81a6.5,6.5,0,0,1-1.25,0c-.76-.13-1.89.52-2.21-.49-.36-1.17.56-2,1.47-2.64a3.64,3.64,0,0,1,3.36-.31,2.63,2.63,0,0,1,2,2.84c-.2,1.17-1.54.42-2.35.61A4.67,4.67,0,0,1,105.72,196.81Z"/><path class="cls-24" d="M204.21,196.8a7.44,7.44,0,0,1-1.25,0c-.75-.14-1.88.53-2.17-.53s.57-1.86,1.36-2.48a3.65,3.65,0,0,1,3.34-.49,2.65,2.65,0,0,1,2.15,2.72c-.15,1.55-1.61.49-2.44.78A3.27,3.27,0,0,1,204.21,196.8Z"/><path class="cls-25" d="M147.4,196.8a6.51,6.51,0,0,1-1.25,0c-.73-.16-1.87.56-2.13-.57-.21-.9.49-1.73,1.21-2.34a3.68,3.68,0,0,1,3.31-.63,2.69,2.69,0,0,1,2.34,2.83c-.15,1.38-1.63.47-2.49.71A4.09,4.09,0,0,1,147.4,196.8Z"/><path class="cls-26" d="M222.64,237.65c.85-.08,1.7-.1,1.62,1.32a3.65,3.65,0,0,1-3.66,3.28c-1.33,0-2.28-.48-2.37-1.92C218.13,238.69,219.8,237.67,222.64,237.65Z"/><path class="cls-22" d="M269.63,198.57c0,3.51-1.49,5.53-4.25,5.61-3,.09-4.58-1.88-4.56-5.54,0-3.45,1.47-5.28,4.23-5.34C268,193.24,269.59,195.11,269.63,198.57Z"/><path class="cls-20" d="M122.17,231.45c2.87,0,4.45,2,4.42,5.42s-1.6,5.39-4.46,5.38-4.35-1.87-4.36-5.43S119.27,231.42,122.17,231.45Z"/></g></g></svg>