<svg xmlns="http://www.w3.org/2000/svg" viewBox="0 0 354.96 347.76"><defs><style>.cls-1{fill:#231988;}.cls-2{fill:#f0c042;}.cls-3{fill:#459bd4;}.cls-4{fill:#fefefe;}.cls-5{fill:#fdfdfe;}.cls-6{fill:#fcfcfd;}.cls-7{fill:#fdfdfd;}.cls-8{fill:#fafafc;}.cls-9{fill:#faf9fc;}.cls-10{fill:#f9f9fc;}.cls-11{fill:#f7f7fa;}.cls-12{fill:#f8f7fa;}.cls-13{fill:#f8f7fb;}.cls-14{fill:#171383;}.cls-15{fill:#191283;}.cls-16{fill:#1a1384;}.cls-17{fill:#181283;}.cls-18{fill:#191384;}.cls-19{fill:#181483;}.cls-20{fill:#161383;}.cls-21{fill:#171184;}.cls-22{fill:#231989;}.cls-23{fill:#241a89;}.cls-24{fill:#251b89;}.cls-25{fill:#241b89;}.cls-26{fill:#291f8c;}.cls-27{fill:#291f8b;}.cls-28{fill:#271e8b;}.cls-29{fill:#2a218c;}.cls-30{fill:#2b218d;}.cls-31{fill:#30268f;}.cls-32{fill:#302790;}</style></defs><g id="Capa_2" data-name="Capa 2"><g id="Capa_1-2" data-name="Capa 1"><path class="cls-1" d="M26.87,252.07Q22,231,17.19,209.83,8.91,173.53.68,137.23c-1.89-8.41.22-15.93,5.57-22.64q38.6-48.37,77.16-96.77c3.11-3.9,5.88-8.08,9.67-11.39A25.1,25.1,0,0,1,110,0Q177.57,0,245.16.06c8.39,0,15.26,3.62,20.5,10.18Q294.82,46.83,324,83.43c8,10.09,16,20.27,24.14,30.22a27.93,27.93,0,0,1,6,25.38q-12.76,55.58-25.42,111.19c-.13.57-.32,1.12-.48,1.67a5.9,5.9,0,0,1-2.59,1.9c-21.4,10.22-42.74,20.58-64.14,30.82q-16.55,7.92-33.06,15.94c-13,6.29-26.08,12.6-39.17,18.79a26.24,26.24,0,0,1-23.61-.07q-19.95-9.54-39.86-19.11-26.34-12.63-52.67-25.28c-12.59-6.09-25.25-12-37.81-18.16-2-1-4.15-1.74-6.13-2.81A5,5,0,0,1,26.87,252.07Z"/><path class="cls-2" d="M26.87,252.07Q48.5,262.4,70.12,272.73q47.94,23,95.88,46a25.68,25.68,0,0,0,23.15,0q68.4-32.85,136.77-65.78c.75-.36,1.52-.66,2.29-1-1.42,6.23-2.59,12.52-4.3,18.67a24.49,24.49,0,0,1-13.39,15.93q-34,16.49-68.09,32.87-26.52,12.79-53,25.55a26.18,26.18,0,0,1-23.8,0l-94.38-45.5c-8.92-4.3-17.87-8.53-26.74-12.93a25.08,25.08,0,0,1-13.74-17.4C29.39,263.41,28.16,257.73,26.87,252.07Z"/><path class="cls-3" d="M204.48,77.33c-2.18-.72-3.63.49-5.33,2.46-4.18,4.84-9.72,6.16-15.85,4.4-1.65-.47-2.45-.35-3.38,1.22a17.59,17.59,0,0,1-30.83-.81,2.8,2.8,0,0,0-3-1.81c-7.71.26-13.89-3.63-16.43-10.15-2.84-7.3-1-14.28,5.18-19.48a2.61,2.61,0,0,0,1.06-3.31,19,19,0,0,1,31.85-18.79c1.15,1.18,1.76,1.35,3.17.24a17.08,17.08,0,0,1,25,3.54c.69.95,1.1,1.53,2.54,1a20.9,20.9,0,0,1,24,7.27c5.77,8.1,5.68,18.33-.21,26C218,74.57,212,77.44,204.48,77.33Z"/><path class="cls-4" d="M292.32,116.87c.41-1,1.23-1.16,2.22-1.15,4.65,0,9.31-.13,14,.08,15,.66,23.87,14.42,17.76,27.5-3.47,7.41-9.78,10.84-17.74,11.26-4.64.25-9.31,0-14,.07-1,0-1.82-.07-2.24-1.11-.44-.38-.32-.91-.32-1.39q0-16.94,0-33.86C292,117.79,291.89,117.26,292.32,116.87Z"/><path class="cls-4" d="M107.8,135c0-5.65,0-11.31,0-17,0-1.52.31-2.32,2-2.28,4.25.11,8.51-.14,12.74.15,10.36.73,15.92,8.63,13.15,18.41a9.9,9.9,0,0,1-3.9,5.93c-1.79,1.15-1.31,2-.28,3.26,2.22,2.79,4.33,5.69,6.47,8.55.44.58,1.15,1.16.83,2-.41,1-1.44.5-2.21.65-4.82.92-8.32-.71-10.44-5.23-.52-1.11-1.5-2-2.12-3.07-1.1-1.9-2.49-2.54-4.82-2.51-2.58,0-3.43.75-3,3.19a8.34,8.34,0,0,1,0,1.5c0,6.35,0,6.29-6.4,6.16-1.72,0-2.1-.71-2.08-2.24C107.84,146.6,107.8,140.77,107.8,135Z"/><path class="cls-4" d="M256.74,135c0-5.65.06-11.3,0-16.94,0-1.74.54-2.33,2.29-2.32,7.16.08,14.32.07,21.47,0,1.57,0,2.26.43,2.22,2.11-.17,7.09.89,5.7-5.74,5.82-3.32.06-6.66.08-10,0-1.45,0-1.79.47-1.82,1.85-.17,6.66-.22,6.65,6.47,6.65,2.49,0,5,.06,7.49,0,1.37,0,1.88.45,2,1.84.38,5.78.42,5.78-5.24,5.78-3,0-6,.06-9,0-1.32,0-1.66.43-1.7,1.71-.19,5.33-.23,5.32,5,5.32,3.41,0,6.82.05,10.23,0,1.52,0,2.24.33,2.28,2.06.15,5.85.21,5.85-5.68,5.85s-11.65-.09-17.47,0c-2.15.06-2.92-.49-2.86-2.75C256.85,146.26,256.74,140.61,256.74,135Z"/><path class="cls-4" d="M71.22,135.14c0-5.65,0-11.3,0-16.95,0-1.76.38-2.52,2.34-2.5,7.07.11,14.15.1,21.22,0,1.89,0,2.45.64,2.41,2.46-.15,6.58.68,5.39-5.34,5.48-3.5,0-7,0-10.49,0-1.25,0-1.7.33-1.77,1.66-.34,6.84-.38,6.83,6.34,6.83,2.41,0,4.83.08,7.23,0,1.67-.08,2.36.38,2.38,2.2,0,5.43.12,5.43-5.34,5.43-3,0-6,0-9,0-1.15,0-1.55.3-1.62,1.52-.3,5.51-.35,5.5,5.14,5.5,3.41,0,6.83.06,10.24,0,1.59,0,2.25.48,2.21,2.13-.15,7.17.82,5.66-5.5,5.76-5.91.09-11.82-.09-17.72.07-2.29.07-2.8-.71-2.75-2.84C71.31,146.27,71.22,140.7,71.22,135.14Z"/><path class="cls-4" d="M48.83,155.24c-8.74-.18-16.09-3.1-20-11.47a20.16,20.16,0,0,1,16.84-28.55,29.64,29.64,0,0,1,14.39,2.32c1.56.67,2.1,1.47,1.22,3s-.8,3.73-2.23,4.61-3-.78-4.6-1.18a18.93,18.93,0,0,0-9.85-.32,11.46,11.46,0,0,0-8.71,12.56,11.74,11.74,0,0,0,10.81,10.88,21.39,21.39,0,0,0,10.94-1.9c1.54-.71,2.14-.41,2.71,1.17,2.14,5.92,2.18,5.93-3.89,7.76A25,25,0,0,1,48.83,155.24Z"/><path class="cls-4" d="M202.64,135.1c0-5.74,0-11.47,0-17.21,0-1.59.47-2.2,2.13-2.19,7.25.07,14.49.06,21.74,0,1.53,0,2,.57,2,2.05-.12,7.25.83,5.74-5.68,5.88-3.33.07-6.67.08-10,0-1.57-.05-1.94.5-2,2-.12,7-.16,7,6.71,7,2.33,0,4.66,0,7,0,1.38,0,1.88.45,2,1.85.32,5.78.36,5.78-5.28,5.78-2.75,0-5.5.1-8.24,0-1.63-.08-2.2.39-2.14,2.06.12,3.4,0,6.82.06,10.22,0,1.56-.4,2.19-2.11,2.22-6.18.1-6.18.16-6.18-6.09Z"/><path class="cls-4" d="M158.81,115.73c4.74,0,9.49,0,14.23,0,1.57,0,2.25.46,2.21,2.13-.14,7,.8,5.68-5.53,5.81a37.36,37.36,0,0,1-4.49,0c-1.8-.17-2.21.55-2.2,2.25.08,8.55,0,17.11.08,25.66,0,2.29-.44,3.23-3,3.15-5.52-.19-5.52-.05-5.52-5.54,0-7.72-.06-15.45,0-23.17,0-1.87-.5-2.47-2.38-2.36-2.65.16-5.32,0-8,.06-1.49,0-2.09-.5-2.06-2,.17-7.21-1-5.76,5.61-5.89C151.49,115.67,155.15,115.73,158.81,115.73Z"/><path class="cls-5" d="M216.38,184.62c0,4.46-.11,8.92.05,13.38.06,2-1,2-2.44,2s-2.26-.14-2.23-2c.11-6.56.08-13.13,0-19.69,0-1.51.41-2,1.95-2,4.79,0,4.8-.12,6.43,4.33,1.43,3.89,2.85,7.78,4.45,12.17,1.65-4.34,3.18-8.26,4.63-12.2,1.65-4.48,2.56-5,7.25-4.28,1,.15,1.19.62,1.19,1.48,0,6.89,0,13.79,0,20.68,0,2.41-1.9,1.17-3,1.4-1.3.29-1.94-.21-1.91-1.72.09-4.55,0-9.1-.33-13.76q-2.55,6.53-5.12,13c-.5,1.29-.74,2.54-2.76,2.57s-2.27-1.26-2.77-2.54l-5-13Z"/><path class="cls-6" d="M246.2,153.57c-.94,1.82-2.64,1-4,1-5.2,0-4.5.81-4.52-4.38,0-9.69,0-19.37,0-29.06,0-5.43,0-5.43,5.55-5.4,1,0,2-.2,2.85.55.67.37.41,1,.41,1.56q0,17.15,0,34.3C246.5,152.64,246.6,153.16,246.2,153.57Z"/><path class="cls-5" d="M191.84,135.43c0,5.65-.06,11.29,0,16.93,0,1.7-.45,2.3-2.24,2.3-6.12,0-6.12.08-6.12-6.14,0-10,0-20.08,0-30.13,0-2,.54-2.74,2.66-2.71,5.71.09,5.71,0,5.71,5.81Z"/><path class="cls-5" d="M298.84,222.47c-.39,1.44-.71,2.2-2.48,2.2-2.35,0-3.61,1.53-3.73,4.12s-.12,5.16,0,7.72c.08,1.86-1.06,1.76-2.26,1.68s-2.59.53-2.57-1.63c.05-4.81,0-9.63-.09-14.44,0-.56-.16-1.36.65-1.36,1.26,0,2.8-.73,3.7.56.53.77.72.59,1.24.2,3-2.24,6.3-.45,9.45-.74.87-.08.92,1.05,1.14,1.72,1,3.07,2,6.15,3.06,9.45,1.77-3,2.1-6.23,3.17-9.24.6-1.68,3.15-2.79,4.69-2,.76.41.44,1,.26,1.5-2.32,6.74-4.57,13.52-7.05,20.2-1.24,3.33-4,4.63-7.42,4-.83-.15-1.79-.23-1.44-1.47.26-.93-.11-2.21,1.54-2.42,3.18-.4,4.7-3,3.57-6C302.49,231.88,300.65,227.18,298.84,222.47Z"/><path class="cls-5" d="M170.55,226.38c0-3.24,0-6.49,0-9.73,0-1.45.33-2.14,1.94-2,3.4.21,6.83-.3,10.21.43,5.55,1.21,8.49,5.1,8.53,11.26,0,6-3.06,10.23-8.39,11.44-3.62.83-7.31.33-11,.46-1.45.05-1.3-.94-1.3-1.84C170.54,233,170.55,229.7,170.55,226.38Z"/><path class="cls-5" d="M190.93,176.66a43.21,43.21,0,0,1,10.66,0c3.21.39,5.61,2.14,6.41,5.43s.25,6.34-2.8,8.35c-1.18.78-1.06,1.36-.39,2.35,1.26,1.85,2.4,3.78,3.63,5.65.77,1.18.42,1.52-.91,1.6-2.35.13-4.41.07-5.35-2.71-.47-1.38-1.59-2.53-2.21-3.88-.7-1.53-1.95-1.34-3.16-1.22-1.64.16-.81,1.51-1,2.35a12,12,0,0,0,0,2c0,3.73-1.25,4.45-5,2.89-.56-.64-.3-1.42-.31-2.13q0-9.28,0-18.57C190.55,178,190.2,177.24,190.93,176.66Z"/><path class="cls-7" d="M41.41,215.17c1.33-1,2.89-.46,4.33-.51,3.08-.09,6.17.06,9.24-.06,1.83-.07,1.71,1,1.76,2.21s-.33,2-1.8,1.91c-2.25-.1-4.5,0-6.75,0-1.21,0-1.77.24-1.82,1.63-.14,3.79-.21,3.78,3.63,3.78,1,0,2,0,3,0,1.42-.09,2.33.07,2.31,1.94s-.67,2.12-2.22,2c-1.74-.11-3.49,0-5.24,0-1.08,0-1.39.4-1.47,1.45-.36,4.69-.4,4.69,4.22,4.69,1.75,0,3.5.05,5.24,0,1.59-.06,1.45,1,1.42,2s.34,2.13-1.31,2.08c-4.82-.15-9.65.31-14.46-.25-.44-.24-.4-.66-.4-1.08q0-10.4,0-20.8A1.22,1.22,0,0,1,41.41,215.17Z"/><path class="cls-4" d="M299.68,183c0-1.36,0-2.66,0-4,0-2.37,1.75-3.44,4-2.56.79.31.62.89.63,1.43.14,7-.26,13.94.24,20.91,0,.52,0,1.13-.64,1.13-1.2,0-2.74.68-3.5-.39s-.85-.72-1.62-.31c-5.59,3-10.92.14-11.58-6.13a10.92,10.92,0,0,1,1.69-7.85C291.16,182.12,294.26,181.46,299.68,183Z"/><path class="cls-4" d="M79.89,183.66a9,9,0,0,1,5.74-1.58,7.35,7.35,0,0,1,3.28,1.06c3.43,2.16,4.67,8.64,2.5,12.9A7.87,7.87,0,0,1,81,199.61c-1.54-.71-2.34.54-3.58.45-1.46-.1-2.24-.21-2.22-2q.16-10,0-19.91c0-2.12,1.24-1.69,2.42-1.72s2.55-.24,2.32,1.81A53.61,53.61,0,0,0,79.89,183.66Z"/><path class="cls-7" d="M94.61,264.55c.22-10,10-15.43,18.4-10.27.68.42,2.32.8,1.28,2.08-.77.94-1.23,2.84-3.45,1.64-3.87-2.08-7.77-1.43-9.7,1.26-2.25,3.12-2,9.29.5,11.92,2.11,2.23,6.13,2.64,9.18.47,2.29-1.61,2.76.5,3.6,1.43,1.24,1.35-.36,1.84-1.18,2.31a12.88,12.88,0,0,1-13.09.36C95.76,273.39,94.57,269.21,94.61,264.55Z"/><path class="cls-5" d="M168.23,188.52c0-4.91,1.33-8.87,5.49-11.15a12.88,12.88,0,0,1,12.89.14c.72.39,2.32.84,1.37,2.06-.73,1-1.22,2.87-3.44,1.7-4-2.08-7.77-1.46-9.73,1.22-2.2,3-2,9,.31,11.74,2.07,2.37,6.28,2.88,9.36.67,2.29-1.65,2.77.48,3.58,1.41,1.33,1.51-.48,1.93-1.33,2.41a12.59,12.59,0,0,1-13.07.19C169.51,196.56,168.28,192.6,168.23,188.52Z"/><path class="cls-5" d="M71.26,193.51c0,1.33,0,2.66,0,4,0,.8.55,2-.29,2.3-1.09.44-2.9.77-3.52-.11-1-1.49-1.61-.33-2.35,0a7.33,7.33,0,0,1-7.16-.35c-1.91-1.24-2.29-3.13-2.12-5.25a4.8,4.8,0,0,1,3.41-4.45,18.5,18.5,0,0,1,5.38-1c.63,0,1.69.47,1.75-.71a1.75,1.75,0,0,0-1.71-1.82,7.5,7.5,0,0,0-4.88.58c-1.64.93-1.91-.24-2.5-1.26-.79-1.36.11-1.81,1.07-2.18a17.22,17.22,0,0,1,3.32-1c6.36-1.09,9.53,1.6,9.56,8.05v3.24Z"/><path class="cls-5" d="M136.76,193.74c0,1.25.06,2.5,0,3.74-.06.83.69,2-.48,2.39s-2.74.65-3.31-.18c-1-1.49-1.59-.33-2.34,0a7.39,7.39,0,0,1-7.16-.36c-1.91-1.24-2.33-3.13-2.14-5.24a4.94,4.94,0,0,1,3.88-4.62,22.08,22.08,0,0,1,4.91-.8c.63,0,1.69.47,1.75-.71a1.74,1.74,0,0,0-1.7-1.82,7.5,7.5,0,0,0-4.88.58c-1.64.93-1.92-.24-2.51-1.26-.79-1.35.11-1.8,1.07-2.19a13.89,13.89,0,0,1,4.31-1.15c5.94-.38,8.52,2,8.57,7.91,0,1.25,0,2.5,0,3.74Z"/><path class="cls-7" d="M226.71,270.19c0,1.63,0,2.8,0,3.95-.05.84.69,2.05-.43,2.44s-2.73.66-3.3-.14c-1-1.43-1.56-.34-2.35-.06-2.52.89-5.05,1.15-7.39-.45-1.87-1.28-2.18-3.24-1.95-5.32.29-2.54,1.72-4,4.77-4.64,1.37-.3,2.8-.34,4.19-.52.59-.08,1.48.31,1.54-.74a1.7,1.7,0,0,0-1.41-1.8,6.75,6.75,0,0,0-5.09.53c-1.6.89-1.93-.15-2.54-1.19-.77-1.31,0-1.8,1-2.24a12.62,12.62,0,0,1,8.27-.87,5.43,5.43,0,0,1,4.42,5.07C226.63,266.35,226.63,268.51,226.71,270.19Z"/><path class="cls-7" d="M113.64,193c-1.33,0-2.66,0-4,0-.52,0-1.28-.35-1.51.43-.17.59.26,1.11.61,1.57,1.26,1.66,3.75,2,6.66.71,1.27-.57,2-.6,2.82.71s.63,2-.73,2.67c-3.65,1.91-8.54,1.8-11.34-.6-3.24-2.77-3.56-6.48-2.7-10.29,1-4.53,5.21-6.91,10-6,3.92.77,6.69,5,6.22,9.29-.12,1-.51,1.48-1.56,1.46C116.64,192.92,115.14,193,113.64,193Z"/><path class="cls-5" d="M256.7,182.07c5.16.05,7.46,2.29,7.57,7.16.06,2.73.09,5.47.05,8.21,0,.83.85,2.06-.35,2.41s-2.83.74-3.5-.25c-.83-1.23-1.18-.51-1.85-.16-3.74,2-8.26.75-9.4-2.48a5.55,5.55,0,0,1,3.88-7.6,20.38,20.38,0,0,1,4.66-.72c.63,0,1.71.48,1.73-.71a1.78,1.78,0,0,0-1.7-1.83,7.55,7.55,0,0,0-4.88.59c-1.63.94-1.94-.21-2.52-1.23-.76-1.3,0-1.81,1-2.21A12.4,12.4,0,0,1,256.7,182.07Z"/><path class="cls-5" d="M124.05,231.2c-1.33,0-2.66,0-4,0-.55,0-1.36-.22-1.51.46a2.35,2.35,0,0,0,.62,1.55c1.23,1.67,4,2.12,6.63.74,1.57-.83,2.16-.23,3,.92s.45,1.71-.63,2.33c-3.48,2-8.76,1.82-11.58-.48s-3.91-6.93-2.52-11c1.5-4.34,5.65-6.35,10.54-5.1,3.58.91,6.13,5.34,5.44,9.32a1.26,1.26,0,0,1-1.48,1.24C127.05,231.17,125.55,231.2,124.05,231.2Z"/><path class="cls-5" d="M232.24,229.33c0-5.59,3.45-9,9.09-9s9,3.41,9,9-3.62,9.26-9.2,9.19C235.72,238.53,232.22,234.87,232.24,229.33Z"/><path class="cls-7" d="M124.56,277c-5.43.05-9.11-3.54-9.21-9s3.42-9.15,8.91-9.23c5.67-.09,9.33,3.46,9.33,9.06S130,277,124.56,277Z"/><path class="cls-7" d="M279.06,231.2c-1.41,0-2.83,0-4.24,0-.46,0-1.08-.22-1.35.33s.17,1.12.48,1.58c1.21,1.76,4,2.22,6.83.81,1.43-.72,2-.31,2.79.82s.6,1.83-.63,2.52c-3.76,2.08-9.2,1.7-11.95-.94s-3.5-8-1.51-11.83c1.88-3.65,6.34-5.2,10.58-3.67,3.21,1.16,5.56,5.75,4.83,9.26-.2,1-.78,1.12-1.59,1.11Z"/><path class="cls-7" d="M141.79,229.22c0-2,0-4,0-6,0-.84-.69-2.13.46-2.42s2.81-.74,3.73.4c.66.83.92.46,1.51.18,6.12-2.91,10.65-.07,10.68,6.7,0,2.82-.07,5.65,0,8.47.07,2.16-1.44,1.55-2.57,1.62s-2.33.17-2.26-1.68c.11-2.82,0-5.65,0-8.48,0-2-.47-3.68-2.9-3.84a3.6,3.6,0,0,0-3.87,3.69,72.72,72.72,0,0,0-.05,8.22c.09,1.89-.77,2.19-2.37,2.14s-2.59,0-2.44-2.05c.17-2.31,0-4.65,0-7Z"/><path class="cls-7" d="M68.33,229.23c0-2,0-4,0-6,0-.84-.69-2.13.45-2.43s2.81-.73,3.73.4c.66.79.91.48,1.51.2,6.13-2.92,10.66-.09,10.69,6.67,0,2.82-.07,5.65,0,8.47.08,2.16-1.42,1.56-2.56,1.63s-2.34.18-2.27-1.67c.11-2.83,0-5.65,0-8.48,0-2-.43-3.7-2.88-3.85a3.61,3.61,0,0,0-3.89,3.67c-.16,2.57-.13,5.15-.06,7.73,0,1.71-.09,2.75-2.35,2.7-2,0-2.58-.67-2.44-2.58.15-2.15,0-4.32,0-6.48Z"/><path class="cls-7" d="M230.4,267.81c0-2,0-4,0-6,0-.86-.71-2.1.33-2.48s2.86-.74,3.75.25,1.07.51,1.74.2c6-2.77,10.5,0,10.53,6.62,0,2.91-.07,5.81,0,8.71.07,1.95-1.25,1.58-2.35,1.58s-2.43.38-2.38-1.56c.08-2.81,0-5.64,0-8.46,0-2-.3-3.91-3-4-2.33-.08-3.82,1.47-3.89,4.17s-.13,5.32,0,8c.11,1.91-.92,1.93-2.3,1.93s-2.65.11-2.52-2c.15-2.31,0-4.64,0-7Z"/><path class="cls-7" d="M156.89,190.84c0,2.15,0,4.31,0,6.47,0,.85.83,2.08-.21,2.49s-2.93.75-3.77-.16-1.38-.46-2.14-.09c-4.77,2.37-9.61-.09-10.09-5.32a104,104,0,0,1-.16-10.45c0-2.19,1.81-1.09,2.83-1.27s2-.15,1.93,1.42c-.08,2.82-.06,5.64,0,8.46s1.07,4,3,4.08a3.83,3.83,0,0,0,3.81-3.86,68.22,68.22,0,0,0,.07-8.46c-.09-1.89,1-1.73,2.2-1.67s2.62-.53,2.5,1.64,0,4.48,0,6.72Z"/><path class="cls-7" d="M187.61,268.12c0,2,0,4,0,6,0,.85.74,2.1-.36,2.45s-2.88.75-3.75-.29-1.09-.43-1.72-.12c-5.56,2.77-10.4-.15-10.52-6.35-.05-2.82.1-5.66-.05-8.48-.1-1.83.63-2.18,2.29-2.2s2.57.36,2.42,2.33c-.18,2.48-.08,5,0,7.48.07,2.89,1.11,4.27,3.1,4.3,2.15,0,3.7-1.66,3.8-4.38.09-2.57.15-5.16,0-7.73-.11-1.86.82-2,2.26-2s2.65-.13,2.5,2c-.18,2.31,0,4.65,0,7Z"/><path class="cls-5" d="M136.47,267.76c0-2,0-4,0-6,0-.85-.75-2.1.37-2.44s2.88-.75,3.75.3,1.11.45,1.75.15c5.89-2.76,10.43.06,10.47,6.48,0,2.91-.09,5.83,0,8.73.08,1.83-1,1.78-2.23,1.73s-2.59.38-2.5-1.71c.11-2.74.05-5.48,0-8.23,0-2-.22-3.94-2.89-4.09-2.33-.13-3.86,1.4-3.95,4.13s-.14,5.33,0,8c.11,1.9-.89,1.94-2.29,1.94s-2.64.07-2.5-2c.16-2.32,0-4.65,0-7Z"/><path class="cls-5" d="M268.14,191c0-1.91,0-3.82,0-5.72,0-.87-.78-2.09.14-2.52,1.15-.54,2.95-.77,3.78.1,1,1.07,1.5.36,2.24,0,5.43-2.44,10,.4,10.1,6.31.05,3.07-.07,6.14,0,9.21.08,2.14-1.38,1.57-2.53,1.64s-2.3.17-2.22-1.69c.13-2.81.05-5.64,0-8.46,0-2-.27-3.73-2.82-3.84a3.64,3.64,0,0,0-4,3.75,70.27,70.27,0,0,0,0,8.21c.12,2-.84,2.06-2.38,2.08s-2.47-.2-2.34-2.12c.17-2.31,0-4.65,0-7Z"/><path class="cls-6" d="M46,190.3c0-2.33-.13-4.67,0-7s-.37-3.32-2.78-2.88c-.57.1-1.17,0-1.75,0-1.56.16-2.4-.13-2.41-2.08s1-2,2.48-2c4.74,0,9.49.06,14.24,0,1.41,0,2.11.23,2.06,1.88,0,1.5-.24,2.22-2,2.23-5,0-5,.11-5,5.08,0,4.16-.12,8.32,0,12.47.08,2.11-1.06,2-2.47,2s-2.62.08-2.5-2C46.1,195.46,46,192.87,46,190.3Z"/><path class="cls-7" d="M208.62,220.35a10.72,10.72,0,0,1,3.89.65c.79.38,2.31.43,1.64,1.89-.53,1.17-1.07,2.88-3,1.6a.79.79,0,0,0-.23-.09c-1.59-.34-3.76-1.24-4.37.75s1.82,1.84,3.1,2.27c2.45.81,4.79,1.7,5.16,4.7a5,5,0,0,1-3,5.52,9.91,9.91,0,0,1-9.14-.24c-.73-.37-2-.77-1.11-2,.62-.86,1-2.56,2.77-1.43a5.85,5.85,0,0,0,3.88.64c.89-.1,1.62-.45,1.69-1.49s-.55-1.34-1.31-1.58c-1-.32-2.09-.57-3.11-.93-2.88-1-4-2.65-3.83-5.38.17-2.46,1.93-4.24,4.71-4.69C207.17,220.42,208,220.4,208.62,220.35Z"/><path class="cls-7" d="M94.22,220.35a10.89,10.89,0,0,1,3.88.63c.84.42,2.47.41,1.62,2.08-.56,1.12-1,2.61-2.9,1.48a4.9,4.9,0,0,0-2.91-.52c-.86.06-1.76.26-1.93,1.23s.65,1.45,1.47,1.72c1.11.35,2.26.59,3.34,1,2.3.87,3.72,2.4,3.64,5a5.16,5.16,0,0,1-3.79,5,10,10,0,0,1-8.22-.52c-.78-.39-2.18-.75-1.21-2.13.64-.9,1-2.46,2.8-1.33a5.75,5.75,0,0,0,4.12.58,1.49,1.49,0,0,0,1.4-1.49,1.43,1.43,0,0,0-1.12-1.47c-1.1-.36-2.24-.62-3.33-1-2.87-1-4-2.65-3.83-5.37.17-2.45,1.93-4.23,4.7-4.69C92.77,220.43,93.61,220.4,94.22,220.35Z"/><path class="cls-7" d="M161.53,277a9.69,9.69,0,0,1-5.21-1.22c-.74-.47-1.82-.88-.9-2.07.66-.84,1-2.25,2.65-1.32a5.67,5.67,0,0,0,4.34.62,1.57,1.57,0,0,0,1.29-1.35,1.37,1.37,0,0,0-1-1.52c-1.1-.39-2.24-.65-3.34-1-2.71-.91-4-2.59-3.94-5.1s1.51-4.22,4.18-4.91a11.24,11.24,0,0,1,7.34.57c.73.31,1.81.63,1,1.73-.58.8-.66,2.54-2.42,1.75a7.06,7.06,0,0,0-3.64-.66c-.76.08-1.55.23-1.68,1.17a1.46,1.46,0,0,0,1.21,1.64c.79.26,1.6.48,2.4.71,3.49,1,5,2.83,4.81,5.71s-2.37,4.77-5.78,5.16C162.34,277,161.84,277,161.53,277Z"/><path class="cls-7" d="M259.49,232.78c1.19-3.74,2.21-7,3.25-10.2.52-1.62,3.35-2.66,4.81-1.83.79.45.34,1,.16,1.51-1.75,4.84-3.6,9.64-5.27,14.51-.58,1.7-1.78,1.43-3,1.43s-2.43.29-3-1.39c-1.71-4.85-3.55-9.66-5.38-14.47-.44-1.15-.3-1.59,1.07-1.7,2.32-.2,3.86.18,4.45,2.88C257.2,226.5,258.38,229.36,259.49,232.78Z"/><path class="cls-6" d="M103.81,229.72c0-1.16,0-2.32,0-3.48s-.06-2-1.54-1.85c-.92.1-1.41-.34-1.35-1.31.06-.8-.21-1.87,1-2,1.68-.14,2-1,1.89-2.49s2.52-3.59,4.06-3.22c1.09.26.67,1.24.62,1.86-.18,2.22-.08,4,3,3.46,1.42-.24,1.19,1,1.24,1.89s0,2-1.37,1.77c-2.65-.44-3.1.91-2.86,3.1a31.08,31.08,0,0,1,0,3.74c0,1.91-.14,3.73,2.78,3.48,1.45-.12.93,1.49,1.25,2.32.38,1-.39,1.26-1.18,1.45-4.3,1.06-7.44-1.32-7.55-5.76C103.79,231.71,103.81,230.72,103.81,229.72Z"/><path class="cls-7" d="M251.27,268.14c0-1.16-.05-2.33,0-3.49s-.12-2-1.57-1.81c-.84.11-1.24-.37-1.21-1.17s-.28-1.95.86-2c2-.16,1.92-1.36,1.9-2.78s2.8-3.36,4.1-2.93c1,.34.62,1.27.59,1.93-.08,2.05-.14,3.89,2.88,3.35,1.59-.29,1.31,1,1.38,2,.08,1.12-.27,1.86-1.51,1.64-2.53-.46-2.91.88-2.74,3,.13,1.73,0,3.49,0,5.23,0,1.36.63,2.39,2.11,2.15,2.16-.35,1.75,1.35,2,2.36.34,1.66-1.12,1.33-2,1.42-4.53.46-6.75-1.56-6.81-6.07C251.26,270,251.27,269.06,251.27,268.14Z"/><path class="cls-7" d="M225.46,220.37a10.63,10.63,0,0,1,3.67.61c1,.45,2.43.64,1.58,2.38-.65,1.31-1.07,2.47-3.06,1.39a4.14,4.14,0,0,0-5.63,1c-1.27,1.63-1.26,5.68,0,7.37,1.53,2.07,3.68,2,5.6,1.06s2.41-.14,3.07,1.31c.9,2-.65,2.1-1.76,2.43-3.68,1.12-7.36,1.34-10.21-1.75s-2.94-7-1.62-10.77C218.23,222.05,221.37,220.3,225.46,220.37Z"/><path class="cls-7" d="M207.14,277c-4-.05-5.88-1.83-6-5.49-.09-2.33,0-4.66,0-7,0-1-.09-1.86-1.44-1.72-.9.09-1.43-.26-1.38-1.26s-.18-2,1.18-2,1.57-.85,1.59-2a4,4,0,0,1,3.93-3.66c.71,0,.79.44.81,1a20.68,20.68,0,0,1,0,2.49c-.14,1.39.35,2,1.81,1.86,1.27-.12,2.45-.23,2.46,1.77s-.95,2.06-2.34,1.88c-1.58-.2-2,.5-1.94,2s.05,3.16,0,4.74c0,2-.18,3.91,2.9,3.65,1.36-.12.92,1.49,1.16,2.35s-.26,1.23-1.05,1.31Z"/><path class="cls-8" d="M196.21,265.19c0,3.24-.1,6.48,0,9.71.08,2-1.05,1.87-2.37,1.84s-2.48.24-2.46-1.77c.09-6.72.08-13.44,0-20.16,0-2.06,1.3-1.65,2.51-1.72,1.38-.08,2.39,0,2.31,1.9C196.11,258.39,196.21,261.79,196.21,265.19Z"/><path class="cls-9" d="M100.21,188.24c0,3.32-.1,6.65,0,10,.08,2-1.12,1.83-2.41,1.8s-2.49.33-2.46-1.74c.1-6.64.13-13.29,0-19.93-.05-2.21,1.2-1.91,2.54-1.93s2.44-.12,2.34,1.87C100.09,181.59,100.21,184.91,100.21,188.24Z"/><path class="cls-10" d="M64.23,229.46c0,2.33-.1,4.67,0,7,.12,2-1.2,1.75-2.44,1.76s-2.47.19-2.42-1.8q.16-7,0-14c0-2,1.21-1.76,2.46-1.78s2.52-.18,2.4,1.82C64.13,224.8,64.23,227.14,64.23,229.46Z"/><path class="cls-7" d="M198.81,229.39c0,2.41-.08,4.82,0,7.21.09,2-1.2,1.63-2.3,1.58s-2.45.57-2.42-1.46c.07-4.81.08-9.62,0-14.43,0-2.15,1.43-1.51,2.56-1.61,1.28-.11,2.27,0,2.17,1.75C198.71,224.74,198.81,227.07,198.81,229.39Z"/><path class="cls-7" d="M137.84,229.41c0,2.41-.08,4.82,0,7.22.09,2-1.24,1.58-2.33,1.55s-2.42.53-2.39-1.48q.1-7.22,0-14.43c0-2.17,1.47-1.48,2.58-1.59,1.3-.13,2.25,0,2.14,1.77C137.74,224.76,137.84,227.09,137.84,229.41Z"/><path class="cls-11" d="M62,213.11a2.45,2.45,0,0,1,2.7,2.6c0,1.85-1.19,2.63-2.93,2.61a2.4,2.4,0,0,1-2.69-2.59C59.11,213.9,60.2,213.07,62,213.11Z"/><path class="cls-12" d="M138.33,215.61a2.44,2.44,0,0,1-2.7,2.71c-1.72,0-2.9-.74-2.86-2.64,0-1.72,1-2.53,2.69-2.56S138.26,213.92,138.33,215.61Z"/><path class="cls-13" d="M196.47,213.11c1.8,0,2.84.85,2.82,2.71s-1.17,2.48-2.75,2.5-2.75-.67-2.8-2.45S194.71,213.17,196.47,213.11Z"/><path class="cls-14" d="M292.32,116.87q.31,18.33,0,36.65c-.75.36-.57-.26-.57-.59q0-17.73,0-35.46a1.73,1.73,0,0,1,.16-.66S292.18,116.85,292.32,116.87Z"/><path class="cls-15" d="M246.2,153.57l-.12-37.28c.77.36.67,1.06.67,1.72q0,17.44,0,34.89a2.07,2.07,0,0,1-.14.69S246.34,153.58,246.2,153.57Z"/><path class="cls-16" d="M237.18,116.94v36.51h-.24V116.85Z"/><path class="cls-17" d="M201.84,153.45V116.94h.24v36.62Z"/><path class="cls-18" d="M70.74,116.94v36.52H70.5V116.84Z"/><path class="cls-19" d="M190.93,176.66q0,11.39-.08,22.78c-.77.33-.56-.31-.56-.62,0-6.89,0-13.78,0-20.67C190.28,177.56,190.29,177,190.93,176.66Z"/><path class="cls-20" d="M169.9,237.42V215.19h.2v22.23Z"/><path class="cls-21" d="M41.41,215.17q0,11.4.08,22.78a1.21,1.21,0,0,1-.65-1.23q0-10.59,0-21.19a.56.56,0,0,1,.15-.41C41.07,215.06,41.26,215.15,41.41,215.17Z"/><path class="cls-22" d="M301.19,124.2c5.48-2.42,13.74.14,16.55,5.14a11.64,11.64,0,0,1-3.56,15.4c-4.05,2.62-8.5,2.43-13,1.45.78-1.44,0-2.9,0-4.36C301.26,136,301.3,130.08,301.19,124.2Z"/><path class="cls-17" d="M301.19,124.2c.63.47.54,1.16.54,1.81q0,9.19,0,18.37c0,.66.09,1.35-.54,1.81Q300.66,135.2,301.19,124.2Z"/><path class="cls-22" d="M116.25,130.47v-3c0-3.9,0-3.9,4-3.83,5.17.08,7.47,2.39,7.06,7.08a5.24,5.24,0,0,1-3.83,5c-2.26.73-5,1.33-6.75.17C115.24,134.87,116.59,132,116.25,130.47Z"/><path class="cls-23" d="M177.87,234.15c-2,.52-2.68-.49-2.56-2.79.19-3.65.09-7.31,0-11,0-1.29.41-1.68,1.72-1.74,7-.32,10.29,3.47,8.79,10.27C185.06,232.55,182.81,234.08,177.87,234.15Z"/><path class="cls-24" d="M198.06,180.44c3.71,0,5.29,1.35,5.2,4.12s-1.62,3.89-5.3,3.67c-4.26-.26-1.43-3.59-2.07-5.42S196.33,180.06,198.06,180.44Z"/><path class="cls-25" d="M299.63,190.75a15.07,15.07,0,0,1,0,2.23,3.71,3.71,0,0,1-3.67,3.45c-2.18.13-3.34-1.24-3.74-3.26a9.74,9.74,0,0,1-.19-2.47c.2-3.25,1.64-4.81,4.26-4.7C299,186.12,299.68,187,299.63,190.75Z"/><path class="cls-24" d="M79.88,192.07c.06-1.23-.16-2.49.4-3.68a3.83,3.83,0,0,1,4-2.4c1.82.1,2.62,1.25,3.07,2.78a8,8,0,0,1,.23,3.7c-.51,2.8-2.06,4.2-4.48,4C80.44,196.23,79.88,195.47,79.88,192.07Z"/><path class="cls-26" d="M66.48,193.13a3.77,3.77,0,0,1-3.77,3.34c-1.23-.07-2.19-.66-2.06-2,.26-2.61,2.44-2.25,4.19-2.43C65.65,192,66.63,191.82,66.48,193.13Z"/><path class="cls-27" d="M130.13,192c.7.12,1.87-.5,1.87,1.1a3.76,3.76,0,0,1-3.48,3.32c-1.32.06-2.31-.43-2.38-1.92S127.37,192.13,130.13,192Z"/><path class="cls-28" d="M217.89,273.22a1.69,1.69,0,0,1-1.74-1.87c.1-2.69,2.29-2.33,4-2.54.77-.09,1.71-.3,1.73,1.06C221.92,271.53,220.14,273.23,217.89,273.22Z"/><path class="cls-29" d="M111,189.28a4.7,4.7,0,0,1-.75,0c-.76-.13-2,.45-2.21-.45a2.52,2.52,0,0,1,1.53-2.61,3.62,3.62,0,0,1,2.89-.34c1.35.4,2.35,1.34,2.23,2.64-.14,1.5-1.61.49-2.45.74A4.27,4.27,0,0,1,111,189.28Z"/><path class="cls-30" d="M257.75,192c.64.2,1.86-.6,1.9,1a3.8,3.8,0,0,1-3.59,3.42c-1.33,0-2.26-.52-2.29-2S255,192.13,257.75,192Z"/><path class="cls-31" d="M121.7,227.56a6.53,6.53,0,0,1-1,0c-.76-.13-1.92.47-2.2-.43-.36-1.11.57-2,1.46-2.6a3.35,3.35,0,0,1,2.85-.43,2.69,2.69,0,0,1,2.33,2.78c-.15,1.34-1.62.44-2.47.67A3.56,3.56,0,0,1,121.7,227.56Z"/><path class="cls-25" d="M237.07,229.31c0-3.4,1.59-5.22,4.38-5.14s4.24,2.1,4.16,5.41-1.63,5.18-4.42,5.12S237,232.74,237.07,229.31Z"/><path class="cls-23" d="M120.26,267.87c0-3.46,1.47-5.24,4.29-5.19s4.26,1.95,4.22,5.3-1.64,5.28-4.33,5.25S120.25,271.29,120.26,267.87Z"/><path class="cls-32" d="M276.6,227.56a3.55,3.55,0,0,1-1,0c-.78-.23-2.05.66-2.27-.65a2.63,2.63,0,0,1,1.5-2.39,3.56,3.56,0,0,1,2.86-.41,2.71,2.71,0,0,1,2.35,2.78c-.15,1.33-1.62.44-2.47.67A3.63,3.63,0,0,1,276.6,227.56Z"/></g></g></svg>