<svg xmlns="http://www.w3.org/2000/svg" viewBox="0 0 354.82 348.08"><defs><style>.cls-1{fill:#231988;}.cls-2{fill:#f0c042;}.cls-3{fill:#459bd4;}.cls-4{fill:#fefefe;}.cls-5{fill:#fdfdfe;}.cls-6{fill:#fcfcfd;}.cls-7{fill:#fdfdfd;}.cls-8{fill:#fdfcfd;}.cls-9{fill:#f9f8fb;}.cls-10{fill:#fbfbfd;}.cls-11{fill:#191384;}.cls-12{fill:#181283;}.cls-13{fill:#191283;}.cls-14{fill:#1a1283;}.cls-15{fill:#191383;}.cls-16{fill:#191284;}.cls-17{fill:#161183;}.cls-18{fill:#181284;}.cls-19{fill:#231989;}.cls-20{fill:#241a89;}.cls-21{fill:#29208c;}.cls-22{fill:#281f8b;}.cls-23{fill:#2a208c;}</style></defs><g id="Capa_2" data-name="Capa 2"><g id="Capa_1-2" data-name="Capa 1"><path class="cls-1" d="M26.84,252.27Q21.4,228.47,16,204.65c-5.13-22.52-10.3-45-15.3-67.56-1.82-8.21.23-15.65,5.46-22.22Q33.65,80.29,61.16,45.72c9.17-11.52,18.41-23,27.48-34.59C94.56,3.57,102.16,0,111.75,0q66,.11,131.94,0a26.75,26.75,0,0,1,22.1,10.57q41.41,52.06,82.88,104.1c5.77,7.24,7.33,15.32,5.32,24.17q-12.62,55.41-25.29,110.81c-.19.81-.4,1.61-.6,2.41a6.92,6.92,0,0,1-3.24,2.24c-13.84,6.56-27.6,13.28-41.39,19.93q-28.89,14-57.81,27.83-17.44,8.39-34.87,16.79c-8.94,4.32-17.56,4.44-26.58,0-21.77-10.61-43.66-21-65.48-31.48q-18.33-8.82-36.68-17.61C51.91,265,41.83,260,31.63,255.31,29.91,254.52,28,253.93,26.84,252.27Z"/><path class="cls-2" d="M26.84,252.27q21.74,10.39,43.46,20.78Q118.12,296,165.94,319a25.81,25.81,0,0,0,23.36-.15q58.81-28.32,117.61-56.65c7-3.4,14.13-6.71,21.19-10.07-1.36,6.08-2.5,12.22-4.15,18.22a24.72,24.72,0,0,1-13.34,16.31c-17.35,8.46-34.77,16.79-52.15,25.19q-21.58,10.43-43.14,20.88c-8.84,4.27-17.65,8.61-26.54,12.76a25.71,25.71,0,0,1-22.91-.12q-39-18.76-78-37.64c-13.64-6.59-27.23-13.29-41-19.69C37.77,283.74,32.08,277,30.16,267.1,29.2,262.13,28,257.21,26.84,252.27Z"/><path class="cls-3" d="M204.06,77.39c-1.94-.78-3.26.47-4.73,2.16-4.5,5.19-10.19,6.62-16.7,4.52a1.72,1.72,0,0,0-2.5,1c-3.4,6-8.71,9.23-15.54,9.17-7-.06-12.41-3.44-15.7-9.74A2.64,2.64,0,0,0,146,82.88c-7.68.23-13.91-3.69-16.41-10.23-2.78-7.27-1-14.17,5.09-19.31a2.84,2.84,0,0,0,1.14-3.51,19,19,0,0,1,8.62-21.94,18.8,18.8,0,0,1,23.35,3.3c1.08,1.09,1.65,1.28,3,.22,8.09-6.41,18.63-5,24.89,3.22.82,1.08,1.34,1.7,3,1.19,8.78-2.78,16.45-.75,22.68,6,5.62,6.09,6.9,15.75,3.32,23.34C220.86,73.05,213.39,77.59,204.06,77.39Z"/><path class="cls-4" d="M292.34,135.23c0-5.65.06-11.3,0-16.95,0-1.79.47-2.53,2.39-2.48,4.32.12,8.65-.07,13,.06,8.27.26,14.95,3.47,18.51,11.27,6,13-3.35,27.26-17.92,27.6-4.57.1-9.15-.07-13.72.06-1.87.05-2.23-.74-2.21-2.37C292.38,146.69,292.34,141,292.34,135.23Z"/><path class="cls-4" d="M107.75,135.15c0-5.57.07-11.15,0-16.72,0-1.89.41-2.72,2.48-2.63,4.41.18,8.85-.15,13.23.28,9.64,1,14.75,8.6,12.32,18a11.25,11.25,0,0,1-4.49,6.69c-1,.72-1,1.24-.28,2.16,2.4,3.08,4.74,6.22,7.07,9.35.43.58,1.11,1.15.67,2s-1.18.47-1.81.49c-6.78.24-6.78.24-10.69-5.17a13.51,13.51,0,0,1-1.57-2.24c-1.41-3.26-4-3.69-7.11-3.32-1.13.13-1.38.52-1.36,1.53,0,2.33,0,4.66,0,7,.06,1.53-.34,2.23-2.07,2.27-6.39.14-6.39.21-6.39-6.16Z"/><path class="cls-4" d="M256.67,135.31c0-5.74.06-11.48,0-17.22,0-1.75.56-2.3,2.3-2.28q10.74.1,21.47,0c1.63,0,2.22.56,2.19,2.17-.11,7,.73,5.66-5.57,5.77-3.42.06-6.83.06-10.24,0-1.29,0-1.69.35-1.75,1.68-.29,6.83-.33,6.83,6.57,6.83,2.49,0,5,0,7.49,0,1.29,0,1.71.47,1.79,1.74.39,5.89.43,5.89-5.35,5.89-2.92,0-5.83.05-8.74,0-1.27,0-1.7.34-1.76,1.67-.21,5.37-.26,5.37,5,5.37,3.5,0,7,0,10.49,0,1.51,0,2,.55,2.07,2,.24,5.87.29,5.87-5.43,5.87-6.08,0-12.16-.06-18.23,0-1.74,0-2.33-.49-2.31-2.26C256.73,146.79,256.67,141.05,256.67,135.31Z"/><path class="cls-4" d="M71.22,135.21c0-5.74,0-11.48,0-17.22,0-1.62.47-2.2,2.13-2.18q10.86.09,21.73,0c1.53,0,2.06.57,2,2.06-.13,7.22.83,5.74-5.7,5.88-3.33.06-6.66.06-10,0-1.39,0-1.84.38-1.89,1.81-.22,6.7-.27,6.7,6.49,6.7,2.5,0,5,0,7.5,0,1.38,0,1.86.46,1.93,1.86.27,5.77.31,5.77-5.49,5.77-2.83,0-5.67.05-8.5,0-1.29,0-1.91.17-1.94,1.72-.12,5.31-.19,5.31,5.11,5.31,3.49,0,7,0,10.49,0,1.33,0,1.92.4,2,1.84.38,6.07.42,6.07-5.72,6.07-5.83,0-11.66-.08-17.49,0-2,0-2.76-.46-2.71-2.61C71.31,146.53,71.22,140.87,71.22,135.21Z"/><path class="cls-4" d="M48.58,155.38c-8.66-.24-15.89-3.22-19.73-11.47a20.2,20.2,0,0,1,16.81-28.59,29.66,29.66,0,0,1,14.39,2.32c1.55.66,2.1,1.47,1.23,3s-.8,3.73-2.22,4.62-3-.77-4.59-1.17a18.84,18.84,0,0,0-9.6-.39,11.46,11.46,0,0,0-9,12.61,11.75,11.75,0,0,0,11,10.93,21.94,21.94,0,0,0,10.92-2c1.32-.62,1.88-.33,2.41,1,2.33,5.85,2.13,6.27-4,8.09A26.64,26.64,0,0,1,48.58,155.38Z"/><path class="cls-4" d="M202.59,135.35c0-5.74,0-11.48,0-17.21,0-1.69.42-2.36,2.23-2.34,7.16.09,14.32.07,21.48,0,1.65,0,2.19.58,2.16,2.18-.13,7,.76,5.64-5.57,5.76-3.42.06-6.83.07-10.24,0-1.44,0-1.92.45-1.84,1.86a39.68,39.68,0,0,1,0,5.23c-.13,1.64.62,1.93,2.05,1.9,3.74-.08,7.49,0,11.24-.06,1.69,0,2.32.41,2.33,2.22,0,5.43.08,5.43-5.36,5.43-2.58,0-5.17.11-7.74,0-1.88-.1-2.67.34-2.54,2.42.19,3.23,0,6.49.07,9.73,0,1.64-.34,2.36-2.19,2.37-6,0-6,.12-6-6Z"/><path class="cls-5" d="M163.19,124.26c-.52,1.36-.23,2.78-.23,4.17,0,8-.06,15.93,0,23.9,0,1.79-.43,2.47-2.36,2.46-6,0-6,.06-6-6q0-11.07,0-22.15a4.14,4.14,0,0,0-.25-2.43h0c-2.7-1.09-5.52-.18-8.26-.51-1.25-.15-3.14.76-3.61-.72a13.33,13.33,0,0,1,0-6.64c.14-.71,1.12-.54,1.77-.54,9.66,0,19.31,0,29,0,1.54,0,2,.62,2,2.09-.14,7.1.86,5.65-5.73,5.89-2.08.08-4.24-.63-6.24.48Z"/><path class="cls-5" d="M183.4,135.33c0-5.73,0-11.47,0-17.2,0-1.7.51-2.31,2.28-2.33,6.14-.07,6.13-.14,6.13,5.89,0,10.14,0,20.27.05,30.41,0,2-.49,2.74-2.63,2.7-5.8-.11-5.8,0-5.8-5.76Z"/><path class="cls-6" d="M246,135.39c0,5.64-.06,11.29,0,16.94,0,1.79-.48,2.47-2.39,2.46-6,0-6,.06-6-6,0-10,.05-20.09,0-30.14,0-2.11.45-2.92,2.74-2.87,5.68.12,5.68,0,5.68,5.65Z"/><path class="cls-5" d="M269.38,190.66c0-1.72.11-3.38,0-5-.18-2.05,1.16-1.82,2.41-1.77s2.52-.52,2.51,1.64c0,7.31.1,14.63.13,21.94,0,1.2-3.09,2-4.21.8-.83-.87-1.1-.57-1.86-.15-5.18,2.82-10.33.53-11.79-5.18a13.34,13.34,0,0,1-.19-5.69C257.49,190.83,262.28,188.36,269.38,190.66Z"/><path class="cls-5" d="M87.62,183.34A12.81,12.81,0,0,1,94.06,185c.76.42,1.92.89,1,2-.73.84-.85,2.84-2.86,1.74a9,9,0,0,0-6-1c-1.19.22-2.23.73-2.38,2.17a2.45,2.45,0,0,0,1.81,2.66c1.63.62,3.32,1.07,5,1.65,3.86,1.38,5.73,4,5.51,7.64s-2.4,6-6.39,6.93a13.75,13.75,0,0,1-10.34-1.54c-.75-.42-1.94-.9-.8-2,.79-.75.89-2.83,2.91-1.64a9.11,9.11,0,0,0,6.5,1.12c1.49-.29,2.67-1,2.84-2.68a3,3,0,0,0-2.25-3.44c-1.17-.42-2.35-.83-3.54-1.19-4.76-1.46-6.72-4-6.22-8,.44-3.63,3.58-6,8.16-6.18Z"/><path class="cls-5" d="M84.7,234.84c.08-4.89,1.31-9.06,5.62-11.47a13.62,13.62,0,0,1,13.6,0c.83.44,2.64.88,1.41,2.44-.81,1-1.32,2.91-3.63,1.53-3.79-2.28-8.1-1.5-10.12,1.37-2.51,3.57-2.08,10.1.84,12.75a7.55,7.55,0,0,0,9.27.19c2.45-1.83,3.17.36,4,1.47,1.09,1.46-.75,1.94-1.56,2.42a13.29,13.29,0,0,1-13.57.39C86.1,243.56,84.82,239.34,84.7,234.84Z"/><path class="cls-5" d="M182.18,197.49a7,7,0,0,0,3.46,6.37,7.72,7.72,0,0,0,8.69-.75c2.16-1.59,2.48.77,3.39,1.52,1.31,1.09-.06,1.68-.8,2.21-8.06,5.78-18.7,1.24-19.9-8.59-.62-5,.36-9.76,4.88-12.79s9.27-2.84,14-.49c.87.43,2.68.87,1.72,2.38-.78,1.22-1.44,3.06-4,1.58C187.64,185.44,182.17,189.12,182.18,197.49Z"/><path class="cls-5" d="M232.13,240.3c0,1.33.05,2.66,0,4,0,.85.65,2.06-.36,2.49s-3,.72-3.55-.07c-1.06-1.4-1.59-.42-2.34,0-2.64,1.36-6.25,1.08-8.24-.64a6.31,6.31,0,0,1-1.36-6.9c.9-2.44,3-3.21,5.25-3.66,1.21-.24,2.47-.22,3.71-.39.66-.08,1.69.43,1.83-.68a2,2,0,0,0-1.43-2.12,6.92,6.92,0,0,0-5.57.46c-1.84,1-2.05-.45-2.65-1.44-.78-1.31.12-1.77,1.1-2.2a15.06,15.06,0,0,1,4.81-1.21c5.56-.46,8.5,2.11,8.74,7.67.07,1.58,0,3.16,0,4.73Z"/><path class="cls-5" d="M140.8,201.26c-1.49,0-3,.07-4.49,0-1.69-.12-1.55.68-1,1.76,1.13,2.22,4.06,2.8,7.32,1.48.83-.33,1.58-1.23,2.57,0,1.47,1.88,1.45,2.44-.69,3.5-4.23,2.1-9.56,1.46-12.3-1.49s-3.33-9-1.1-12.87A8.85,8.85,0,0,1,142,190.18c3.38,1.34,5.88,6.3,5.09,9.95-.21,1-.76,1.14-1.59,1.13C144,201.24,142.38,201.25,140.8,201.26Z"/><path class="cls-5" d="M114.88,201.62c0,1.41.06,2.83,0,4.23,0,.91.94,2.23-.38,2.63s-2.74.71-3.75-.33c-.72-.74-1-.41-1.57,0a7.92,7.92,0,0,1-5.29,1.06,5.4,5.4,0,0,1-5.12-4.92c-.36-3.25.88-5.5,3.72-6.56a19.19,19.19,0,0,1,5.64-.92c.63,0,1.67.49,1.77-.72A1.94,1.94,0,0,0,108.4,194a6.93,6.93,0,0,0-5.35.42c-1.94,1-2.22-.34-2.85-1.52-.93-1.71.63-1.75,1.45-2.15a13,13,0,0,1,8.07-.85c2.89.51,4.68,2.67,5,5.75,0,.25,0,.5,0,.75,0,1.74,0,3.49,0,5.24Z"/><path class="cls-5" d="M126.82,237.66c0,6-3.71,9.85-9.48,9.86s-9.54-3.92-9.56-9.83,3.73-9.82,9.52-9.82S126.82,231.66,126.82,237.66Z"/><path class="cls-5" d="M211.55,199.26c0-6.06,3.62-9.64,9.6-9.6s9.52,3.84,9.46,9.83-3.94,9.78-9.68,9.74S211.52,205.25,211.55,199.26Z"/><path class="cls-7" d="M237.2,231.2c.05-2.51,2.22-3.84,4.32-2.36a1.51,1.51,0,0,0,2,.14c6-3,11,0,11,6.7,0,3.16-.1,6.33,0,9.48.09,2.25-1.39,1.76-2.66,1.82s-2.44.08-2.33-1.88c.15-3,.07-6,0-9,0-2-.36-3.91-2.94-4.14-2.3-.21-4.07,1.25-4.29,3.88s-.1,5.31-.11,8c0,3.25,0,3.27-3.26,3.13a11.12,11.12,0,0,1-1.68-.34c-.76-.66-.39-1.55-.38-2.32C237.08,239.94,236.7,235.56,237.2,231.2Z"/><path class="cls-7" d="M131.22,237.6c0-2.08-.06-4.17,0-6.24,0-.92-.83-2.24.39-2.67s2.89-.69,3.82.2,1.09.48,1.77.15c6.4-3.1,11.11-.12,11.13,7,0,3.07-.09,6.16,0,9.23.08,2.13-1.33,1.66-2.5,1.68s-2.56.32-2.47-1.74c.11-3,.05-6,0-9s-.89-4.16-3-4.27c-2.38-.11-4.06,1.52-4.16,4.28-.1,2.91-.17,5.83,0,8.73.13,2.09-1,2.06-2.47,2s-2.71.31-2.56-1.91c.18-2.48,0-5,0-7.48Z"/><path class="cls-8" d="M187.23,238c0,2.08.06,4.16,0,6.24,0,.9.84,2.26-.46,2.63s-2.87.73-3.79-.29-1.12-.4-1.75-.08c-5.77,3-11,0-11.11-6.49-.08-3.24.07-6.49,0-9.73-.07-1.82,1-1.82,2.22-1.71s2.84-.62,2.78,1.69c-.08,3-.06,6,0,9s1,4.18,3.13,4.23,3.92-1.6,4-4.19c.13-2.91.17-5.83,0-8.73-.12-2.08,1-2,2.47-2s2.66-.17,2.51,2c-.17,2.48,0,5,0,7.48Z"/><path class="cls-7" d="M252.18,206.23a2.64,2.64,0,0,1-4.49,2c-.89-.72-1.15-.33-1.76,0-5.81,3-11,0-11.14-6.51-.08-3.24.09-6.49,0-9.73-.1-2.35,1.5-1.65,2.69-1.73s2.47-.22,2.35,1.81c-.16,3-.08,6,0,9,0,2,.44,3.91,3,4.17,2.07.21,3.88-1.28,4.1-3.81a69,69,0,0,0,.15-9.21c-.09-2.11,1.08-2,2.49-2s2.47,0,2.46,2c0,4.56-.4,9.14.22,13.68.18.08.24.16.19.25S252.23,206.23,252.18,206.23Z"/><path class="cls-7" d="M158.87,247.55a10.7,10.7,0,0,1-4.92-1.07c-.83-.47-2.42-.68-1.51-2.23.67-1.13,1.26-2.67,3.21-1.43a5.52,5.52,0,0,0,3.89.52c.87-.15,1.6-.52,1.71-1.52a1.66,1.66,0,0,0-1.33-1.85c-1.33-.46-2.72-.78-4-1.31a5.05,5.05,0,0,1-3.47-5.22,5.25,5.25,0,0,1,3.87-5,10.39,10.39,0,0,1,8.23.54c.79.37,1.91.83,1.08,2-.6.83-.79,2.67-2.67,1.54a5.66,5.66,0,0,0-3.36-.75c-.94.07-1.92.23-2.13,1.34s.65,1.6,1.57,1.9,1.92.53,2.86.85c3.19,1.09,4.63,3,4.51,5.77s-2,4.89-5.15,5.58A22.27,22.27,0,0,1,158.87,247.55Z"/><path class="cls-7" d="M157.42,189.69a7.85,7.85,0,0,1,4.36.81c.76.46,2.48.46,1.6,2.14-.64,1.23-1.22,2.7-3.13,1.45a4.47,4.47,0,0,0-2.9-.58c-.89.08-1.93.14-2.13,1.31s.64,1.62,1.55,1.92,1.77.47,2.64.74c3.11,1,4.78,3,4.74,5.66,0,2.85-1.79,4.84-5,5.72a10.87,10.87,0,0,1-8-.92c-.72-.37-2-.78-1-2,.67-.81.83-2.63,2.69-1.62a6.65,6.65,0,0,0,4.1.81c1-.13,1.81-.46,2-1.57s-.55-1.66-1.5-2c-.79-.26-1.58-.5-2.38-.74-3.64-1.06-5.18-3-4.85-6.19.3-2.88,2.64-4.76,6.2-5C156.76,189.67,157.09,189.69,157.42,189.69Z"/><path class="cls-8" d="M260.59,238.28c0-1.08,0-2.16,0-3.25,0-1.35.27-2.81-1.93-2.51-.93.12-1-.65-1-1.36s-.31-2,1.07-2.11c1.84-.08,1.82-1.23,1.8-2.57,0-1.64,2.77-3.73,4.31-3.33.51.13.59.52.6.94a17.26,17.26,0,0,1,0,2.49c-.18,1.59.32,2.35,2,2.14,1.28-.16,2.38-.21,2.4,1.79s-.91,2.24-2.44,2-2.1.33-2,1.91c.11,2.16,0,4.33,0,6.49,0,1.58.57,2.68,2.33,2.45,2.14-.28,1.64,1.36,1.9,2.43.37,1.59-.87,1.5-1.83,1.62-4.72.59-7.25-1.64-7.3-6.43C260.58,240.11,260.59,239.19,260.59,238.28Z"/><path class="cls-5" d="M204,238.19c0-1.16,0-2.33,0-3.49s0-2.37-1.77-2.17c-1,.12-1.29-.54-1.23-1.41s-.28-1.91.9-2c2-.15,2.09-1.35,2-2.9s3-3.5,4.3-3c1,.36.59,1.3.53,1.94-.19,2.31,0,4.15,3.12,3.57,1.39-.25,1.36.83,1.32,1.77s.3,2.3-1.32,2c-3.18-.54-3.3,1.3-3.1,3.61a33.32,33.32,0,0,1,0,3.74c-.08,2.12.08,3.8,3,3.56,1.52-.12,1,1.6,1.29,2.51s-.34,1.25-1.19,1.44c-4.73,1.08-7.85-1.34-7.92-6.2C204,240.19,204,239.19,204,238.19Z"/><path class="cls-6" d="M125.22,196.49c0,3.49-.1,7,0,10.47.08,2.15-1.34,1.68-2.49,1.67s-2.55.52-2.52-1.64q.12-10.73,0-21.44c0-2.14,1.33-1.68,2.49-1.66s2.59-.53,2.52,1.64C125.13,189.18,125.22,192.84,125.22,196.49Z"/><path class="cls-9" d="M207.13,208.07c-1.22,1.1-2.7.47-4.06.54-1.12.06-1-.9-1-1.62,0-7.15,0-14.3,0-21.45,0-1.31.46-1.85,1.74-1.67,1.11.15,2.35-.43,3.32.55A163.76,163.76,0,0,1,207.13,208.07Z"/><path class="cls-10" d="M192.78,234.7c0-3.56.1-7.13,0-10.69-.09-2.27,1.39-1.74,2.63-1.79s2.4-.21,2.36,1.81q-.16,10.56,0,21.13c0,2-1.08,1.87-2.37,1.82s-2.71.4-2.62-1.83C192.88,241.67,192.78,238.19,192.78,234.7Z"/><path class="cls-11" d="M246.65,117.05v36.54h-.24V116.94Z"/><path class="cls-12" d="M236.85,153.61V116.93h.24v36.75Z"/><path class="cls-13" d="M201.86,153.6V116.93h.24v36.75Z"/><path class="cls-14" d="M163.19,124.27c.17.36.51.72.51,1.08,0,9.44,0,18.88-.51,28.33V124.26Z"/><path class="cls-15" d="M154.3,124.25v29.54c-.33-.21-.5-.26-.5-.32q0-13.82-.06-27.64a1.8,1.8,0,0,1,.57-1.58Z"/><path class="cls-16" d="M207.13,208.07V184.42c.39-.29.6-.13.6.29v23a.51.51,0,0,1-.17.39C207.45,208.2,207.27,208.1,207.13,208.07Z"/><path class="cls-13" d="M201.57,185v22.68h-.24V184.86Z"/><path class="cls-17" d="M252.18,206.23a.26.26,0,0,1,0-.39v-15h.52c0,4.86,0,9.72,0,14.59C252.65,205.68,252.34,206,252.18,206.23Z"/><path class="cls-18" d="M237.2,231.2c.43,5.14.1,10.29.17,15.43-.13-.1-.37-.19-.37-.29C236.67,241.29,236.28,236.23,237.2,231.2Z"/><path class="cls-19" d="M300.77,135.17c0-3.23.05-6.47,0-9.71,0-1.29.4-1.78,1.71-1.72,2,.09,4-.07,6,.07a11.52,11.52,0,0,1,0,23c-2,.14-4,0-6,.09-1.35.07-1.71-.48-1.69-1.74C300.82,141.82,300.77,138.5,300.77,135.17Z"/><path class="cls-19" d="M116.19,130a6.16,6.16,0,0,1,0-1.49c.41-1.57-1.15-3.82.86-4.67,3.05-1.31,8.18.39,9.51,2.67a6.42,6.42,0,0,1-4.38,9.65C116.41,137.26,116.19,137,116.19,130Z"/><path class="cls-20" d="M269.43,198.76a19.5,19.5,0,0,1-.21,3,3.9,3.9,0,0,1-4,3.42c-2,0-3.16-1.19-3.67-3.08a9.3,9.3,0,0,1,0-5.15,4.26,4.26,0,0,1,6.9-2.31C270,195.76,269.07,197.38,269.43,198.76Z"/><path class="cls-21" d="M225.15,238.6c.89.09,2-.37,2,1.16a4,4,0,0,1-3.72,3.67c-1.46.08-2.57-.49-2.49-2.06C221.11,238.64,223.36,238.88,225.15,238.6Z"/><path class="cls-22" d="M138.32,197.35a7.2,7.2,0,0,1-1.23,0c-.75-.14-1.86.52-2.16-.5-.27-.86.39-1.73,1.06-2.36a3.66,3.66,0,0,1,3.9-.76,2.85,2.85,0,0,1,2.15,3c-.16,1.27-1.63.43-2.49.64A5.61,5.61,0,0,1,138.32,197.35Z"/><path class="cls-23" d="M108.39,200.31c.91-.11,1.71,0,1.6,1.38a4.08,4.08,0,0,1-3.91,3.5,2,2,0,0,1-2.29-2.08C103.68,201.35,105.33,200.34,108.39,200.31Z"/><path class="cls-20" d="M121.83,237.7c-.09,1.94-.24,3.89-2,5.1a4.32,4.32,0,0,1-6.49-2.29,9,9,0,0,1-.31-4.43c.58-3,2-4.26,4.67-4.1,2.45.14,3.81,1.62,4.11,4.47C121.81,236.86,121.81,237.28,121.83,237.7Z"/><path class="cls-20" d="M216.61,199.44c0-3.84,1.39-5.71,4.35-5.74s4.6,1.91,4.64,5.54-1.67,6-4.56,5.94S216.63,203.16,216.61,199.44Z"/></g></g></svg>