<svg xmlns="http://www.w3.org/2000/svg" viewBox="0 0 354.72 348.06"><defs><style>.cls-1{fill:#231988;}.cls-2{fill:#f0c042;}.cls-3{fill:#459bd4;}.cls-4{fill:#fefefe;}.cls-5{fill:#fdfdfd;}.cls-6{fill:#fdfdfe;}.cls-7{fill:#fcfbfd;}.cls-8{fill:#fbfafc;}.cls-9{fill:#fbfbfc;}.cls-10{fill:#231989;}.cls-11{fill:#251b8a;}.cls-12{fill:#241a89;}.cls-13{fill:#261c8a;}</style></defs><g id="Capa_2" data-name="Capa 2"><g id="Capa_1-2" data-name="Capa 1"><path class="cls-1" d="M26.81,252.25,10.73,182c-3.33-14.58-6.68-29.16-10-43.76a26.54,26.54,0,0,1,5.36-23.45q36.18-45.41,72.3-90.85c3.63-4.56,7.24-9.13,10.88-13.68A26.07,26.07,0,0,1,110.58,0q66.8,0,133.6,0A25.75,25.75,0,0,1,265.26,10.1Q307,62.54,348.75,115A25.88,25.88,0,0,1,354,137.79q-12.78,56.43-25.67,112.84c-.11.48-.28,1-.41,1.44-.68,1.17-1.9,1.58-3,2.11-13.24,6.25-26.39,12.68-39.58,19Q250.12,290.16,215,307.13c-8,3.87-16.12,7.57-24,11.61-9.06,4.6-17.93,4.55-27,0-19.08-9.45-38.37-18.47-57.53-27.76-12.28-6-24.59-11.83-36.9-17.72-13.58-6.5-27.12-13.07-40.73-19.52A3.57,3.57,0,0,1,26.81,252.25Z"/><path class="cls-2" d="M26.81,252.25l75.59,36.23q31.38,15.06,62.75,30.14a26.79,26.79,0,0,0,24.49,0q68.21-32.91,136.43-65.75c.6-.28,1.22-.51,1.84-.76-1.34,6-2.49,12.05-4.07,18a24.7,24.7,0,0,1-13.4,16.56Q264.32,309,218.08,331.22q-14.61,7-29.23,14.08a25.41,25.41,0,0,1-23.08,0L81,304.39q-17.76-8.56-35.53-17.11a26.4,26.4,0,0,1-15.06-18.75C29.2,263.11,28,257.68,26.81,252.25Z"/><path class="cls-3" d="M204.38,77.38c-2.2-.68-3.67.58-5.39,2.53-4.32,4.87-10,6.06-16.15,4.3-1.64-.46-2.28-.12-3.1,1.27a17.5,17.5,0,0,1-30.31.06c-1-1.71-1.82-2.87-4.29-2.74a15.86,15.86,0,0,1-15.92-10.54,16.53,16.53,0,0,1,5.43-19,2.56,2.56,0,0,0,1-3.29c-2.49-9.16.92-17.54,8.91-22.24,7.31-4.29,16.64-2.91,23.11,3.53,1,1,1.57,1.17,2.82.26,9-6.59,18.63-5.21,25.33,3.62.91,1.2,1.6,1,2.69.66a21.23,21.23,0,0,1,28,21.08C226.18,68.48,216.61,77.52,204.38,77.38Z"/><path class="cls-4" d="M292.14,135.3V118.09c0-1.09-.16-2.31,1.5-2.28,5.73.14,11.5-.55,17.19.34,10.81,1.7,17.5,9.9,16.84,20.28-.65,10.19-8.65,17.85-19.25,18.26-4.73.18-9.47,0-14.21.07-1.71,0-2.11-.71-2.09-2.25C292.18,146.77,292.14,141,292.14,135.3Z"/><path class="cls-4" d="M107.69,135.22c0-5.66,0-11.32,0-17,0-1.79.44-2.57,2.37-2.47,4.73.24,9.49-.37,14.21.36,5.63.86,9.91,3.65,11.32,9.43s.72,11.32-4.53,15.25c-1.16.87-.66,1.38-.07,2.16,2.27,3,4.52,6,6.76,9,.48.64,1.34,1.24,1,2.15s-1.45.5-2.21.65c-4.85.94-8.26-.79-10.45-5.25a47.28,47.28,0,0,0-3-4.29,2.67,2.67,0,0,0-2.68-1.31c-4.26.14-4.26.09-4.26,4.48v.5c0,6.41-.38,6.68-6.92,5.89-1.66-.2-1.48-1.24-1.48-2.32Z"/><path class="cls-4" d="M269.69,115.8c3.58,0,7.15,0,10.73,0,1.35,0,2,.39,2,1.84-.14,7.5,1,6-5.69,6.11-3.33.07-6.66.07-10,0-1.4,0-1.81.39-1.85,1.82-.17,6.7-.22,6.7,6.47,6.7,2.49,0,5,0,7.49,0,1.35,0,1.88.42,1.95,1.85.29,5.79.34,5.78-5.5,5.78-2.74,0-5.49.07-8.24,0-1.53-.06-2.19.26-2.18,2,0,5-.08,5,4.91,5,3.5,0,7,.06,10.49,0,1.65,0,2.19.58,2.15,2.19-.17,7,.92,5.63-5.54,5.72-6,.09-12,0-18,.06-1.87,0-2.44-.59-2.42-2.44q.09-17.1,0-34.2c0-1.93.71-2.42,2.5-2.36C262.53,115.88,266.11,115.8,269.69,115.8Z"/><path class="cls-4" d="M71.1,135.17c0-5.66.07-11.32,0-17,0-1.86.57-2.45,2.43-2.42q10.6.14,21.22,0c1.73,0,2.35.52,2.31,2.28-.18,6.79.9,5.58-5.65,5.68-3.24,0-6.49.07-9.73,0-1.52,0-2.17.24-2.18,2,0,6.52-.11,6.52,6.41,6.52,2.49,0,5,.06,7.49,0,1.54,0,2,.56,2,2.05-.14,6.85.87,5.45-5.43,5.58-2.91.06-5.83.07-8.74,0-1.32,0-1.67.44-1.72,1.72-.2,5.29-.25,5.29,5.1,5.29,3.41,0,6.82.06,10.23,0,1.59,0,2.25.47,2.21,2.14-.16,7.08.9,5.68-5.49,5.77-5.83.09-11.66-.07-17.48.07-2.23.05-3.08-.49-3-2.89C71.22,146.32,71.1,140.74,71.1,135.17Z"/><path class="cls-4" d="M49.25,155.35c-11.33,0-19.41-5.72-21.7-15.07a20.26,20.26,0,0,1,17.74-25,30,30,0,0,1,14.65,2.26c1.69.71,2,1.54,1.27,3.24-2,4.75-1.91,4.8-6.77,3.32a17.49,17.49,0,0,0-9.35-.5c-6.08,1.46-9.74,6.39-9.23,12.44A11.75,11.75,0,0,0,47.2,147.28a20.55,20.55,0,0,0,10.2-1.89c1.83-.89,2.6-.34,3,1.41a3.8,3.8,0,0,0,.18.47c1.82,5.08,1.83,5.1-3.47,6.79A24.61,24.61,0,0,1,49.25,155.35Z"/><path class="cls-4" d="M202.42,135.29c0-5.74.05-11.48,0-17.21,0-1.71.48-2.33,2.26-2.31,7.15.08,14.31.07,21.46,0,1.59,0,2.24.45,2.2,2.12-.18,7,1,5.72-5.72,5.83-3.33,0-6.66.06-10,0-1.32,0-1.88.24-1.93,1.75-.24,7.2-.29,7.2,7,7.2h6.74c.83,0,1.84-.1,1.9,1.07a45.7,45.7,0,0,1,0,5.49c-.1,1.31-1.27,1.06-2.15,1.06-3.83,0-7.66.08-11.48,0-1.57,0-2,.49-1.94,2,.09,3.49,0,7,.05,10.48,0,1.51-.54,2-2,2-6.28.19-6.28.24-6.28-6Z"/><path class="cls-4" d="M158.56,115.8c4.74,0,9.49.07,14.23,0,1.76,0,2.33.56,2.29,2.3-.18,6.76.92,5.51-5.67,5.69-2.12.06-4.85-.94-6.2.47s-.34,4-.35,6c-.05,7.33-.08,14.66,0,22,0,2-.62,2.55-2.58,2.53-5.87-.07-5.87,0-5.87-5.94,0-7.33-.15-14.66.07-22,.08-2.74-.82-3.39-3.32-3.16-2.31.2-4.66,0-7,.06-1.64.07-2.12-.59-2.15-2.2-.08-5.76-.14-5.76,5.53-5.76Z"/><path class="cls-5" d="M44.59,192.53c0,4.65-.12,9.31,0,13.95.07,2.06-.81,2.22-2.49,2.26s-2.46-.35-2.43-2.32c.13-6.81.1-13.63,0-20.45,0-1.63.47-2.06,2.1-2.16a5.21,5.21,0,0,1,5.42,2.86c2.79,4.61,5.92,9,8.91,13.51,1-.41.61-1.19.61-1.75,0-4.24,0-8.48-.1-12.72-.07-2,1.06-1.89,2.37-1.83s2.52-.37,2.5,1.72c-.09,7.15,0,14.3,0,21.45,0,1.12-.32,1.56-1.54,1.67-2.7.26-4.58-.35-6.1-3-2.69-4.63-5.85-9-8.82-13.45Z"/><path class="cls-6" d="M183.29,135c0-5.66.05-11.31,0-17,0-1.71.52-2.29,2.29-2.3,6.11,0,6.1-.09,6.1,5.9,0,10.23,0,20.46,0,30.69,0,1.84-.49,2.43-2.38,2.43-6,0-6,.05-6-6Z"/><path class="cls-6" d="M237.45,135.26c0-5.73.05-11.47,0-17.2,0-1.73.53-2.29,2.28-2.3,6.12,0,6.12-.1,6.12,5.92,0,10.14-.05,20.28.05,30.42,0,2.07-.61,2.71-2.69,2.68-5.72-.09-5.72,0-5.72-5.81Z"/><path class="cls-4" d="M111.84,203.48c0-3.49,0-7,0-10.48,0-.91-.78-2.24.42-2.65s2.86-.68,3.8.2,1.31.45,2,.08c5.2-2.61,10.23-.25,11.55,5.39a13.83,13.83,0,0,1,0,6.43c-1.26,5.34-5.74,8-11,6.22-1.71-.56-2-.18-1.88,1.41s-.12,3.34,0,5c.24,2.16-1.1,1.94-2.48,2s-2.55,0-2.46-2.07c.16-3.82,0-7.66,0-11.49Z"/><path class="cls-6" d="M309.15,190.68V186.5c0-2.34,2.09-3.58,4.3-2.56.57.26.61.7.62,1.21.13,7.48-.23,15,.19,22.44.06,1.1-3.28,1.84-4.27.67-.87-1-1.2-.48-1.9-.1-5.06,2.74-10.24.48-11.69-5a13.86,13.86,0,0,1-.22-5.94C297.28,190.88,302.24,188.29,309.15,190.68Z"/><path class="cls-6" d="M222,197.08c.09,2.21.55,5.15,3.44,6.76a7.72,7.72,0,0,0,8.69-.71c2.09-1.51,2.52.7,3.46,1.51,1.34,1.15-.11,1.71-.82,2.18A13.26,13.26,0,0,1,223.3,208c-4.41-2-6.2-5.85-6.48-10.45-.3-5,.72-9.59,5.35-12.35s9.36-2.55,14,0c.74.41,2.52.81,1.26,2.24-.86,1-1.29,2.91-3.64,1.6C227.47,185.55,222.05,189,222,197.08Z"/><path class="cls-6" d="M84.51,235c.07-5.17,1.39-9.37,5.87-11.74a13.5,13.5,0,0,1,13.57.3c.71.4,2.32.86,1.31,2.06-.81,1-1.2,3.16-3.56,1.84-3.94-2.22-8.12-1.64-10.21,1.09-2.47,3.22-2.26,9.78.41,12.61,2.18,2.32,6.23,2.61,9.46.68a3,3,0,0,1,4.39,1.49c.45,1.16-.62,1.44-1.22,1.84a13.22,13.22,0,0,1-13.72,1C86,243.87,84.63,239.52,84.51,235Z"/><path class="cls-6" d="M232,240c0,1.42.05,2.83,0,4.25,0,.84.73,2-.34,2.48s-2.7.68-3.58-.09-1.35-.52-2.18-.08a7.9,7.9,0,0,1-5.8.71,5.23,5.23,0,0,1-4.3-5.12c-.21-3,.91-5,3.42-6a16.24,16.24,0,0,1,5.86-1c.69,0,1.85.55,1.89-.86a2,2,0,0,0-1.57-2,7.4,7.4,0,0,0-5.36.49c-1.78.91-2.06-.32-2.69-1.41-.91-1.57.28-1.83,1.25-2.28a13,13,0,0,1,5.58-1.16c5.18,0,7.63,2.46,7.78,7.65,0,1.49,0,3,0,4.49Z"/><path class="cls-6" d="M126.63,237.76c0,5.91-3.92,9.86-9.61,9.8s-9.43-4-9.42-10,3.78-9.79,9.59-9.72S126.68,231.76,126.63,237.76Z"/><path class="cls-4" d="M156.7,189.64c5.91,0,9.48,3.72,9.45,9.79s-3.78,9.81-9.56,9.79-9.47-3.95-9.47-9.9S150.76,189.62,156.7,189.64Z"/><path class="cls-6" d="M270.2,199.36c0,6-3.73,9.85-9.48,9.86s-9.52-3.92-9.54-9.83,3.62-9.75,9.5-9.75S270.21,193.32,270.2,199.36Z"/><path class="cls-6" d="M66,199.21c0-6,3.68-9.63,9.65-9.57s9.45,3.87,9.36,9.9-3.92,9.74-9.68,9.68S66,205.21,66,199.21Z"/><path class="cls-5" d="M237.34,238.09c0-2.24,0-4.49,0-6.73,0-.92-.85-2.19.3-2.67s2.88-.7,3.82.13,1.5.34,2.26,0c5.72-2.75,10.7.35,10.74,6.7,0,3.24-.09,6.49,0,9.72.08,2.07-1.24,1.77-2.46,1.75s-2.59.42-2.51-1.69c.11-3.15,0-6.32,0-9.47,0-2-.59-3.64-3-3.78a3.6,3.6,0,0,0-4.09,3.44c-.23,2.64-.08,5.32-.17,8-.06,1.63.85,3.61-2.38,3.65s-2.44-2.05-2.5-3.76,0-3.49,0-5.24Z"/><path class="cls-5" d="M291.6,199.68c0,2.08-.06,4.16,0,6.24.09,2.61-1.83,4-4.05,2.47-1.19-.82-1.65-.34-2.48.05-5.33,2.51-10.38-.47-10.6-6.33-.13-3.4.06-6.82-.07-10.22-.08-2.14,1.31-1.7,2.48-1.68s2.6-.53,2.53,1.63c-.11,3.07-.06,6.15,0,9.22,0,2.07.54,3.88,3,4.09a3.89,3.89,0,0,0,4.06-3.89,81,81,0,0,0,.05-9.22c-.1-2,1.05-1.92,2.35-1.84s2.78-.58,2.65,1.75c-.15,2.57,0,5.16,0,7.73Z"/><path class="cls-6" d="M187.17,237.35c0,2.25.06,4.5,0,6.74,0,.92,1,2.25-.22,2.69s-3,.78-4-.25-1.09-.41-1.69-.1c-5.85,3-11.09-.06-11.18-6.63,0-3,.11-6,0-9-.1-1.86.43-2.51,2.33-2.37,1.59.12,2.93-.1,2.73,2.28-.23,2.81-.08,5.66,0,8.49s1,4.17,3.13,4.21,3.88-1.59,4-4.22a82,82,0,0,0,0-8.73c-.14-2.14,1.07-2,2.48-2s2.73-.39,2.54,1.89,0,4.65,0,7Z"/><path class="cls-6" d="M131.16,237.5c0-2.08,0-4.16,0-6.24,0-.87-.68-2.15.25-2.53,1.24-.51,3-.79,4,.18.83.78,1.16.41,1.8.1,6.26-3,11,0,11.07,6.82,0,3.08-.12,6.16,0,9.23.1,1.92-.91,2-2.29,1.92s-2.74.4-2.63-1.85c.14-3,.07-6,0-9s-1-4.09-3.17-4.14-4,1.46-4.08,4.08a89.46,89.46,0,0,0,0,9c.13,2.23-1.23,1.88-2.55,1.91s-2.63.12-2.47-2c.19-2.48.05-5,.05-7.48Z"/><path class="cls-6" d="M89.37,199.24c0-2-.05-4,0-6,0-1-.89-2.4.38-2.9s2.85-.68,3.8.19,1.36.39,2.08,0c5.94-2.84,10.83.18,10.87,6.72,0,3-.13,6,0,9,.13,2.09-.7,2.4-2.55,2.48-2.13.08-2.51-.76-2.42-2.6.13-2.74.06-5.49,0-8.23,0-3-.92-4.13-3.09-4.22-2.35-.09-4,1.36-4.15,4a74.61,74.61,0,0,0,0,8.72c.11,2-.72,2.31-2.47,2.3s-2.65-.21-2.49-2.27c.18-2.4,0-4.82,0-7.23Z"/><path class="cls-6" d="M159.28,227.85a10.89,10.89,0,0,1,4.72,1c.75.41,2.27.58,1.45,2-.62,1.1-1.06,2.78-3.08,1.51a4.69,4.69,0,0,0-3.87-.48c-.65.2-1.26.5-1.32,1.3a1.41,1.41,0,0,0,1,1.54c1.17.42,2.38.73,3.55,1.13,3.15,1.08,4.55,3,4.39,5.85s-2,4.72-5,5.45a11,11,0,0,1-8.19-1.1c-.69-.38-1.69-.83-.76-1.83.68-.73.76-2.5,2.47-1.72a8.23,8.23,0,0,0,4.1.85c1-.07,2.06-.31,2.27-1.54s-.78-1.72-1.75-2.05-1.77-.45-2.64-.74c-3.13-1-4.63-3-4.44-5.81s2-4.56,5.23-5.14C158.09,228,158.75,227.93,159.28,227.85Z"/><path class="cls-5" d="M171.13,201.41c0-1.41,0-2.83,0-4.24s.62-3.34-2.13-3c-.93.12-.75-.88-.77-1.51,0-.84-.11-1.83,1.08-1.86,1.56,0,1.75-.9,1.94-2.23.59-4.18,6.11-6.8,9.95-4.92.83.4.64.91.4,1.38-.44.87,0,2.33-1.57,2.46-.57,0-1.17-.12-1.73-.05-1.17.14-2.18.66-2.15,2,0,1.54,1.37.9,2.07.85,1.72-.14,2.05.59,2.08,2.16,0,1.72-.76,2-2.11,1.79-1.82-.29-2.21.53-2.15,2.22.12,3.49-.07,7,.08,10.47.09,2.33-1.45,1.7-2.65,1.75s-2.56.3-2.37-1.78C171.27,205.08,171.13,203.24,171.13,201.41Z"/><path class="cls-5" d="M260.51,238.09c0-1.33,0-2.66,0-4,0-1-.22-1.62-1.37-1.52-.94.08-1.65-.15-1.59-1.33.05-1-.26-2.11,1.25-2.23s1.72-.86,1.68-2.16a4,4,0,0,1,4.15-3.69c.69.08.75.52.77,1a13.21,13.21,0,0,1,0,2c-.25,1.88.34,2.85,2.4,2.5,1.45-.25,2,.28,2.07,1.87,0,1.75-.67,2.27-2.21,2-2-.32-2.41.6-2.28,2.38.15,2,.06,4,0,6,0,1.61.58,2.64,2.32,2.44,2.33-.26,1.67,1.63,1.93,2.7.37,1.5-1,1.22-1.8,1.35-4.53.72-7.27-1.58-7.35-6.1C260.49,240.25,260.51,239.17,260.51,238.09Z"/><path class="cls-5" d="M194.64,199.71c0-1.25-.06-2.5,0-3.75s-.23-1.92-1.62-1.73c-.94.13-1.43-.3-1.33-1.27s-.4-2.08,1-2.17c1.67-.11,2-.94,1.94-2.43-.09-1.72,2.63-3.85,4.32-3.56.56.1.6.48.61.89a15.91,15.91,0,0,1,0,2.49c-.25,1.79.49,2.37,2.21,2.17,1.16-.14,2.3-.24,2.29,1.65,0,1.66-.36,2.57-2.18,2.24s-2.5.41-2.34,2.3a56.79,56.79,0,0,1,0,6c0,1.7.56,2.84,2.44,2.61,2.19-.26,1.53,1.54,1.85,2.52.45,1.41-.81,1.37-1.66,1.5-4.8.71-7.51-1.61-7.55-6.45C194.64,201.7,194.64,200.7,194.64,199.71Z"/><path class="cls-5" d="M204,238c0-1,0-2,0-3,0-1.35.27-2.8-1.92-2.47-.92.13-1.12-.58-1-1.32s-.5-2,.73-2.06c2.28-.19,2.25-1.6,2.19-3.28,0-1.26,3.54-3.25,4.56-2.63.44.27.35.71.36,1.11a12.89,12.89,0,0,1,0,2.24c-.23,1.65.42,2.28,2.06,2.07,1.33-.16,2.35-.12,2.37,1.84s-.94,2.24-2.45,2.05-2.11.25-2,1.88c.14,2.15.06,4.33,0,6.49,0,1.61.55,2.66,2.31,2.44,2.13-.27,1.62,1.39,1.89,2.46.42,1.66-1,1.46-1.83,1.59-4.53.7-7.23-1.61-7.29-6.17C204,240.19,204,239.11,204,238Z"/><path class="cls-7" d="M197.63,234.61c0,3.57-.09,7.14,0,10.71.06,2.15-1.38,1.62-2.52,1.64s-2.51.41-2.48-1.69c.09-7.15.08-14.29,0-21.43,0-2.4,1.66-1.48,2.78-1.61s2.28-.21,2.21,1.67C197.53,227.46,197.63,231,197.63,234.61Z"/><path class="cls-8" d="M241.93,196.34c0-3.57.1-7.15,0-10.71-.07-2.06,1.21-1.79,2.44-1.75s2.57-.47,2.54,1.65c-.07,7.14-.08,14.28,0,21.42,0,2.32-1.51,1.62-2.7,1.73-1.38.13-2.38,0-2.3-1.88C242,203.32,241.93,199.82,241.93,196.34Z"/><path class="cls-5" d="M134.35,199.24c0-2.08,0-4.16,0-6.23,0-.92-.81-2.24.37-2.66s2.86-.66,3.82.17,1.2.6,2,.12a5.27,5.27,0,0,1,2.29-.87c1-.06,2.62-.86,2.65,1.06,0,1.38.85,3.45-2.13,3.36-2.5-.07-3.88,1.77-4,4.76-.1,2.66-.14,5.33,0,8,.11,2.07-1.19,1.76-2.42,1.74s-2.59.39-2.49-1.7c.11-2.58,0-5.16,0-7.74Z"/><path class="cls-9" d="M183.48,199.37c0-2.49.12-5,0-7.47-.12-1.85.94-1.86,2.16-1.69s2.84-.87,2.81,1.56c-.06,5.06-.09,10.12,0,15.18.05,2.33-1.5,1.63-2.69,1.73-1.34.11-2.43.1-2.31-1.85C183.61,204.35,183.48,201.86,183.48,199.37Z"/><path class="cls-8" d="M185.17,182.24c2.53-.07,3.66.84,3.67,2.76a2.54,2.54,0,0,1-2.81,2.78c-1.89,0-3-.79-3-2.79S184,182.32,185.17,182.24Z"/><path class="cls-10" d="M305.55,123.74a20.73,20.73,0,0,1,4.75.34,11.56,11.56,0,0,1-2.15,22.72c-7.55.49-7.55.49-7.55-7,0-4.4.11-8.81-.05-13.21-.08-2.2.43-3.28,2.81-2.87A14.22,14.22,0,0,0,305.55,123.74Z"/><path class="cls-10" d="M116.08,130.1a29.49,29.49,0,0,0,0-4c-.27-2.08.66-2.63,2.52-2.39.82.11,1.67,0,2.5,0,3.92.2,6,2.17,6.15,5.76.15,4-1.82,6.29-5.76,6.72-5.38.6-5.38.6-5.38-4.64Z"/><path class="cls-11" d="M125,198.71c.07,5.27-3.06,7.73-6.85,5.88a2.86,2.86,0,0,1-1.17-.87c-.87-1.32,0-7.63,1.12-8.79a3.77,3.77,0,0,1,6.41,1.35A13.39,13.39,0,0,1,125,198.71Z"/><path class="cls-12" d="M309.21,198.78A19.89,19.89,0,0,1,309,202a3.82,3.82,0,0,1-3.67,3.16c-2,.15-3.26-1-3.85-2.84a8.93,8.93,0,0,1,0-5.62,4.26,4.26,0,0,1,6.83-2.06C309.84,195.77,308.82,197.39,309.21,198.78Z"/><path class="cls-13" d="M225.09,238.63c.91.11,2-.39,2,1.18a3.88,3.88,0,0,1-3.73,3.59c-1.44,0-2.52-.47-2.41-2.09C221.12,238.54,223.39,238.93,225.09,238.63Z"/><path class="cls-12" d="M112.64,237.74c0-3.74,1.46-5.69,4.38-5.73s4.58,1.85,4.62,5.52-1.59,5.91-4.53,5.89S112.67,241.43,112.64,237.74Z"/><path class="cls-12" d="M161.17,199.4a8.22,8.22,0,0,1-.57,3.18,4.28,4.28,0,0,1-7.92-.14,9.06,9.06,0,0,1-.4-4.67c.45-2.82,1.89-4.1,4.45-4.07s4,1.42,4.35,4.21C161.14,198.4,161.14,198.91,161.17,199.4Z"/><path class="cls-12" d="M265.21,199.26a8.48,8.48,0,0,1-.68,3.62,3.92,3.92,0,0,1-4.07,2.27,3.76,3.76,0,0,1-3.64-2.55,9,9,0,0,1-.47-4.65c.42-2.91,1.73-4.22,4.27-4.25s4.14,1.37,4.51,4.29C265.19,198.48,265.19,199,265.21,199.26Z"/><path class="cls-12" d="M71.06,199.42c0-3.77,1.44-5.69,4.37-5.72s4.58,1.89,4.62,5.54-1.64,5.94-4.55,5.93S71.08,203.13,71.06,199.42Z"/></g></g></svg>