<svg xmlns="http://www.w3.org/2000/svg" viewBox="0 0 354.69 346.67"><defs><style>.cls-1{fill:#231988;}.cls-2{fill:#f0c042;}.cls-3{fill:#459bd4;}.cls-4{fill:#fefefe;}.cls-5{fill:#fefdfe;}.cls-6{fill:#fcfcfd;}.cls-7{fill:#fdfdfe;}.cls-8{fill:#fdfdfd;}.cls-9{fill:#191384;}.cls-10{fill:#191284;}.cls-11{fill:#1a1484;}.cls-12{fill:#181283;}.cls-13{fill:#181284;}.cls-14{fill:#231989;}.cls-15{fill:#241a89;}.cls-16{fill:#241b89;}.cls-17{fill:#251b8a;}.cls-18{fill:#2b218d;}.cls-19{fill:#291f8b;}</style></defs><g id="Capa_2" data-name="Capa 2"><g id="Capa_1-2" data-name="Capa 1"><path class="cls-1" d="M26.84,251.29Q18.29,214,9.75,176.69c-3.09-13.53-6.3-27-9.16-40.61a24.16,24.16,0,0,1,4.85-20.71Q31.76,82.24,58.21,49.21l31-38.82A26.43,26.43,0,0,1,110.87,0q66.44,0,132.86,0a26.62,26.62,0,0,1,21.9,10.45q41.52,52,83,104c5.71,7.14,7.19,15.16,5.18,24q-12.63,55.17-25.28,110.32c-.19.81-.41,1.61-.61,2.42a4.84,4.84,0,0,1-2.4,1.7c-8.66,4.07-17.28,8.22-25.9,12.38-20.07,9.71-40.22,19.28-60.31,29-11.61,5.6-23.22,11.23-34.87,16.76-6.16,2.92-12.05,6.47-18.56,8.6a26.41,26.41,0,0,1-20.15-1.25c-15.37-7.22-30.63-14.64-45.95-22Q90.41,282.26,61,268.18q-15.42-7.43-30.88-14.71A12,12,0,0,1,26.84,251.29Z"/><path class="cls-2" d="M26.84,251.29q18.71,8.9,37.4,17.79Q115.11,293.4,166,317.73a25.52,25.52,0,0,0,22.91,0q42.88-20.49,85.69-41.14l52-24.93c.45-.21.93-.35,1.4-.52-1.36,6.08-2.47,12.23-4.16,18.22a25.05,25.05,0,0,1-13.66,16.35q-33.72,16.26-67.46,32.49l-53.31,25.62a26.41,26.41,0,0,1-24,0Q121.15,322.49,77,301.22c-10.12-4.87-20.2-9.81-30.4-14.52-8.88-4.1-14.39-10.72-16.35-20.33C29.19,261.32,28,256.32,26.84,251.29Z"/><path class="cls-3" d="M204.91,77.13c-2.49-.95-4.09.42-6,2.49-4.33,4.79-9.9,6.21-16.11,4.23-1.52-.49-2.15-.17-2.94,1.09-7.82,12.43-24.15,11.86-31.22-1.09-.54-1-1.05-1.52-2.28-1.37a16.13,16.13,0,0,1-16.92-10.07,16.32,16.32,0,0,1,5.11-19.27,2.83,2.83,0,0,0,1.12-3.55c-2.81-10.13,2.3-19.85,12.17-23.45,6.58-2.4,15.27-.3,20,5,1,1.16,1.48,1.23,2.71.27C179,24.78,189.47,26.27,195.9,35a1.73,1.73,0,0,0,2.4.73,21.15,21.15,0,0,1,26.5,11.71,21.54,21.54,0,0,1-9.69,27.42A22.81,22.81,0,0,1,204.91,77.13Z"/><path class="cls-4" d="M292.08,116.5a1.85,1.85,0,0,1,2-1.14c4.9,0,9.82-.18,14.71.12C323.4,116.38,332,130,326,142.81c-3.46,7.44-9.82,10.84-17.79,11.26-4.64.25-9.31,0-14,.08a2.15,2.15,0,0,1-2.13-1c-.45-.39-.33-.91-.33-1.4q0-17,0-33.89C291.78,117.42,291.67,116.9,292.08,116.5Z"/><path class="cls-4" d="M116,115.37c3.08,0,6.17-.2,9.21.46,5.29,1.14,9.19,4,10.46,9.46s.64,10.83-4.21,14.67c-1.3,1-1.12,1.64-.25,2.74,2.32,2.94,4.55,6,6.79,8.94.43.58,1.11,1.18.66,2s-1.18.48-1.82.5c-6.73.27-6.73.27-10.7-5.21-1-1.42-2.11-2.8-3-4.27a2.67,2.67,0,0,0-2.71-1.27c-4.26.11-4.26.06-4.26,4.42v.5c0,6.31-.53,6.73-6.93,5.85-1.21-.16-1.49-.77-1.49-1.83q0-17.59,0-35.19c0-1.3.55-1.78,1.79-1.77C111.67,115.4,113.83,115.37,116,115.37Z"/><path class="cls-4" d="M71.17,134.61c0-5.66.06-11.32,0-17,0-1.75.54-2.31,2.29-2.29,7.15.08,14.31.06,21.47,0,1.58,0,2.25.47,2.21,2.14-.13,6.93.78,5.67-5.58,5.77-3.33,0-6.66.06-10,0-1.43,0-2,.25-2.07,1.88-.14,6.6-.2,6.59,6.34,6.59,2.58,0,5.16,0,7.74,0,1.26,0,1.74.42,1.83,1.72.44,5.89.47,5.89-5.38,5.89-2.92,0-5.83.05-8.74,0-1.25,0-1.72.29-1.78,1.65-.23,5.36-.29,5.36,5.07,5.36,3.49,0,7,0,10.48,0,1.49,0,2.1.5,2.07,2-.13,7.05.81,5.73-5.51,5.81-5.91.07-11.82-.09-17.72.07-2.29.06-2.8-.72-2.75-2.86C71.26,145.76,71.17,140.19,71.17,134.61Z"/><path class="cls-4" d="M256.54,134.72c0-5.66.07-11.32,0-17,0-1.89.61-2.43,2.44-2.41q10.62.12,21.23,0c1.73,0,2.34.55,2.3,2.3-.15,6.72.77,5.52-5.47,5.62-3.41,0-6.83.07-10.24,0-1.43,0-1.79.45-1.83,1.84-.17,6.64-.22,6.63,6.27,6.63,2.58,0,5.16,0,7.74,0,1.26,0,1.73.42,1.83,1.72.43,5.89.47,5.89-5.39,5.89-2.91,0-5.83.06-8.74,0-1.32,0-1.66.43-1.71,1.71-.18,5.31-.22,5.31,5.1,5.31,3.42,0,6.83.06,10.24,0,1.6,0,2.23.5,2.2,2.15-.16,6.94.84,5.61-5.61,5.7-5.83.08-11.66-.11-17.48.07-2.41.08-2.94-.76-2.88-3C256.64,145.71,256.54,140.22,256.54,134.72Z"/><path class="cls-4" d="M47.51,114.74a32.07,32.07,0,0,1,12.77,2.54c1.35.59,1.61,1.31,1.09,2.72-1.9,5.08-1.86,5.12-7,3.64A17.79,17.79,0,0,0,45,123.2c-5.92,1.45-9.39,6-9.16,12a11.64,11.64,0,0,0,10.27,11.4,20.37,20.37,0,0,0,11.21-1.69c1.66-.72,2.41-.64,3.07,1.25,2,5.71,2.1,5.74-3.78,7.46a25.84,25.84,0,0,1-18.3-1c-7.69-3.44-11.89-10.8-11.26-19.38a20.1,20.1,0,0,1,14.19-17.5A20,20,0,0,1,47.51,114.74Z"/><path class="cls-5" d="M202.5,134.71c0-5.74.05-11.49,0-17.23,0-1.65.54-2.15,2.16-2.14,7.15.07,14.31.06,21.47,0,1.54,0,2.3.38,2.27,2.08-.11,7.14.69,5.71-5.51,5.82-3.42.07-6.83.09-10.24,0-1.56,0-2.05.5-2,2a48.39,48.39,0,0,1,0,5.25c-.07,1.33.46,1.72,1.74,1.7,3.91-.06,7.83,0,11.74-.05,1.59,0,2.25.48,2.23,2.13-.1,6.74.59,5.39-5.33,5.5-2.67.05-5.34.12-8,0-1.81-.1-2.52.35-2.42,2.31.17,3.32,0,6.66.08,10,.05,1.66-.58,2.11-2.18,2.14-6,.11-6,.16-6-6Z"/><path class="cls-4" d="M158.62,115.37c4.66,0,9.32.06,14,0,1.77,0,2.54.42,2.49,2.37-.2,6.59.85,5.4-5.53,5.57-2.13.06-4.86-.93-6.22.47s-.35,4-.36,6c0,7.24-.08,14.48,0,21.72,0,2.09-.68,2.7-2.73,2.68-5.77-.07-5.77,0-5.77-5.78,0-7.57-.07-15.15.05-22.72,0-2-.61-2.57-2.53-2.45-2.66.15-5.33,0-8,0-1.36,0-1.95-.48-1.92-1.91.16-7.32-1-5.85,5.53-6C151.3,115.31,155,115.37,158.62,115.37Z"/><path class="cls-6" d="M237.49,134.61c0-5.66.06-11.32,0-17,0-1.74.53-2.28,2.28-2.3,6.14,0,6.14-.11,6.14,6,0,10.08,0,20.15,0,30.22,0,2.1-.67,2.71-2.72,2.68-5.71-.07-5.71,0-5.71-5.58Z"/><path class="cls-7" d="M191.69,134.86c0,5.49-.09,11,0,16.46.05,2.1-.41,2.93-2.72,2.87-5.6-.13-5.61,0-5.61-5.7,0-10.06.06-20.12,0-30.18,0-2.19.43-3.08,2.87-3,5.46.17,5.46,0,5.46,5.58Z"/><path class="cls-8" d="M195,204.82c-.47.92.79,2.49-.61,2.83-1.21.31-2.83.84-3.91-.49-.75-.92-1.14-.06-1.63.19-5.59,2.78-10.64.34-11.88-5.74a13.29,13.29,0,0,1,.1-5.92c1.38-5.47,5.9-8,11.24-6.21,1.42.48,1.77.28,1.67-1.13-.07-1,.09-2,0-3-.23-1.81.57-2.14,2.25-2.21,2.11-.1,2.61.61,2.61,2.65,0,6.22-.33,12.44.17,18.65.18.07.24.15.19.24S195.1,204.82,195,204.82Z"/><path class="cls-7" d="M122.92,195.33c0-3.32.07-6.64,0-10,0-1.55.3-2.28,2-2.19,2.73.15,5.49-.06,8.22.11,5.12.31,8,3.23,8.16,7.93.12,4.86-2.94,8.15-8,8.82-1.75.24-4.11-.87-5.09.7-.79,1.26-.34,3.4-.19,5.13.21,2.4-1.41,1.87-2.75,2s-2.54,0-2.45-2C123,202.32,122.92,198.82,122.92,195.33Z"/><path class="cls-7" d="M84.61,233.45c.14-4.62,1.44-8.75,5.83-11.07a13.7,13.7,0,0,1,13.6.26c.79.44,2.44.93,1.18,2.32-.82.91-1.19,2.87-3.43,1.6-4-2.26-8.12-1.65-10.19,1.11-2.52,3.37-2.29,9.75.44,12.59,2.17,2.25,6.31,2.5,9.49.58a3,3,0,0,1,4.35,1.6c.33,1.13-.7,1.42-1.32,1.82a13.36,13.36,0,0,1-14,.76C86,242.65,84.68,238.33,84.61,233.45Z"/><path class="cls-7" d="M158.68,201.13c0,1.25,0,2.5,0,3.74-.06.94.81,2.29-.25,2.74s-2.78.7-3.79-.2c-.82-.74-1.17-.41-1.81,0a8.08,8.08,0,0,1-5.79.86,5.2,5.2,0,0,1-4.45-4.71c-.36-3,.74-5.26,3.2-6.39a18.35,18.35,0,0,1,6.09-1.13c.65-.06,1.67.46,1.8-.71a1.93,1.93,0,0,0-1.46-2.07,6.68,6.68,0,0,0-5.34.41c-1.92,1-2.22-.3-2.85-1.49-.91-1.71.63-1.76,1.45-2.17a11,11,0,0,1,4.34-1.06c6.1-.4,8.78,2.1,8.84,8.22,0,1.33,0,2.66,0,4Z"/><path class="cls-7" d="M232.09,239.12c0,1.33.07,2.67,0,4-.06.93.8,2.27-.36,2.69s-2.8.69-3.79-.28c-.74-.72-1-.44-1.57-.07a7.83,7.83,0,0,1-5.28,1,5.22,5.22,0,0,1-5.08-4.64c-.45-3.23.77-5.55,3.51-6.67a17.31,17.31,0,0,1,5.62-1c.7,0,1.87.53,1.95-.8a2,2,0,0,0-1.78-2.1,7,7,0,0,0-5.11.54c-2,1.05-2.19-.46-2.79-1.56-.82-1.48.47-1.69,1.3-2.07a13.91,13.91,0,0,1,4.83-1.17q8.4-.56,8.53,7.87c0,1.41,0,2.83,0,4.24Z"/><path class="cls-7" d="M218.25,198.57c0,6-3.68,9.83-9.5,9.82s-9.58-4-9.55-9.88,3.73-9.58,9.47-9.62C214.64,188.86,218.25,192.5,218.25,198.57Z"/><path class="cls-7" d="M126.71,236.61c0,6-3.6,9.88-9.41,9.92s-9.6-3.85-9.62-9.76,3.76-9.82,9.57-9.78S126.68,230.74,126.71,236.61Z"/><path class="cls-7" d="M131.1,236.63c0-2.08,0-4.16,0-6.24,0-.86-.7-2.15.25-2.52,1.25-.49,3-.79,4,.19s1.18.34,1.79.05c6.21-3,11,0,11.06,6.86,0,3.07-.13,6.16.05,9.22.12,2.1-1.15,1.79-2.38,1.78s-2.72.38-2.62-1.84c.15-3,0-6,0-9,0-2.07-.38-3.89-3-4.07a3.82,3.82,0,0,0-4.2,3.94,79.46,79.46,0,0,0,0,8.73c.13,2-.75,2.33-2.47,2.26-1.53-.06-2.75.05-2.56-2.15.2-2.4,0-4.82,0-7.23Z"/><path class="cls-7" d="M237.45,237.29c0-2.24,0-4.49,0-6.73,0-.93-.92-2.2.23-2.71s2.87-.7,3.82.09,1.41.44,2.2.05c5.83-2.86,10.81.25,10.85,6.75,0,3.08-.13,6.16.05,9.23.11,2-1,2-2.43,2s-2.75.08-2.6-2.14c.19-2.89,0-5.81,0-8.73,0-2.08-.41-3.88-3-4-2.32-.15-4,1.37-4.15,4a83.87,83.87,0,0,0,0,9c.12,2.19-1.18,1.92-2.54,2s-2.64.15-2.47-2,0-4.48,0-6.73Z"/><path class="cls-7" d="M187.26,236.36c0,2.25,0,4.5,0,6.74,0,.92.91,2.2-.25,2.68a4.19,4.19,0,0,1-3.84-.11,1.47,1.47,0,0,0-2-.13c-5.62,2.92-10.87-.12-11-6.4-.08-3.24.09-6.49,0-9.73-.1-2.32,1.45-1.69,2.67-1.77s2.47-.19,2.38,1.82c-.15,3-.08,6,0,9,.05,2.75,1,3.93,3.08,4a3.74,3.74,0,0,0,4-3.87,86.78,86.78,0,0,0,.07-9c-.11-2.38,1.42-1.87,2.78-2,1.52-.12,2.32.23,2.2,2-.14,2.24,0,4.49,0,6.74Z"/><path class="cls-8" d="M159.08,246.53a11.27,11.27,0,0,1-6-1.34c-.77-.46-1.57-1-.79-1.91.64-.75.8-2.47,2.52-1.63a7.63,7.63,0,0,0,3.87.8c1.11-.08,2.26-.21,2.39-1.64s-.87-1.65-1.86-2a39.14,39.14,0,0,1-4-1.38,4.82,4.82,0,0,1-3-4.79,5.08,5.08,0,0,1,3.32-4.84,10.37,10.37,0,0,1,8.92.35c.86.42,1.74,1,.87,2.07-.61.77-.78,2.46-2.53,1.42a5.85,5.85,0,0,0-3.85-.74c-.88.13-1.67.46-1.73,1.47a1.56,1.56,0,0,0,1.31,1.6c1.11.36,2.24.64,3.34,1,3,1.08,4.42,2.92,4.31,5.66a5.89,5.89,0,0,1-4.91,5.53A16.87,16.87,0,0,1,159.08,246.53Z"/><path class="cls-8" d="M267.11,246.53c-4.38.05-6.46-2-6.53-6.06,0-2.33,0-4.65,0-7,0-1.1,0-2-1.52-1.85-1.05.12-1.5-.39-1.44-1.46s-.12-2,1.2-2c1.61-.07,1.79-1,1.75-2.32-.06-1.82,2.62-3.91,4.32-3.54.54.12.6.49.6.91a18.81,18.81,0,0,1,0,2.49c-.17,1.54.25,2.38,2,2.14,1.45-.2,2.5-.06,2.49,2,0,2.2-1.35,1.93-2.64,1.83s-1.92.36-1.86,1.81c.11,2.24,0,4.48,0,6.72,0,1.21.39,2.42,1.73,2.22,2.56-.37,2.57,1.45,2.51,2.88C269.67,247.21,267.72,245.92,267.11,246.53Z"/><path class="cls-8" d="M210.19,246.54c-4.05,0-6.08-2-6.12-6.13q0-3.6,0-7.22c0-1-.16-1.65-1.34-1.54s-1.71-.22-1.67-1.51c0-1.09.1-2,1.48-2.07s1.51-.87,1.51-2a3.94,3.94,0,0,1,4.05-3.77c.72,0,.8.48.82,1a12,12,0,0,1,0,2.24c-.28,1.89.49,2.6,2.34,2.3,1.44-.23,2.08.28,2.07,1.88s-.5,2.21-2,1.95c-2.08-.35-2.54.64-2.41,2.51.14,2.06,0,4.15,0,6.23,0,1.25.6,2.25,1.93,2,2.34-.38,2.14,1.25,2.26,2.6.18,2-1.53,1.17-2.46,1.5A2,2,0,0,1,210.19,246.54Z"/><path class="cls-7" d="M229.18,208.39c-3.7-.08-5.67-2-5.81-5.7-.08-2.4-.05-4.81,0-7.22,0-1.19,0-2.22-1.66-2-1,.13-1.31-.45-1.26-1.35s-.22-2,1.11-2.11,1.75-.81,1.73-2.12a4.06,4.06,0,0,1,4.14-3.75c.76,0,.74.5.76,1a13.23,13.23,0,0,1,0,2c-.22,1.83.25,2.9,2.38,2.54,1.37-.24,2.1.14,2.11,1.82s-.64,2.24-2.18,2c-1.91-.31-2.47.53-2.34,2.36.16,2.07,0,4.15.06,6.23,0,1.15.42,2.41,1.76,2.24,2.26-.28,2.52,1.17,2.51,2.66,0,2-1.78,1.11-2.81,1.44A2.09,2.09,0,0,1,229.18,208.39Z"/><path class="cls-6" d="M197.55,233.64c0,3.49-.12,7,0,10.48.09,2-1,1.91-2.35,1.85s-2.68.48-2.65-1.8q.17-10.48,0-21c0-2.23,1.31-1.82,2.6-1.85s2.47-.21,2.39,1.8C197.45,226.64,197.55,230.14,197.55,233.64Z"/><path class="cls-6" d="M164.16,198.31c0-2.07,0-4.14,0-6.22,0-.86-.63-2.18.35-2.48,1.25-.38,3-.83,4,.29.8,1,1,.53,1.65.12a5.53,5.53,0,0,1,2.26-1c1.06-.09,2.77-1,2.86,1.08.06,1.4.73,3.39-2.19,3.27-2.37-.09-3.76,1.77-3.88,4.59a78.27,78.27,0,0,0,0,8c.11,2-1,1.92-2.34,1.85s-2.77.48-2.66-1.8c.13-2.56,0-5.14,0-7.71Z"/><path class="cls-9" d="M292.08,116.5l0,36.7c-.39.3-.59.14-.59-.29q0-18,0-36.07a.56.56,0,0,1,.15-.41C291.75,116.38,291.94,116.47,292.08,116.5Z"/><path class="cls-10" d="M182.67,153.17V116.55h.24v36.73Z"/><path class="cls-11" d="M237,116.55v36.14h-.24V116.45Z"/><path class="cls-12" d="M202,116.47V152.8h-.24V116.53Z"/><path class="cls-13" d="M195,204.82a.23.23,0,0,1,0-.37V183.86h.53c0,6.72,0,13.43,0,20.15C195.53,204.28,195.21,204.55,195,204.82Z"/><path class="cls-14" d="M300.64,134.56c0-3.16.06-6.33,0-9.48,0-1.44.47-1.92,1.87-1.84,1.74.1,3.5,0,5.24,0A11.23,11.23,0,0,1,319,134.59,11.36,11.36,0,0,1,308,146.25c-1.91.13-3.83,0-5.74.07-1.38.07-1.69-.56-1.67-1.79C300.68,141.21,300.64,137.88,300.64,134.56Z"/><path class="cls-15" d="M116.12,129.51a4.93,4.93,0,0,1,0-1.49c.51-1.55-1.39-4,1.1-4.66,4.41-1.11,8.45.54,9.58,3.34,1.75,4.34-.56,8.37-5.19,9-5.45.78-5.52.72-5.52-4.71Z"/><path class="cls-16" d="M190,197.77a10.18,10.18,0,0,1-.38,3.82,4,4,0,0,1-4.25,2.75c-1.93-.17-2.88-1.48-3.3-3.23a10.36,10.36,0,0,1,0-4.92,4.3,4.3,0,0,1,7.1-2.23C190.6,195.09,189.74,196.6,190,197.77Z"/><path class="cls-17" d="M127.91,191.59c.49-1.71-1.26-4.49,2.64-4.21s5.56,1.26,5.6,4.13-1.74,4.16-5.64,4.4C126.31,196.17,128.65,193.07,127.91,191.59Z"/><path class="cls-18" d="M149.48,204.38c-1,0-1.94-.69-1.9-2.26,0-1.75,1.69-2.62,4.67-2.62,1,0,1.58.18,1.53,1.35C153.7,202.65,151.85,204.37,149.48,204.38Z"/><path class="cls-19" d="M225.12,237.68c.87.12,2-.44,2.06,1.1a3.84,3.84,0,0,1-3.65,3.67c-1.4.07-2.57-.31-2.51-2C221.11,237.69,223.37,238,225.12,237.68Z"/><path class="cls-15" d="M213.23,198.34c0,2.14-.19,4-1.79,5.23A4.29,4.29,0,0,1,205,201.9a8.46,8.46,0,0,1-.47-5.12c.56-2.77,2-4,4.61-3.85,2.39.14,3.76,1.55,4.07,4.19C213.21,197.62,213.22,198.11,213.23,198.34Z"/><path class="cls-15" d="M121.71,236.68q0,5.69-4.32,5.78c-3,.07-4.67-1.94-4.67-5.73s1.57-5.66,4.49-5.66S121.7,233,121.71,236.68Z"/></g></g></svg>