<svg xmlns="http://www.w3.org/2000/svg" viewBox="0 0 354.72 346.38"><defs><style>.cls-1{fill:#231988;}.cls-2{fill:#f0c042;}.cls-3{fill:#459bd4;}.cls-4{fill:#fefefe;}.cls-5{fill:#fdfdfe;}.cls-6{fill:#fdfdfd;}.cls-7{fill:#fcfcfd;}.cls-8{fill:#f8f8fb;}.cls-9{fill:#fbfbfc;}.cls-10{fill:#f9f9fb;}.cls-11{fill:#f8f7fb;}.cls-12{fill:#231989;}.cls-13{fill:#241a89;}.cls-14{fill:#271e8b;}.cls-15{fill:#281e8b;}.cls-16{fill:#291f8c;}.cls-17{fill:#2c238e;}.cls-18{fill:#241b89;}.cls-19{fill:#251b8a;}.cls-20{fill:#30268f;}</style></defs><g id="Capa_2" data-name="Capa 2"><g id="Capa_1-2" data-name="Capa 1"><path class="cls-1" d="M26.79,251.06Q21,225.9,15.21,200.75,8,169.4.83,138c-2-8.84-.36-16.79,5.35-23.91Q47.45,62.58,88.66,11c5.93-7.43,13.45-11,23-11q66,.11,132,0a26.85,26.85,0,0,1,22.13,10.55q41.38,51.78,82.82,103.53a26.55,26.55,0,0,1,5.42,23.66q-12.74,55.68-25.48,111.35c-.13.57-.3,1.12-.46,1.68-3.13,2.74-7,4.13-10.7,5.82-5.52,2.54-11,5.23-16.44,7.87-18.68,9-37.4,17.89-56.07,26.9q-18.78,9-37.6,18c-6.38,3.06-12.67,6.32-19.19,9.09a26.29,26.29,0,0,1-21.35,0c-6.06-2.57-11.9-5.61-17.82-8.46-17.79-8.53-35.61-17-53.39-25.54-14.86-7.14-29.76-14.19-44.62-21.32-7.05-3.38-14.15-6.67-21.19-10.1A7.13,7.13,0,0,1,26.79,251.06Z"/><path class="cls-2" d="M26.79,251.06q25.37,12.06,50.73,24.13,44,21,87.88,42a26.56,26.56,0,0,0,24.07-.08q68.9-33,137.82-66.06c.22-.1.47-.16.7-.24q-1.87,8.27-3.75,16.52c-2,8.72-7.18,14.81-15.16,18.64l-97,46.54c-8,3.82-15.86,7.73-23.86,11.43-7.66,3.54-15.34,3.16-22.9-.47L106.18,315q-30.27-14.53-60.55-29c-8.13-3.88-13.23-10.11-15.22-18.89Q28.6,259.07,26.79,251.06Z"/><path class="cls-3" d="M153.19,25.32c6.22-.08,10.76,1.85,14.43,5.76,1,1.09,1.64,1.32,3,.26,8.37-6.47,18.61-5.05,25,3.39a2.21,2.21,0,0,0,3,.91c11.77-4.38,26.86,3.47,27.83,19.12A20.7,20.7,0,0,1,207.5,76.82c-3.83.29-6.94.49-9.89,3.86-3.69,4.22-9.22,4.63-14.61,3.14-1.49-.41-2.31-.46-3.19,1.09a16.59,16.59,0,0,1-15.7,8.81c-6.85-.18-12-3.53-15.26-9.62a2.67,2.67,0,0,0-3.11-1.67,16.17,16.17,0,0,1-16.36-10.24c-2.6-6.53-.63-14.66,4.76-18.75a3.49,3.49,0,0,0,1.49-4.35C132.38,36.74,141.32,25.29,153.19,25.32Z"/><path class="cls-4" d="M292.2,134.6c0-5.65.06-11.3,0-16.95,0-1.86.57-2.47,2.43-2.43,4.66.12,9.33-.09,14,.1,13.2.53,21.8,11.94,18.52,24.43a19.05,19.05,0,0,1-16.54,13.9c-5.54.46-11.14.18-16.71.28-1.59,0-1.67-.93-1.66-2.12C292.21,146.07,292.2,140.34,292.2,134.6Z"/><path class="cls-4" d="M107.71,134.51c0-5.66.05-11.31,0-17,0-1.7.49-2.37,2.27-2.32,4.16.11,8.33-.11,12.48.12,10,.57,15.67,8.29,13.26,18a10.51,10.51,0,0,1-4.08,6.38c-1.56,1.07-1.34,1.81-.31,3.09,2.3,2.84,4.45,5.8,6.65,8.73.42.56,1.17,1.13.65,2-.41.65-1.2.41-1.84.46h-.25c-4.8.9-8.31-.66-10.49-5.18a33.4,33.4,0,0,0-3-4.27,2.36,2.36,0,0,0-2.23-1.25c-5.73.29-4.61-.82-4.67,4.52-.07,6.44,0,6.38-6.34,6.22-1.71-.05-2.1-.71-2.08-2.25C107.75,146,107.71,140.24,107.71,134.51Z"/><path class="cls-4" d="M71.13,134.61c0-5.65.06-11.3,0-17,0-1.82.51-2.46,2.4-2.44,7.07.09,14.14.08,21.21,0,1.72,0,2.37.51,2.33,2.27-.17,6.56.88,5.52-5.48,5.6-3.41.05-6.83.07-10.23,0-1.43,0-1.81.47-1.86,1.85-.22,6.65-.26,6.64,6.28,6.64,2.5,0,5,.07,7.49,0,1.64-.06,2.19.61,2.16,2.2-.1,6.51.66,5.35-5.13,5.44-2.91,0-5.82.07-8.73,0-1.42,0-2.06.23-2.08,1.87-.07,5.11-.14,5.11,5.07,5.11,3.41,0,6.82.07,10.23,0,1.77-.06,2.32.59,2.28,2.31-.18,6.55.87,5.39-5.31,5.46s-12.15,0-18.22.06c-1.84,0-2.46-.51-2.42-2.4C71.2,145.92,71.13,140.26,71.13,134.61Z"/><path class="cls-4" d="M256.52,134.47c0-5.65.05-11.31,0-17,0-1.76.58-2.31,2.31-2.29q10.74.1,21.47,0c1.66,0,2.19.61,2.17,2.19-.11,6.81.73,5.59-5.4,5.68-3.32.06-6.65.07-10,0-1.52,0-2.21.28-2.24,2-.11,6.47-.18,6.47,6.26,6.47,2.58,0,5.16,0,7.74,0,1.36,0,1.95.45,1.93,1.87-.11,7.12.8,5.62-5.26,5.75-3,.07-6,.05-9,0-1.13,0-1.57.33-1.66,1.55-.41,5.42-.45,5.42,5,5.42,3.42,0,6.83.06,10.24,0,1.64,0,2.44.36,2.4,2.2-.16,6.84.79,5.49-5.45,5.57-6.08.08-12.15,0-18.23,0-1.72,0-2.32-.52-2.29-2.28C256.58,145.94,256.52,140.2,256.52,134.47Z"/><path class="cls-4" d="M48.57,154.64c-10.43,0-18.62-5.71-20.93-14.51a20.12,20.12,0,0,1,16.93-25.25A29,29,0,0,1,60,117.05c1.51.65,1.94,1.39,1.27,3-2,4.88-1.9,4.92-6.74,3.44a19.49,19.49,0,0,0-6.91-.86c-7.23.43-12,5.33-11.77,12.23s5.23,11.64,12.37,11.69a21.39,21.39,0,0,0,9.45-2c1.42-.67,2-.33,2.61,1.09,2.25,5.56,2,6.17-3.8,7.82A28.45,28.45,0,0,1,48.57,154.64Z"/><path class="cls-4" d="M202.42,134.68c0-5.57.07-11.15,0-16.71,0-2,.45-2.8,2.63-2.76,6.91.13,13.82.11,20.73,0,2,0,2.64.56,2.58,2.54-.19,6.19.81,5.28-5.25,5.35-3.5,0-7,0-10.49,0-1.38,0-1.86.4-1.92,1.84-.27,7-.31,7,6.66,7,2.34,0,4.67,0,7,0,1.35,0,2,.46,1.94,1.88-.12,7.08.88,5.67-5.49,5.8-2.75.06-5.5.07-8.24,0-1.44,0-1.89.48-1.86,1.88.08,3.49,0,7,.05,10.47,0,1.33-.38,1.9-1.82,2-6.48.39-6.48.44-6.48-6Z"/><path class="cls-4" d="M158.66,115.26c4.66,0,9.32.07,14,0,1.89,0,2.46.64,2.42,2.46-.17,6.3.85,5.32-5.42,5.44-2.15,0-4.93-.91-6.28.4s-.47,4.27-.49,6.48c-.07,7.07-.12,14.14,0,21.2,0,2.26-.7,2.81-2.85,2.77-5.57-.11-5.57,0-5.57-5.47,0-7.65-.07-15.3,0-22.94,0-2-.61-2.59-2.55-2.49-2.66.15-5.33,0-8,.05-1.36,0-1.95-.51-1.93-1.92.13-7.32-.87-5.8,5.62-5.93C151.33,115.2,155,115.26,158.66,115.26Z"/><path class="cls-4" d="M64.42,191.49c-1.88,4.75-3.79,9.49-5.63,14.25-.45,1.16-.87,2-2.41,2s-2.37-.39-2.93-1.94c-1.72-4.74-3.63-9.4-5.51-14.21-.87.85-.52,1.72-.52,2.5,0,3.74.08,7.48.11,11.22a2.83,2.83,0,0,1-4.29,2.26c-.65-.37-.51-1-.52-1.53q0-10.72,0-21.45A2,2,0,0,1,43,183.4c1-1.16,6.91-.12,7.44,1.3,1.57,4.2,3.11,8.42,4.68,12.62a4.66,4.66,0,0,0,1.31,2.43c1.78-4.67,3.46-9.2,5.23-13.7.41-1,.32-2.68,1.63-2.86a30.63,30.63,0,0,1,6,0c.74,0,.62.87.62,1.42,0,7.15,0,14.3,0,21.45,0,2.36-1.71,1.44-2.84,1.6-1.3.18-2.22,0-2.19-1.75.09-4.74,0-9.47,0-14.21Z"/><path class="cls-5" d="M197.45,216.55a14.18,14.18,0,0,1-6-.92,5.21,5.21,0,0,1-2-8.45c.79-.92,1.28-1.58.5-2.72a1.62,1.62,0,0,1,0-1.9c1.67-1.58.67-2.78-.13-4.34-2-3.77.24-7.92,4.42-9.17,2.79-.84,5.44.27,8.16.21,1.08,0,2.16.06,3.24,0,1.42-.1,1.71.67,1.6,1.84-.09,1,.43,2.38-1.48,2.07-.77-.13-1.14,0-1.06,1,.39,5.23-1.47,7.37-6.52,7.86-1.25.12-3.5-.4-3.47.89,0,1.65,2.26.9,3.55,1.14s2.81.31,4.17.67c2.11.55,3.88,1.64,4.2,4.06a5.81,5.81,0,0,1-2.88,6.15A12.61,12.61,0,0,1,197.45,216.55Z"/><path class="cls-5" d="M183.28,134.48c0-5.56.07-11.13,0-16.69,0-1.94.58-2.59,2.56-2.58,5.88,0,5.88,0,5.88,5.94,0,10-.05,20.09,0,30.14,0,2.07-.59,2.7-2.67,2.68-5.78-.08-5.78,0-5.78-5.79Z"/><path class="cls-4" d="M237.42,134.47c0-5.56.06-11.13,0-16.68,0-2,.57-2.59,2.56-2.58,5.85,0,5.85,0,5.85,5.71,0,10.13,0,20.25,0,30.38,0,2.08-.61,2.69-2.67,2.66-5.74-.07-5.75,0-5.75-5.8Q237.41,141.32,237.42,134.47Z"/><path class="cls-5" d="M307.09,189.76a28.15,28.15,0,0,0,0-3.92c-.36-2.39.68-2.92,2.89-2.84,1.68.05,2.1.55,2.09,2.15,0,7,.06,14,.09,20.94,0,1.46-2.62,2.43-4.14,1.28-.81-.62-1.11-.69-2-.25-5.82,3-11.22.1-12-6.4,0-.25,0-.5-.08-.75C293.17,193.2,297.72,186.23,307.09,189.76Z"/><path class="cls-5" d="M102.14,220.6a12.46,12.46,0,0,1,6.55,2.15c.63.43,1.78.94.84,1.87s-1.25,2.95-3.16,1.89a10.11,10.11,0,0,0-6-1.43,6.24,6.24,0,0,0-5.73,4.45,11.57,11.57,0,0,0-.57,4.17c.06,3,.65,5.75,3.43,7.3a7.51,7.51,0,0,0,8.48-.62c2.19-1.61,2.76.52,3.69,1.45,1.17,1.18-.27,1.72-1,2.23-4.29,3.08-11.15,3.05-15.27,0s-5.84-9.77-3.88-15.69C91.21,223.43,95.39,220.63,102.14,220.6Z"/><path class="cls-5" d="M218,195.47c.07-4.81,1.35-8.95,5.71-11.32a13.62,13.62,0,0,1,13.6.13c.76.41,2.52.81,1.39,2.25-.82,1-1.37,2.95-3.67,1.64-3.89-2.21-8.13-1.5-10.17,1.32-2.43,3.36-2.05,9.92.73,12.58a7.52,7.52,0,0,0,9.05.52c1.74-1.18,2.63-.81,3.9.56s.73,1.94-.42,2.7a13.43,13.43,0,0,1-13.78,1.05C219.57,204.64,218.09,200.3,218,195.47Z"/><path class="cls-6" d="M112.24,195.2c3.91-2.69,6.13-7.76,12.11-5.47-2,1.91-3.85,3.84-5.87,5.55-1.37,1.16-1.58,2-.32,3.4,2.1,2.36,4,4.93,5.93,7.4.81,1,.79,1.51-.72,1.61-2.61.17-4.91,0-6.3-2.74a23,23,0,0,0-2.71-3.57c-.35-.43-.63-1.09-1.37-.75a1.43,1.43,0,0,0-.74,1.46,17.87,17.87,0,0,0,0,2.74c.34,2.32-.59,3-2.88,2.91-1.7-.08-2.11-.63-2.09-2.2.06-6.81.11-13.63,0-20.44,0-2.3,1.26-2,2.69-2.06,1.63-.11,2.41.27,2.33,2.14C112.14,188.33,112.24,191.48,112.24,195.2Z"/><path class="cls-5" d="M89.54,200.94c0,1.25,0,2.5,0,3.74,0,.95.7,2.3-.31,2.76s-2.82.72-3.79-.16-1.21-.48-1.83-.07a7.68,7.68,0,0,1-4.8,1,5.4,5.4,0,0,1-5.48-4.8A5.63,5.63,0,0,1,77,196.79a18,18,0,0,1,5.65-.89c.67,0,1.69.37,1.83-.71a1.94,1.94,0,0,0-1.43-2.1,6.88,6.88,0,0,0-5.57.47c-1.9.94-2.06-.53-2.64-1.52-.8-1.36.21-1.81,1.17-2.13a21.09,21.09,0,0,1,4.08-1.11c6.2-.81,9.31,1.92,9.42,8.15,0,1.33,0,2.66,0,4Z"/><path class="cls-6" d="M230.24,238.63c0,1.41-.05,2.82,0,4.23.11,2.78-1.37,4-3.73,2.68-1.23-.7-1.76-.34-2.74.07-2.58,1.07-5.19,1.19-7.61-.48-2-1.41-2.29-3.53-2-5.78.29-2.7,2-4.11,4.48-4.7,1.52-.37,3.12-.41,4.68-.65.71-.1,1.86.46,1.89-.92a1.91,1.91,0,0,0-1.61-2,7.31,7.31,0,0,0-5.13.45c-1.86.94-2.28-.24-2.89-1.49-.83-1.68.64-1.76,1.5-2.18a11,11,0,0,1,4.09-1c6.29-.47,9,2,9.06,8.23,0,1.16,0,2.32,0,3.49Z"/><path class="cls-5" d="M269.76,198.52c-.05,6-3.8,9.74-9.65,9.69s-9.45-4-9.38-10,3.78-9.53,9.56-9.51S269.8,192.47,269.76,198.52Z"/><path class="cls-5" d="M130.18,236.41c0,6-3.71,9.9-9.45,10s-9.58-3.89-9.6-9.8,3.52-9.62,9.32-9.69C126.43,226.79,130.14,230.44,130.18,236.41Z"/><path class="cls-5" d="M136.24,200.29c-1.58,0-3.16,0-4.74,0-1.33,0-1.3.63-.87,1.58,1.05,2.32,4.06,3,7.49,1.6.81-.33,1.48-1,2.4,0,1.6,1.79,1.56,2.43-.59,3.51-4.21,2.14-9.53,1.52-12.3-1.42s-3.38-9-1.13-12.86c2.05-3.53,6.84-5,11-3.41,3.33,1.3,5.73,6,5,9.74a1.33,1.33,0,0,1-1.52,1.25h-4.74Z"/><path class="cls-6" d="M290.45,198.69c0,2-.06,4,0,6,.1,2.82-1.76,4.23-4.12,2.73a1.8,1.8,0,0,0-2.27,0c-5.28,2.63-10.41-.18-10.78-6-.22-3.47,0-7-.09-10.46,0-2.36,1.68-1.47,2.82-1.61s2.27-.07,2.2,1.72c-.12,2.9-.06,5.81,0,8.72s1,4.4,3.18,4.44,3.84-1.54,4-4.23a79.08,79.08,0,0,0,0-8.71c-.1-2.09,1.1-2,2.51-2s2.63-.09,2.49,2c-.16,2.48,0,5,0,7.47Z"/><path class="cls-6" d="M168.59,198.2c0-2,.07-4,0-6-.11-2.79,1.7-4.11,4.12-2.63a2,2,0,0,0,2.33,0c5.82-2.7,10.66.34,10.71,6.72,0,3.15-.1,6.31,0,9.47.08,1.92-1,1.93-2.35,1.87s-2.72.36-2.63-1.85c.14-3,0-6,0-9,0-2.1-.48-3.86-3-4.08-2.27-.2-4.07,1.4-4.21,4-.15,3-.17,6,0,9,.1,2.07-1.08,2-2.51,2s-2.61,0-2.48-2c.16-2.48,0-5,0-7.47Z"/><path class="cls-6" d="M234.77,236.24c0-1.91,0-3.82,0-5.73-.1-3,1.68-4.26,4.3-2.7a1.63,1.63,0,0,0,1.89.09c6.33-2.93,11,0,11,7,0,2.83-.12,5.66,0,8.48.11,2-.64,2.52-2.57,2.51s-2.51-.51-2.4-2.41c.15-2.81.06-5.65,0-8.47,0-2.05-.4-3.89-3-4a3.71,3.71,0,0,0-4.19,3.67,70.66,70.66,0,0,0-.08,9c.11,2.07-.87,2.22-2.53,2.25s-2.6-.41-2.48-2.36c.15-2.4,0-4.82,0-7.23Z"/><path class="cls-6" d="M133.6,236.36c0-2,.05-4,0-6-.1-2.81,1.72-4.13,4.16-2.63a1.73,1.73,0,0,0,2.09.07c6-2.84,10.85.15,10.89,6.67,0,3.07-.1,6.15,0,9.22.1,2-.9,2.14-2.43,2.1s-2.64.07-2.54-2c.13-2.9.06-5.82,0-8.73s-.91-4.09-3.12-4.15c-2.37-.07-4,1.4-4.08,4.06s-.14,5.49,0,8.23c.08,1.85-.33,2.68-2.44,2.63-1.91,0-2.7-.48-2.56-2.52.17-2.31,0-4.65,0-7Z"/><path class="cls-6" d="M188.09,236.81c0,2-.05,4,0,6,.1,2.89-1.69,4.17-4.17,2.63a1.68,1.68,0,0,0-2.08,0c-5.7,2.79-10.76-.26-10.91-6.58-.07-3.16.1-6.32-.06-9.47-.1-2.14,1.17-1.92,2.54-2s2.57,0,2.47,2c-.15,2.9-.08,5.81,0,8.72.05,2,.46,3.91,3,4.11a3.83,3.83,0,0,0,4.09-3.84,72.67,72.67,0,0,0,.09-8.22c-.05-1.8,0-2.92,2.44-2.87,2.17,0,2.69.77,2.55,2.75-.15,2.24,0,4.49,0,6.73Z"/><path class="cls-6" d="M161,226.87a9.68,9.68,0,0,1,4.89.93c.77.43,2.22.61,1.39,2.06-.61,1.08-1.09,2.56-3,1.49a5.09,5.09,0,0,0-3.87-.51c-.68.18-1.27.48-1.33,1.28a1.44,1.44,0,0,0,1,1.56c1.17.43,2.38.73,3.55,1.14,3.07,1.08,4.48,2.93,4.36,5.63s-1.89,4.79-4.9,5.54a11,11,0,0,1-8.21-1c-.72-.4-1.67-.86-.84-1.87.65-.78.85-2.45,2.53-1.69a7.92,7.92,0,0,0,4.11.82c1-.1,2-.4,2.15-1.65s-.72-1.58-1.63-1.88-1.93-.51-2.87-.84c-3.12-1.09-4.5-3-4.23-5.93.25-2.66,2.26-4.51,5.42-4.95C160.1,226.91,160.69,226.89,161,226.87Z"/><path class="cls-7" d="M203.11,237.07c0-1.16-.05-2.33,0-3.49.07-1.31-.05-2.32-1.79-2.15-1,.1-1.18-.69-1.17-1.51s-.15-1.83,1-1.91c1.72-.12,1.94-1.12,1.89-2.54,0-1.63,2.73-3.75,4.28-3.34,1.07.28.7,1.25.64,1.88-.22,2.36,0,4.1,3.14,3.62,1.58-.24,1.24,1.17,1.3,2.1s-.22,1.94-1.49,1.7c-2.88-.55-3.13,1.07-2.94,3.27a35.28,35.28,0,0,1,0,4.24c-.06,1.94.13,3.52,2.76,3.33,1.71-.12,1.17,1.49,1.47,2.4.38,1.16-.45,1.36-1.35,1.55-4.66,1-7.72-1.44-7.8-6.15C203.1,239.07,203.11,238.07,203.11,237.07Z"/><path class="cls-7" d="M257.05,237c0-1.24,0-2.49,0-3.74s-.11-2-1.57-1.85c-.91.1-1.44-.31-1.38-1.28s-.33-2,1-2.15c1.72-.14,1.94-1.12,1.9-2.54-.05-1.62,2.74-3.77,4.25-3.35,1,.29.7,1.25.64,1.89-.22,2.34,0,4.1,3.13,3.63,1.62-.25,1.17,1.21,1.25,2.11.09,1.07-.22,1.93-1.48,1.68-3-.57-3,1.21-2.89,3.32.09,1.41.06,2.83,0,4.24-.07,2,.19,3.46,2.8,3.29,1.65-.12,1.17,1.5,1.43,2.42.32,1.15-.51,1.35-1.41,1.53-4.67.92-7.66-1.46-7.72-6.2C257,239,257.05,238,257.05,237Z"/><path class="cls-6" d="M153,208.2c-4.33,0-6.35-2-6.41-6.1,0-2.41,0-4.81,0-7.22,0-1-.2-1.66-1.34-1.58s-1.69-.31-1.64-1.54c0-1,.07-1.92,1.32-2,1.74-.06,1.61-1.23,1.62-2.43,0-1.71,2.58-3.73,4.23-3.32,1.2.31.74,1.38.69,2.08-.19,2.28.07,3.95,3.05,3.41,1.36-.24,1.36.82,1.35,1.78s.08,2.22-1.45,2c-2.85-.51-3.15,1-2.94,3.26a35.23,35.23,0,0,1,0,4c-.06,2.05-.08,3.86,2.91,3.68,1.59-.11,1,1.58,1.31,2.5s-.39,1.33-1.24,1.4Z"/><path class="cls-8" d="M197.59,233.35c0,3.49-.1,7,0,10.47.08,2.05-1,2-2.5,2s-2.56.07-2.53-2q.15-10.35,0-20.69c0-2.06,1.07-2,2.51-2s2.61-.09,2.52,2C197.48,226.54,197.59,230,197.59,233.35Z"/><path class="cls-9" d="M242.2,195.14c0-3.41.11-6.82,0-10.23-.09-2.23,1.32-1.83,2.61-1.85s2.44-.25,2.41,1.78q-.17,10.49,0,20.95c0,1.92-1,2-2.34,1.88s-2.75.46-2.67-1.81C242.3,202.29,242.2,198.71,242.2,195.14Z"/><path class="cls-7" d="M94.06,198.3c0-2.07,0-4.15,0-6.23,0-.91-.84-2.25.39-2.66s2.9-.72,3.79.24,1.26.42,1.95,0a6.56,6.56,0,0,1,2.31-.86c1-.12,2.62-.8,2.6,1.16,0,1.31.86,3.27-2,3.22-2.52,0-3.94,1.71-4,4.44a64.14,64.14,0,0,0,0,7.72c.18,2.29-1,2.24-2.7,2.34-2,.11-2.42-.64-2.31-2.44.14-2.32,0-4.65,0-7Z"/><path class="cls-10" d="M163.93,198.4c0,2.41-.12,4.83,0,7.23.12,2-.93,2.12-2.45,2.06s-2.6.18-2.54-1.95q.19-7.23,0-14.46c-.05-2,.95-2,2.45-2.07s2.72.11,2.56,2.22C163.79,193.74,163.93,196.08,163.93,198.4Z"/><path class="cls-11" d="M164.39,184a2.6,2.6,0,0,1-2.71,2.86c-1.82.08-3.06-.66-3.14-2.66a2.53,2.53,0,0,1,2.67-2.89C163,181.24,164.22,182.05,164.39,184Z"/><path class="cls-12" d="M300.62,134.52c0-3.16.08-6.32,0-9.48,0-1.56.53-2.05,2-2s3.16,0,4.74,0c6.67.15,11.37,4.74,11.56,11.25s-4.49,11.34-11.08,11.77c-7.21.47-7.21.47-7.21-6.64Z"/><path class="cls-13" d="M116.09,129.26a5.14,5.14,0,0,1,0-1.24c.42-1.61-1.19-4,1-4.8,3.39-1.25,8.11.4,9.42,2.78a6.3,6.3,0,0,1-4.52,9.48C116.18,136.53,116.09,136.43,116.09,129.26Z"/><path class="cls-14" d="M196.72,208a12.32,12.32,0,0,1,3.67.55c.74.29,1.36.68,1.41,1.55a1.8,1.8,0,0,1-1.08,1.81,8.33,8.33,0,0,1-6.51.37,1.85,1.85,0,0,1-1.27-2.17,2.2,2.2,0,0,1,1.8-2.09A10.9,10.9,0,0,1,196.72,208Z"/><path class="cls-15" d="M200.48,195.49c-.14,2.19-1.51,2.86-3.41,2.83s-3.34-.81-3.29-2.9,1.51-2.8,3.4-2.82S200.32,193.5,200.48,195.49Z"/><path class="cls-13" d="M307.1,197.66c-.07,1.32.17,2.67-.41,3.94a3.92,3.92,0,0,1-3.91,2.55,3.56,3.56,0,0,1-3.42-2.78,8.9,8.9,0,0,1-.37-3.7c.26-3.26,1.9-5.07,4.46-4.92C306.27,192.93,307.09,194,307.1,197.66Z"/><path class="cls-16" d="M82.62,199.38c.87.07,1.95-.36,2,1.17a4,4,0,0,1-3.75,3.61c-1.47.06-2.55-.56-2.45-2.09C78.54,199.35,80.85,199.7,82.62,199.38Z"/><path class="cls-17" d="M223.32,237.49c.81.07,2-.41,2,1.28a3.9,3.9,0,0,1-3.8,3.52c-1.3,0-2.25-.51-2.37-1.95C219,238.59,220.42,237.59,223.32,237.49Z"/><path class="cls-18" d="M264.78,198.33c-.1,2.17-.35,4.08-2.16,5.26a4.31,4.31,0,0,1-6.34-2.2,9.07,9.07,0,0,1-.31-4.9c.46-2.34,1.78-3.69,4.23-3.74s3.95,1.29,4.42,3.83C264.73,197.22,264.74,197.89,264.78,198.33Z"/><path class="cls-19" d="M116.17,236.52c0-3.68,1.53-5.61,4.48-5.6s4.51,1.87,4.52,5.56-1.63,5.86-4.6,5.8C117.76,242.23,116.17,240.16,116.17,236.52Z"/><path class="cls-20" d="M133.92,192.59a3.09,3.09,0,0,1,2.94,1.47c.38.61.92,1.29.51,2s-1.19.38-1.81.4c-1.07,0-2.15.06-3.22,0-.69,0-1.64.39-2-.44s.27-1.56.77-2.21A3.24,3.24,0,0,1,133.92,192.59Z"/></g></g></svg>