<svg xmlns="http://www.w3.org/2000/svg" viewBox="0 0 354.76 346.71"><defs><style>.cls-1{fill:#231988;}.cls-2{fill:#9ccef9;}.cls-3{fill:#459bd4;}.cls-4{fill:#fefefe;}.cls-5{fill:#fdfdfe;}.cls-6{fill:#fcfcfd;}.cls-7{fill:#fdfdfd;}.cls-8{fill:#fcfbfd;}.cls-9{fill:#fbfbfd;}.cls-10{fill:#f6f6fa;}.cls-11{fill:#191384;}.cls-12{fill:#181283;}.cls-13{fill:#191283;}.cls-14{fill:#1a1283;}.cls-15{fill:#191383;}.cls-16{fill:#171283;}.cls-17{fill:#231989;}.cls-18{fill:#231a89;}.cls-19{fill:#261c8a;}.cls-20{fill:#251b89;}.cls-21{fill:#2a208c;}.cls-22{fill:#241a89;}.cls-23{fill:#271d8a;}.cls-24{fill:#281e8b;}</style></defs><g id="Capa_2" data-name="Capa 2"><g id="Capa_1-2" data-name="Capa 1"><path class="cls-1" d="M26.75,251.2Q19,217.33,11.25,183.44C7.7,167.9,4.09,152.36.66,136.79c-1.83-8.3.18-15.78,5.5-22.43Q26.38,89.13,46.52,63.85c14-17.55,28.1-35,42-52.67A27.75,27.75,0,0,1,111.62,0q65.83.09,131.69,0A27.43,27.43,0,0,1,266,10.88q41.22,51.72,82.55,103.35c5.79,7.24,7.37,15.29,5.35,24.15q-11.51,50.3-23.06,100.56l-2.79,12.15c-2.77,2.65-6.4,3.86-9.77,5.39-5.76,2.62-11.41,5.46-17.1,8.2q-23.83,11.49-47.69,22.95c-20.69,10-41.5,19.68-62.08,29.85-9.75,4.82-19,4.49-28.68-.31-21.24-10.54-42.76-20.51-64.12-30.82-11.16-5.39-22.38-10.66-33.55-16-11.7-5.63-23.43-11.18-35.13-16.81A7.59,7.59,0,0,1,26.75,251.2Z"/><path class="cls-2" d="M26.75,251.2l66.63,31.91c23.64,11.32,47.31,22.54,70.89,34,8.9,4.32,17.43,4.27,26.33,0q68.44-33,137-65.82a3.68,3.68,0,0,1,.47-.15c-1.6,7-2.7,14.17-5.19,21a24.69,24.69,0,0,1-13.14,14c-10.42,5-20.86,9.91-31.26,14.92-12.79,6.16-25.55,12.42-38.35,18.57-14.15,6.81-28.35,13.54-42.52,20.32-2.69,1.29-5.35,2.67-8,4a26.76,26.76,0,0,1-24.42-.05c-14.8-7.15-29.65-14.2-44.47-21.33-13.18-6.34-26.33-12.76-39.52-19.11-11.52-5.55-23-11.15-34.62-16.55-9.12-4.26-14.69-11-16.43-21C29.26,260.83,27.89,256,26.75,251.2Z"/><path class="cls-3" d="M164.63,94c-7.1-.42-12.36-3.5-15.71-9.66-.56-1-.85-2-2.51-1.77a15.33,15.33,0,0,1-15.08-6.82,15.93,15.93,0,0,1-1.5-16.56A14.45,14.45,0,0,1,135,52.84a2,2,0,0,0,.92-2.69c-3-10.4,1.66-20.18,11.71-23.77,7.68-2.74,14.62-.91,20.34,4.89,1.16,1.18,1.62,1,2.72.09a17.06,17.06,0,0,1,24.75,3c.95,1.25,1.69,1.8,3.46,1.28,8.39-2.5,15.86-.73,21.89,5.7C226.62,47.56,228.1,55,225.26,63s-8.88,12.85-17.54,14a21.28,21.28,0,0,0-10.31,4.25c-4.32,3.23-9.09,4.52-14.31,2.66-1.74-.62-2.47-.15-3.32,1.29C176.38,91,171.08,93.63,164.63,94Z"/><path class="cls-4" d="M292.29,134.82c0-5.65,0-11.31,0-17,0-1.79.46-2.53,2.38-2.48,4.42.12,8.83-.05,13.25.06,15,.36,24.22,14,18.25,27.26-3.52,7.79-10.16,11.14-18.44,11.46-4.33.16-8.67-.05-13,.07-1.87,0-2.48-.57-2.45-2.43C292.35,146.14,292.29,140.48,292.29,134.82Z"/><path class="cls-4" d="M107.74,134.66c0-5.66.06-11.31,0-17,0-1.73.51-2.39,2.28-2.31,4.81.23,9.66-.38,14.46.38,5.54.89,9.72,3.66,11.16,9.32s.72,11.13-4.32,15.09c-1.12.88-1,1.43-.23,2.38,2.36,3,4.65,6.08,6.94,9.15.43.57,1.12,1.15.65,2s-1.18.47-1.82.49c-6.75.26-6.75.26-10.7-5.2-1.07-1.49-2.17-2.95-3.2-4.46a2.23,2.23,0,0,0-2-1.12c-4.76-.12-4.75-.16-4.75,4.68,0,6.28,0,6.22-6.2,6.15-1.79,0-2.27-.65-2.25-2.34C107.79,146.14,107.74,140.4,107.74,134.66Z"/><path class="cls-4" d="M269.6,115.41c3.58,0,7.17.06,10.75,0,1.63,0,2.22.56,2.19,2.17-.12,7,.72,5.59-5.36,5.7-3.42.06-6.84.1-10.25,0-1.57-.06-1.93.47-1.95,2-.09,6.56-.14,6.56,6.35,6.56,2.5,0,5,0,7.5,0,.7,0,1.76-.25,1.83.77a38.25,38.25,0,0,1,0,6c-.08,1.15-1.22.89-2,.9-3.84,0-7.67.06-11.5,0-1.5,0-2.21.22-2.2,2,0,5-.08,5,5,5,3.5,0,7,0,10.49,0,1.48,0,2.13.48,2.11,2-.11,7.24.75,5.75-5.46,5.84-6,.09-12,0-18,.05-1.76,0-2.53-.37-2.51-2.33q.12-17.1,0-34.19c0-1.73.5-2.37,2.27-2.31C262.44,115.48,266,115.41,269.6,115.41Z"/><path class="cls-4" d="M71.18,134.77c0-5.74,0-11.47,0-17.21,0-1.6.47-2.2,2.13-2.18q10.86.11,21.72,0c1.52,0,2,.57,2.06,2.05.23,5.83.27,5.83-5.47,5.83-3.42,0-6.83.06-10.24,0-1.38,0-1.84.35-1.89,1.8-.22,6.72-.27,6.72,6.46,6.72h7.5c.81,0,1.83-.16,1.88,1.05.08,1.83.09,3.66,0,5.48-.08,1.34-1.24,1.1-2.11,1.11-3.92,0-7.83.07-11.74,0-1.54,0-2,.41-2,2,0,5-.09,5,4.92,5,3.49,0,7,.06,10.48,0,1.64-.05,2.22.55,2.19,2.16-.14,7,.81,5.6-5.6,5.69-5.82.09-11.65-.07-17.47.07-2.15.05-2.92-.48-2.85-2.75C71.29,145.91,71.18,140.34,71.18,134.77Z"/><path class="cls-4" d="M47.82,114.78a31.28,31.28,0,0,1,12.34,2.51c1.46.63,1.74,1.37,1.15,2.88-2,5-1.91,5-7.09,3.48a17.23,17.23,0,0,0-8.87-.49c-6.28,1.44-9.93,6.2-9.5,12.46A11.68,11.68,0,0,0,47,146.74a20.85,20.85,0,0,0,10.47-1.83c1.55-.71,2.29-.56,2.92,1.21,2.06,5.83,2.06,6-4.13,7.64-7.24,1.93-14.29,1.56-20.66-2.62-7.27-4.78-9.81-11.9-8.18-20.19s7.16-13.25,15.19-15.53A17.48,17.48,0,0,1,47.82,114.78Z"/><path class="cls-4" d="M202.54,134.58c0-5.57.06-11.14,0-16.7,0-1.74.32-2.55,2.31-2.51,7.07.1,14.15.08,21.22,0,1.69,0,2.39.47,2.35,2.25-.15,6.91.74,5.5-5.42,5.62-3.41.07-6.82.08-10.23,0-1.47,0-2,.35-2,1.93-.13,7-.19,7,6.69,7,2.32,0,4.66.05,7,0,1.37,0,1.87.47,1.94,1.88.3,5.76.34,5.76-5.49,5.76-2.66,0-5.33.09-8,0-1.63-.08-2.18.41-2.13,2.08.12,3.4,0,6.81.07,10.22,0,1.61-.51,2.15-2.15,2.19-6.1.12-6.1.18-6.1-5.93Z"/><path class="cls-5" d="M163.14,123.76a5.37,5.37,0,0,0-.23,2.69c0,8.48,0,17,0,25.42,0,1.68-.46,2.33-2.25,2.35-6.15.07-6.15.14-6.15-5.9,0-5.32.06-10.63,0-15.95-.05-3,1.27-6.83-.54-8.64s-5.54-.34-8.43-.46a12.51,12.51,0,0,0-1.5,0c-1.39.12-1.93-.48-1.91-1.88.14-7.39-.94-5.89,5.53-6,8.31-.1,16.63,0,24.95-.07,2,0,2.59.65,2.53,2.6-.18,6.3.76,5.12-5.25,5.34-2.25.09-4.57-.68-6.75.47Z"/><path class="cls-5" d="M191.74,134.79c0,5.64-.05,11.28,0,16.93,0,1.75-.35,2.5-2.32,2.51-6.09,0-6.09.08-6.09-6,0-10,0-19.92,0-29.88,0-2.17.43-3.1,2.87-3,5.55.16,5.55,0,5.55,5.49Z"/><path class="cls-5" d="M221.09,198.25c0-2,0-4,0-6,0-.94-.82-2.39.29-2.71,1.28-.36,3-.89,4.16.47.52.61.75.32,1.16.09,3.28-1.86,6.48-2,9.41.66.8.73,1.12.12,1.62-.27a7.4,7.4,0,0,1,8.21-1c2.74,1.28,3.55,3.84,3.6,6.65.06,3.24-.09,6.49.06,9.73.1,2.22-1.32,1.83-2.61,1.85s-2.48.22-2.37-1.82c.17-3.07.06-6.16,0-9.23,0-1.86-.39-3.62-2.69-3.82s-3.55,1.16-3.95,3.3c-.58,3.13-.27,6.3-.21,9.45,0,1.86-.67,2.25-2.32,2.15-1.45-.09-2.81.19-2.67-2.09.19-2.9.07-5.82,0-8.73,0-2-.29-3.94-2.92-4.11-2.1-.14-3.73,1.45-3.86,4a76.87,76.87,0,0,0,0,8.72c.12,2.15-1,2.19-2.58,2.2s-2.51-.11-2.38-2.08c.17-2.49,0-5,0-7.49Z"/><path class="cls-5" d="M172.23,233c1.51,1.12,3,2,3.51,3.87,1.22,4.32-.81,7.93-5.23,8.84-3.87.8-7.8.25-11.7.38-1.07,0-1.17-.65-1.16-1.48,0-7.22,0-14.45,0-21.68,0-1.28.62-1.49,1.7-1.48,2.74,0,5.49-.06,8.23.05,2.91.11,5.77.63,7,3.76S174.94,231,172.23,233Z"/><path class="cls-6" d="M245.9,135.08c0,5.57-.06,11.15,0,16.72,0,1.87-.63,2.42-2.47,2.42-5.94,0-5.94.07-5.94-5.87,0-10.07.06-20.13-.05-30.2,0-2.21.64-2.84,2.83-2.8,5.6.13,5.6,0,5.6,5.51Z"/><path class="cls-5" d="M102.33,241.15c0-3.57,0-7.14,0-10.71,0-.87-.61-2.19.31-2.52,1.25-.44,2.92-.72,4,.21.75.62,1,.62,1.75.21,5.34-2.87,10.49-.48,11.82,5.41a13,13,0,0,1-.38,7.35,7.88,7.88,0,0,1-10.38,5.12c-2.16-.76-2.34,0-2.19,1.72.1,1.16,0,2.33,0,3.49,0,3.17,0,3.1-3.1,3.06-1.41,0-1.87-.49-1.85-1.89.08-3.82,0-7.63,0-11.45Z"/><path class="cls-5" d="M96.77,246.09c-2.24.58-3.13-.65-3.47-2.51s-1.34-2.9-3.42-2.53a7.32,7.32,0,0,1-2.24,0c-3.09-.42-5.52,0-6.09,3.78-.17,1.11-4.35,1.87-5.24,1.11-.53-.45-.18-.92,0-1.34,2.81-7.28,5.66-14.53,8.42-21.82.69-1.83,2.11-1.21,3.34-1.29s2.22-.14,2.79,1.37c2.68,7.14,5.48,14.24,8.2,21.37C100.14,247.1,97.7,245.74,96.77,246.09Z"/><path class="cls-5" d="M124.72,230.17c.38-.76-.63-2.09.67-2.34s2.82-.67,3.79.32c.74.74,1,.61,1.73.2,5.23-2.85,10.35-.6,11.81,5.14a12.18,12.18,0,0,1-1.15,9.41c-2,3.36-5.8,4.61-10,3.18-1.4-.47-1.75-.28-1.69,1.15.08,1.83-.09,3.66,0,5.48.15,2.09-1.23,1.74-2.45,1.74s-2.5.32-2.47-1.74c.1-6.57,0-13.14,0-19.71a18.44,18.44,0,0,0-.21-1.95C124.39,230.78,124.44,230.48,124.72,230.17Z"/><path class="cls-5" d="M235.65,228c0-1.31.1-2.71,0-4.08-.16-1.78.32-2.57,2.3-2.45,1.66.1,2.75.07,2.71,2.34-.13,6.9,0,13.79.05,20.69,0,.55.26,1.4-.43,1.52-1.27.21-2.86.66-3.8-.27-.71-.71-.86-.68-1.64-.26-6.06,3.23-11.59.29-12.21-6.5a18,18,0,0,1,.11-4.46c.88-5.6,5.95-8.59,11.33-6.79C234.5,227.85,234.9,228.25,235.65,228Z"/><path class="cls-5" d="M104.8,195.47c0-3.48,0-7,0-10.46,0-1.17.16-1.9,1.6-1.85,3,.1,6-.07,9,.13,4.88.33,7.68,3.17,7.84,7.67.18,4.78-2.51,8.09-7.27,8.87a12.66,12.66,0,0,1-3.47.19c-2.17-.26-2.83.67-2.55,2.67a14.68,14.68,0,0,1,0,2c0,2.92-1.53,4-4.31,3.09-1-.34-.79-1.14-.8-1.83C104.79,202.45,104.8,199,104.8,195.47Z"/><path class="cls-5" d="M152.31,200.85c0,1.41,0,2.82,0,4.23,0,.86.78,2.09-.23,2.5s-2.76.67-3.79-.18c-.8-.66-1.14-.54-1.82-.09a7.75,7.75,0,0,1-5.53.92,5.27,5.27,0,0,1-4.74-4.7c-.38-3,.71-5.27,3.14-6.41a17.33,17.33,0,0,1,6.08-1.17c.68-.06,1.85.59,1.89-.84a2,2,0,0,0-1.57-2,7.05,7.05,0,0,0-5.34.51c-1.78.93-2-.28-2.68-1.36-.88-1.51.21-1.88,1.21-2.32a13.91,13.91,0,0,1,4.58-1.11c6-.4,8.68,2.1,8.75,8,0,1.33,0,2.66,0,4Z"/><path class="cls-5" d="M256.05,238.75c-1.49,0-3,.06-4.49,0s-1.64.61-1,1.78c1.15,2.2,4.06,2.78,7.33,1.46.84-.34,1.57-1.21,2.55.07,1.46,1.91,1.45,2.4-.72,3.46-4.25,2.1-9.56,1.45-12.3-1.51s-3.29-9.06-1.06-12.88c1.8-3.07,5.19-4.46,9.31-3.81,3.35.53,5.65,2.95,6.4,6.75.85,4.32.55,4.7-3.75,4.7Z"/><path class="cls-5" d="M183.49,198.48c0-5.95,3.57-9.63,9.37-9.68s9.69,3.79,9.7,9.68-3.82,9.84-9.57,9.85S183.49,204.5,183.49,198.48Z"/><path class="cls-5" d="M197.21,237c0,2.08.07,4.16,0,6.23,0,.92.9,2.25-.3,2.69s-2.91.71-3.81-.17-1.21-.48-1.94-.11c-5.78,2.93-10.92-.14-11-6.59-.05-3.16.11-6.32-.05-9.47-.11-2.18,1.2-1.88,2.54-1.91s2.62-.1,2.51,2c-.16,2.9-.07,5.82,0,8.73s1,4.19,3.09,4.24,3.9-1.59,4-4.19a79.27,79.27,0,0,0,0-8.72c-.15-2.31,1.26-2,2.68-2.05,1.6-.1,2.47.21,2.34,2.12-.16,2.4,0,4.81,0,7.22Z"/><path class="cls-7" d="M172.27,200.5c0-1.5,0-3,0-4.49s.28-2.89-2-2.67c-.93.09-.82-.86-.83-1.5,0-.84-.06-1.81,1.1-1.88,1.58-.08,1.68-1.09,1.89-2.33.71-4,6.23-6.64,9.86-4.77a.93.93,0,0,1,.43,1.43c-.44.86,0,2.33-1.66,2.38a15.07,15.07,0,0,0-2.23.1,1.83,1.83,0,0,0-1.53,2c0,1.18,1.09.76,1.74.78,1.27,0,2.41-.18,2.42,1.83s-.91,2.23-2.43,2-1.89.41-1.85,1.83c.08,3.57-.08,7.15.06,10.72.08,2-1,1.91-2.35,1.83s-2.81.48-2.64-1.8C172.38,204.16,172.27,202.33,172.27,200.5Z"/><path class="cls-7" d="M158.33,198.74c0-1.16,0-2.32,0-3.48s0-2-1.54-1.86c-.93.11-1.42-.32-1.37-1.28s-.28-2.08,1-2.16c2-.13,1.85-1.4,1.84-2.78s3.35-3.69,4.49-3.05c.79.44.45,1.36.39,2-.21,2.25,0,4,3,3.44,1.5-.28,1.51.81,1.5,1.89s0,2.18-1.47,1.9c-3-.54-3.23,1.11-3,3.41a45.77,45.77,0,0,1,0,5c0,1.6.58,2.7,2.31,2.48,2.3-.29,1.78,1.56,2,2.62.34,1.61-1.12,1.33-2,1.41-4.86.45-7.14-1.64-7.18-6.54C158.32,200.73,158.33,199.74,158.33,198.74Z"/><path class="cls-8" d="M218.1,233.94c0,3.49-.09,7,0,10.45.08,2.09-1.26,1.76-2.46,1.71s-2.56.57-2.54-1.6q.12-10.71,0-21.4c0-2.16,1.44-1.55,2.56-1.61s2.5-.27,2.44,1.76C218,226.81,218.1,230.38,218.1,233.94Z"/><path class="cls-9" d="M131.77,195.48c0,3.49-.12,7,0,10.47.09,2-1.05,1.88-2.35,1.83s-2.68.42-2.65-1.82q.16-10.47,0-20.94c0-2.23,1.36-1.8,2.64-1.85s2.44-.13,2.36,1.84C131.67,188.49,131.77,192,131.77,195.48Z"/><path class="cls-6" d="M266.65,236.66c0-2.15,0-4.31,0-6.47,0-.82-.69-2.08.53-2.35s2.9-.73,3.74.33,1,.59,1.64.17a5.07,5.07,0,0,1,2.24-1c1,0,2.77-1.09,2.87,1,.07,1.39.86,3.42-2.12,3.3-2.39-.09-3.81,1.76-3.91,4.55a78.47,78.47,0,0,0,0,8c.14,2.2-1.23,1.85-2.55,1.9s-2.6.07-2.46-2c.17-2.48,0-5,0-7.47Z"/><path class="cls-7" d="M206.84,198c0-2,0-4,0-6,0-.86-.7-2.13.28-2.49,1.24-.45,2.93-.74,4,.23.75.68,1,.72,1.67.13a4.51,4.51,0,0,1,2.76-1c1,0,2.47-.61,2.42,1.15,0,1.3.85,3.27-2,3.26-2.59,0-4.06,1.77-4.2,4.61a64.23,64.23,0,0,0,0,7.21c.12,1.93-.27,2.72-2.5,2.75-2.41,0-2.45-1.13-2.38-2.88.09-2.31,0-4.64,0-7Z"/><path class="cls-9" d="M207.66,237.08c0,2.49-.08,5,0,7.46.08,2-1.25,1.62-2.34,1.55s-2.66.71-2.64-1.5c0-5.06.09-10.12,0-15.17,0-2.1,1.3-1.72,2.48-1.69s2.62-.51,2.52,1.64C207.57,231.93,207.66,234.51,207.66,237.08Z"/><path class="cls-10" d="M208.17,222.87c-.33,1.93-1.57,2.59-3.39,2.44s-2.58-1.36-2.44-3.06c.16-2,1.52-2.62,3.32-2.45S208.17,221.16,208.17,222.87Z"/><path class="cls-11" d="M246.31,153.23v-36.7h.19v36.7Z"/><path class="cls-12" d="M236.8,153.21V116.55H237v36.66Z"/><path class="cls-13" d="M202,116.53v36.7h-.24V116.5Z"/><path class="cls-14" d="M163.13,123.77c.18.36.52.72.52,1.08,0,9.44,0,18.88-.51,28.33V123.76Z"/><path class="cls-15" d="M153.77,153.08V124.55H154V153.2Z"/><path class="cls-16" d="M124.72,230.17l.06.88v22.52h-.53c0-7.52,0-15,0-22.55C124.27,230.73,124.56,230.45,124.72,230.17Z"/><path class="cls-17" d="M305.36,123.26c7.05,0,11.23,2.44,13,7.55,2.63,7.74-2.39,15.12-10.55,15.5-7,.34-7,.34-7-6.57,0-4.49.13-9-.06-13.48-.1-2.34.45-3.45,2.95-3A10.22,10.22,0,0,0,305.36,123.26Z"/><path class="cls-18" d="M116.15,129.62a6.17,6.17,0,0,1,0-1.49c.42-1.6-1.22-4,1-4.76,3.37-1.16,8,.41,9.31,2.6a6.39,6.39,0,0,1-4.19,9.69C116.55,136.78,116.15,136.39,116.15,129.62Z"/><path class="cls-19" d="M165.52,235.32c1.74,0,3.38-.09,4.59,1.18a3.29,3.29,0,0,1-.81,4.93c-2,1-4.65,1.41-6.19.32s-.65-3.75-.39-5.63C163,234.51,164.71,235.74,165.52,235.32Z"/><path class="cls-19" d="M162.64,228.28c-.31-1.75-.14-3,2.42-2.83,3.58.23,4.82.77,4.88,2.9.06,2.3-1.32,3-4.85,3.27C162.13,231.88,162.54,230.15,162.64,228.28Z"/><path class="cls-20" d="M107.31,238.05a12.26,12.26,0,0,1,.32-3.83,4,4,0,0,1,4.08-3c2.08,0,3.05,1.36,3.54,3.2a9.13,9.13,0,0,1-.09,5.13,4.45,4.45,0,0,1-7,2.23C106.64,240.72,107.65,239.18,107.31,238.05Z"/><path class="cls-21" d="M87.74,227.44c1.08,3.17,1.84,5.61,2.75,8,.5,1.32,0,1.6-1.18,1.57-5.9-.13-5,.76-3.35-4.45C86.43,231.08,87,229.63,87.74,227.44Z"/><path class="cls-20" d="M138.11,236.25c0,5.29-3.15,7.69-6.85,5.85a3,3,0,0,1-1.17-.88c-1-1.51,0-7.79,1.33-9a3.74,3.74,0,0,1,6.13,1.47A14.1,14.1,0,0,1,138.11,236.25Z"/><path class="cls-22" d="M235.65,236.27a9.91,9.91,0,0,1-.37,3.67,3.94,3.94,0,0,1-3.78,2.71,3.48,3.48,0,0,1-3.59-2.84,11.59,11.59,0,0,1-.32-3.43c.09-3.42,1.7-5.28,4.36-5.16C234.86,231.35,235.65,232.43,235.65,236.27Z"/><path class="cls-23" d="M112.31,195.81c-2,.46-2.82-.44-2.47-2.64a14.16,14.16,0,0,1,0-1.73c.44-1.52-1.51-4.26,2.27-4.12,4.09.15,5.85,1.18,6,4s-1.66,4.36-4.78,4.47Z"/><path class="cls-21" d="M145.78,199.45c.95-.11,1.73,0,1.63,1.39a4,4,0,0,1-3.9,3.45c-1.36,0-2.22-.62-2.29-2C141.14,200.47,142.76,199.47,145.78,199.45Z"/><path class="cls-24" d="M253.46,234.88a3.05,3.05,0,0,1-.74,0c-.86-.23-2.3.62-2.52-.65s.82-2.43,2.16-2.95a3.81,3.81,0,0,1,2.66-.05,2.78,2.78,0,0,1,2.16,2.94c-.21,1.39-1.64.47-2.49.7A5,5,0,0,1,253.46,234.88Z"/><path class="cls-22" d="M188.49,198.57c0-3.65,1.56-5.69,4.44-5.71s4.58,2,4.62,5.56c0,3.72-1.67,5.89-4.59,5.86S188.52,202.2,188.49,198.57Z"/></g></g></svg>