<svg xmlns="http://www.w3.org/2000/svg" viewBox="0 0 354.79 348.27"><defs><style>.cls-1{fill:#231988;}.cls-2{fill:#9ccef9;}.cls-3{fill:#459bd4;}.cls-4{fill:#fefefe;}.cls-5{fill:#fdfdfe;}.cls-6{fill:#fdfdfd;}.cls-7{fill:#fcfcfd;}.cls-8{fill:#fafafc;}.cls-9{fill:#f6f5f9;}.cls-10{fill:#f9f8fb;}.cls-11{fill:#231989;}.cls-12{fill:#231a89;}.cls-13{fill:#2b218d;}.cls-14{fill:#251b8a;}.cls-15{fill:#29208c;}.cls-16{fill:#241a89;}</style></defs><g id="Capa_2" data-name="Capa 2"><g id="Capa_1-2" data-name="Capa 1"><path class="cls-1" d="M27.16,252.62c-1.75-4.34-2.36-9-3.4-13.49Q12.21,188.81.79,138.45a26.72,26.72,0,0,1,5.38-23.69Q47.6,62.71,89,10.61A26.8,26.8,0,0,1,111.11,0q66.33,0,132.66,0a26.62,26.62,0,0,1,21.91,10.51q41.47,52.17,83,104.34A26.27,26.27,0,0,1,354,138.06q-12.76,56.33-25.63,112.63c-.11.48-.27.95-.41,1.43-2.84,2.72-6.54,3.95-10,5.52-5.82,2.67-11.56,5.52-17.32,8.32q-19.44,9.42-38.89,18.79-28.1,13.59-56.23,27.08c-5.77,2.77-11.44,5.77-17.36,8.25a26.47,26.47,0,0,1-22.48-.4c-17.45-8.26-34.81-16.7-52.22-25.05S79,278,61.74,269.78c-10.29-4.9-20.47-10-30.86-14.73C29.53,254.43,28.08,253.93,27.16,252.62Z"/><path class="cls-2" d="M27.16,252.62c9.32,4.42,18.65,8.79,28,13.25q55.15,26.44,110.27,52.94a26.19,26.19,0,0,0,23.82.09L314,258.77c4.65-2.24,9.31-4.43,14-6.65-1.31,5.82-2.53,11.67-3.94,17.46a24.88,24.88,0,0,1-13.68,17.14c-14.27,7-28.61,13.83-42.91,20.75-13.32,6.45-26.62,12.95-39.95,19.39-13.18,6.37-26.33,12.8-39.59,19a24.31,24.31,0,0,1-21.25-.07c-11.68-5.45-23.23-11.2-34.83-16.81L72.29,300.23c-8.39-4.05-16.7-8.28-25.21-12.05-10.14-4.48-15.6-12.24-17.39-22.91C29,261,27.37,257,27.16,252.62Z"/><path class="cls-3" d="M204.4,77.44c-2.37-.82-3.82.75-5.58,2.69-4.16,4.58-9.55,5.87-15.48,4.21-1.86-.52-2.73-.29-3.74,1.44a17.49,17.49,0,0,1-30.39-.73,3.36,3.36,0,0,0-3.61-2.16A16.12,16.12,0,0,1,129.19,72,16.58,16.58,0,0,1,134.8,53.2c1.38-1.06,1.31-1.93.92-3.36a19,19,0,0,1,6.41-20.39c6.54-5,14.47-5.49,21.76-1.36a12.25,12.25,0,0,1,3.47,2.83c1.16,1.41,2,1.58,3.61.36,7-5.38,15.56-5.07,22.19.64a6.16,6.16,0,0,1,1.7,1.8c1.1,2.35,2.58,2.41,5,1.77,8.62-2.34,16.1,0,21.72,6.87s6.58,14.75,2.87,22.92C220.86,73.08,213.5,77.53,204.4,77.44Z"/><path class="cls-4" d="M292.25,135.36q0-8.61,0-17.2c0-1.06-.24-2.32,1.46-2.28,5.74.12,11.51-.56,17.19.31,10.88,1.66,17.52,10,16.83,20.55-.65,9.94-8.76,17.6-19.25,18-4.65.18-9.31,0-14,.08-1.74,0-2.33-.53-2.3-2.28C292.3,146.82,292.25,141.09,292.25,135.36Z"/><path class="cls-4" d="M107.7,135.14c0-5.66,0-11.32,0-17,0-1.69.43-2.41,2.24-2.32,5,.27,10-.45,15,.45,5.45,1,9.45,3.86,10.77,9.43,1.37,5.78.66,11.15-4.44,15.06-1,.77-1,1.2-.3,2.14,2.46,3.14,4.84,6.36,7.23,9.55.38.51,1,1,.65,1.75s-1.13.55-1.78.58h-.25c-6.74.17-6.74.17-10.66-5.29-1.06-1.49-2.14-3-3.18-4.47a2.27,2.27,0,0,0-2-1.09c-4.76-.1-4.76-.14-4.76,4.66,0,6.42,0,6.36-6.32,6.23-1.68,0-2.12-.65-2.11-2.22C107.74,146.79,107.7,141,107.7,135.14Z"/><path class="cls-4" d="M256.56,135.18c0-5.65.07-11.31,0-17,0-1.89.62-2.41,2.45-2.39,7.07.09,14.15.08,21.22,0,1.73,0,2.36.52,2.31,2.28-.17,6.67.86,5.54-5.45,5.63-3.49,0-7,0-10.49,0-1.15,0-1.75.31-1.58,1.54a2.08,2.08,0,0,1,0,.25c-.27,6.76-.27,6.76,6.59,6.76h7.24c.72,0,1.76-.19,1.84.8a37.06,37.06,0,0,1,0,6c-.1,1.1-1.27.85-2.06.85-3.83,0-7.66.07-11.49,0-1.54,0-2.18.29-2.17,2,0,5-.07,5,4.92,5,3.5,0,7,.05,10.49,0,1.63,0,2.2.59,2.16,2.2-.16,6.9.9,5.63-5.59,5.71-6,.07-12,0-18,.05-1.89,0-2.44-.61-2.41-2.44C256.63,146.66,256.56,140.92,256.56,135.18Z"/><path class="cls-4" d="M71.14,135.33c0-5.74,0-11.47,0-17.21,0-1.75.56-2.3,2.3-2.28q10.74.1,21.47,0c1.63,0,2.22.51,2.19,2.15-.15,7,.86,5.65-5.55,5.76-3.33.06-6.66.07-10,0-1.45,0-2,.3-2,1.91-.11,6.66-.17,6.65,6.53,6.65,2.41,0,4.83.06,7.24,0,1.42,0,2.15.29,2.11,1.92-.18,7.07.93,5.57-5.54,5.72-2.83.07-5.66.08-8.49,0-1.45-.05-1.8.49-1.84,1.87-.11,5.14-.16,5.14,5,5.14,3.49,0,7,0,10.49,0,1.51,0,2.07.54,2,2-.14,7.25.89,5.75-5.67,5.85-6,.09-12,0-18,.05-1.75,0-2.32-.54-2.29-2.29C71.19,146.81,71.14,141.07,71.14,135.33Z"/><path class="cls-4" d="M48.79,155.38c-11,0-19.07-5.77-21.28-15.24a20.24,20.24,0,0,1,17.7-24.75,29.44,29.44,0,0,1,14.87,2.31c1.41.61,1.84,1.3,1.25,2.86-1.93,5.09-1.88,5.11-7.07,3.56a18.68,18.68,0,0,0-7.65-.72c-6.75.83-11,5.72-10.72,12.43.24,6.54,5.07,11.27,11.75,11.53a21.23,21.23,0,0,0,9.94-2c1.55-.73,2.32-.4,2.71,1.19.1.4.28.78.42,1.17,1.61,4.56,1.61,4.56-3.1,6.2A25.22,25.22,0,0,1,48.79,155.38Z"/><path class="cls-4" d="M202.42,135.11c0-5.65.06-11.31,0-17,0-1.72.54-2.32,2.3-2.3q10.74.1,21.48,0c1.6,0,2.24.46,2.2,2.12-.15,7.08.84,5.66-5.51,5.79-3.41.06-6.83.08-10.24,0-1.55,0-1.94.48-2,2-.1,7-.14,6.95,6.72,7,2.34,0,4.67,0,7,0,1.35,0,1.89.44,2,1.86.33,5.8.38,5.8-5.48,5.8-2.83,0-5.67.06-8.49,0-1.32,0-1.73.44-1.7,1.73.07,3.58,0,7.16,0,10.73,0,1.47-.39,2.1-2,2.06-7.71-.19-6.18,1.12-6.31-6C202.36,144.27,202.42,139.69,202.42,135.11Z"/><path class="cls-4" d="M158.64,115.87c4.75,0,9.49,0,14.23,0,1.6,0,2.24.46,2.2,2.13-.18,7,.91,5.61-5.51,5.8-2.14.07-4.87-.93-6.24.47s-.34,4-.35,6c0,7.23-.08,14.47,0,21.7,0,2.1-.45,2.94-2.75,2.9-5.75-.12-5.75,0-5.75-5.81,0-7.73,0-15.47,0-23.2,0-1.59-.37-2.22-2.08-2.13-2.65.14-5.32,0-8,.06-1.65.06-2.38-.37-2.39-2.21-.05-5.7-.12-5.7,5.58-5.7Z"/><path class="cls-5" d="M237.51,135.09c0-5.66.06-11.32,0-17,0-1.72.47-2.29,2.25-2.29,6.15,0,6.15-.09,6.15,6.14,0,10.06,0,20.13,0,30.19,0,2.06-.59,2.72-2.68,2.69-5.73-.09-5.73,0-5.73-5.79Z"/><path class="cls-4" d="M106.76,215.82c0-2.24,0-4.48,0-6.73,0-.75-.65-1.9.45-2.16s2.76-.59,3.84.19c.69.5.89.75,1.75.28,3.1-1.71,6.22-1.81,9,.69.87.78,1.21.28,1.82-.2a7.44,7.44,0,0,1,8-1c2.76,1.21,3.69,3.72,3.77,6.53.09,3.4,0,6.81.06,10.22.05,2.37-1.67,1.48-2.81,1.62s-2.25.1-2.16-1.72c.15-3,.07-6,0-9s-1-4.25-3.06-4.27-3.61,1.57-3.76,4.18a74.61,74.61,0,0,0,0,8.72c.15,2.24-1.11,2.09-2.6,2.1s-2.57.08-2.44-2c.18-3,0-6,.05-9,0-2-.37-3.72-2.76-4-2-.25-3.74,1.16-3.94,3.61a67.42,67.42,0,0,0-.13,9.21c.13,2.16-.95,2.13-2.53,2.18-1.75,0-2.61-.27-2.46-2.28.18-2.4,0-4.82,0-7.23Z"/><path class="cls-4" d="M191.7,135.33c0,5.73,0,11.45,0,17.18,0,1.69-.47,2.32-2.26,2.33-6.09,0-6.09.12-6.09-5.94,0-10.13,0-20.26,0-30.38,0-2,.53-2.74,2.65-2.7,5.7.1,5.71,0,5.71,5.81Z"/><path class="cls-5" d="M79.17,225.14c-2.39.66-3.35-.42-3.72-2.35s-1.44-3-3.62-2.63a8.07,8.07,0,0,1-2.73,0c-2.94-.52-4.68.5-5.32,3.53-.28,1.35-4.18,2.29-5.29,1.44-.56-.41-.23-.89-.06-1.31,2.82-7.38,5.67-14.74,8.49-22.11.69-1.82,2.22-1,3.43-1.13s2.06-.14,2.59,1.26c2.73,7.32,5.64,14.57,8.31,21.91C82.31,226.68,79.52,224.51,79.17,225.14Z"/><path class="cls-4" d="M101.44,213.23c0,3.08,0,6.15,0,9.23,0,.91.8,2.24-.37,2.66s-2.79.66-3.79-.24c-.78-.7-1.06-.54-1.8-.16-5.67,2.94-10.82.44-12-5.81a12.4,12.4,0,0,1,1.06-8.25c2-3.79,5.89-5.37,10.19-3.86,1.64.58,1.86.13,1.74-1.28-.06-.66,0-1.33,0-2,0-2.91,1-3.61,4-3,1.14.25.92,1,.92,1.7,0,3.66,0,7.32,0,11Z"/><path class="cls-5" d="M243.53,218.78c0,1.25.06,2.5,0,3.74-.06.9.75,2.25-.44,2.62s-2.81.68-3.77-.3c-.73-.75-1-.47-1.55-.09a7.86,7.86,0,0,1-5.27,1,5.38,5.38,0,0,1-5.21-4.81,5.72,5.72,0,0,1,3.41-6.52c1.87-.81,3.89-.81,5.86-1,.7-.08,1.88.53,1.91-.84a2,2,0,0,0-1.58-2,6.88,6.88,0,0,0-5.33.5c-1.78.89-2.09-.26-2.73-1.37-.87-1.52.24-1.89,1.24-2.32a13.16,13.16,0,0,1,4.32-1.1c6.18-.49,9,2.08,9.11,8.26,0,1.41,0,2.82,0,4.23Z"/><path class="cls-5" d="M270.43,225.83c-5.75,0-9.45-3.87-9.45-9.87s3.66-9.74,9.55-9.71,9.51,3.82,9.48,9.82S276.23,225.84,270.43,225.83Z"/><path class="cls-5" d="M168.53,218.32c0,1.75-.1,3.5,0,5.23.15,2.09-1.25,1.75-2.46,1.72s-2.59.5-2.52-1.64c.11-3.07,0-6.15,0-9.22,0-2.1-.47-3.86-3-4.09a3.74,3.74,0,0,0-4.17,3.71,63.79,63.79,0,0,0-.1,9c.14,2.25-1,2.26-2.66,2.35-2,.12-2.31-.68-2.3-2.44,0-4.82.24-9.64-.14-14.45-.13-1.56,2.57-2.61,4.25-1.34,1,.77,1.47.43,2.28,0,5.76-2.75,10.68.32,10.75,6.69C168.54,215.33,168.53,216.83,168.53,218.32Z"/><path class="cls-5" d="M189.07,225.79a8.23,8.23,0,0,1-4.58-1c-.78-.46-2.47-.55-1.55-2.17.66-1.17,1.28-2.64,3.21-1.48a5.8,5.8,0,0,0,3.9.52,1.76,1.76,0,0,0,1.7-1.54,1.67,1.67,0,0,0-1.33-1.85c-1.19-.4-2.41-.68-3.58-1.11-2.73-1-3.94-2.78-3.83-5.47a5.24,5.24,0,0,1,4.12-5,10.41,10.41,0,0,1,7.77.58c.79.39,2.18.68,1.23,2.1-.63.93-.95,2.53-2.75,1.47a5.7,5.7,0,0,0-3.63-.65c-.88.11-1.68.37-1.77,1.41a1.58,1.58,0,0,0,1.26,1.64c.78.28,1.59.49,2.39.72,3.84,1.13,5.56,3.15,5.28,6.22s-2.81,5.33-6.59,5.6C189.9,225.82,189.49,225.79,189.07,225.79Z"/><path class="cls-6" d="M208,225.83c-4.32,0-6.35-2-6.41-6.08,0-2.41,0-4.82,0-7.23,0-1.08-.19-1.8-1.49-1.67-1,.11-1.55-.29-1.48-1.41.06-.9-.16-2,1.16-2.06,1.88-.06,1.78-1.27,1.77-2.57,0-1.59,2.77-3.74,4.29-3.31,1,.29.67,1.24.62,1.9-.17,2.26-.13,4.15,3.08,3.62,1.59-.26,1.31,1.08,1.34,2s0,2-1.35,1.77c-2.95-.54-3.3,1.06-3.06,3.39a30.94,30.94,0,0,1,0,3.73c0,2.1-.19,4.07,3,3.85,1.56-.11,1,1.63,1.26,2.55s-.35,1.32-1.21,1.38Z"/><path class="cls-6" d="M249.49,216.55c0-1.08,0-2.17,0-3.25.06-1.4.17-2.76-1.94-2.47-1,.13-1.06-.58-1-1.3s-.34-2.09,1-2.13c2-.07,1.92-1.31,1.89-2.72s3.13-3.77,4.39-3.19c1,.45.57,1.5.51,2.25-.14,2.15,0,3.83,2.92,3.28,1.49-.29,1.47.87,1.48,1.93s0,2.15-1.5,1.89c-2.55-.45-3.13.74-2.9,3,.19,1.89,0,3.82,0,5.73,0,1.41.65,2.32,2.11,2.12,2.19-.3,1.91,1.31,2.09,2.53.28,1.84-1.21,1.45-2.16,1.52-4.81.36-6.94-1.65-7-6.49Z"/><path class="cls-7" d="M217.06,225.23c-2.08.5-2.39-.56-2.36-2.31.08-4.48,0-8.95,0-13.43,0-.87-.65-2.18.31-2.5,1.25-.42,3-.79,4,.23.81.84,1.06.56,1.73.13a6.44,6.44,0,0,1,2-.91c1-.21,2.17-.66,2.81.19.78,1,.23,2.41.06,3.61-.12.79-.94.43-1.47.48-2.86.28-4.31,1.71-4.44,4.64a66.88,66.88,0,0,0,0,7.22C219.84,224.67,219.38,225.83,217.06,225.23Z"/><path class="cls-7" d="M284.36,215.84c0-2.08.08-4.16,0-6.23-.13-2.58,1.9-4.12,4-2.57,1.28,1,1.7.43,2.59,0a5.42,5.42,0,0,1,2.12-.67c.95-.05,2.47-.62,2.38,1.16-.07,1.28,1,3.32-1.91,3.3-2.58,0-4,1.6-4.11,4.36a77.53,77.53,0,0,0,0,8.21c.12,2.15-1.16,1.91-2.53,1.95s-2.6.05-2.46-2c.17-2.48,0-5,0-7.47Z"/><path class="cls-8" d="M145.68,216.19c0,2.49-.08,5,0,7.49.09,1.93-1.18,1.67-2.3,1.59s-2.67.69-2.65-1.51c.05-5.16,0-10.32,0-15.48,0-2.39,1.83-1.28,2.92-1.47s2.08,0,2,1.64C145.6,211,145.68,213.61,145.68,216.19Z"/><path class="cls-8" d="M178.62,216.15c0,2.41-.12,4.83,0,7.23.12,1.91-.9,2-2.29,1.91-1.21-.1-2.75.56-2.7-1.75q.17-7.48,0-15c-.06-2.27,1.43-1.7,2.67-1.79s2.43,0,2.32,1.89C178.51,211.16,178.62,213.66,178.62,216.15Z"/><path class="cls-9" d="M179.12,201.37c0,1.92-.9,2.94-2.71,3s-3.09-.67-3.17-2.66a2.55,2.55,0,0,1,2.69-2.9C177.78,198.73,178.93,199.57,179.12,201.37Z"/><path class="cls-10" d="M143.3,204.41c-1.77,0-2.88-.79-3-2.62a2.56,2.56,0,0,1,2.87-2.95c1.88,0,3,.92,2.95,2.88S145,204.35,143.3,204.41Z"/><path class="cls-11" d="M300.65,135.34c0-3.24.05-6.48,0-9.72,0-1.37.34-2,1.81-1.89,1.91.12,3.83,0,5.74.08A11.28,11.28,0,0,1,319,135.06a11.42,11.42,0,0,1-10.29,11.76c-8,.9-8,.9-8-7Z"/><path class="cls-12" d="M116.1,130.06v-2.74c0-3.62,0-3.62,3.74-3.56,5.19.07,7.42,2,7.4,6.25,0,3.73-1.87,5.8-5.65,6.28-5.49.69-5.49.69-5.49-4.74Z"/><path class="cls-13" d="M70,207c1,2.83,1.75,5.19,2.6,7.53.46,1.24.06,1.54-1.2,1.61-5,.26-5,.29-3.33-4.49A14.31,14.31,0,0,1,70,207Z"/><path class="cls-14" d="M96.46,215.31a10,10,0,0,1-.33,3.7,3.86,3.86,0,0,1-3.73,2.75A3.54,3.54,0,0,1,88.73,219a8.86,8.86,0,0,1-.38-3.93c.38-3.28,2-5,4.59-4.76C95.73,210.55,96.47,211.59,96.46,215.31Z"/><path class="cls-15" d="M234.71,221.77c-1.51,0-2.53-.67-2.37-2.19.27-2.69,2.57-2.36,4.4-2.61.9-.12,1.89-.23,1.81,1.26A3.93,3.93,0,0,1,234.71,221.77Z"/><path class="cls-16" d="M275,215.92c-.13,1.94-.3,3.79-1.89,5.05a4.32,4.32,0,0,1-6.6-1.86,9,9,0,0,1-.41-4.67c.4-2.72,1.77-4.06,4.15-4.14s4.06,1.25,4.58,4C275,214.85,275,215.43,275,215.92Z"/></g></g></svg>