<svg xmlns="http://www.w3.org/2000/svg" viewBox="0 0 354.76 346.81"><defs><style>.cls-1{fill:#231988;}.cls-2{fill:#9ccef9;}.cls-3{fill:#459bd4;}.cls-4{fill:#fefefe;}.cls-5{fill:#fdfdfe;}.cls-6{fill:#fcfcfd;}.cls-7{fill:#fdfdfd;}.cls-8{fill:#fdfcfd;}.cls-9{fill:#fbfbfc;}.cls-10{fill:#fbfafc;}.cls-11{fill:#f7f6fa;}.cls-12{fill:#f6f5f9;}.cls-13{fill:#191384;}.cls-14{fill:#181283;}.cls-15{fill:#191283;}.cls-16{fill:#1a1283;}.cls-17{fill:#191383;}.cls-18{fill:#161283;}.cls-19{fill:#231989;}.cls-20{fill:#2b218d;}.cls-21{fill:#2a218d;}.cls-22{fill:#251b89;}.cls-23{fill:#241a89;}.cls-24{fill:#2c228d;}.cls-25{fill:#2f268f;}</style></defs><g id="Capa_2" data-name="Capa 2"><g id="Capa_1-2" data-name="Capa 1"><path class="cls-1" d="M26.78,251.25q-7.76-33.9-15.5-67.78C7.71,167.84,4.07,152.23.64,136.57A24.86,24.86,0,0,1,5.75,115q29.78-37.4,59.63-74.73C73.17,30.5,81,20.8,88.72,11c5.87-7.47,13.44-11,22.92-11q65.85.09,131.68,0c9.39,0,16.86,3.53,22.71,10.88q41.22,51.73,82.55,103.38c5.79,7.23,7.37,15.29,5.34,24.16Q342.42,188.71,330.86,239l-2.79,12.15c-2.9,2.61-6.57,3.9-10,5.46-5.69,2.58-11.26,5.39-16.87,8.09q-23.83,11.49-47.68,22.95-24.84,12-49.74,23.82c-5,2.36-9.87,4.81-14.86,7.1-8.27,3.81-16.32,3.31-24.31-.58-13.75-6.71-27.59-13.26-41.38-19.88Q92.84,283.53,62.43,269,46.25,261.23,30,253.52A7.53,7.53,0,0,1,26.78,251.25Z"/><path class="cls-2" d="M26.78,251.25,93.4,283.17c23.63,11.32,47.31,22.54,70.88,34,8.8,4.27,17.28,4.34,26.1.08q62.26-30,124.62-59.89c4.35-2.09,8.71-4.14,13.07-6.2-1.6,7-2.69,14.18-5.18,20.95a24.72,24.72,0,0,1-13.15,14c-10.41,5-20.85,9.92-31.25,14.93-12.87,6.2-25.71,12.47-38.58,18.68Q214.65,331.87,189.34,344a26.55,26.55,0,0,1-24.17-.15c-14.8-7.18-29.67-14.21-44.48-21.35-13.26-6.38-26.48-12.84-39.73-19.22-11.3-5.45-22.55-11-34-16.2-9.77-4.44-15.29-11.83-17.2-22.24C29,260.26,27.79,255.77,26.78,251.25Z"/><path class="cls-3" d="M128.25,65.26a16.37,16.37,0,0,1,6.61-12.32,2.2,2.2,0,0,0,1-2.87C132.82,40,137.6,30.27,147.43,26.4A18.92,18.92,0,0,1,168,31.3c1,1,1.4,1.13,2.52.22,8-6.59,18.69-5.29,25.06,3a2.52,2.52,0,0,0,3.31,1c11.45-3.67,23.88,3,26.81,14.26,3.22,12.4-3.83,24.4-15.94,26.94-2.15.45-4.4,1-6.66.29-1.31-.37-2.11.21-2.91,1.29a15.12,15.12,0,0,1-17.24,5.54c-1.49-.49-2.16-.23-3,1.06-7.8,12.45-24.25,11.92-31.22-1-.5-1-.89-1.58-2.21-1.43C136.15,83.76,128.33,75.59,128.25,65.26Z"/><path class="cls-4" d="M292.3,134.83c0-5.66.05-11.32,0-17,0-1.82.51-2.53,2.41-2.45,5.15.2,10.34-.38,15.47.26,11.15,1.4,18.24,9.58,17.67,20.11-.57,10.37-8.72,18.07-19.64,18.41-4.58.15-9.16,0-13.74.06-1.66,0-2.18-.6-2.16-2.19C292.33,146.31,292.3,140.57,292.3,134.83Z"/><path class="cls-4" d="M107.77,134.81c0-5.74,0-11.48,0-17.22,0-1.18,0-2.21,1.63-2.16,4.82.14,9.66-.35,14.47.27,5.63.72,10,3.31,11.66,9.06,1.66,5.92.93,11.43-4.31,15.52-1,.81-.86,1.35-.2,2.2,2.34,3,4.65,6.09,6.94,9.15.44.58,1.14,1.16.77,2s-1.29.57-2,.59c-6.65.2-6.65.19-10.49-5.11a14.26,14.26,0,0,1-1.87-2.64c-1.35-3.23-4-3.19-6.81-3-1.12.07-1.4.53-1.38,1.54,0,2.33-.08,4.66,0,7,.09,1.79-.65,2.26-2.35,2.28-6.09.05-6.08.11-6.08-6Z"/><path class="cls-4" d="M256.63,134.8c0-5.74,0-11.47,0-17.2,0-1.6.47-2.21,2.13-2.2q10.84.1,21.71,0c1.7,0,2.13.71,2.11,2.25-.12,6.87.72,5.52-5.42,5.63-3.33.06-6.66.08-10,0-1.53-.05-2.15.29-2.16,2,0,6.52-.11,6.52,6.39,6.52,2.49,0,5,0,7.48,0,.71,0,1.75-.24,1.83.78a40.88,40.88,0,0,1,0,6c-.09,1.14-1.23.88-2,.88-3.91,0-7.82.08-11.73,0-1.57,0-1.93.51-1.95,2,0,5-.1,5,4.93,5,3.41,0,6.82.09,10.23,0,1.91-.07,2.45.67,2.41,2.47-.15,6.52.7,5.33-5.41,5.4-5.91.06-11.81-.08-17.72.06-2.14.05-2.92-.49-2.85-2.76C256.74,145.94,256.63,140.37,256.63,134.8Z"/><path class="cls-4" d="M71.21,134.81c0-5.73,0-11.47,0-17.21,0-1.58.43-2.21,2.11-2.2,7.24.07,14.48.06,21.72,0,1.51,0,2,.53,2.07,2,.25,5.85.29,5.85-5.45,5.85-3.41,0-6.83,0-10.24,0-1.35,0-1.85.32-1.9,1.79-.23,6.74-.28,6.74,6.44,6.74,2.5,0,5,0,7.49,0,.71,0,1.75-.23,1.83.79a39.52,39.52,0,0,1,0,6c-.1,1.13-1.25.87-2,.87-3.91,0-7.82.08-11.73,0-1.52,0-2,.38-2,1.94,0,5-.09,5,4.91,5,3.49,0,7,.06,10.48,0,1.63,0,2.23.52,2.2,2.15-.14,7,.81,5.61-5.58,5.7-5.65.09-11.32,0-17,0-3.31,0-3.31,0-3.31-3.18Z"/><path class="cls-4" d="M47.71,114.8a31.09,31.09,0,0,1,12.6,2.57c1.35.6,1.6,1.31,1.06,2.72-1.94,5.12-1.89,5.15-7,3.62a17.3,17.3,0,0,0-9.11-.5c-6.14,1.45-9.73,6.14-9.38,12.32a11.66,11.66,0,0,0,10.76,11.21,21,21,0,0,0,11-1.85c1.45-.67,2.15-.49,2.75,1.15,2.17,5.91,2.14,6-4,7.73a26.43,26.43,0,0,1-16.92-.58A19.06,19.06,0,0,1,27,133.81,20.31,20.31,0,0,1,42.74,115.4,19.92,19.92,0,0,1,47.71,114.8Z"/><path class="cls-4" d="M202.56,134.57c0-5.57.06-11.14,0-16.71,0-1.78.4-2.5,2.35-2.47,7.07.1,14.14.09,21.21,0,1.75,0,2.35.56,2.31,2.29-.15,6.84.78,5.47-5.45,5.59-3.49.06-7,.06-10.48,0-1.3,0-1.67.41-1.73,1.7-.31,7.2-.35,7.2,6.72,7.2,2.33,0,4.66.05,7,0,1.41,0,1.84.54,1.91,1.91.26,5.73.3,5.73-5.29,5.73-2.83,0-5.66.06-8.48,0-1.44-.05-1.87.45-1.83,1.86.08,3.48,0,7,.05,10.47,0,1.65-.58,2.12-2.18,2.15-6.06.11-6.06.16-6.06-6Z"/><path class="cls-5" d="M163.16,123.79a5.35,5.35,0,0,0-.24,2.69c0,8.47,0,17,0,25.42,0,1.68-.46,2.33-2.26,2.35-6.14.07-6.14.14-6.14-5.9,0-7.4-.07-14.79.05-22.19,0-2.17-.38-3.15-2.81-2.92s-5.16,0-7.73.07c-1.4,0-1.94-.5-1.91-1.9.14-7.39-.94-5.88,5.53-6,8.23-.09,16.47,0,24.7,0,1.94,0,2.87.36,2.79,2.59-.22,6.29.75,5.11-5.27,5.34-2.24.08-4.57-.69-6.74.47Z"/><path class="cls-5" d="M191.76,134.84c0,5.64-.06,11.29,0,16.93,0,1.79-.41,2.49-2.35,2.49-6.07,0-6.07.07-6.07-6,0-10,0-20.1,0-30.14,0-2,.49-2.77,2.64-2.74,5.77.09,5.78,0,5.78,5.76Z"/><path class="cls-4" d="M107,237.45c0-2.25,0-4.49,0-6.73,0-.95-.8-2.32.24-2.74,1.21-.49,2.94-.76,4,.21.82.75,1.11.44,1.79.09,3.07-1.56,6.09-1.68,8.8.71.79.7,1.17.48,1.83-.07a7.33,7.33,0,0,1,8.19-1c2.83,1.31,3.59,4,3.59,6.87,0,3.24-.07,6.49,0,9.72.07,1.94-1.16,1.68-2.3,1.61s-2.64.64-2.57-1.57c.09-3.07.06-6.14,0-9.22,0-2-.35-3.93-3-4.09-2-.11-3.63,1.33-3.81,3.81a70.49,70.49,0,0,0-.07,9c.13,2.18-1,2.11-2.57,2.17-1.72.06-2.59-.23-2.46-2.27.18-2.9.05-5.82,0-8.72,0-2-.39-3.77-2.82-3.93a3.42,3.42,0,0,0-3.86,3.4,68.89,68.89,0,0,0-.17,9.2c.08,2-.64,2.35-2.43,2.33s-2.63-.28-2.46-2.29,0-4.32,0-6.48Z"/><path class="cls-6" d="M237.53,134.84c0-5.66.06-11.32,0-17,0-1.8.44-2.49,2.37-2.49,6,0,6-.07,6,6.06,0,10,0,20,0,29.95,0,2.14-.52,2.92-2.79,2.88-5.62-.12-5.63,0-5.63-5.7Z"/><path class="cls-5" d="M79.35,246c-2.38.62-3.43-.29-3.79-2.3s-1.46-3-3.63-2.61a8.13,8.13,0,0,1-2.74,0c-2.92-.52-4.69.45-5.33,3.49-.28,1.32-4.33,2.3-5.3,1.42-.59-.53-.09-1.07.1-1.57,2.77-7.22,5.57-14.42,8.29-21.65.52-1.39,1.55-1.36,2.62-1.24s2.69-.7,3.39,1.17c2.8,7.38,5.8,14.68,8.43,22.12C82.22,247.18,79.74,245.53,79.35,246Z"/><path class="cls-5" d="M114.45,207.63c-2.63.79-3.56-.53-4-2.44s-1.38-2.85-3.45-2.5a8.62,8.62,0,0,1-2.73,0c-3-.5-4.87.42-5.47,3.63-.24,1.27-4.46,2.19-5.33,1.3-.43-.44-.13-.92,0-1.37,2.81-7.27,5.65-14.53,8.4-21.82.54-1.42,1.57-1.31,2.61-1.2,1.19.14,2.71-.71,3.41,1.13,2.81,7.35,5.78,14.65,8.43,22.07C117.27,208.84,114.81,207.21,114.45,207.63Z"/><path class="cls-5" d="M136.73,205.25c-.09,2.36-2.42,3.82-4.15,2.27-1.17-1-1.57-.45-2.36,0-4.82,2.5-10,.25-11.39-5a13.32,13.32,0,0,1-.2-6.4c1.3-5.86,5.9-8.51,11.6-6.63l1.39.43v-3.37c0-3.7,1.56-4.52,5-2.65.61.91.31,1.93.29,2.88C136.85,192.94,137.26,199.1,136.73,205.25Z"/><path class="cls-5" d="M253.22,189.91v-3.67c0-2.86,1.43-3.86,4.14-3,.91.28.79.93.8,1.57l.15,21.68c0,.5.09,1.18-.49,1.23-1.29.1-2.89.69-3.78-.36s-1-.51-1.69-.15c-5.9,3.19-11.67.06-12.16-6.64a17.25,17.25,0,0,1,.17-4.71C241.62,189.89,246.43,187.62,253.22,189.91Z"/><path class="cls-5" d="M101.72,243.7c-.41.75.65,2.1-.65,2.34s-2.86.73-3.74-.36-1.09-.41-1.72-.07c-5.54,3-10.88.37-12-5.77a14.3,14.3,0,0,1,.09-5.68c1.17-5.38,5.92-8.21,11.12-6.41,1.51.52,1.92.33,1.77-1.22-.07-.74.09-1.51,0-2.23-.42-2.42.74-2.93,2.91-2.83,1.51.07,2,.48,2,2-.08,5.56,0,11.12,0,16.68a5.89,5.89,0,0,0,.22,2.7C102.07,243.11,102,243.4,101.72,243.7Z"/><path class="cls-5" d="M235.08,227.24c5.71,0,8.07,2.22,8.21,7.61.08,3.07.06,6.15.19,9.22a2.29,2.29,0,0,1-3.8,1.88c-1.37-1-1.94-.23-2.89.12-2.82,1.05-5.6,1.17-8-1-1.95-1.77-1.93-4.1-1.27-6.47s2.64-3.31,4.82-3.78c1.38-.29,2.81-.32,4.21-.51.64-.09,1.65.43,1.71-.81a1.84,1.84,0,0,0-1.29-1.92,6.85,6.85,0,0,0-5.58.39c-2.06,1-2.18-.57-2.77-1.63-.85-1.53.6-1.63,1.37-2A10.72,10.72,0,0,1,235.08,227.24Z"/><path class="cls-5" d="M166.93,188.84c5.25,0,7.67,2.3,7.87,7.48.13,3.4-.18,6.8.24,10.2.15,1.19-2.84,2.14-4.11,1-.88-.78-1.23-.64-2-.16a7.64,7.64,0,0,1-5.79.83,5.1,5.1,0,0,1-4.41-4.46c-.47-3.08.57-5.33,3-6.51A15.67,15.67,0,0,1,168,196c.65,0,1.65.43,1.78-.74a1.86,1.86,0,0,0-1.41-2.09,7.25,7.25,0,0,0-5.58.51c-1.64.83-1.94-.29-2.52-1.28-.79-1.36-.09-1.93,1.07-2.41A14.82,14.82,0,0,1,166.93,188.84Z"/><path class="cls-5" d="M261.09,236.9c0-6.07,3.61-9.71,9.59-9.66,5.79,0,9.42,3.73,9.45,9.61s-3.76,9.87-9.52,9.89S261.08,242.89,261.09,236.9Z"/><path class="cls-5" d="M230.58,200.43c-1.5,0-3,0-4.49,0-1.89-.08-1.65.81-1,2,1.24,2.08,4.13,2.54,7.44,1.21.63-.25,1.15-1,2-.26,1.85,1.5,1.75,2.78-.39,3.84-4.08,2-9.11,1.55-11.94-1.12s-3.68-8.42-1.89-12.33c1.88-4.11,6.58-5.94,11.18-4.36,3.52,1.2,6.09,6.24,5.21,10.06-.21.87-.7,1-1.42,1C233.73,200.42,232.15,200.42,230.58,200.43Z"/><path class="cls-5" d="M151.23,236.82c0-2.07,0-4.15,0-6.23,0-.92-.8-2.27.4-2.68s2.95-.72,3.81.21,1.28.46,2,.11c5.85-2.95,10.87.07,10.92,6.58,0,3.16-.1,6.32,0,9.47.09,1.92-.94,2-2.31,1.89s-2.75.43-2.64-1.83c.13-2.9.06-5.81,0-8.72,0-3.17-.93-4.33-3.2-4.36s-3.95,1.62-4,4.43-.16,5.49,0,8.22c.14,2-.67,2.32-2.43,2.31s-2.8-.25-2.6-2.42.05-4.65.05-7Z"/><path class="cls-7" d="M180.2,198.57c0-2.16,0-4.33,0-6.49,0-.86-.66-2.12.35-2.5,1.18-.44,3-.75,3.79.14,1,1.15,1.41.4,2.15.07,2.82-1.27,5.65-1.52,8.31.35a6.09,6.09,0,0,1,2.5,5.2c.05,3.57-.06,7.15.07,10.73.08,2.05-1.2,1.77-2.43,1.75s-2.57.38-2.48-1.71c.12-3,.07-6,0-9s-1-4.14-3.12-4.23c-2.39-.09-4.06,1.55-4.16,4.3s-.15,5.33,0,8c.11,2-.37,2.69-2.55,2.73-2.38,0-2.52-1-2.43-2.86.11-2.15,0-4.32,0-6.48Z"/><path class="cls-7" d="M190.36,227.26a8,8,0,0,1,4.11.82c.83.45,2.39.6,1.61,2.2-.63,1.29-1.34,2.52-3.19,1.36a5.11,5.11,0,0,0-3.64-.44,1.52,1.52,0,0,0-1.38,1.25,1.41,1.41,0,0,0,1,1.58c1.09.4,2.22.69,3.33,1.05,3.22,1,4.69,2.82,4.63,5.67s-1.62,4.71-4.76,5.6a11,11,0,0,1-8.23-.92c-.83-.42-1.75-1-.82-2.07.66-.77.87-2.41,2.57-1.51a6.56,6.56,0,0,0,4.59.74,1.76,1.76,0,0,0,1.59-1.66,1.61,1.61,0,0,0-1.26-1.65c-.85-.32-1.73-.56-2.61-.82-3.65-1.06-5.28-3.09-4.92-6.15s2.62-4.8,6.17-5C189.53,227.24,189.94,227.26,190.36,227.26Z"/><path class="cls-7" d="M148.62,202.18c1.31-4.09,2.41-7.54,3.52-11,.48-1.49,3.86-2.58,5.08-1.66.57.43.24.89.08,1.32-1.91,5.3-3.85,10.6-5.76,15.9-.57,1.58-1.91,1-3,1s-2.36.57-2.95-1c-1.94-5.3-3.93-10.57-5.92-15.85-.4-1.07-.11-1.41,1.06-1.53,2.48-.24,4.19.11,4.8,3.07A101.13,101.13,0,0,0,148.62,202.18Z"/><path class="cls-7" d="M201.68,237.29c0-1.16,0-2.33,0-3.49s0-2.22-1.64-2c-1,.13-1.39-.34-1.31-1.3.07-.79-.29-2,.83-2.05,2.27-.12,2.13-1.54,2.1-3.1,0-1.22,3.38-3.38,4.45-2.85.88.44.53,1.35.47,2-.18,2.2-.13,4,3,3.44,1.52-.28,1.46.91,1.48,1.94s0,2.18-1.53,1.89c-2.94-.58-3,1.14-2.9,3.27.11,1.83,0,3.66,0,5.49,0,1.4.66,2.33,2.12,2.14,2.23-.29,1.89,1.4,2.07,2.57.26,1.64-1.15,1.34-2,1.43-4.66.48-7.08-1.73-7.12-6.39C201.68,239.29,201.68,238.29,201.68,237.29Z"/><path class="cls-8" d="M249.57,237.39c0-1.17,0-2.33,0-3.49.08-1.33-.1-2.33-1.82-2.11-.88.11-1.18-.43-1.11-1.22s-.36-2.1,1-2.18c2-.12,1.93-1.33,1.91-2.75s3.25-3.79,4.42-3.19c.91.47.57,1.51.5,2.28-.19,2.19.06,3.76,2.93,3.22,1.54-.3,1.43.92,1.44,1.94s.1,2.2-1.46,1.89c-2.92-.56-3.05,1.12-2.91,3.28.12,1.82,0,3.65.05,5.47,0,1.37.65,2.33,2.11,2.14,2.17-.28,2,1.27,2.09,2.52.19,1.78-1.28,1.43-2.23,1.5-4.57.38-6.84-1.73-6.9-6.32C249.56,239.38,249.57,238.38,249.57,237.39Z"/><path class="cls-7" d="M210.69,208.37c-5.37,0-8.72-3.29-9-8.88-.32-5.91,2.66-9.91,7.88-10.57a12.67,12.67,0,0,1,5.19.47c2.57.76,2.74,1.32,1.46,3.63-.59,1.07-1.09,1-2.13.61-3-1.28-5.28-.86-6.54,1-1.44,2.15-1.23,6.75.47,8.49s3.91,1.49,5.8.56c2.17-1.08,2.27.53,2.92,1.69.92,1.64-.46,1.8-1.39,2.19A11.44,11.44,0,0,1,210.69,208.37Z"/><path class="cls-6" d="M214.83,236.8c0-2.08,0-4.16,0-6.23,0-.91-.81-2.25.41-2.65s2.88-.72,3.78.22,1.18.59,1.91.1a4.24,4.24,0,0,1,2-.84c1,0,2.77-1,2.86,1.1.06,1.42.7,3.39-2.2,3.27-2.33-.09-3.76,1.84-3.87,4.62-.09,2.58-.15,5.16,0,7.72.13,2-.81,2.11-2.37,2.1s-2.73,0-2.57-2.19c.18-2.4,0-4.82,0-7.22Z"/><path class="cls-6" d="M286.56,227.74c.93.16,2-.37,2.59.94.34.74.75-.09,1.12-.26a7.55,7.55,0,0,1,2.25-1c1.06-.09,2.76-1,3,.88.2,1.49.8,3.58-2.26,3.46-2.3-.09-3.64,1.69-3.76,4.43a78.47,78.47,0,0,0,0,8c.12,2.05-1,2-2.48,2s-2.53.18-2.52-1.95c.05-5,.37-10-.2-15C284,227.15,285.59,227.94,286.56,227.74Z"/><path class="cls-9" d="M178.73,237.21c0,2.4-.1,4.81,0,7.21.1,1.78-.9,1.9-2.16,1.73s-2.85.76-2.82-1.6c.05-5.05.06-10.11,0-15.17,0-2.35,1.67-1.47,2.81-1.61s2.26-.05,2.17,1.73C178.64,232.06,178.73,234.64,178.73,237.21Z"/><path class="cls-10" d="M140.87,236.81c0-2.49,0-5,0-7.46-.06-2.15,1.48-1.55,2.59-1.57s2.4-.45,2.37,1.52c-.07,5.13-.05,10.27,0,15.4,0,2.23-1.64,1.33-2.68,1.44s-2.36.23-2.28-1.63C140.94,241.94,140.87,239.37,140.87,236.81Z"/><path class="cls-11" d="M176.36,219.8c1.67.06,2.85.85,2.83,2.84s-1.07,2.68-2.84,2.73-3-.89-3-2.81S174.41,219.87,176.36,219.8Z"/><path class="cls-12" d="M143.5,219.79c1.7.14,2.76,1,2.75,2.81,0,2-1.15,2.79-3,2.77a2.54,2.54,0,0,1-2.82-2.76C140.41,220.67,141.6,219.82,143.5,219.79Z"/><path class="cls-13" d="M246.61,116.56v36.6h-.24V116.45Z"/><path class="cls-14" d="M237.09,116.55v36.61h-.24v-36.7Z"/><path class="cls-15" d="M201.76,153.16V116.55H202v36.71Z"/><path class="cls-16" d="M163.15,123.8c.18.35.52.71.52,1.07,0,9.46,0,18.91-.51,28.37V123.79Z"/><path class="cls-17" d="M154.07,124.41V153.2h-.19V124.41Z"/><path class="cls-14" d="M136.73,205.25c-.36-7.11-.22-14.23-.07-21.35.43-.29.57,0,.57.35q0,10,0,19.91A3,3,0,0,1,136.73,205.25Z"/><path class="cls-18" d="M101.72,243.7l0-.85V222.26h.54c0,6.87,0,13.74,0,20.61C102.19,243.15,101.88,243.43,101.72,243.7Z"/><path class="cls-19" d="M300.73,134.88c0-3.24,0-6.47,0-9.71,0-1.31.26-2,1.77-1.9,2.81.18,5.64-.28,8.42.55a11.5,11.5,0,0,1-1.84,22.4c-2.22.24-4.48.05-6.72.17-1.41.07-1.64-.62-1.62-1.81C300.76,141.34,300.73,138.11,300.73,134.88Z"/><path class="cls-19" d="M116.18,129.57v-2.24c0-4.19,0-4.19,4.28-4,4.81.17,7,2.27,6.82,6.61a5.47,5.47,0,0,1-4.57,5.68c-5.56,1.36-6.53.61-6.53-5Z"/><path class="cls-20" d="M70,227.52c1,3,1.88,5.51,2.76,8,.35,1,.24,1.45-1,1.56-5,.44-5.12.38-3.58-4.25C68.7,231.21,69.27,229.6,70,227.52Z"/><path class="cls-21" d="M105,189.12c1.06,3.11,1.94,5.74,2.84,8.36.29.83.12,1.26-.83,1.24-1.33,0-2.65,0-4,0-1.16,0-1.18-.52-.87-1.4C103.05,194.77,103.93,192.19,105,189.12Z"/><path class="cls-22" d="M131.62,197.79a9.11,9.11,0,0,1-.51,4.14,3.89,3.89,0,0,1-4,2.38,3.41,3.41,0,0,1-3.22-2.66,9,9,0,0,1-.4-4.15c.5-3.22,1.94-4.74,4.46-4.59C130.79,193.07,131.63,194.19,131.62,197.79Z"/><path class="cls-23" d="M253.27,198a19.29,19.29,0,0,1-.18,3,3.87,3.87,0,0,1-3.78,3.33c-2.06.14-3.19-1-3.82-2.85a9.09,9.09,0,0,1-.35-3.43c.18-3.38,1.82-5.25,4.46-5.11C252.49,193.06,253.23,194.11,253.27,198Z"/><path class="cls-22" d="M96.64,236.27c-.06.91,0,1.83-.18,2.72a3.93,3.93,0,0,1-4,3.7c-2.19.09-3.26-1.34-3.79-3.26a8.86,8.86,0,0,1-.25-3.44c.44-3.31,2-4.92,4.63-4.71C95.9,231.5,96.6,232.49,96.64,236.27Z"/><path class="cls-20" d="M236.75,237.86c.94-.11,1.71,0,1.64,1.37a3.93,3.93,0,0,1-3.84,3.49,2.05,2.05,0,0,1-2.33-2C232.1,238.93,233.7,237.92,236.75,237.86Z"/><path class="cls-24" d="M166,204.34c-1.35-.06-2.22-.65-2.26-2.09,0-1.85,1.83-2.89,4.77-2.8,1.09,0,1.48.41,1.4,1.47A3.82,3.82,0,0,1,166,204.34Z"/><path class="cls-23" d="M266.13,236.81c0-3.72,1.58-5.61,4.55-5.55s4.46,2.05,4.43,5.72-1.62,5.71-4.46,5.73S266.1,240.64,266.13,236.81Z"/><path class="cls-25" d="M228,196.63a5.45,5.45,0,0,1-1,0c-.83-.16-2.15.55-2.4-.54s.62-2.19,1.64-2.84a3.81,3.81,0,0,1,3.35-.31,2.82,2.82,0,0,1,2.13,3c-.19,1.35-1.63.48-2.5.69A5,5,0,0,1,228,196.63Z"/></g></g></svg>