<svg width="383" height="295" viewBox="0 0 383 295" fill="#ffffff" xmlns="http://www.w3.org/2000/svg">
<path d="M383 82.9131V263.616C382.86 263.821 382.641 264.006 382.591 264.231C377.514 285.085 365.182 294.989 344.257 294.989H38.714C37.4748 294.989 36.2257 294.989 34.9765 294.989C14.8902 294.251 0.0602345 278.708 0.000275187 258.059C-0.0730084 200.644 -0.0730084 143.23 0.000275187 85.8146C0.0495016 84.829 0.149574 83.8468 0.300072 82.8721C0.969617 83.2514 1.29939 83.4155 1.61918 83.6205C53.3374 119.074 105.056 154.525 156.774 189.971C179.978 205.873 202.952 205.904 226.177 189.971C272.439 158.332 318.677 126.678 364.893 95.0112C370.888 90.9102 376.964 86.9424 383 82.9131Z" fill="#ffffff"/>
<path d="M383 41.39C381.581 45.3065 380.821 49.6947 378.573 53.037C375.505 57.579 371.907 62.2644 367.52 65.248C315.555 101.194 263.437 136.948 211.166 172.511C198.285 181.288 184.684 181.257 171.813 172.511C119.482 136.832 67.234 101.03 15.0694 65.1044C2.5379 56.4922 -2.64857 41.5848 1.33872 26.7082C5.40596 11.5137 18.0774 1.13805 33.8566 0.092274C34.9759 0 36.0951 0 37.2144 0C140.065 0 242.915 0 345.765 0C362.753 0 376.104 9.38119 381.141 24.8217C381.84 26.985 382.39 29.1996 383 31.3937V41.39Z" fill="#ffffff"/>
</svg>
