<svg width="280" height="397" viewBox="0 0 280 397" fill="#ffffff" xmlns="http://www.w3.org/2000/svg">
<path d="M147.397 0C151.241 0.50483 155.104 0.912577 158.929 1.53391C210.724 10.0286 247.521 39.0855 268.753 87.9375C282.287 119.111 283.052 151.643 273.995 184.496C266.127 213.009 253.698 239.445 239.389 264.987C214.285 309.82 184.175 350.973 151.335 390.078C143.6 399.291 136.063 399.311 128.347 390.078C91.1343 345.614 57.1803 298.733 30.5366 246.677C18.3528 222.873 7.64242 198.33 2.83502 171.71C-6.60976 119.412 7.81243 74.7536 45.2704 38.1244C67.3901 16.504 94.2416 4.72792 124.465 0.883452C127.072 0.553371 129.678 0.291248 132.285 0H147.397ZM139.973 216.087C158.615 216.007 176.468 208.347 189.632 194.781C202.797 181.214 210.203 162.844 210.233 143.682C210.233 103.723 178.225 71.0062 139.52 71.3654C100.626 71.7247 69.2507 104.228 69.4491 143.944C69.6474 183.845 101.382 216.29 139.973 216.087Z" fill="#ffffff"/>
</svg>
