<?xml version="1.0" encoding="UTF-8"?>
<svg id="Capa_2" data-name="Capa 2" xmlns="http://www.w3.org/2000/svg" viewBox="0 0 519.98 438.3" fill="#003de6">
  <defs>
    <style>
      .cls-1 {
        stroke-width: 0px;
      }
    </style>
  </defs>
  <g id="Capa_1-2" data-name="Capa 1">
    <g>
      <path class="cls-1" d="m0,278.09c1.68-9.28,2.77-18.72,5.09-27.83,9.53-36.73,30.42-65.74,61.78-86.87,29.27-19.7,61.72-27.97,96.87-24.77,34.94,3.14,65.14,16.84,90.6,41.11l5.48,5.23c36.62-36.52,80.62-52.55,131.94-45.3,39.38,5.54,71.8,24.67,96.31,55.95,46.43,59.3,42.4,144.11-13.36,200.11-46.42,46.69-143.87,67.52-214.72-4.21-1.09.95-2.27,1.88-3.32,2.91-33.93,32.98-74.61,47.68-121.62,43.05-41.75-4.11-75.91-23.29-102.2-55.95C14.27,358.66,3.07,330.71.74,301.35c-.16-1-.41-1.99-.74-2.95v-20.31Zm370.02-119.92c-34.15.05-66.9,13.53-91.19,37.51-24.29,23.99-38.15,56.56-38.6,90.68-.45,34.12,12.55,67.05,36.19,91.67,23.64,24.62,56.03,38.96,90.17,39.91,74.68,1.58,131.61-56.91,132.98-126.35,1.46-74.29-56.3-132.99-129.54-133.42Zm-123.51,42.85c-32.07-37.04-89.88-54.59-144.14-33.71-48.77,18.77-83.66,70.58-82.01,123.59,1.81,56.68,38.75,105.38,91.96,121.53,53.44,16.23,106.69-4.44,134.12-37.33-36.24-57.98-36.49-115.72.06-174.08Z"/>
      <path class="cls-1" d="m270.31,42.56v29.94c0,7.63-3.82,12.02-10.1,12-6.29-.01-10.18-4.44-10.18-11.99-.08-20.14-.08-40.28,0-60.41C250.03,4.7,254.15.01,260.21,0c6.06-.01,10.07,4.7,10.1,12.1.05,10.15,0,20.31,0,30.45Z"/>
      <path class="cls-1" d="m327.33,112.26c-2.83-2.1-6.59-3.57-7.93-6.27-1.34-2.7-1.09-6.89,0-9.87,1.02-2.78,3.97-4.92,6.22-7.2,7.14-7.21,14.26-14.43,21.54-21.5,5-4.87,11.18-5.09,15.27-.92,4.08,4.17,3.89,10.17-.76,14.94-8.58,8.85-17.31,17.56-26.19,26.14-1.95,1.88-4.82,2.81-8.16,4.67Z"/>
      <path class="cls-1" d="m164.52,62.23c3.66,2.12,6.62,3.17,8.69,5.09,8.18,7.81,16.17,15.83,24.06,23.93,4.99,5.09,5.09,11.02.79,15.26-4.3,4.23-9.95,4.12-14.84-.67-8.37-8.1-16.54-16.42-24.75-24.71-3.26-3.29-4.64-7.63-2.3-11.55,1.71-2.95,5.32-4.81,8.35-7.35Z"/>
      <path class="cls-1" d="m260.25,120.54c-2.66-.07-5.18-1.15-7.07-3.02-1.89-1.87-3-4.38-3.1-7.04,0-1.99.59-3.92,1.69-5.58,1.1-1.65,2.67-2.94,4.5-3.71,1.83-.76,3.85-.97,5.8-.59,1.95.38,3.74,1.32,5.15,2.72,1.41,1.4,2.38,3.18,2.78,5.12.4,1.94.22,3.96-.53,5.8-.74,1.84-2.02,3.42-3.66,4.54-1.64,1.12-3.57,1.73-5.56,1.75Z"/>
      <path class="cls-1" d="m381.83,363.35c-21.03,0-38.35-12.78-44.25-31.27-2.02-6.36.27-11.68,5.84-13.78,5.22-1.94,10.75.48,12.95,6.51,3.4,9.28,9.21,15.55,19.09,17.7,15.69,3.41,30.98-10.95,28.5-26.79-.29-1.49-.49-3-.61-4.51-.29-5.96,2.82-10.17,8.13-11.05,5.57-.94,10.1,2.15,11.69,8,4.54,16.61-2.91,36.88-17.14,46.65-7.86,5.43-16.52,8.39-24.2,8.54Z"/>
      <path class="cls-1" d="m317.52,272.47c-.15,1.39-.39,2.76-.45,4.14-.23,5.76-3.82,9.91-9.01,10.45-4.82.5-9.27-2.87-10.74-8.11-3.14-11.24,4.42-23.55,16.18-26.36,11.77-2.81,24.18,4.73,26.44,16.07.48,2.33.13,4.76-1.01,6.86-1.14,2.1-2.98,3.72-5.2,4.59-2.13.88-4.5.98-6.69.28-2.19-.7-4.07-2.15-5.3-4.09-.89-1.27-1.69-2.72-2.55-4.08l-1.69.25Z"/>
      <path class="cls-1" d="m409.52,247.95c-.09,1.56-.18,3.13-.29,4.71-.08,2.49-1.07,4.85-2.79,6.65-1.72,1.8-4.04,2.9-6.52,3.09-2.48.19-4.94-.54-6.92-2.05-1.97-1.51-3.32-3.7-3.78-6.14-1.21-5.3-.41-10.85,2.24-15.6,2.65-4.74,6.96-8.34,12.11-10.09,5.15-1.75,10.76-1.54,15.76.61,5,2.14,9.02,6.06,11.3,11,2.85,6.36,1.27,12.31-3.93,14.97-5.2,2.66-10.18.78-14-5.21-.56-.77-1.18-1.51-1.85-2.19l-1.34.27Z"/>
      <path class="cls-1" d="m150.5,356.6c-9.71,0-19.17-3.12-26.97-8.91-7.79-5.79-13.51-13.95-16.3-23.25-1.78-6.04.56-11.21,6.01-13.26,5.09-1.91,10.18.48,12.72,6.04.65,1.37,1.08,2.85,1.73,4.22,4.57,9.62,12.18,14.85,22.9,14.8,10.73-.05,18.2-5.48,22.71-15.08.79-1.68,1.27-3.48,2.18-5.09,1.03-2.04,2.73-3.66,4.82-4.58,2.09-.93,4.43-1.1,6.63-.5,2.33.61,4.35,2.07,5.65,4.08,1.31,2.02,1.82,4.45,1.42,6.83-1.2,8.12-5.34,14.93-10.93,20.75-4.17,4.45-9.22,7.99-14.83,10.39-5.61,2.4-11.65,3.61-17.76,3.56Z"/>
      <path class="cls-1" d="m102.25,272.11c-2.64-.08-5.14-1.19-6.97-3.09-1.83-1.9-2.83-4.45-2.8-7.08.11-2.64,1.25-5.14,3.16-6.97,1.92-1.83,4.47-2.84,7.12-2.83,2.64.15,5.13,1.3,6.96,3.21,1.83,1.91,2.87,4.45,2.9,7.09-.15,2.64-1.31,5.12-3.24,6.92s-4.49,2.79-7.13,2.76h0Z"/>
      <path class="cls-1" d="m208.36,262.35c-.02,1.31-.31,2.6-.83,3.81-.53,1.2-1.28,2.29-2.23,3.2-.95.91-2.06,1.62-3.29,2.1-1.22.48-2.53.71-3.84.68-2.65-.08-5.16-1.18-7.01-3.08-1.85-1.9-2.88-4.44-2.88-7.09.12-2.65,1.25-5.14,3.15-6.99,1.9-1.84,4.44-2.89,7.09-2.92,2.65.11,5.16,1.25,6.99,3.17,1.83,1.92,2.85,4.47,2.84,7.13Z"/>
    </g>
  </g>
</svg>