<?xml version="1.0" encoding="UTF-8"?>
<svg id="Capa_2" data-name="Capa 2" xmlns="http://www.w3.org/2000/svg" viewBox="0 0 478.52 469.82" fill="#003de6">
  <defs>
    <style>
      .cls-1 {
        stroke-width: 0px;
      }
    </style>
  </defs>
  <g id="Capa_1-2" data-name="Capa 1">
    <g>
      <path class="cls-1" d="m478.49,48.38c-3.73-11.92-10.63-18.35-21.09-19.66-.84-.1-1.7-.15-2.64-.15-2.2,0-4.38.27-6.69.56-1.27.16-2.58.32-3.9.44-1.03-3.23-2.73-6.27-4.94-8.83-2.34-2.71-5.3-4.92-8.56-6.4-3.08-1.4-6.32-2.11-9.64-2.11-3.59,0-7.28.8-11.24,2.43-4.49-8.93-13.05-14.44-22.53-14.44s-17.25,5.19-22.35,14.27c-3.65-1.47-7.29-2.21-10.84-2.21-6.66,0-12.82,2.67-17.36,7.51-5.12,5.46-7.75,13.27-7.22,21.44.8,12.34.6,25,.41,37.23-.09,5.43-.17,11.04-.17,16.56,0,1.09-.06,2.16-.12,3.29-.02.31-.03.62-.05.93-.32-.03-.63-.07-.95-.12-2.77-.72-5.51-1.08-8.14-1.08-14.42,0-24.1,10.56-24.1,26.28-.02,5.48,0,11.05.01,16.44.03,8.43.06,17.15-.08,25.72-.27,12.29,3.83,24.32,11.55,33.85,4.23,5.38,8.45,10.94,12.54,16.31,6.29,8.27,12.8,16.83,19.5,25.01,5.18,6.31,7.16,13.7,6.43,23.95-.11.51-.33.99-.63,1.41-.32.43-.71.79-1.18,1.05-6.47,3.43-9.62,8.91-9.62,16.74v10.39h-13.74c-.02-.34-.04-.66-.06-.96-.05-.84-.1-1.5-.1-2.16-.41-16.07-10.13-25.7-26.02-25.79-5.09-.04-9.33-.06-13.35-.06s-7.75.02-11.32.06c-3.04.04-5.53.97-7.2,2.7-1.36,1.41-2.06,3.25-2.01,5.32.11,4.62,3.59,7.49,9.08,7.49h24.2c4.46.02,7.61,1.16,9.37,3.39,1.75,2.21,2.16,5.54,1.22,9.89-.64,0-1.29,0-1.94-.02-.87,0-1.74-.02-2.62-.02-.98,0-1.84.01-2.63.03-5,.16-8.06,2.94-8.19,7.41-.14,4.65,3.02,7.83,8.05,8.08.84.03,1.74.05,2.77.05.92,0,1.84-.01,2.75-.03.66,0,1.32-.02,1.98-.02.54,4.97-.03,8.23-1.78,10.22-1.72,1.96-4.74,2.89-9.5,2.92h-.41c-.53,0-1.06,0-1.6,0-.54,0-1.07,0-1.61,0-.93,0-2.16.01-3.41.11-4.61.35-7.47,3.25-7.47,7.57-.06.97.08,1.97.43,2.92.35.95.88,1.81,1.57,2.54.7.73,1.53,1.3,2.46,1.69.89.37,1.82.56,2.78.56h.12c1.81.11,3.64.17,5.45.17,2.53,0,5.1-.11,7.63-.34,5.05-.47,9.87-2.65,13.57-6.12,3.7-3.48,6.19-8.16,7-13.2.37-2.11.53-4.28.68-6.37.06-.77.11-1.54.18-2.31h13.65c0,1.09,0,2.17-.02,3.23-.02,2.6-.03,5.06.02,7.55.14,7.07,3.05,12.26,8.4,15.01,2.69,1.41,3.15,2.97,3.15,5.96v115.28c-.06,1.72,0,3.48.17,5.22.14,1.76.93,3.41,2.21,4.63,1.28,1.21,2.94,1.9,4.69,1.95.32.05.65.07.98.07,1.43,0,2.8-.43,3.98-1.25,1.46-1.02,2.47-2.55,2.84-4.31.46-2.03.65-4.12.56-6.21v-113.84s0-4.53,0-4.53h84.51v118.61c-.1,1.55-.04,3.17.15,4.76.81,4.28,3.53,6.71,7.47,6.71.13,0,.27,0,.41,0,4.22-.18,6.9-2.8,7.37-7.21.08-1.46.08-2.9,0-4.33v-116.18c0-.22,0-.43,0-.64-.03-1.83-.05-3.05,1.98-4.03,6.23-3.02,9.39-8.36,9.39-15.85-.07-12.41-.07-25.02,0-37.48.15-3.26-.64-6.51-2.29-9.36-1.65-2.85-4.06-5.15-6.97-6.65-1.03-.59-1.98-1.7-1.98-2.15.05-1.77.04-3.6.04-5.37-.02-5.16-.03-10.5,1.27-15.33,3.2-11.89,7.04-23.84,10.76-35.39,1.48-4.59,3.01-9.34,4.48-14.03l.03-.11v-.11s.05-146.94.05-146.94v-.11l-.03-.11Zm-21.57,274.52c-.6.62-1.7.89-3.54.89-6.88-.07-14.2-.1-23.72-.1-4.27,0-8.54,0-12.8.01-4.27,0-8.54.01-12.8.01s-8.88-.01-13.33-.02c-4.44-.01-8.88-.02-13.32-.02-8.52,0-15.43.04-21.73.13-.14,0-.27,0-.4,0-2.13,0-3.4-.33-4.1-1.06-.72-.74-1.02-2.06-.95-4.14.28-9.53.28-19.81,0-32.36-.04-1.8.24-2.95.88-3.6.66-.67,1.83-.97,3.8-.97,16.28.06,32.8.09,49.09.09s32.8-.03,49.09-.09h.13c1.9,0,3.03.29,3.66.93.62.64.9,1.78.86,3.59-.23,10.6-.23,21.49,0,33.29.04,1.72-.22,2.81-.81,3.41Zm6-133.99c-.12,4.74-.92,9.45-2.38,13.99-3.05,10.28-6.43,20.57-10.05,30.61-3.24,8.46-4.65,17.36-4.18,26.42.07,1.38.05,2.8.03,4.31,0,.57-.02,1.15-.02,1.75l-84.27.04v-7.2c.21-9.13-2.85-18.08-8.6-25.16-5.06-6.48-10.15-13.14-15.08-19.57-5.79-7.56-11.77-15.39-17.76-22.99-5.88-7.15-8.96-16.18-8.69-25.45.2-9.87.16-19.89.12-29.59-.02-4.05-.03-8.09-.03-12.14.01-6.63,3.27-10.67,8.72-10.81.09,0,.18,0,.26,0,5.42,0,8.92,4.28,8.92,10.9v41.71c.01,6.18,2.87,9.87,7.64,9.87h.08c4.84-.04,7.72-3.77,7.72-9.98V40.97c0-.39,0-.78,0-1.18-.01-1.29-.02-2.62.09-3.91.15-2.19,1.08-4.22,2.62-5.75,1.55-1.52,3.58-2.41,5.74-2.51.13,0,.26,0,.39,0,2.02,0,3.99.71,5.55,1.99,1.67,1.38,2.78,3.32,3.12,5.47.25,1.8.35,3.64.3,5.46v80.62c-.05,1.72,0,3.48.16,5.21.2,1.82,1.05,3.5,2.37,4.74,1.33,1.24,3.06,1.96,4.87,2.03.09,0,.19,0,.28,0,1.71,0,3.38-.59,4.72-1.66,1.41-1.14,2.38-2.75,2.71-4.54.28-1.92.39-3.85.32-5.76V30.78s0-4.22,0-4.22c.11-6.9,3.42-11.03,8.86-11.03h.09c5.51.05,8.79,4.23,8.79,11.18v96.52c.09,6.23,2.98,9.97,7.72,10.03h.11c4.77,0,7.62-3.7,7.62-9.89V40.43c-.06-1.84.05-3.68.33-5.48.35-2.15,1.48-4.09,3.17-5.45,1.53-1.23,3.46-1.9,5.41-1.9.19,0,.38,0,.57.02,2.16.13,4.19,1.06,5.72,2.6,1.53,1.54,2.44,3.59,2.57,5.77.07,1.53.07,3.11.07,4.64v81.07c-.06,1.4-.03,2.85.09,4.27.17,2.01,1.08,3.86,2.56,5.21,1.46,1.33,3.34,2.06,5.31,2.06h.1c1.02-.03,1.99-.26,2.9-.67.91-.42,1.72-1,2.41-1.74.68-.74,1.21-1.59,1.56-2.53.35-.94.51-1.93.47-2.94.11-7.1.1-14.36.08-21.39,0-2.39,0-4.78,0-7.17v-42.17c.02-6.56,3.61-10.97,8.93-10.97h.17c5.35.1,8.81,4.32,8.81,10.76v17.43c.04,38.37.06,78.04-.1,117.06Z"/>
      <path class="cls-1" d="m213.71,323.73c-3.93-.07-8.09-.1-13.48-.1-2.57,0-5.13,0-7.7.01-2.56,0-5.13.01-7.69.01-4.71-.02-7.72-.97-9.45-2.99-1.76-2.05-2.28-5.28-1.62-10.14.66,0,1.33.02,2,.03.91.02,1.84.03,2.76.03,1.04,0,1.95-.02,2.79-.07,4.75-.27,7.95-3.37,7.95-7.71.05-4.58-3.19-7.64-8.28-7.79h-7.41c-.37-5.35.27-8.62,2.06-10.56,1.75-1.9,4.79-2.74,9.87-2.74.46,0,.92,0,1.38.02.47,0,.94.02,1.41.02.54,0,1.01-.01,1.44-.03,4.66-.23,7.58-2.91,7.81-7.18.1-1.02-.01-2.06-.34-3.06-.33-1-.85-1.91-1.56-2.69-.71-.78-1.55-1.39-2.52-1.82-.95-.42-1.95-.63-2.98-.63h-.02c-1.43-.11-2.89-.16-4.33-.16-2.46,0-4.94.16-7.38.47-10.78,1.56-18.51,9.34-20.17,20.31-.29,1.91-.39,3.82-.49,5.83-.03.67-.07,1.34-.11,2.02h-13.66c0-1.36-.01-2.66-.02-3.92-.01-1.74-.02-3.41-.02-5.08.17-8.68-3.07-14.56-9.92-17.99-.37-.21-.72-.53-.99-.91-.26-.36-.45-.79-.54-1.23-.44-7.85-.01-16.14,6.05-23.62,8.21-10.11,16.22-20.66,23.96-30.87,3.18-4.2,6.47-8.54,9.73-12.78,6.55-8.6,9.95-17.89,10.1-27.64.19-14.93.19-31.02,0-49.21-.01-5.7-2.07-11.21-5.79-15.51-3.72-4.3-8.86-7.12-14.47-7.92-1.46-.22-3.05-.33-4.98-.33-1.39,0-2.77.05-4.23.11-1.25.05-2.53.09-3.83.11v-3.38c0-6.46.02-12.91.03-19.37.03-12.7.07-25.83-.03-38.73-.09-12.56-8.77-22.69-20.65-24.08-.81-.09-1.63-.14-2.53-.14-2.62,0-5.24.39-8.01.81-1.46.22-2.97.45-4.49.61-4.57-8.86-12.34-13.72-21.94-13.72h-.25c-9.67.08-17.14,4.98-22.22,14.55-3.78-1.68-7.51-2.53-11.09-2.53-3.36,0-6.69.74-9.89,2.21-6.53,2.99-11.04,8.22-13.42,15.55-3.24-1.01-6.41-1.52-9.43-1.52-6.62,0-12.49,2.43-16.98,7.03C2.76,40.82-.21,49.13.01,58.09c.73,29.91.59,60.34.46,89.77-.06,12.65-.11,25.72-.1,38.58,0,.56,0,1.12-.01,1.69-.03,2.93-.06,5.97.71,8.75,3.55,12.64,7.22,25.71,11.53,38.48,3.31,9.05,4.81,18.51,4.44,28.13-.13,2.64-.56,3.94-2.9,5.16-2.52,1.2-4.66,3.1-6.16,5.5-1.5,2.4-2.28,5.16-2.26,7.99-.12,13.67-.12,27.55,0,41.23-.07,2.73.64,5.44,2.06,7.8,1.42,2.36,3.48,4.25,5.94,5.46,3.09,1.53,3.31,3.4,3.31,6.31v115.26c-.08,1.55-.05,3.16.09,4.75.12,1.85.93,3.58,2.28,4.86,1.35,1.28,3.12,1.99,4.98,1.99.13,0,.29.01.46.01,3.73,0,6.42-2.22,7.39-6.1v-.03s.01-.03.01-.03c.3-1.75.39-3.53.27-5.3v-113.79s0-4.98,0-4.98h84.46v118.21c-.09,1.89.03,3.82.36,5.71.36,1.81,1.34,3.41,2.77,4.54,1.32,1.04,2.97,1.61,4.65,1.61.13,0,.26,0,.39,0,1.81-.09,3.54-.84,4.85-2.1,1.31-1.26,2.13-2.96,2.3-4.78.13-1.74.17-3.51.13-5.25-.06-38.26-.02-77.02.1-115.17,0-1.68.78-4.09,1.79-4.68,6.49-3.74,9.65-9.39,9.65-17.25v-9.58h13.86v3.73c.41,14.4,9.74,24.03,23.77,24.54,3.69.13,7.67.19,12.5.19,3.2,0,6.45-.03,9.59-.05,3.14-.03,6.39-.05,9.57-.05,4.2,0,6.94-1.69,8.17-5.02.92-2.45.69-4.99-.65-6.97-1.45-2.14-4.02-3.4-7.05-3.45Zm-86.02-.89c-.65.66-1.79.95-3.69.95-6.72-.07-13.82-.1-23.02-.1-4.38,0-8.77,0-13.15.01-4.38,0-8.77.01-13.15.01-4.07,0-8.14,0-12.22-.01-4.07,0-8.14-.01-12.2-.01-9.85,0-17.37.04-24.39.14h-.21c-1.87,0-2.99-.29-3.64-.95-.67-.68-.95-1.89-.9-3.9.27-11.97.14-23.83,0-32.82-.03-1.85.23-2.95.83-3.57.6-.61,1.68-.89,3.39-.89,16.43.05,33.1.08,49.55.08s33.12-.03,49.56-.08c3.21,0,4.12.94,4.12,4.17-.2,12.77-.2,23.34,0,33.27.04,1.9-.24,3.04-.88,3.7Zm-.63-91.26c-7.48,9.3-10.79,19.22-10.11,30.32.05.94-.01,1.88-.09,2.98-.03.37-.05.74-.07,1.13l-83.96-.02s-.02-.05-.03-.07c-.1-.24-.19-.46-.2-.59,1.59-15.9-3.07-30.48-7.84-42.65-6.57-16.3-9.44-33.79-9.04-55.06.5-26.99.4-54.43.3-80.98-.04-10.78-.08-21.93-.08-32.9.01-5.74,3.84-10.07,8.9-10.07h.1c5,.06,8.67,4.09,8.91,9.81v3.72s0,64.66,0,64.66c0,7.64,2.49,11.37,7.62,11.39h.05c6.44,0,7.79-6.15,7.79-11.31-.06-28.14-.06-56.68,0-84.82.01-5.52,3.43-9.35,8.52-9.53.12,0,.23,0,.35,0,4.81,0,8.39,3.58,8.9,8.91.1,1.02.09,2.09.08,3.12,0,.34,0,.67,0,1.01v82.95c0,6.01,2.7,9.53,7.39,9.66.08,0,.17,0,.25,0,4.7,0,7.73-3.84,7.73-9.78V27.9c.01-7.98,3.13-12.37,8.78-12.37h.21c7.24.13,8.81,6.7,8.85,12.19v93.71c-.06,1.89.06,3.82.37,5.71.19,1.77,1.07,3.41,2.45,4.57,1.25,1.05,2.84,1.63,4.47,1.63.15,0,.29,0,.44-.01.13,0,.25.01.38.01,1.71,0,3.36-.62,4.66-1.75,1.41-1.23,2.28-2.94,2.43-4.81.2-1.72.27-3.49.21-5.23V40.51c0-4.21.81-7.45,2.4-9.63,1.51-2.07,3.72-3.12,6.56-3.12h.23c2.15.04,8.69.17,8.69,12.65v123.71c-.09,1.56-.03,3.17.17,4.76.83,4.42,3.59,6.83,7.78,6.83h.11c4.02,0,7.17-3.3,7.31-7.69.13-3.69.11-7.43.09-11.06,0-1.33-.01-2.66-.01-4,0-3.23,0-6.46-.02-9.69-.02-6.34-.03-12.9.02-19.35.05-6.39,3.56-10.59,8.94-10.7h.19c5.24,0,8.75,4.23,8.75,10.52,0,4.76-.02,9.54-.04,14.32-.04,9.44-.07,19.2.04,28.8.16,8.46-2.67,16.74-7.97,23.31-4.16,5.34-8.31,10.8-12.33,16.08-6.37,8.37-12.95,17.02-19.65,25.32Z"/>
      <path class="cls-1" d="m247.13,197.4c-.19-5.37-2.95-8.44-7.58-8.44s-7.67,3.08-7.76,8.25c-.16,8.21-.16,16.53,0,24.74.1,5.09,3.02,8.25,7.62,8.25h.18c4.61-.08,7.35-3.17,7.54-8.48.08-2.71.05-5.46.03-8.12-.01-1.35-.02-2.69-.02-4.04s.01-2.68.02-4.03c.02-2.66.05-5.42-.03-8.14Z"/>
      <path class="cls-1" d="m196.68,238.14c.79,1.08,1.87,1.93,3.11,2.46.92.39,1.9.59,2.91.59.34,0,.69-.02,1.03-.07,1.33-.19,2.59-.73,3.65-1.58,1.05-.84,1.86-1.96,2.33-3.23,1.29-3.07-1.11-8.62-3.79-12.77-2.62-4.07-6.6-8.44-9.89-8.53-.1,0-.21,0-.32,0-1.23,0-2.44.31-3.53.88-1.18.63-2.18,1.57-2.88,2.72-.7,1.15-1.09,2.47-1.11,3.81-.03,1.34.31,2.68.96,3.85,2.15,4.14,4.68,8.15,7.52,11.88Z"/>
      <path class="cls-1" d="m276.94,241.17h.16l.15-.07c.16-.07.43-.15.72-.24.98-.29,2.31-.68,3.02-1.68,3.42-4.58,6.52-9.49,9.18-14.58.7-1.42.79-2.94.28-4.43-.63-1.83-2.13-3.41-4.1-4.35-1.27-.6-2.53-.91-3.74-.91-2.24,0-4.15,1.03-5.54,2.98-2.87,3.88-5.49,8.02-7.77,12.29-1.19,2.29-1.1,4.85.23,7.04,1.5,2.47,4.28,3.95,7.43,3.95Z"/>
    </g>
  </g>
</svg>