<?xml version="1.0" encoding="UTF-8"?>
<svg id="Capa_2" data-name="Capa 2" xmlns="http://www.w3.org/2000/svg" viewBox="0 0 465.58 456.86" fill="#003de6">
  <defs>
    <style>
      .cls-1 {
        stroke-width: 0px;
      }
    </style>
  </defs>
  <g id="Capa_1-2" data-name="Capa 1">
    <path class="cls-1" d="m462.49,222.02c-2.57-5.92-5.31-11.88-7.96-17.64-2.78-6.05-5.66-12.3-8.33-18.5-16.52-38.51-33.03-77.03-49.54-115.56-1.48-3.46-2.97-6.91-4.49-10.44-1.09-2.52-2.19-5.08-3.32-7.7l-1.16-2.71-2.73,1.11-66.79,27.24c.22-9.62-.25-18.75-5.8-27.29-3.9-6.2-9.46-11.31-16.07-14.74-6.06-3.15-12.9-4.82-19.76-4.82-.57,0-1.15.01-1.72.03-7.46.3-14.73,2.54-21.02,6.49-6.3,3.95-11.41,9.49-14.8,16.02-4.41,8.2-5.78,17.76-3.84,26.88,2.17,10.11,7.38,18.25,15.86,24.74l-67.87,27.6-5.23-9.97c4.04-3.7,4.52-8.85,4.38-13.53-.11-5.39-.07-10.92-.04-16.27.01-1.82.03-3.64.03-5.46,4.59-.52,7.15-1.05,8.96-2.98,2.21-2.35,2.17-5.6,2.09-11.49-.29-21.4-.6-43.4-.92-65.39-.02-1.17-.09-2.32-.17-3.43-.03-.46-.06-.92-.09-1.38l-.16-2.83h-15.89v71.36H37.69V.06h-17.05v9.14c.29,21.59.57,43.44.83,64.99v.11c.08,5.9.12,9.15,2.27,11.43,1.96,2.08,4.68,2.46,9.77,2.86,0,1.8.01,3.62.02,5.46.02,5.06.05,10.3-.02,15.5-.07,4.36.27,9.18,2.94,12.76-.65,1.59-1.32,3.15-1.96,4.67-2.05,4.82-3.98,9.37-5.4,14.16-1.85,6.11-3.52,12.38-5.14,18.45-1.85,6.95-3.76,14.13-5.95,21.07-2.03,6.42-3.79,14.8-.08,23.71-8.88,4.07-14.33,9.07-16.65,15.26-2.34,6.23-1.49,13.61,2.61,22.54,19.54,42.75,39.41,86.1,59.06,128.85,5.44,11.87,10.9,23.74,16.46,35.84l2.16,4.71,1.22,2.66,2.69-1.15c7.66-3.28,15.27-6.54,22.85-9.78,16.73-7.16,34.02-14.56,50.98-21.88,4.95-2.15,7.93-5.47,8.41-9.35.49-3.96-1.67-8-6.08-11.37l-.03-.02-.03-.02c-4.55-3.32-8.9-6.98-12.91-10.89-3.52-3.64-5.33-9.46-4.85-15.57.54-6.76,3.68-12.75,8.63-16.44,5.62-4.22,11.89-6.44,18.16-6.44,5,0,9.82,1.49,13.95,4.31,9.87,6.75,13.36,18.83,8.68,30.06-.92,2.23-3.37,8.15,1.87,13.07,2,1.88,4.31,2.83,6.87,2.83s4.7-.86,6.4-1.62c10.55-4.67,21.3-9.37,31.7-13.91,8.81-3.85,17.91-7.83,26.86-11.77l.06-.03.06-.03c2.22-1.11,4.39-2.37,6.43-3.77,2.57-1.6,5.12-3.21,7.58-4.77,2.69,6.62,5.19,12.76,7.77,19.11-4.24,4.1-4.05,10.42-3.95,13.67.12,5.3.08,10.74.04,16.01-.01,1.81-.03,3.62-.04,5.44-4.03.18-6.87.54-8.78,2.51-2.09,2.14-2.2,5.18-2.13,9.59.28,19.11.57,38.25.86,57.44.02,1.19.11,2.38.18,3.42.03.41.06.81.08,1.19l.18,2.81h15.85v-60.71h137.18v60.67h16.43v-64.3c-.01-5.04-.02-8.68-2.36-11.05-2.06-2.09-5.14-2.45-9.66-2.72,0-1.56.03-3.14.04-4.79.06-5.72.12-11.63-.18-17.55-.16-3-.97-5.89-1.82-8.95-.3-1.08-.61-2.19-.91-3.35,4.45-5.78,6.31-12.98,8.27-20.58.62-2.4,1.26-4.89,1.99-7.31.85-2.82,1.68-5.64,2.52-8.45,2.16-7.28,4.39-14.82,6.79-22.15,2.19-6.57,4.16-14.28-.21-22.37-.81-1.52-1.54-3.18-2.25-4.8-.06-.14-.13-.29-.19-.43,8.44-2.95,14.14-7.58,16.94-13.78,2.88-6.36,2.48-13.84-1.19-22.23ZM165.43,106.21c.01,1.43.02,2.88.03,4.36H50.11c0-7.08.02-14.31.19-21.48.39-.17.84-.31,1.07-.32,15.79-.27,31.81-.39,47.31-.51l3.37-.03c6.19-.05,12.39-.08,18.58-.11,13.94-.07,28.35-.15,42.53-.4.11,0,.21,0,.32,0,1.29,0,1.78.16,1.92.23.06.15.21.67.15,2.09-.22,5.3-.17,10.58-.13,16.17Zm245.1,234.89c-16.84.06-33.89.09-50.72.09s-33.8-.03-50.58-.09c-.97-.09-1.86-.5-2.54-1.17-5.17-5.53-8.35-12.38-9.22-19.81.02-.29.1-.58.25-.84.13-.24.31-.46.53-.64,21.42-8.88,43.25-17.74,64.37-26.31l2.53-1.03c-.33.71-.66,1.41-1,2.12l-1.29,2.73,2.74,1.27,9.66,4.47,2.77,1.28,1.23-2.79c5.03-11.38,11.61-22.52,25.47-26.87l2.49-.78-.43-2.58c-.65-3.86-1.3-7.68-1.95-11.47-1.42-8.27-2.76-16.09-4.01-24.08-.25-1.65-.56-3.31-.86-4.92-1.09-5.86-2.12-11.39-.46-16.9,1.56-5.1,3.48-8.45,8.23-9.33.53-.1,1.01-.15,1.43-.15,1.08,0,1.97.18,2.67,2.44,3.82,11.83,7.74,23.81,11.54,35.39,3.37,10.3,6.86,20.94,10.26,31.43.32,1.11.33,2.29.03,3.41-.88,3.28-1.75,6.56-2.62,9.84-3.56,13.39-7.24,27.24-11.37,40.73-1.16,3.78-3.44,7.33-5.86,11.08-.68,1.06-1.39,2.15-2.06,3.25-.3.1-.8.2-1.23.2Zm9.88-150.99c-3.06-2.11-6.65-3.23-10.39-3.23-.26,0-.51,0-.77.02-14.21.24-24.99,10.66-26.22,25.35-.62,7.42.36,14.94,1.32,22.21.24,1.8.48,3.66.69,5.48.49,4.23,1.24,8.45,1.97,12.54.55,3.12,1.12,6.35,1.57,9.52-.02.23-.07.46-.17.67-.11.24-.27.46-.47.65-1.77,1.36-3.72,2.48-5.8,3.32-34.8,14.2-69.45,28.32-102.97,41.97-.13.05-.27.11-.4.16l-21.99-48.85c.2,0,.41,0,.61,0,15.12,0,25.95-4.17,34.1-13.12,6.34-6.99,10.28-15.96,11.1-25.27.92-8.79-1.15-17.8-5.81-25.38-4.66-7.57-11.83-13.56-20.19-16.88-5.39-2.16-10.73-3.25-15.87-3.25-12.13,0-23.38,5.83-34.29,17.79-5.66-12.35-11.3-24.67-16.99-37.07l-6.53-14.24,26.38-10.68c12.57-5.09,25.37-10.22,38.03-15.24,3.19-1.26,9.15-3.62,9.15-10.71s-5.82-9.24-9.29-10.57c-3.67-1.42-7.01-3.71-9.64-6.6-2.62-2.89-4.54-6.38-5.55-10.11-1.01-3.72-1.11-7.68-.29-11.45.82-3.77,2.55-7.35,5.02-10.37,2.48-3.02,5.69-5.46,9.3-7.07,3.34-1.49,6.9-2.24,10.58-2.24.34,0,.67,0,1.01.02,3.97.15,7.9,1.23,11.37,3.11,3.46,1.88,6.47,4.56,8.69,7.76,4.52,6.56,4.04,14.04,3.53,21.96-.07,1.03-.13,2.07-.19,3.1-.23,3.09.36,6.21,1.72,9.01l.04.08.04.08c1.7,3.05,4.71,4.74,8.46,4.74,1.92,0,3.97-.44,6.11-1.31,16.68-6.79,33.35-13.58,50.03-20.39,2.93-1.2,5.87-2.38,8.9-3.59.8-.32,1.6-.64,2.41-.97,1.74,4.05,3.47,8.08,5.19,12.08,2.4,5.58,4.78,11.13,7.16,16.68,16.35,38.29,32.95,77.02,49.33,115.12,1.06,2.47,2.3,4.85,3.51,7.15,1.12,2.13,2.17,4.15,3.09,6.23,1.86,4.21,2.27,7.27,1.25,9.34-.91,1.85-3.15,3.35-6.83,4.55l-9.36-28.14c-.55-1.68-1.1-3.38-1.65-5.08-1.02-3.15-2.07-6.4-3.15-9.6-1.17-3.73-3.6-7.03-6.85-9.28Zm-219.19,118.43c-6.52-7.19-15.47-11.9-25.2-13.26-1.9-.3-3.89-.45-5.92-.45-14.09,0-32.51,7.63-39.65,24.39-4.12,9.65-4.85,18.98-2.19,27.71,2.51,8.24,8.03,15.76,16.43,22.43l-53.56,23.37c-.12-.21-.22-.42-.31-.62-23.91-52.12-48.32-105.37-72.57-158.3-1.7-3.72-2.03-6.74-.97-8.98.91-1.92,2.92-3.48,5.98-4.65,4.26,12.91,8.52,25.81,12.77,38.71.4,1.22.79,2.44,1.17,3.66.63,1.98,1.27,4.04,2,6.06,1.03,3.07,2.91,5.79,5.44,7.86,2.51,2.06,5.55,3.38,8.79,3.84,1.26.23,2.57.34,3.88.34,8.98,0,17.79-5.25,21.92-13.08,4.51-8.62,5.97-18.6,4.13-28.1l-.51-2.94c-1.74-10.05-3.53-20.45-5.07-30.7.02-.37.1-.74.25-1.09.17-.41.43-.78.75-1.09,4.17-4.11,8.64-8.09,12.96-11.94l.7-.63.07-.06.06-.07c1.08-1.09,2.33-2.01,3.7-2.74,29.59-12.85,59.17-25.68,87.94-38.13,1.53-.66,2.55-1,3.04-1.01.2.18.67.8,1.62,2.9,8.71,19.34,17.47,38.93,26.04,58.21,1.38,3.1,3.94,8.86,10.9,8.86s9.51-5.91,10.77-9.09c1.94-4.72,5.29-8.74,9.66-11.58,4.27-2.78,9.24-4.24,14.38-4.24.13,0,.26,0,.39,0,5.07.1,9.93,1.69,14.05,4.6,4.1,2.9,7.15,6.91,8.81,11.57,1.66,4.66,1.82,9.63.46,14.37-1.36,4.76-4.15,8.93-8.06,12.08l-.02.02-.02.02c-4.26,3.55-9.45,4.49-15.93,4.81-.63.01-1.25.02-1.88.02-2.83,0-5.7-.16-8.53-.46h-.05s-.05,0-.05,0c-.53-.04-1.06-.06-1.57-.06-4.82,0-8.61,1.77-10.68,4.98-2.07,3.21-2.1,7.42-.1,11.85,5.77,12.77,11.73,25.72,17.5,38.24,2.35,5.11,4.71,10.22,7.05,15.33,1.21,2.63,1.63,4.35,1.28,5.25-.35.92-1.85,1.95-4.58,3.15l-46.89,20.52c1.04-12.26-2.51-22.97-10.59-31.88ZM55.13,127.83c34.47-.35,69.33-.62,103.65-.82h0c.63,0,1.3.17,1.6.3,2.5,3.57,4.81,7.3,7.25,11.25.16.26.32.51.48.77-2.06.86-4.07,1.69-6.06,2.52-7.64,3.17-14.86,6.17-22,9.26-15.99,6.91-32.2,14.03-47.88,20.92l-5.61,2.46c-1.88.63-3.56,1.74-4.86,3.22l-.16.18-.13.21c-4.6,7.34-11.7,13-19.99,15.95l-2.37.84.41,2.48c.6,3.56,1.2,7.11,1.8,10.65,1.37,8.1,2.79,16.47,4.08,24.68.26,1.63.57,3.27.87,4.85,1.12,5.88,2.19,11.43.55,16.97-1.39,4.71-3.08,7.89-7.18,9.17-1.1.36-1.99.54-2.66.54-.71,0-1.58,0-2.56-3-7.26-21.88-14.53-44.05-21.6-65.9-.41-1.4-.43-2.88-.07-4.28.65-2.42,1.3-4.87,1.95-7.33,3.74-14.08,7.61-28.64,11.88-42.79,1.03-3.5,3.17-6.8,5.43-10.29.54-.83,1.09-1.69,1.63-2.55.33-.13.98-.27,1.56-.27Zm246.66,250.83c.13-5.57.11-11.05.08-16.86,0-1.35-.01-2.71-.02-4.09h1.55c8.01,0,16.01,0,24.01-.01,28.33,0,57.63-.02,86.45-.16h.11c1.37,0,1.9.16,2.07.23.06.16.17.64.12,1.8-.28,6.33-.05,12.71.16,18.35.02.39.01.66,0,.85-.16.02-.38.03-.68.03-37.34.2-75.26.48-112.73.84h-.08c-.5,0-.82-.03-1.01-.07-.03-.18-.05-.47-.04-.92Z"/>
  </g>
</svg>