<?xml version="1.0" encoding="UTF-8"?>
<svg id="Capa_2" data-name="Capa 2" xmlns="http://www.w3.org/2000/svg" viewBox="0 0 459.62 511.68" fill="#003de6">
  <defs>
    <style>
      .cls-1 {
        stroke-width: 0px;
      }
    </style>
  </defs>
  <g id="Capa_1-2" data-name="Capa 1">
    <g>
      <path class="cls-1" d="m172.51,511.65c-14.16-6.28-17.52-12.53-14.94-28.21,2.19-13.29,4.46-26.57,6.8-39.83.57-3.23,0-5.53-2.48-7.91-10.42-9.99-20.63-20.14-30.87-30.29-8.13-8.06-9.53-16.76-3.9-26.6,1.48-2.6.47-3.78-.93-5.53-16.82-20.83-28.18-44.25-31.4-71.05-2.43-20.32-3.63-40.78-5.38-61.18-1.15-13.27-1.98-26.56-3.5-39.79-1.68-14.89,2.97-27.09,14.78-35.92,12.02-8.99,25.2-9.77,38.76-3.31.71.34,1.44.62,3.09,1.31v-5.76c0-29.31-.16-58.62-.05-87.94.08-19.29,11.46-34.07,29.45-36.97,7.04-1.13,14.54.5,21.77.88l.26,1.53c.36-.85.65-1.72.87-2.62,2.73-17.22,12.65-27.63,29.31-31.7.62-.2,1.23-.45,1.81-.76h10.88c4.43,1.72,9.18,2.89,13.24,5.27,4.79,2.67,8.88,6.45,11.93,11.03,3.05,4.58,4.98,9.83,5.62,15.32.16,1.1.43,2.18.66,3.27,29.33-6.37,44.18,1.25,51.9,25.33,7.92-.57,15.65-2.41,23.01-1.38,17.21,2.4,29.39,16.45,29.87,33.98.54,19.14.26,38.3.15,57.45,0,6.4-4.38,10.71-10.06,10.64-5.68-.07-9.66-4.28-9.69-10.91-.09-18.32,0-36.64-.09-54.96,0-7.35-3.32-12.88-10.12-15.73-6.39-2.69-12.33-1.34-17.39,3.38-3.75,3.5-4.95,7.99-4.95,13.1.07,30.31.09,60.62.06,90.94.06,1.67.03,3.33-.09,5-.31,2.38-1.46,4.57-3.23,6.17-1.78,1.6-4.06,2.49-6.44,2.53-2.38.03-4.69-.8-6.51-2.34s-3.03-3.7-3.4-6.07c-.18-1.82-.23-3.66-.15-5.49,0-38.97-.02-77.94-.06-116.92,0-10.99-7.36-18.2-17.64-17.68-3.82.18-7.45,1.74-10.23,4.39-2.78,2.65-4.53,6.22-4.94,10.06-.17,2.16-.23,4.32-.19,6.49v113.4c.07,2.34-.1,4.69-.52,7-.51,2.16-1.74,4.08-3.47,5.45-1.73,1.37-3.88,2.1-6.08,2.07-2.2-.03-4.33-.8-6.03-2.21-1.7-1.41-2.88-3.35-3.35-5.53-.36-2.31-.51-4.65-.43-7V39.13c0-9.81-3.8-15.71-11.55-18.21-2.43-.84-5.01-1.11-7.55-.78-2.54.33-4.98,1.24-7.12,2.67-2.14,1.43-3.93,3.33-5.22,5.57-1.29,2.24-2.07,4.74-2.25,7.32-.17,1.82-.09,3.67-.09,5.5.04,48.13.08,96.25.13,144.38.06,2.16-.02,4.32-.24,6.48-.26,2.34-1.35,4.5-3.07,6.1-1.71,1.6-3.94,2.52-6.27,2.59-2.33.08-4.61-.7-6.42-2.18-1.81-1.48-3.04-3.57-3.45-5.89-.34-2.13-.48-4.29-.42-6.46-.06-38.8-.1-77.6-.13-116.4,0-10.82-6.67-17.99-16.3-17.91-4,.03-7.84,1.57-10.76,4.33-2.92,2.76-4.71,6.52-5.01,10.54-.13,1.66-.1,3.33-.1,5,0,44.29-.08,88.59.22,132.91,0,7.4,1.71,14.84,3.06,22.18.23,1.22,2.55,2.62,4.11,2.94,15.36,3.18,30.15,7.93,41.91,18.83,5.35,5,9.67,11.27,13.6,17.51,2.86,4.54.51,10.36-3.96,12.87-4.46,2.51-10.41,1.43-12.99-3.33-8.91-16.39-24.19-22.16-40.88-25.76-3.05-.65-6.18-.92-9.29-1.31-7.03-.89-9.9-3.5-11.05-10.59-2.41-14.43-4.78-28.87-7.1-43.32-1.76-10.99-9.62-17.86-19.14-16.66-10.26,1.29-16.26,9.99-15.22,21.29,2.89,31.33,5.81,62.65,8.28,94.01,2.1,26.59,12.99,49.12,29.34,69.54,3.52,4.4,6.71,6,12.29,4.91,10.16-2,20.52-3.08,30.74-4.9,1.03-.26,2-.72,2.85-1.36.85-.64,1.56-1.45,2.1-2.38,6.54-12.87,12.86-25.85,19.08-38.88,3.9-8.18,9.77-13.42,19.07-13.44,9.3-.02,15.22,5.16,19.14,13.34,6.07,12.87,12.54,25.58,18.63,38.51.49,1.29,1.33,2.4,2.44,3.22,1.1.81,2.41,1.29,3.78,1.36,14.2,2,28.35,4.28,42.55,6.13,1.08.06,2.15-.11,3.16-.49,1.01-.38,1.93-.97,2.7-1.73,17.65-19.33,28.36-42.17,30.61-68.29,1.51-17.54.81-35.26,1.1-52.9,0-1.83-.06-3.67.06-5.49.1-2.52,1.15-4.91,2.92-6.68,1.77-1.78,4.14-2.81,6.64-2.89,4.86-.13,9.9,3.51,9.9,8.59.4,37.03,3.96,74.67-14.73,108.93-6.24,11.41-14.58,21.66-21.77,32.54-1.14,1.64-1.72,3.61-1.67,5.62.42,3.4.03,6.85-1.13,10.07-1.16,3.22-3.07,6.11-5.55,8.44-10.19,9.99-20.21,20.11-30.55,29.9-3.03,2.86-3.85,5.55-3.09,9.59,2.43,12.91,4.58,25.87,6.66,38.84,2.54,15.78-.72,21.85-14.84,28.25h-7.92c-4.41-2.18-8.91-4.27-13.25-6.56-10.67-5.58-21.34-11.14-31.88-16.99-1.15-.74-2.49-1.14-3.86-1.14s-2.71.4-3.86,1.14c-14.97,7.99-30.06,15.71-45.11,23.53l-7.96-.02Zm-28.09-122.04l-.78,1.43c1.41.85,2.76,1.8,4.03,2.86,11.02,10.77,21.88,21.71,33.04,32.34,4.2,4,5.39,8.34,4.39,13.9-2.97,16.2-5.64,32.44-8.41,48.68-.03.86.02,1.72.15,2.57,15.5-8.2,30.6-15.99,45.52-24.17,5.09-2.81,9.42-2.65,14.39.08,13.74,7.53,27.66,14.78,41.51,22.11,1.19.63,2.48,1.08,3.96,1.69.04-.67.04-1.33,0-2-2.81-16.39-5.58-32.79-8.48-49.16-.99-5.34.11-9.62,4.21-13.49,9.02-8.6,17.93-17.59,26.84-26.42,3.26-3.21,6.59-6.38,10.44-10.1-2.39-.51-3.82-.89-5.26-1.1-15.83-2.35-31.61-4.75-47.44-7-2.06-.17-4.03-.9-5.71-2.11-1.68-1.21-3.01-2.86-3.84-4.76-2.78-5.85-5.63-11.66-8.48-17.47-4.95-10.08-9.9-20.15-15.1-30.75-1.07,2.08-1.86,3.53-2.58,5-6.86,13.99-13.85,27.98-20.51,42.07-2.28,4.79-5.49,7.55-10.83,8.18-8.83,1.05-17.61,2.48-26.42,3.8-8.18,1.28-16.4,2.57-24.62,3.83Z"/>
      <path class="cls-1" d="m459.61,430.14c.11,3.19-.56,6.36-1.96,9.22s-3.48,5.33-6.06,7.17c-6.52,5-8.86,10.5-6.3,18.71,1.11,4.17,1.07,8.57-.1,12.72-2.97,11.25-16.37,18.13-26.4,12.26-10.03-5.87-18.24-6.52-28.17-.07-6.47,4.21-14.15,2.44-20.32-2.59-5.94-4.86-9.08-11.49-7.04-18.99,2.73-9.99,1.1-17.46-7.55-23.98-6.44-4.86-7.72-12.6-5.36-20.43,2.36-7.82,7.92-13.42,15.83-13.73,10.97-.44,17.11-5.19,20.87-15.47,2.72-7.46,9.68-10.84,17.49-10.8,7.82.04,14.78,3.41,17.44,10.91,3.69,10.43,10.18,14.51,20.91,15.42,10.4.86,16.73,9.6,16.73,19.65Zm-90.14-.13c4.32,4.44,8.11,8.51,12.13,12.36,3.52,3.38,5,7.12,3.96,12.08-1.15,5.54-1.81,11.17-2.82,17.64,5.81-3.09,10.66-5.51,15.36-8.21,4.26-2.44,8.3-2.58,12.62-.13,4.84,2.76,9.84,5.23,15.58,8.26-.99-6.07-1.43-11.35-2.67-16.46-1.39-5.73.28-9.93,4.42-13.8,3.89-3.62,7.38-7.67,11.35-11.86-5.8-.83-10.99-1.67-16.22-2.29-5.22-.62-8.91-3-11.03-7.91-2.13-4.92-4.82-9.99-7.6-15.67-2.69,5.42-5.28,9.88-7.15,14.63-2.39,6.06-6.7,8.58-12.86,9.13-4.84.42-9.63,1.4-15.06,2.23Z"/>
      <path class="cls-1" d="m363.46,205.86c-2.57.04-5.05-.95-6.9-2.75-1.85-1.8-2.93-4.26-2.99-6.85-.05-1.33.17-2.65.64-3.9.47-1.24,1.17-2.38,2.08-3.34.91-.96,1.99-1.73,3.2-2.27,1.21-.53,2.5-.82,3.82-.84,1.3-.01,2.59.24,3.79.73,1.2.49,2.3,1.22,3.23,2.14.93.92,1.67,2.01,2.17,3.22.51,1.21.78,2.51.79,3.82.01,1.31-.23,2.61-.72,3.83-.49,1.22-1.21,2.33-2.12,3.26-.91.94-2,1.68-3.19,2.19-1.2.51-2.48.78-3.78.8l-.02-.04Z"/>
      <path class="cls-1" d="m110.37,431.03c.2,6.39-3.2,11.94-8.47,15.99-6.32,4.81-8.34,10.22-5.84,17.91.97,3.35,1.16,6.88.53,10.31-2.2,13.26-16.2,21.43-27.64,14.73-9.84-5.76-17.66-6.27-27.26.05-6.45,4.26-14.1,2.67-20.36-2.25-6.07-4.77-9.35-11.38-7.32-18.87,2.82-10.21,1.1-17.8-7.65-24.44-6.25-4.76-7.56-12.31-5.36-19.99,2.27-7.91,7.67-13.67,15.64-13.99,11.21-.4,17.39-5.33,21.27-15.7,2.79-7.44,9.75-10.74,17.57-10.67,7.62.07,14.43,3.34,17.13,10.6,3.85,10.37,10.09,14.99,21.22,15.81,10.34.78,16.59,9.68,16.53,20.51Zm-55.07-27.04c-2.83,5.76-5.39,10.41-7.44,15.29-2.27,5.39-6.2,7.8-11.77,8.4-5.13.56-10.21,1.48-16.07,2.35,4.56,4.59,8.43,8.62,12.47,12.49,3.52,3.38,4.95,7.15,3.83,12.11-1.19,5.44-1.81,10.99-2.82,17.42,5.68-3,10.56-5.35,15.22-8.08,1.95-1.27,4.21-1.95,6.52-1.96,2.32-.02,4.59.64,6.55,1.88,4.77,2.72,9.68,5.2,15.33,8.21-.99-6.47-1.63-11.91-2.82-17.23-1.15-5.14.28-8.99,3.96-12.54,3.96-3.84,7.77-7.95,12.06-12.38-5.75-.84-10.88-1.71-16.07-2.3-5.35-.61-9.2-2.95-11.42-8.13-2.15-5.01-4.74-9.79-7.53-15.53Z"/>
    </g>
  </g>
</svg>