<?xml version="1.0" encoding="UTF-8"?>
<svg id="Capa_2" data-name="Capa 2" xmlns="http://www.w3.org/2000/svg" viewBox="0 0 463.66 351.82" fill="#003de6">
  <defs>
    <style>
      .cls-1 {
        stroke-width: 0px;
      }
    </style>
  </defs>
  <g id="Capa_1-2" data-name="Capa 1">
    <path class="cls-1" d="m463.13,184.24l-1.41-1.53-.03-.03-.03-.03c-2.06-2.05-3.86-4.35-5.36-6.83-4.7-8.5-9.39-17.67-14.35-28.02-11.23-23.44-22.65-47.45-32.73-68.64l-10.04-21.08c-.38-.81-.69-1.61-1.05-2.54l-.04-.09c-.14-.39-.3-.8-.47-1.22l-.1-.27-1.09-2.71h14.24c4.48,0,9.12,0,13.59-.11,1.01-.02,2-.23,2.93-.63.94-.4,1.77-.98,2.48-1.71.71-.73,1.27-1.58,1.64-2.53.37-.92.55-1.88.54-2.87.06-1.02-.07-2.03-.41-3.01-.34-1-.87-1.91-1.58-2.69-.7-.79-1.54-1.42-2.5-1.87-.94-.45-1.95-.7-2.99-.76-1.17-.1-2.33-.11-3.41-.11h-.36s-.36,0-.36,0h-140.26c-3.68,0-6.23-.9-7.61-5.37-2.58-8.19-7.53-15.3-14.32-20.59-6.78-5.29-14.92-8.37-23.53-8.92C233.63.03,232.71,0,231.81,0c-17.23,0-32.6,9.91-38.24,24.66-3.68,9.67-9.49,10.46-16.15,10.46-.27,0-.55,0-.82,0-18.62-.14-39.1-.2-64.45-.2-11.44,0-22.82.01-34.07.03h-35.78c-1.36,0-2.53,0-3.73.1-1.04.04-2.05.28-2.99.71-.96.44-1.81,1.05-2.53,1.83-.72.77-1.27,1.67-1.63,2.66-.35.97-.51,1.98-.47,3.01-.01,1.03.17,2.03.55,2.99.39.98.97,1.85,1.71,2.6.74.75,1.61,1.33,2.59,1.73.95.39,1.96.59,2.98.59h.04c2.54.05,5.12.08,7.9.08s5.73-.03,9.12-.08h.29s7.29,0,7.29,0h2.73l-.82,2.62c-.13.39-.23.74-.32,1.04-.14.54-.32,1.04-.53,1.51-18.84,39.54-38,79.71-56.93,119.36-.67,1.47-1.7,2.69-3.01,3.58-3.38,2.05-4.8,4.97-4.48,9.18v.03s0,.03,0,.03l.29,2.76c.18,3.03.54,6.08,1.06,9.07,6.41,32.46,31.64,57.73,62.79,62.93,5.4.9,10.73,1.36,15.84,1.36,27.39,0,50.4-12.87,68.38-38.25,7.02-9.89,10.99-22.34,12.16-38.03.34-4.92-.99-7.55-4.61-9.08-1.35-.64-2.46-1.72-3.14-3.05v-.02s-.02-.02-.02-.02l-2-3.69-1.09-2c-2.23-4.09-4.54-8.33-6.54-12.58-10.55-22.05-21.23-44.48-31.56-66.17l-6.8-14.29-8.86-18.62c-.49-1.03-.9-2.06-1.27-3.01l-.6-1.47-.92-2.17,2.27-.51c.27-.05.54-.12.8-.2.39-.11.8-.17,1.21-.18h22.21c21.49,0,43.7,0,65.49-.11,4.24,0,5.29,2.64,6.13,4.75,5.15,12.77,14.3,21.33,27.19,25.43,3.79,1.21,5.27,3.23,5.27,7.23-.09,57.89-.09,119.11,0,181.95,0,3.48-.95,5.99-5.61,6.89-14.86,2.86-28.52,10.68-38.45,22.03-9.93,11.35-15.83,25.86-16.61,40.87-.23,4.45.42,7.32,2.04,9.02,1.61,1.69,4.42,2.47,8.86,2.47h115.51c4.61,0,7.53-.8,9.16-2.53,1.62-1.71,2.25-4.61,1.98-9.13-.75-15.02-6.67-29.55-16.65-40.9-9.98-11.34-23.7-19.11-38.61-21.87-4.47-.87-5.38-3.27-5.36-6.61V88.37c0-3.23.85-5.64,5.02-6.94,6.16-1.79,11.93-5.06,16.65-9.44,4.72-4.38,8.38-9.88,10.61-15.9,1.38-3.49,3.52-4.93,7.36-4.93,19.53.08,39.33.08,58.48.08h24.78c.83,0,1.61,0,2.44.09h.05s.05,0,.05,0l1.33.08,2.69.13-.86,2.46c-.14.4-.25.76-.35,1.1-.23.77-.51,1.53-.84,2.27-16.68,35.04-36.42,76.47-56.13,117.72l-.03.07-.03.07c-.65,1.65-1.86,3.04-3.42,3.92-3.76,1.75-5.2,4.6-4.79,9.52v.09s.02.09.02.09c.11.65.17,1.35.22,2.09l.02.2v.17c.13,2.63.44,5.28.9,7.87v.03s.01.03.01.03c7.01,33.77,26.86,54.95,59.01,62.96,7.23,1.81,14.36,2.73,21.19,2.73,23.71,0,44.85-10.89,62.83-32.35,4.69-5.59,7.74-12.9,10.69-19.97l.08-.18c.7-1.7,1.44-3.5,2.21-5.26l.02-.04.02-.04c1.19-3.11,2.03-6.35,2.51-9.65.24-1.3.53-2.82.86-4.3l.05-.22v-8.12l-.53-.57Zm-134.69-7.1l54.74-116.77,54.76,116.77h-109.5Zm116.36,16.97l-.15,2.1c-.9,12.69-8.4,25.81-20.58,36-12.23,10.23-27.49,16.1-41.87,16.1h-.8c-30.45-.44-59.15-25.29-60.22-52.14l-.09-2.05h123.7Zm-213.88,97.64c.61-.03,1.24-.04,1.86-.04,22.41,0,45.27,18.77,49.92,41l.49,2.35h-102.23l.28-2.22c2.63-20.75,25.85-39.95,49.68-41.09Zm27.03-250.55c.02,3.42-.64,6.74-1.95,9.89-1.31,3.15-3.21,5.97-5.65,8.37-2.44,2.4-5.29,4.27-8.48,5.56-3.09,1.24-6.35,1.87-9.68,1.87h-.31s-.24,0-.24,0c-3.36,0-6.65-.64-9.76-1.9-3.18-1.29-6.02-3.16-8.45-5.56-2.43-2.4-4.32-5.21-5.63-8.36-1.31-3.14-1.96-6.46-1.94-9.86,0-6.9,2.71-13.39,7.62-18.26,4.92-4.88,11.46-7.57,18.43-7.57s13.5,2.69,18.42,7.57c4.92,4.88,7.62,11.36,7.62,18.25ZM17.93,194.07l123.77.06-.12,2.08c-1.54,26.76-31.67,52.06-61.99,52.06h-.61c-38.4-.48-59.01-31.36-60.85-52.07l-.19-2.13Zm6.9-16.88l54.78-116.86,54.82,116.86H24.84Z"/>
  </g>
</svg>