<?xml version="1.0" encoding="UTF-8"?>
<svg id="Capa_2" data-name="Capa 2" xmlns="http://www.w3.org/2000/svg" viewBox="0 0 468.3 424.92" fill="#003de6">
  <defs>
    <style>
      .cls-1 {
        stroke-width: 0px;
      }
    </style>
  </defs>
  <g id="Capa_1-2" data-name="Capa 1">
    <g>
      <path class="cls-1" d="m.02,210.55c2.75-4.89,6.88-6.6,12.49-6.46,15.83.27,31.7.34,47.53,0,13.98-.29,24.14,5.15,30.02,18.45,15.6,0,31.29-.06,46.97,0,8.52.06,17.2-.57,25.52.87,8.36,1.44,16.46,4.11,24.05,7.93,15.45,7.89,30.29,16.99,45.52,25.34,2.91,1.56,6.15,2.41,9.45,2.49,17.06.24,34.16.84,51.18-.06,24.94-1.32,44.23,16.53,41.84,43.29,5.16-1.75,10.1-3.41,15.02-5.12,23.15-8,46.3-16.01,69.45-24.04,7.51-2.61,15.1-3.53,22.89-1.55,14.84,3.77,24.78,15.62,26.23,31.13.65,7.31-.98,14.63-4.67,20.96-3.69,6.33-9.26,11.34-15.92,14.33-24.56,11.07-49.26,21.85-73.9,32.75-32.71,14.49-65.35,29.16-98.15,43.42-37.74,16.4-74.43,13.71-109.8-7.2-14.96-8.85-29.8-17.88-44.65-26.92-8.9-5.42-18.78-7.81-28.89-9.42-.68.01-1.34.19-1.94.51-.6.32-1.11.78-1.5,1.34-6,10.9-15.17,15.68-27.45,15.46-16.45-.25-32.9-.25-49.37,0-5.51.08-9.42-1.66-11.93-6.56l.02-170.95Zm91.63,141.67c18.42,1.62,34.39,8.72,49.45,18.5,11.12,7.21,22.63,13.84,34.04,20.62,29.85,17.71,60.85,20.18,92.71,6.23,43.79-19.17,87.47-38.65,131.2-57.99,13.64-6.03,27.34-11.99,40.92-18.16,3.53-1.55,6.41-4.28,8.17-7.73,1.76-3.44,2.28-7.39,1.48-11.18-1.74-8.19-7.34-13.17-15.71-13.36-3.19.02-6.35.6-9.34,1.71-34.84,11.99-69.76,23.69-104.36,36.32-11.29,4.08-23.23,6.03-35.22,5.75-25.45-.34-50.91-.1-76.35-.11-1.53.06-3.06.03-4.59-.08-2.06-.26-3.97-1.21-5.42-2.71-1.45-1.5-2.34-3.44-2.54-5.52-.22-2,.26-4.01,1.34-5.7,1.09-1.69,2.72-2.95,4.62-3.58,2.05-.57,4.17-.82,6.29-.76h89.16c8.55,0,15.36-4.79,17.93-12.37,4.09-12.08-4.59-24.19-17.74-24.32-18.74-.18-37.49-.18-56.24,0-6.41.1-12.73-1.57-18.28-4.81-14.69-8.4-29.48-16.61-44.14-25.05-8.08-4.7-17.28-7.12-26.62-7-18.74.1-37.5,0-56.24,0-1.47,0-2.94.13-4.59.21l.09,111.09Zm-73.13,17.37h43.49c7.88,0,11.17-3.25,11.17-11.07v-124.96c0-7.52-3.41-10.95-10.93-10.98-13.56-.06-27.12,0-40.68,0-1.02.06-2.04.18-3.05.36v146.65Z"/>
      <path class="cls-1" d="m272.44,203.9c9.74-8.4,19.37-16.39,28.65-24.76,16.66-15.03,33.37-30.03,49.57-45.56,10.27-9.86,19.07-21.11,24.78-34.42,7.92-18.56,7.57-37.05-2.03-54.86-16.95-31.43-57.91-34.94-79.5-6.59-5.51,7.29-9.23,16.08-13.21,24.44-2.55,5.33-4.87,7.92-9.42,7.91-4.54,0-7.41-2.41-9.18-8.03-3.1-10.13-8.42-19.44-15.55-27.25-23.76-25.61-62.42-20.08-78.21,11.24-1.78,3.52-2.9,7.38-4.51,11.01-.91,2.12-2.58,3.82-4.68,4.75-2.1.93-4.48,1.02-6.64.26-2.17-.76-3.97-2.32-5.04-4.36-1.07-2.04-1.33-4.42-.72-6.64C159.29,7.47,202.15-8.93,235.79,4.78c13.24,5.37,23.23,14.84,31.25,26.59,1.38,2.02,2.66,4.09,4.19,6.46,1.39-2.09,2.6-3.97,3.86-5.82,16.53-24.15,38.85-36.3,68.15-30.63,29.31,5.66,46.59,25.23,53.61,53.79,6.09,24.85.18,47.59-14.21,68.34-13.77,19.79-31.32,35.88-49.16,51.67-17.61,15.58-35.49,30.86-53.24,46.24-6.03,5.21-9.66,5.16-15.6,0-24.94-21.57-50.11-42.89-74.72-64.86-8.95-7.99-16.71-17.36-24.72-26.39-4.54-5.13-4.19-10.6.13-14.17,4.31-3.57,9.83-2.56,14.18,2.88,16.15,20.19,36.03,36.47,55.48,53.19,12.21,10.56,24.61,20.94,37.44,31.84Z"/>
      <path class="cls-1" d="m163.69,90.02c0,2.39-.94,4.69-2.61,6.39-1.67,1.71-3.93,2.69-6.31,2.74-2.38.05-4.68-.84-6.42-2.47-1.74-1.64-2.77-3.89-2.88-6.28-.06-1.22.13-2.44.55-3.58.42-1.15,1.07-2.2,1.9-3.09.83-.89,1.83-1.61,2.94-2.11,1.11-.5,2.31-.77,3.52-.79,1.21-.03,2.42.19,3.55.64,1.13.45,2.16,1.12,3.03,1.98.87.86,1.56,1.88,2.02,3,.47,1.13.71,2.34.71,3.56h0Z"/>
      <path class="cls-1" d="m45.71,259.26c-2.37-.02-4.63-.97-6.32-2.63-1.69-1.66-2.68-3.92-2.76-6.29-.05-1.22.13-2.44.56-3.58.42-1.15,1.07-2.2,1.9-3.09.83-.89,1.83-1.61,2.94-2.1,1.11-.5,2.31-.77,3.52-.79,1.21-.03,2.42.19,3.55.64,1.13.45,2.16,1.12,3.03,1.98.87.86,1.56,1.88,2.02,3,.47,1.13.71,2.34.71,3.56.02,1.22-.2,2.43-.65,3.56-.45,1.13-1.12,2.16-1.97,3.03-.85.87-1.87,1.56-2.99,2.02-1.12.47-2.32.71-3.53.7Z"/>
    </g>
  </g>
</svg>