<svg xmlns="http://www.w3.org/2000/svg" viewBox="0 0 354.93 346.7"><defs><style>.cls-1{fill:#231988;}.cls-2{fill:#8e9ce8;}.cls-3{fill:#459bd4;}.cls-4{fill:#fefefe;}.cls-5{fill:#fdfdfe;}.cls-6{fill:#fcfcfd;}.cls-7{fill:#fdfdfd;}.cls-8{fill:#fbfbfd;}.cls-9{fill:#fdfcfd;}.cls-10{fill:#fbfafc;}.cls-11{fill:#f7f7fa;}.cls-12{fill:#171383;}.cls-13{fill:#191283;}.cls-14{fill:#181283;}.cls-15{fill:#191384;}.cls-16{fill:#1a1384;}.cls-17{fill:#181384;}.cls-18{fill:#231989;}.cls-19{fill:#241a89;}.cls-20{fill:#251b89;}.cls-21{fill:#281e8b;}.cls-22{fill:#281f8b;}.cls-23{fill:#2d238e;}</style></defs><g id="Capa_2" data-name="Capa 2"><g id="Capa_1-2" data-name="Capa 1"><path class="cls-1" d="M26.82,251.2c-2.8-12.13-5.64-24.26-8.42-36.4Q12.25,188,6.18,161.13c-2-9-4.58-17.87-5.91-27a24,24,0,0,1,5.27-18.92q24.62-31,49.36-61.82C66,39.49,77.23,25.66,88.19,11.64,94.38,3.71,102.18,0,112.29,0q65.58.21,131.16,0a27.6,27.6,0,0,1,22.89,11Q307.4,62.56,348.59,114c6,7.52,7.57,15.78,5.42,25q-12.37,53.51-24.6,107.06c-.39,1.69-.82,3.38-1.23,5.07-2.8,2.62-6.42,3.84-9.79,5.39-5.67,2.61-11.26,5.38-16.89,8.08q-22.06,10.56-44.1,21.18c-22.28,10.69-44.6,21.3-66.82,32.12-9.27,4.5-18.25,4-27.31-.54-15.08-7.62-30.43-14.66-45.65-22-19.34-9.32-38.73-18.53-58.1-27.79-9.83-4.7-19.65-9.45-29.53-14A6.9,6.9,0,0,1,26.82,251.2Z"/><path class="cls-2" d="M26.82,251.2l66.64,31.9,57.85,27.69c4.73,2.26,9.47,4.49,14.19,6.77,8.2,4,16.34,3.74,24.5-.19q43.86-21.08,87.75-42.11,24.87-11.92,49.72-23.89a7.37,7.37,0,0,1,.71-.23c-1.35,6-2.51,12-4.07,17.94-2.07,7.84-7,13.47-14.31,17Q278.68,301,247.53,316c-19.33,9.29-38.62,18.64-58,27.89a26.82,26.82,0,0,1-24.27-.08q-31.23-15-62.44-30.1-27.09-13-54.23-25.91c-6.3-3-11.95-6.51-15.4-12.84-2.4-4.39-3.06-9.28-4.29-14C28.09,257.71,27.52,254.44,26.82,251.2Z"/><path class="cls-3" d="M205.12,77.17c-2.53-.8-4.14.39-6,2.41-4.23,4.75-9.76,6.21-15.87,4.36-1.9-.57-2.58,0-3.49,1.41-7.54,11.93-24.24,11.31-30.83-1.21-.88-1.66-1.95-1.72-3.4-1.59-9.47.8-17.57-7.38-17.23-16.91A15.85,15.85,0,0,1,134.85,53a2.36,2.36,0,0,0,1-3.09,18.92,18.92,0,0,1,8.78-22.28A19.14,19.14,0,0,1,168,31.19c1,1.09,1.48,1.24,2.71.22a17,17,0,0,1,24.9,3c1,1.39,1.83,1.66,3.46,1.13a21.07,21.07,0,0,1,26.8,14.63c3.13,12.14-4.14,24.18-16.14,26.63A36.8,36.8,0,0,1,205.12,77.17Z"/><path class="cls-4" d="M292.31,116.54c.4-1,1.18-1.2,2.19-1.19,4.74.06,9.49-.12,14.21.1,14.8.71,23.6,14.47,17.5,27.5-3.47,7.42-9.88,10.75-17.83,11.16-4.65.24-9.31,0-14,.1a2.13,2.13,0,0,1-2.08-1c-.47-.37-.34-.9-.34-1.38q0-16.94,0-33.86C292,117.46,291.87,116.93,292.31,116.54Z"/><path class="cls-4" d="M107.79,134.89c0-5.74,0-11.47,0-17.2,0-1.69.46-2.4,2.26-2.35,4.07.12,8.16-.1,12.22.13,10.4.59,16.14,8.37,13.54,18.12a10.48,10.48,0,0,1-4.13,6.33c-1.51,1-1.19,1.76-.26,2.93,2.32,2.93,4.53,5.94,6.78,8.93.39.52,1,1,.63,1.78s-1.1.59-1.75.63h-.5c-6.46.11-6.46.11-10.25-5.11a14.94,14.94,0,0,1-2-2.85c-1.37-3.4-4.21-2.82-6.9-2.79-1.3,0-1.16.89-1.16,1.72,0,2.32-.06,4.65,0,7,0,1.48-.52,2.1-2,2.07-8-.17-6.26,1.1-6.41-6.11C107.72,143.69,107.79,139.29,107.79,134.89Z"/><path class="cls-4" d="M256.73,134.71c0-5.65.06-11.31,0-17,0-1.88.62-2.43,2.46-2.41q10.6.12,21.23,0c1.76,0,2.33.59,2.29,2.32-.16,6.76.82,5.5-5.45,5.6-3.5.06-7,0-10.49,0-1.17,0-1.54.34-1.61,1.54-.4,6.94-.43,6.94,6.47,6.94,2.5,0,5,.05,7.49,0,1.38,0,1.89.48,2,1.86.38,5.8.42,5.8-5.28,5.8-2.91,0-5.83,0-8.74,0-1.34,0-1.89.27-1.92,1.77-.14,5.2-.21,5.2,4.95,5.2,3.5,0,7,0,10.49,0,1.47,0,2.13.43,2.1,2-.14,7.24.88,5.82-5.65,5.91-5.91.08-11.82-.05-17.73,0-2,0-2.64-.57-2.6-2.55C256.8,146,256.73,140.37,256.73,134.71Z"/><path class="cls-4" d="M71.21,134.58c0-5.66.05-11.31,0-17,0-1.76.58-2.3,2.32-2.28,7.07.08,14.15.09,21.23,0,1.89,0,2.45.65,2.41,2.46-.14,6.59.71,5.38-5.35,5.47-3.49.06-7,.06-10.48,0-1.26,0-1.7.32-1.76,1.66-.3,6.82-.34,6.82,6.37,6.82,2.58,0,5.16,0,7.74,0,1.28,0,1.72.48,1.82,1.75.43,5.91.47,5.91-5.39,5.91-2.83,0-5.66.06-8.49,0-1.46-.05-2,.32-2.06,1.91-.07,5.06-.15,5.06,4.88,5.06,3.5,0,7,.06,10.49,0,1.6,0,2.25.49,2.23,2.13-.13,7.05.75,5.69-5.56,5.77-6,.07-12-.05-18,0-1.88,0-2.45-.6-2.42-2.44C71.27,146.05,71.21,140.31,71.21,134.58Z"/><path class="cls-4" d="M48.49,114.78a30,30,0,0,1,11.65,2.47c1.38.59,1.87,1.24,1.24,2.84-2,5-1.91,5.1-7.05,3.56a17.35,17.35,0,0,0-9.12-.47c-6.33,1.51-9.94,6.52-9.3,12.85a11.75,11.75,0,0,0,11.52,10.73,21.35,21.35,0,0,0,10.21-1.94c1.51-.7,2.37-.43,2.7,1.24a5.89,5.89,0,0,0,.26.7c1.83,5,1.82,5.13-3.31,6.69-7.43,2.25-14.74,2.08-21.42-2.16-7.33-4.65-9.81-11.64-8.56-20,1.1-7.35,7.42-13.85,15.23-15.83A22.94,22.94,0,0,1,48.49,114.78Z"/><path class="cls-4" d="M202.63,134.77c0-5.65.06-11.31,0-17,0-1.79.43-2.51,2.36-2.48,7.08.1,14.15.09,21.23,0,1.73,0,2.36.54,2.32,2.28-.15,6.83.75,5.54-5.42,5.64q-5.25.09-10.49,0c-1.29,0-1.68.4-1.74,1.7-.33,7.15-.36,7.15,6.74,7.15,2.25,0,4.5.07,6.74,0,1.64-.07,2.19.6,2.17,2.2-.12,6.72.69,5.37-5.31,5.49-2.83.06-5.66.08-8.49,0-1.44,0-1.88.46-1.84,1.86.08,3.41,0,6.82,0,10.23,0,1.63-.38,2.37-2.22,2.4-6.07.09-6.07.16-6.07-6Z"/><path class="cls-4" d="M158.74,115.37c4.67,0,9.33.06,14,0,1.76,0,2.57.41,2.52,2.36-.18,6.66.8,5.42-5.51,5.59-2.14,0-4.91-.92-6.25.41s-.4,4.1-.42,6.23c0,7.23-.06,14.47,0,21.7,0,1.9-.51,2.63-2.55,2.61-5.95,0-5.95,0-5.95-5.9,0-7.4-.08-14.8,0-22.19,0-2.17-.37-3.16-2.81-2.93s-5,0-7.48.08c-1.67.07-2.17-.6-2.13-2.19.17-7-1-5.61,5.55-5.73C151.42,115.32,155.08,115.37,158.74,115.37Z"/><path class="cls-5" d="M183.49,134.88c0-5.65.06-11.29,0-16.93,0-1.85.41-2.65,2.5-2.63,5.86.06,5.86,0,5.86,5.9,0,10.05,0,20.09.05,30.14,0,2.07-.4,2.94-2.72,2.89-5.65-.12-5.66,0-5.66-5.67Z"/><path class="cls-6" d="M246.17,153.22c-1,.81-6.73,1.4-7.82.84-.76-.39-.68-1.07-.68-1.72q0-17.52,0-35c0-1.34.4-2,1.84-2s3.16.06,4.73,0a1.81,1.81,0,0,1,2,1.15c.39.41.29.93.29,1.42q0,17,0,33.9C246.48,152.3,246.59,152.82,246.17,153.22Z"/><path class="cls-5" d="M79.94,234c0-3.49.06-7,0-10.45,0-1.49.41-2.09,2-2,3.15.15,6.33-.06,9.46.26,6.62.67,10.17,4.85,10.31,11.78S98.05,245,91.57,245.92c-3.39.49-6.8.13-10.2.24-1.32.05-1.45-.7-1.44-1.74C80,240.93,79.94,237.45,79.94,234Z"/><path class="cls-5" d="M198.22,241c-.15-3.44.26-7.59-.22-11.73-.06-.58-.23-1.37.53-1.42,1.35-.09,3-.75,4,.4.68.77.9.51,1.51.19,5.92-3.06,11.37-.23,12.18,6.37A13.81,13.81,0,0,1,216,240c-1.41,5.37-5.77,7.87-11.07,6.14-1.46-.48-1.9-.35-1.8,1.23s0,3,0,4.48c0,2.34-2.12,3.56-4.3,2.53-.84-.39-.61-1.1-.61-1.72C198.21,249.05,198.22,245.4,198.22,241Z"/><path class="cls-7" d="M229.76,191.78c.32-.73-.52-2,.5-2.21,1.3-.3,3-.76,4,.3.79.84,1.06.47,1.72.12,5.42-2.91,10.67-.37,11.86,5.69a13.84,13.84,0,0,1,0,5.44c-1.12,5.77-5.72,8.56-11.3,6.68-1.37-.47-1.77-.35-1.69,1.12s0,2.82,0,4.23c0,1.67.33,3.08-2.37,3.15-2.94.08-2.51-1.54-2.51-3.28q0-8.84,0-17.68c0-.9-.14-1.8-.22-2.7C229.43,192.38,229.48,192.09,229.76,191.78Z"/><path class="cls-5" d="M172.9,208.37a12.5,12.5,0,0,1-6.56-1.72c-.76-.43-2.26-.81-1.1-2.11.76-.85,1-3,3.12-1.59a8.68,8.68,0,0,0,6.27,1.06,3.1,3.1,0,0,0,2.94-2.62,3,3,0,0,0-2.21-3.49c-1.7-.66-3.5-1.08-5.2-1.75-3.31-1.3-5-3.77-4.77-6.84s2.19-5.38,5.56-6.25a13.09,13.09,0,0,1,9.91,1.24c.73.4,2,.81,1,2-.73.85-.92,2.79-2.92,1.7a8.65,8.65,0,0,0-5.55-1.06c-1.38.21-2.66.67-2.8,2.34-.13,1.5.83,2.27,2.1,2.72.94.34,1.88.67,2.84.94,5.58,1.55,7.81,4.27,7.23,8.83C182.22,205.89,178.68,208.37,172.9,208.37Z"/><path class="cls-5" d="M154.73,238.79c-1.5,0-3,.07-4.5,0-1.73-.1-1.52.72-1,1.79,1.15,2.2,4.08,2.77,7.34,1.43.86-.36,1.59-1.17,2.55.09,1.46,1.9,1.44,2.41-.76,3.48-4.18,2-9.39,1.43-12.14-1.39s-3.51-8.91-1.28-12.85c1.92-3.4,5-4.37,8.71-4.06a7.25,7.25,0,0,1,6.69,5.46,28,28,0,0,1,.62,3.16c.42,2.26-.39,3.26-2.78,2.93A25.39,25.39,0,0,0,154.73,238.79Z"/><path class="cls-5" d="M115.62,238.79c-1.33,0-2.66,0-4,0-.59,0-1.52-.42-1.69.46a2.8,2.8,0,0,0,.65,1.81c1.3,1.83,4.08,2.15,7.11.86.91-.39,1.6-1,2.53.22,1.25,1.57,1.19,2.45-.68,3.36-4.24,2-9.58,1.51-12.36-1.4s-3.42-9-1.17-12.87c2-3.38,5.09-4.3,8.76-4a7.26,7.26,0,0,1,6.63,5.53A23.9,23.9,0,0,1,122,236c.34,2.05-.26,3.17-2.62,2.84A27.42,27.42,0,0,0,115.62,238.79Z"/><path class="cls-5" d="M230.59,238.79c-1.41,0-2.83,0-4.24,0-.52,0-1.25-.33-1.51.42s.22,1.13.52,1.61c1.27,2,4,2.42,7.24,1.13.76-.3,1.43-1.15,2.38,0,1.61,1.89,1.59,2.67-.7,3.63-4,1.67-8,2-11.54-.94s-3.67-7.15-2.63-11.25c1.24-4.9,5.9-7.24,11-5.86,3.89,1.05,6.6,5.91,5.78,10.17-.2,1-.76,1.12-1.57,1.12C233.76,238.78,232.17,238.79,230.59,238.79Z"/><path class="cls-5" d="M123.55,200.17c0,1.57,0,3.15,0,4.73,0,.94.79,2.34-.25,2.71-1.19.43-2.9.84-4-.33-.78-.86-1.12-.25-1.6.05a8.12,8.12,0,0,1-5.3,1,5.42,5.42,0,0,1-5.09-4.66c-.43-3.12.73-5.42,3.32-6.57a17.37,17.37,0,0,1,5.85-1.08c.7-.06,1.87.58,2-.79a2,2,0,0,0-1.73-2.13,7.18,7.18,0,0,0-5.11.55c-1.74,1-2.13-.14-2.74-1.28-.76-1.43.07-2,1.2-2.36a22.45,22.45,0,0,1,3.84-1c6.39-.88,9.43,1.77,9.53,8.21,0,1,0,2,0,3Z"/><path class="cls-5" d="M161.06,200.29c0,1.57,0,3.15,0,4.73,0,.91.83,2.24-.37,2.64s-2.75.68-3.76-.28c-.7-.65-1-.56-1.58-.14a7.62,7.62,0,0,1-5.26,1.09,5.43,5.43,0,0,1-5.21-4.54c-.51-3.15.72-5.6,3.4-6.75a17.27,17.27,0,0,1,5.87-1c.66-.05,1.71.44,1.84-.67a2,2,0,0,0-1.61-2.22,7.38,7.38,0,0,0-5.35.55c-1.59.82-2-.14-2.56-1.2-.72-1.31-.22-2,1-2.45a15.24,15.24,0,0,1,4.83-1.16c5.87-.35,8.51,2.08,8.66,7.93,0,1.16,0,2.32,0,3.49Z"/><path class="cls-5" d="M174.74,237c0-6.05,3.58-9.77,9.51-9.77s9.47,3.62,9.53,9.51-3.62,9.93-9.38,10S174.77,242.91,174.74,237Z"/><path class="cls-7" d="M133.06,240.49c1.29-4,2.41-7.57,3.57-11.1.44-1.35,3.86-2.36,5-1.48.62.49.26,1.09.08,1.58-1.86,5.15-3.79,10.27-5.63,15.43-.66,1.87-2.16,1.11-3.36,1.22s-2.26.2-2.8-1.33q-2.74-7.74-5.7-15.4c-.56-1.46,0-1.58,1.26-1.69,2.44-.21,4,.25,4.54,3.09C130.61,233.94,131.9,236.94,133.06,240.49Z"/><path class="cls-7" d="M135,201.46c1.11-3.54,2.21-7.09,3.34-10.63.38-1.18,4.34-2.12,5.15-1.24.32.35.13.77,0,1.16-1.93,5.31-3.87,10.61-5.78,15.93-.62,1.72-2,1.06-3.18,1.12s-2.3.38-2.87-1.21c-1.86-5.16-3.83-10.28-5.76-15.41-.48-1.26-.18-1.69,1.26-1.83,2.53-.25,3.94.44,4.54,3.13.69,3.06,1.86,6,2.81,9Z"/><path class="cls-7" d="M270.05,246.16a21,21,0,0,1-2.75,0c-.92-.11-2.42.68-2.44-1.16,0-1.25-.71-3.07,1.79-2.85.94.08,1-.67,1-1.37q0-6.85,0-13.71c0-.82-.08-1.55-1.17-1.47-2.36.17-1.56-1.6-1.63-2.75-.11-1.65,1.18-1.27,2.11-1.28,2.24,0,4.49,0,6.74,0,1,0,1.9.12,1.71,1.43-.14,1,.73,2.61-1.29,2.58-1.28,0-1.49.56-1.48,1.65,0,4.41,0,8.81,0,13.22,0,1,0,1.84,1.37,1.76,2.05-.12,1.26,1.48,1.4,2.47.18,1.23-.5,1.59-1.63,1.54S271.29,246.16,270.05,246.16Z"/><path class="cls-7" d="M195.06,208.37c-5.58,0-8.91-3.31-9.19-9.25-.27-5.72,3-9.73,8.3-10.23a11.76,11.76,0,0,1,4.93.55c.82.29,2,.34,2.14,1.42s-.69,2-1.27,2.9c-.48.73-1,.07-1.51-.11-3.16-1.19-5.33-.9-6.58.91-1.54,2.2-1.43,6.58.31,8.47s4,1.58,6,.61,2.09.58,2.73,1.63c.92,1.51-.18,1.86-1.22,2.27A12.06,12.06,0,0,1,195.06,208.37Z"/><path class="cls-7" d="M253.19,199.06c0-1.25,0-2.49,0-3.74,0-1.1,0-2-1.53-1.87-1.06.12-1.53-.33-1.45-1.42.07-.89-.19-2,1.15-2.07,1.82-.08,1.82-1.22,1.8-2.56,0-1.53,2.85-3.69,4.31-3.31.62.17.63.68.63,1.19,0,.83.07,1.66,0,2.49-.14,1.37.34,2,1.8,1.86,1.3-.11,2.61-.35,2.63,1.83s-1,2.16-2.48,2-2.05.43-2,2c.12,2.15.05,4.31,0,6.47,0,1.6.58,2.62,2.34,2.43,2.11-.23,1.6,1.46,1.85,2.5.33,1.38-.75,1.4-1.67,1.51-4.89.6-7.41-1.6-7.44-6.51C253.18,200.89,253.19,200,253.19,199.06Z"/><path class="cls-5" d="M103.34,193.09c0,2.57.09,5.15,0,7.71-.24,5.86-5.45,9.19-11,7.07-.83-.32-2-.63-1.14-1.83.65-.88.19-2.87,2.35-2.42,3.59.74,4.65-.16,4.68-3.92,0-4.73.14-9.46,0-14.18-.09-2.24,1-2.29,2.65-2.35,1.9-.06,2.69.39,2.53,2.45-.19,2.48,0,5,0,7.47Z"/><path class="cls-8" d="M170.34,234c0,3.4-.11,6.81,0,10.2.09,2-.91,2.12-2.42,2-1.29-.09-2.64.33-2.6-1.87q.16-10.45,0-20.89c0-2.16,1.24-1.86,2.58-1.92s2.53,0,2.44,2C170.22,227,170.34,230.47,170.34,234Z"/><path class="cls-6" d="M241.32,236.54c0-2,0-4,0-6,0-.92-.79-2.26.41-2.66s2.9-.72,3.77.22,1.21.66,1.9.1a4,4,0,0,1,2.53-.93c1,0,2.64-.68,2.52,1.3-.09,1.33.68,3.26-2.12,3.15-2.43-.09-3.92,1.73-4,4.44-.12,2.4-.12,4.81,0,7.21.07,1.78,0,2.85-2.39,2.86s-2.64-1.11-2.55-3c.12-2.24,0-4.48,0-6.72Z"/><path class="cls-9" d="M205.16,198.44c0-2.15,0-4.31,0-6.46,0-.83-.8-2.07.35-2.43s3-.72,3.8.18c.95,1.12,1.27.56,2,.09a4.28,4.28,0,0,1,1.82-.74c1.15-.09,2.86-1.11,3.08,1,.15,1.45.71,3.35-2.18,3.25-2.33-.08-3.75,1.76-3.84,4.34s-.16,5.47,0,8.19c.13,2.17-1.17,1.91-2.53,1.93s-2.64.18-2.49-2c.18-2.47,0-5,0-7.45Z"/><path class="cls-10" d="M224.29,198.64c0,2.57-.07,5.14,0,7.7.07,1.79-1.11,1.58-2.14,1.46s-2.74.8-2.75-1.38c0-5.22,0-10.44,0-15.65,0-2.17,1.75-1.2,2.79-1.34s2.17-.22,2.11,1.51C224.21,193.5,224.29,196.07,224.29,198.64Z"/><path class="cls-11" d="M224.79,184.19a2.57,2.57,0,0,1-2.72,2.84c-1.85.09-3.06-.75-3.12-2.68s1.1-2.86,3-2.86A2.59,2.59,0,0,1,224.79,184.19Z"/><path class="cls-12" d="M292.31,116.54q0,18.33,0,36.64c-.4.29-.6.11-.6-.3v-36a.53.53,0,0,1,.16-.41C292,116.43,292.16,116.52,292.31,116.54Z"/><path class="cls-13" d="M246.17,153.22q0-18.36,0-36.72c.78-.26.54.37.54.68q0,17.7,0,35.41a2,2,0,0,1-.15.68A1.69,1.69,0,0,1,246.17,153.22Z"/><path class="cls-14" d="M202.24,116.62v36.52h-.31V116.51Z"/><path class="cls-15" d="M70.66,116.6v36.65h-.24V116.53Z"/><path class="cls-16" d="M236.88,152.75V116.6h.18v36.15Z"/><path class="cls-17" d="M229.76,191.78l.06.86v23h-.53c0-7.69,0-15.37,0-23.06C229.31,192.34,229.6,192.06,229.76,191.78Z"/><path class="cls-18" d="M301.14,123.86c3.68-1.76,11.25-.51,14.42,2.39a11.72,11.72,0,0,1,2.85,12.82c-1.71,4.52-5.81,7.25-11.16,7.2-2,0-4.08.54-6-.41C301.17,138.52,301.33,131.19,301.14,123.86Z"/><path class="cls-14" d="M301.14,123.86a1.66,1.66,0,0,1,.58,1.55v19.11a1.57,1.57,0,0,1-.5,1.34c-.58-4.77-.15-9.56-.24-14.33C300.94,129,301.08,126.42,301.14,123.86Z"/><path class="cls-18" d="M116.24,129.5a6.09,6.09,0,0,1,0-1.48c.42-1.56-1.18-3.82.85-4.64,3.16-1.28,8.17.39,9.5,2.67a6.37,6.37,0,0,1-4.13,9.55c-5.54,1.2-6.24.65-6.24-4.85Z"/><path class="cls-19" d="M85,233.49c0-2.07,0-4.14,0-6.21,0-.95.21-1.45,1.36-1.58,7.19-.78,11.11,3.34,9.84,10.45-.76,4.29-6.51,7.4-10.52,5.72-.84-.35-.66-1.05-.67-1.67C85,238,85,235.73,85,233.49Z"/><path class="cls-19" d="M211.29,236.85c0,4.74-3,7.13-6.74,5.32a2.94,2.94,0,0,1-1.18-.85c-1-1.43,0-7.86,1.24-9a3.75,3.75,0,0,1,6.15,1.38A7.84,7.84,0,0,1,211.29,236.85Z"/><path class="cls-20" d="M234.92,199.88a11.25,11.25,0,0,1,.35-4.17,4,4,0,0,1,4-2.8,3.51,3.51,0,0,1,3.43,2.77,8.72,8.72,0,0,1,0,5.64,4.55,4.55,0,0,1-6.95,2.25C234.26,202.52,235.2,201,234.92,199.88Z"/><path class="cls-21" d="M152.24,234.92a6.41,6.41,0,0,1-1.24,0c-.73-.14-1.84.55-2.12-.57A2.54,2.54,0,0,1,150,232a3.7,3.7,0,0,1,3.95-.64,2.77,2.77,0,0,1,2,2.85c-.18,1.4-1.62.48-2.47.71A5.13,5.13,0,0,1,152.24,234.92Z"/><path class="cls-22" d="M113.31,234.92a3.56,3.56,0,0,1-1,0c-.84-.27-2.28.72-2.45-.74a2.87,2.87,0,0,1,1.86-2.71,3.78,3.78,0,0,1,3.36-.05,2.72,2.72,0,0,1,1.82,2.94c-.25,1.12-1.55.39-2.37.56A6.41,6.41,0,0,1,113.31,234.92Z"/><path class="cls-22" d="M228.35,234.92a6.42,6.42,0,0,1-1.24,0c-.8-.18-2.05.58-2.32-.65-.21-1,.57-1.87,1.38-2.49a3.71,3.71,0,0,1,3.55-.49,2.85,2.85,0,0,1,2.17,3c-.2,1.26-1.67.43-2.55.64A4.67,4.67,0,0,1,228.35,234.92Z"/><path class="cls-23" d="M114.14,204.35a1.81,1.81,0,0,1-1.74-2.18c.23-2.69,2.5-2.44,4.35-2.66.91-.12,1.9-.24,1.87,1.23C118.57,202.6,116.84,204.28,114.14,204.35Z"/><path class="cls-23" d="M151.63,204.35a1.8,1.8,0,0,1-1.74-2.15c.2-2.7,2.47-2.47,4.32-2.69.89-.1,1.91-.29,1.9,1.2C156.1,202.56,154.37,204.26,151.63,204.35Z"/><path class="cls-19" d="M188.8,237c-.14,1.8-.29,3.56-1.75,4.8a4.3,4.3,0,0,1-6.67-1.61,8.7,8.7,0,0,1-.47-4.89c.45-2.7,1.85-4,4.25-4,2.55,0,4,1.25,4.49,4C188.75,235.86,188.75,236.44,188.8,237Z"/></g></g></svg>