<svg xmlns="http://www.w3.org/2000/svg" viewBox="0 0 354.5 346.56"><defs><style>.cls-1{fill:#231988;}.cls-2{fill:#8e9ce8;}.cls-3{fill:#459bd4;}.cls-4{fill:#fefefe;}.cls-5{fill:#fdfdfe;}.cls-6{fill:#fdfcfd;}.cls-7{fill:#fdfdfd;}.cls-8{fill:#fcfbfd;}.cls-9{fill:#fcfcfd;}.cls-10{fill:#fbfbfc;}.cls-11{fill:#f7f6fa;}.cls-12{fill:#f6f5f9;}.cls-13{fill:#1a1384;}.cls-14{fill:#191384;}.cls-15{fill:#191283;}.cls-16{fill:#231989;}.cls-17{fill:#231a89;}.cls-18{fill:#241a89;}.cls-19{fill:#2a208c;}.cls-20{fill:#2d248e;}.cls-21{fill:#2b218d;}</style></defs><g id="Capa_2" data-name="Capa 2"><g id="Capa_1-2" data-name="Capa 1"><path class="cls-1" d="M26.74,251.08q-8.29-36.2-16.6-72.4Q5.49,158.4.84,138.11c-2-8.82-.39-16.78,5.31-23.91Q33.32,80.29,60.4,46.33C69.85,34.5,79.34,22.69,88.74,10.82A27.15,27.15,0,0,1,111.24,0q66.09.08,132.17,0a27.22,27.22,0,0,1,22.48,10.86Q306.66,62,347.57,113.05c6.26,7.77,8.29,16.1,6,25.84-8.51,36.75-16.84,73.54-25.24,110.32-.11.48-.25,1-.37,1.44-2.27,2.66-5.59,3.56-8.56,4.94-9.73,4.53-19.4,9.22-29.06,13.9-19.69,9.56-39.51,18.87-59.19,28.46C218.61,304.07,206,310,193.36,316.12c-5.25,2.54-10.52,4.85-16.64,4.67-5.1-.15-9.63-1.83-14.05-4-14.28-7-28.66-13.78-43-20.66Q96,284.8,72.37,273.51q-21.3-10.17-42.6-20.32A6.32,6.32,0,0,1,26.74,251.08Z"/><path class="cls-2" d="M26.74,251.08l53.17,25.4q43,20.56,86.08,41.1a25.5,25.5,0,0,0,22.9-.11q50.1-24,100.18-48.06,19.47-9.35,38.92-18.76-1.92,8.37-3.82,16.74c-2,8.72-7.18,14.83-15.15,18.68q-26,12.53-52,25-34.1,16.4-68.19,32.77a25.7,25.7,0,0,1-23.13,0c-20.64-9.88-41.24-19.87-61.87-29.78-19-9.16-38.08-18.37-57.2-27.38-9.4-4.43-15-11.54-16.85-21.71C28.94,260.28,27.77,255.69,26.74,251.08Z"/><path class="cls-3" d="M204.67,77.09c-2.51-.85-4,.51-5.8,2.52-4.23,4.76-9.79,6-15.9,4.27-1.66-.48-2.4-.31-3.31,1.26a16.55,16.55,0,0,1-15.54,8.65c-6.76-.16-11.89-3.42-15.17-9.35-.76-1.37-1.4-2.08-3.17-2-8,.29-14.12-3.72-16.61-10.6s-.42-14.13,5.84-19.08c1.39-1.09.88-2.07.58-3.25-2.78-10.65,2.79-20.73,13.25-23.58,7.27-2,13.67-.06,18.94,5.27,1.07,1.08,1.5,1.22,2.7.22,7.81-6.47,18.72-5.14,24.9,3,1,1.38,1.92,1.57,3.53,1.07a21,21,0,0,1,26.86,15.21,21.28,21.28,0,0,1-16.65,26.07A42.2,42.2,0,0,1,204.67,77.09Z"/><path class="cls-4" d="M292.12,134.56c0-5.66.05-11.32,0-17,0-1.73.52-2.36,2.28-2.32,4.74.11,9.5-.12,14.23.13,13.93.72,22.64,13.34,17.89,25.95-2.82,7.48-8.62,11.44-16.41,12.45-5.37.7-10.81.16-16.22.29-1.74,0-1.76-1.06-1.75-2.32C292.13,146,292.12,140.29,292.12,134.56Z"/><path class="cls-4" d="M107.66,134.67c0-5.73,0-11.47,0-17.2,0-1.59.47-2.24,2.13-2.2,4.16.11,8.33-.1,12.47.13,10.33.59,16,8.46,13.35,18.26a9.8,9.8,0,0,1-3.85,6c-1.89,1.22-1.36,2.1-.29,3.44,2.23,2.78,4.34,5.67,6.49,8.52.44.59,1.1,1.18.65,2s-1.16.48-1.81.53h-.25c-6.57.15-6.57.15-10.43-5.22-1.07-1.48-2.18-2.94-3.2-4.46a2.42,2.42,0,0,0-2.27-1.13c-4.56,0-4.56-.06-4.56,4.6a2.08,2.08,0,0,1,0,.25c-.19,7,1.44,5.8-6.33,6-1.68,0-2.11-.68-2.1-2.24C107.7,146.13,107.66,140.4,107.66,134.67Z"/><path class="cls-4" d="M256.48,134.49c0-5.65.06-11.3,0-17,0-1.77.58-2.28,2.3-2.26q10.62.12,21.23,0c1.86,0,2.48.59,2.45,2.43-.14,6.54.64,5.4-5.38,5.48-3.5,0-7,.06-10.49,0-1.26,0-1.69.31-1.75,1.65-.3,6.83-.34,6.82,6.35,6.82,2.58,0,5.16,0,7.74,0,1.27,0,1.71.46,1.79,1.75.38,5.88.42,5.87-5.38,5.88-2.91,0-5.83.05-8.74,0-1.27,0-1.7.35-1.76,1.68-.23,5.31-.28,5.3,5.11,5.3,3.41,0,6.83.06,10.24,0,1.57,0,2.28.45,2.26,2.11-.12,7,.73,5.69-5.57,5.77-6,.07-12,0-18,.05-1.84,0-2.46-.54-2.42-2.42C256.55,146,256.48,140.23,256.48,134.49Z"/><path class="cls-4" d="M84.11,115.3c3.58,0,7.16.06,10.74,0,1.66,0,2.18.61,2.14,2.2-.14,6.9.84,5.6-5.6,5.71-3.41.06-6.82.07-10.23,0-1.31,0-1.66.39-1.71,1.69-.26,6.79-.3,6.79,6.35,6.79,2.58,0,5.16,0,7.74,0,1.28,0,1.7.5,1.78,1.76.4,5.87.43,5.86-5.41,5.87-2.91,0-5.83.05-8.74,0-1.31,0-1.67.4-1.72,1.69-.2,5.3-.25,5.29,5.1,5.29,3.42,0,6.83.06,10.24,0,1.59,0,2.24.49,2.21,2.14-.15,6.95.84,5.66-5.57,5.74-6,.07-12,0-18,.05-1.86,0-2.42-.59-2.4-2.44q.1-17.09,0-34.16c0-1.8.62-2.29,2.32-2.25C77,115.37,80.54,115.3,84.11,115.3Z"/><path class="cls-4" d="M47.82,114.71a31.19,31.19,0,0,1,12.25,2.46c1.43.61,1.8,1.31,1.2,2.86-2,5-1.9,5.07-6.85,3.58a17.67,17.67,0,0,0-9.59-.44,11.36,11.36,0,0,0-9,11.58,11.62,11.62,0,0,0,9.42,11.61,19.46,19.46,0,0,0,11.94-1.5c1.8-.79,2.58-.62,3.26,1.33,2,5.53,2,5.58-3.7,7.31a27.29,27.29,0,0,1-13.81.59C32.7,151.88,26.4,143.76,27,133.59a20.34,20.34,0,0,1,18.48-18.77C46.43,114.73,47.43,114.72,47.82,114.71Z"/><path class="cls-4" d="M215.36,115.3c3.57,0,7.15.06,10.73,0,1.65,0,2.18.57,2.15,2.18-.15,7,.83,5.61-5.57,5.73-3.41.06-6.82.07-10.23,0-1.45,0-1.8.46-1.83,1.85-.18,7-.22,7,6.88,7h7c.76,0,1.62,0,1.65,1,.05,1.83.08,3.66,0,5.48-.07,1.39-1.23,1.1-2.09,1.11-3.83,0-7.66.08-11.49,0-1.57,0-2,.51-1.94,2,.1,3.33-.05,6.66.06,10,.06,1.78-.42,2.49-2.35,2.49-5.94,0-5.94.1-5.94-5.88,0-10.14,0-20.28,0-30.42,0-1.93.51-2.66,2.53-2.57C208.36,115.41,211.86,115.3,215.36,115.3Z"/><path class="cls-5" d="M158.59,115.3c4.74,0,9.48,0,14.23,0,1.58,0,2.24.46,2.21,2.13-.15,7,.82,5.62-5.54,5.79-2.15.06-4.92-.91-6.26.41s-.4,4.11-.42,6.25c-.05,7.23-.07,14.46,0,21.69,0,1.93-.55,2.6-2.55,2.58-5.84,0-5.84.05-5.84-5.71,0-7.65-.06-15.3.05-22.94,0-1.91-.55-2.43-2.4-2.33-2.73.15-5.49,0-8.23,0-1.23,0-1.92-.4-1.82-1.72a2.09,2.09,0,0,0,0-.25c.12-7.27-1-5.78,5.57-5.92C151.27,115.24,154.93,115.3,158.59,115.3Z"/><path class="cls-5" d="M191.63,134.56c0,5.64-.06,11.29,0,16.94,0,1.87-.42,2.68-2.47,2.62-7.11-.21-5.93,1-6-5.85-.07-10.05,0-20.1-.06-30.14,0-2.12.51-2.93,2.78-2.88,5.68.11,5.68,0,5.68,5.61Z"/><path class="cls-4" d="M100.11,195.48c0,7.85-5,12.79-12.81,12.75s-12.63-5.12-12.57-13,5.09-12.85,12.82-12.77S100.15,187.58,100.11,195.48Z"/><path class="cls-5" d="M104.44,199.23c0-2.33,0-4.66,0-7,0-.94-.86-2.29.19-2.74,1.22-.52,3-.75,4,.18.8.71,1.06.5,1.75.14,3.06-1.61,6.08-1.7,8.83.63.75.64,1.09.63,1.82,0a7.3,7.3,0,0,1,8.19-1c2.86,1.3,3.63,4,3.69,6.85.06,3.16-.1,6.33.05,9.48.12,2.44-1.52,1.78-2.82,1.91-1.55.17-2.27-.26-2.18-2,.15-2.82.06-5.65,0-8.48,0-3-.89-4.31-2.9-4.42s-3.78,1.49-3.94,4.25a70.57,70.57,0,0,0,0,8.48c.14,2.13-.89,2.2-2.52,2.22s-2.64-.19-2.51-2.26c.18-3,0-6,0-9,0-1.92-.51-3.51-2.79-3.7a3.47,3.47,0,0,0-3.83,3.43,74.73,74.73,0,0,0-.13,9c.08,1.95-.48,2.56-2.49,2.56s-2.65-.57-2.48-2.54,0-4,0-6Z"/><path class="cls-5" d="M97.7,221.34a38.2,38.2,0,0,1,6.23.31c6.32,1.09,9.62,5.15,9.63,11.93,0,6.57-3.52,11-9.59,12.08-3.55.61-7.14.23-10.71.33-1.17,0-1.35-.62-1.35-1.58,0-7.15,0-14.3,0-21.44,0-1.37.59-1.71,1.81-1.65S96.37,221.34,97.7,221.34Z"/><path class="cls-6" d="M237.37,134.83c0-5.73,0-11.47,0-17.21,0-1.67.43-2.34,2.24-2.36,6.13-.07,6.13-.14,6.13,5.93,0,10-.06,20,0,29.94,0,2.2-.45,3.09-2.88,3-5.5-.16-5.51,0-5.51-5.59Z"/><path class="cls-5" d="M215.1,245.47c0,2.45-.15,4.7,0,6.93s-1.25,1.82-2.53,1.87-2.52.13-2.5-2c.09-7.73,0-15.46-.07-23.19,0-1.48,2.93-2.38,4.37-1.06.85.77,1.13.44,1.79.1,5.68-2.9,11.06-.06,11.92,6.28,0,.24.06.49.08.74C229.05,242.28,224.56,249,215.1,245.47Z"/><path class="cls-5" d="M240.05,189.69c0-1.69.09-3.33,0-4.95-.16-2.14,1.33-1.66,2.48-1.66s2.53-.44,2.52,1.67c-.05,7.15,0,14.29.07,21.44,0,.55.2,1.35-.6,1.39-1.28.06-2.86.7-3.75-.42-.65-.83-.85-.54-1.47-.22-6.35,3.3-11.76.28-12.34-6.88a14,14,0,0,1,.29-4.7C228.69,189.68,233,187.73,240.05,189.69Z"/><path class="cls-5" d="M178.12,208.23a13.41,13.41,0,0,1-6.91-1.64c-.82-.46-2.44-.76-1.28-2.26.74-1,1.13-2.84,3.17-1.49a8.44,8.44,0,0,0,5.79,1c1.59-.18,3-.74,3.23-2.56a3.08,3.08,0,0,0-2.29-3.65c-1.57-.56-3.2-1-4.75-1.55-3.63-1.38-5.25-3.75-5-7.17.24-3.17,2.53-5.49,6.2-6.21a13.25,13.25,0,0,1,9.4,1.52c.72.41,1.69.9.78,1.85-.74.77-.81,2.75-2.66,1.82a9.92,9.92,0,0,0-5.79-1.15c-1.41.18-2.67.68-2.84,2.3s.84,2.28,2.1,2.73,2.37.77,3.56,1.14c4.9,1.53,7.07,4.28,6.59,8.37s-3.43,6.44-8.25,6.85C178.76,208.21,178.34,208.22,178.12,208.23Z"/><path class="cls-5" d="M166.48,238.63c-1.33,0-2.66,0-4,0-.59,0-1.45-.41-1.72.45-.21.65.3,1.26.7,1.79,1.35,1.8,4,2.11,7.12.85.8-.32,1.48-1,2.37.09,1.56,1.87,1.53,2.39-.65,3.49-4.22,2.11-9.54,1.49-12.31-1.44s-3.33-8.8-1.23-12.65c1.75-3.19,5-4.63,9.16-4.08a7.54,7.54,0,0,1,6.55,6c.08.32.12.65.17,1,.75,4.38.63,4.52-3.68,4.52Z"/><path class="cls-5" d="M242.61,238.63c-1.5,0-3,.07-4.49,0-1.75-.09-1.51.75-.94,1.79,1.16,2.18,4,2.72,7.36,1.37.9-.36,1.63-1,2.56.19,1.19,1.53,1.29,2.42-.67,3.36-4.25,2-9.55,1.52-12.34-1.39s-3.4-8.72-1.31-12.63a8.84,8.84,0,0,1,11-3.71c3.39,1.28,5.94,6.28,5.13,9.91-.22,1-.78,1.14-1.6,1.13Z"/><path class="cls-7" d="M128,238.63c-1.49,0-3,.05-4.49,0-1.85-.08-1.71.78-1,1.95,1.2,2,4,2.49,7.23,1.24.76-.3,1.44-1.13,2.4-.07,1.69,1.85,1.63,2.5-.68,3.62-4.19,2-9.38,1.44-12.13-1.4s-3.43-8.7-1.32-12.64a8.81,8.81,0,0,1,11-3.73c3.4,1.3,5.87,6.24,5.08,10-.22,1-.85,1.08-1.63,1.08Z"/><path class="cls-5" d="M205.59,236.66c0,6-3.71,9.88-9.48,9.9s-9.55-3.92-9.55-9.85,3.58-9.61,9.36-9.67C201.87,227,205.57,230.67,205.59,236.66Z"/><path class="cls-5" d="M260,198.42c0-5.95,3.53-9.64,9.32-9.69s9.69,3.63,9.72,9.59-3.73,9.88-9.48,9.91S260,204.39,260,198.42Z"/><path class="cls-5" d="M222.62,198.81c0,2,.06,4,0,6,0,.93.88,2.3-.26,2.71s-3,.78-4-.27-1.14-.33-1.72,0c-5.87,3-11-.12-11.12-6.73,0-3,.13-6-.05-9-.13-2,.74-2.32,2.47-2.26,1.55.07,2.73,0,2.59,2.17-.18,2.9-.06,5.81,0,8.72,0,2.07.5,3.87,3,4a3.86,3.86,0,0,0,4-3.88c.17-3.07.18-6.15.06-9.21-.1-2.28,1.4-1.75,2.65-1.8s2.49-.23,2.36,1.81c-.17,2.56,0,5.14,0,7.72Z"/><path class="cls-5" d="M155.21,200.44c0,1.83-.11,3.67,0,5.49.15,2.06-1.21,1.76-2.44,1.74s-2.58.39-2.5-1.7c.11-3,.06-6,0-9s-.93-4.15-3.08-4.23c-2.4-.09-4,1.54-4.13,4.31s-.15,5.83,0,8.74c.1,2-1,2-2.33,1.86s-2.74.59-2.7-1.74c.08-5.07-.06-10.15-.09-15.22,0-1.32,3.14-2.38,4.25-1.13s1.42.44,2.14.08c3.44-1.71,7.37-1.13,9.39,1.36,1.43,1.75,1.48,3.82,1.44,5.92C155.19,198.11,155.21,199.27,155.21,200.44Z"/><path class="cls-5" d="M144.93,240.36c1.26-4,2.3-7.31,3.35-10.61.58-1.82,3.59-3,5.16-2.07.64.38.34.86.19,1.29-1.92,5.31-3.86,10.61-5.78,15.91-.67,1.84-2.25.93-3.44,1.08s-2.1.2-2.61-1.22c-1.87-5.24-3.82-10.45-5.79-15.65-.41-1.09-.21-1.41,1-1.51,3.63-.27,3.72-.27,4.86,3.25C142.8,233.75,143.74,236.67,144.93,240.36Z"/><path class="cls-7" d="M198.87,208.23c-4.24,0-6.31-2-6.37-6.09,0-2.32,0-4.65,0-7,0-1.1,0-2-1.53-1.86-1.07.13-1.53-.35-1.44-1.43.07-.88-.22-2,1.16-2,1.83-.07,1.8-1.24,1.78-2.58,0-1.55,2.85-3.71,4.31-3.3.61.17.61.7.61,1.2a20.51,20.51,0,0,1,0,2.48c-.14,1.42.4,2,1.83,1.82s2.59-.31,2.6,1.86-1,2.17-2.48,2-2,.45-2,2c.11,2.24,0,4.48,0,6.72,0,1.1.41,2.28,1.58,2.11,2.46-.37,2.72,1.2,2.61,2.79C201.49,208.78,199.71,207.86,198.87,208.23Z"/><path class="cls-8" d="M177.25,233.43c0-3.31.13-6.64,0-10-.11-2.13,1-2.14,2.57-2.2,1.77-.06,2.47.32,2.44,2.3-.13,6.79-.13,13.6,0,20.39,0,2-.91,2.06-2.41,2.05s-2.71,0-2.6-2.14C177.38,240.4,177.25,236.91,177.25,233.43Z"/><path class="cls-7" d="M253.23,236.69c0-2.08,0-4.16,0-6.23,0-.92-.78-2.25.36-2.68s2.83-.67,3.83.17,1.18.66,1.94.11a4.26,4.26,0,0,1,2.05-.82c1.08-.09,2.76-1,2.93,1,.12,1.38.79,3.4-2.16,3.31-2.48-.07-3.84,1.82-4,4.82a76.65,76.65,0,0,0,0,7.73c.12,1.92-.92,2-2.3,1.91s-2.76.41-2.63-1.84c.14-2.48,0-5,0-7.47Z"/><path class="cls-9" d="M165.57,198.65c0,2.49-.08,5,0,7.47.08,2-1.29,1.58-2.36,1.53s-2.65.7-2.62-1.51c0-5.15,0-10.29,0-15.44,0-2,1.49-1.39,2.48-1.39s2.52-.67,2.49,1.38C165.54,193.34,165.57,196,165.57,198.65Z"/><path class="cls-10" d="M250.5,198.33c0-2.49.09-5,0-7.46-.09-1.94,1.19-1.66,2.3-1.57s2.68-.71,2.67,1.48c0,5.14,0,10.28,0,15.42,0,2.38-1.86,1.25-2.94,1.45s-2.09,0-2-1.61C250.59,203.48,250.5,200.9,250.5,198.33Z"/><path class="cls-11" d="M166.07,184a2.62,2.62,0,0,1-2.76,2.85c-1.86.08-3.08-.71-3.15-2.67a2.54,2.54,0,0,1,2.72-2.86A2.7,2.7,0,0,1,166.07,184Z"/><path class="cls-12" d="M255.91,184.2a2.72,2.72,0,0,1-3.22,2.68A2.51,2.51,0,0,1,250,184c.06-2,1.35-2.71,3.16-2.64A2.62,2.62,0,0,1,255.91,184.2Z"/><path class="cls-13" d="M246.14,153.14V116.53h.24v36.7Z"/><path class="cls-13" d="M236.63,153.13v-36.6h.24v36.7Z"/><path class="cls-13" d="M202,116.53v36.6h-.24v-36.7Z"/><path class="cls-14" d="M153.66,153.13V124.52h.24v28.71Z"/><path class="cls-15" d="M163.45,124.4v28.74h-.17V124.4Z"/><path class="cls-16" d="M300.55,134.71c0-3.24.06-6.49,0-9.73,0-1.42.42-1.9,1.84-1.82,1.74.11,3.49,0,5.24,0a11.25,11.25,0,0,1,11.25,11.33,11.4,11.4,0,0,1-11,11.67c-7.35.48-7.35.48-7.35-6.74Z"/><path class="cls-17" d="M119.56,123.19c5.2,0,7.48,1.77,7.61,5.79s-1.78,6.21-5.76,6.69c-5.35.64-5.35.64-5.35-4.67v-4.23C116.06,123.16,116.06,123.16,119.56,123.19Z"/><path class="cls-16" d="M80,195.41c0-4.44,1.75-7.34,5-8.21,5.21-1.4,9.12,1.25,9.73,6.61.6,5.17-1.34,8.83-5.17,9.77C83.93,205,80,201.63,80,195.41Z"/><path class="cls-16" d="M97,233.69a39.66,39.66,0,0,0,0-5.23c-.34-2.55.77-3,3.06-2.9,7.06.22,10.71,6.49,7.3,12.78-1.4,2.59-7.32,4.6-9.77,3.34-.69-.35-.53-1-.54-1.51C97,238,97,235.85,97,233.69Z"/><path class="cls-18" d="M215.09,237.93c0-1.73-.16-3.16.53-4.48a4,4,0,0,1,4-2.35,3.5,3.5,0,0,1,3.27,3,9.7,9.7,0,0,1,0,5.42,4.56,4.56,0,0,1-7.13,2.12C214.37,240.46,215.55,238.9,215.09,237.93Z"/><path class="cls-18" d="M240.13,197.88a18.55,18.55,0,0,1-.31,3.19,3.91,3.91,0,0,1-4,3.11c-2.07,0-3.15-1.32-3.63-3.14a11.1,11.1,0,0,1-.24-2.94c.08-3.46,1.61-5.36,4.21-5.34C239.15,192.78,240.05,194,240.13,197.88Z"/><path class="cls-19" d="M164.21,234.76a8.41,8.41,0,0,1-1.23,0c-.77-.11-1.91.47-2.22-.41-.39-1.1.46-2.06,1.31-2.72a3.55,3.55,0,0,1,4.18-.25,2.8,2.8,0,0,1,1.57,2.86c-.26,1.08-1.56.35-2.37.52A6.42,6.42,0,0,1,164.21,234.76Z"/><path class="cls-20" d="M240.17,234.77a5.45,5.45,0,0,1-1,0c-.83-.18-2.12.55-2.41-.48s.58-2.18,1.58-2.85a3.62,3.62,0,0,1,3.09-.44,3,3,0,0,1,2.42,3.07c-.18,1.47-1.77.43-2.7.69A3.61,3.61,0,0,1,240.17,234.77Z"/><path class="cls-21" d="M125.56,234.76a9.13,9.13,0,0,1-1.48,0c-.74-.13-1.85.53-2.16-.5-.25-.87.41-1.73,1.07-2.37a3.58,3.58,0,0,1,4.12-.7,2.8,2.8,0,0,1,1.91,2.89c-.21,1.38-1.63.43-2.48.68A3.56,3.56,0,0,1,125.56,234.76Z"/><path class="cls-18" d="M191.6,236.7c0-3.7,1.55-5.63,4.5-5.61s4.49,1.92,4.49,5.62-1.65,5.87-4.62,5.8C193.16,242.44,191.6,240.36,191.6,236.7Z"/><path class="cls-18" d="M274,197.68a8.73,8.73,0,0,1-.62,4.1,4.3,4.3,0,0,1-7.72,0,9.18,9.18,0,0,1-.52-4.89c.36-2.69,1.75-4.05,4.13-4.14,2.57-.1,4.05,1.14,4.61,3.9A6.75,6.75,0,0,1,274,197.68Z"/></g></g></svg>