<svg xmlns="http://www.w3.org/2000/svg" viewBox="0 0 354.7 346.8"><defs><style>.cls-1{fill:#231988;}.cls-2{fill:#8e9ce8;}.cls-3{fill:#459bd4;}.cls-4{fill:#fefefe;}.cls-5{fill:#fdfdfe;}.cls-6{fill:#fcfcfd;}.cls-7{fill:#fdfdfd;}.cls-8{fill:#fcfbfd;}.cls-9{fill:#fbfbfd;}.cls-10{fill:#191384;}.cls-11{fill:#181283;}.cls-12{fill:#1b1484;}.cls-13{fill:#191283;}.cls-14{fill:#1a1484;}.cls-15{fill:#231989;}.cls-16{fill:#231a89;}.cls-17{fill:#241a89;}.cls-18{fill:#261c8a;}.cls-19{fill:#2a208c;}.cls-20{fill:#281e8b;}.cls-21{fill:#281f8b;}.cls-22{fill:#2c228d;}</style></defs><g id="Capa_2" data-name="Capa 2"><g id="Capa_1-2" data-name="Capa 1"><path class="cls-1" d="M26.72,251.19,5.18,157C3.63,150.16,2,143.38.59,136.55A25.26,25.26,0,0,1,5.7,115q29.85-37.47,59.77-74.9c7.68-9.61,15.44-19.17,23-28.87C94.38,3.63,101.92,0,111.54,0q66.08.14,132.14,0a26.76,26.76,0,0,1,22.08,10.57q41.48,52,83,103.94c5.77,7.23,7.1,15.33,5.05,24.2q-10.82,47-21.57,94c-1.41,6.15-2.85,12.3-4.27,18.44-2.33,2.27-5.37,3.31-8.23,4.58-5.4,2.4-10.68,5.07-16,7.64-15.87,7.69-31.8,15.26-47.67,22.94-17.38,8.41-34.8,16.7-52.2,25.06-5,2.41-10,4.92-15.09,7.21-8.45,3.8-16.53,3.08-24.74-.88q-30.69-14.79-61.46-29.41-12.61-6-25.21-12.06Q53.9,264.87,30.32,253.73C29,253.1,27.49,252.64,26.72,251.19Z"/><path class="cls-2" d="M26.72,251.19l47.91,23,77,36.86c4.5,2.16,9,4.28,13.5,6.47,8.45,4.11,16.75,3.8,25.18-.29q37.5-18.18,75.1-36.14,31.28-15,62.58-29.93c-1.48,6.89-2.64,13.87-5,20.53s-7,11.37-13.4,14.42q-29.7,14.25-59.39,28.5-25.06,12-50.11,24.16c-4.19,2-8.37,4.09-12.65,5.91a25.77,25.77,0,0,1-22-.72c-16.29-7.77-32.52-15.67-48.78-23.51C93.62,309.33,70.6,298.1,47.43,287.19c-8-3.75-14-9-16.44-17.58-1.53-5.26-2.55-10.65-3.78-16C27,252.82,26.88,252,26.72,251.19Z"/><path class="cls-3" d="M205,77.17c-2.64-.8-4.28.48-6.15,2.55-4.26,4.71-9.81,6-15.92,4.19-1.6-.49-2.3-.18-3.13,1.17-7.63,12.28-24.32,11.7-31.06-1.1a2.3,2.3,0,0,0-2.71-1.46A16.23,16.23,0,0,1,128.36,68a15.85,15.85,0,0,1,6.1-14.75,2.94,2.94,0,0,0,1.2-3.71,19,19,0,0,1,17.67-24.32,18.29,18.29,0,0,1,14.53,6c1,1,1.44,1.29,2.69.24a17.06,17.06,0,0,1,24.9,2.95c1,1.37,1.78,1.71,3.45,1.18,11.44-3.69,23.76,3,26.74,14.32,3.23,12.34-3.89,24.35-16,26.92A38.72,38.72,0,0,1,205,77.17Z"/><path class="cls-4" d="M292.11,116.53a1.83,1.83,0,0,1,2-1.17c5,.07,10-.19,15,.15,14.56,1,23,14.81,16.87,27.58-3.55,7.39-10,10.68-18,11.06-4.57.21-9.15,0-13.73.08a2.18,2.18,0,0,1-2.11-1c-.44-.39-.32-.92-.32-1.4q0-16.94,0-33.88C291.8,117.45,291.69,116.93,292.11,116.53Z"/><path class="cls-4" d="M107.69,134.8c0-5.57.07-11.14,0-16.7,0-2,.43-2.86,2.62-2.77,4,.18,8-.09,12,.15,10.53.65,16.33,8.92,13.27,18.71a10.19,10.19,0,0,1-3.87,5.66c-1.57,1.06-1.34,1.83-.3,3.11,2.24,2.77,4.35,5.66,6.47,8.54.46.62,1.35,1.2.82,2.15s-1.32.54-2,.55c-6.57.17-6.57.16-10.46-5.19a24.81,24.81,0,0,1-1.87-2.64c-1.26-2.4-3.06-3.28-5.82-3-1.78.18-2.54.45-2.38,2.38s-.08,4.16.07,6.23c.2,2.85-1.86,2.47-3.33,2.16-1.77-.38-5,1.92-5.08-2.13C107.59,146.27,107.69,140.53,107.69,134.8Z"/><path class="cls-4" d="M71.13,134.79c0-5.65.05-11.31,0-17,0-1.77.41-2.52,2.35-2.49q10.61.15,21.22,0c1.9,0,2.46.67,2.41,2.48-.15,6.48.76,5.37-5.37,5.45-3.49,0-7,.06-10.48,0-1.3,0-1.67.37-1.72,1.68-.26,6.8-.3,6.8,6.36,6.8,2.49,0,5,0,7.49,0,.71,0,1.75-.21,1.83.79a38.26,38.26,0,0,1,0,6c-.09,1.14-1.25.86-2,.87-3.83,0-7.66.06-11.48,0-1.52,0-2.2.25-2.2,2,0,5-.08,5,5,5,3.42,0,6.83.09,10.24,0,1.91-.07,2.44.67,2.4,2.47-.15,6.43.76,5.38-5.4,5.44-5.82.05-11.65-.09-17.47.06-2.33.06-3.22-.5-3.13-3C71.26,145.77,71.13,140.28,71.13,134.79Z"/><path class="cls-4" d="M256.55,134.77c0-5.65.06-11.3,0-17,0-1.81.48-2.5,2.38-2.48q10.61.14,21.22,0c1.93,0,2.41.73,2.37,2.5-.16,6.48.78,5.34-5.38,5.43-3.41,0-6.83.1-10.24,0-1.58-.06-1.91.48-1.93,2-.06,6.52-.11,6.52,6.38,6.52,2.5,0,5,0,7.49,0,1.35,0,1.9.39,2,1.82.34,5.84.38,5.84-5.45,5.84-2.83,0-5.66.05-8.49,0-1.34,0-1.87.29-1.91,1.77-.14,5.2-.2,5.2,4.95,5.2,3.49,0,7,0,10.48,0,1.46,0,2.14.43,2.11,2-.13,7.23.87,5.83-5.64,5.91-5.83.08-11.65-.06-17.47.07-2.15,0-2.93-.52-2.87-2.78C256.65,145.91,256.55,140.34,256.55,134.77Z"/><path class="cls-4" d="M48.41,114.79a29.75,29.75,0,0,1,11.64,2.46c1.38.6,1.87,1.25,1.26,2.84-2,5.08-1.88,5.12-7,3.57a17.31,17.31,0,0,0-9.11-.47c-6.24,1.47-9.89,6.43-9.32,12.6a11.75,11.75,0,0,0,11.52,11,21.43,21.43,0,0,0,10.2-1.94c1.5-.69,2.14-.4,2.73,1.2,2.17,5.87,2.15,6.05-4,7.71-7.14,1.91-14.11,1.59-20.46-2.44-7.35-4.66-10-11.73-8.51-20s6.92-13.38,14.92-15.78A20.11,20.11,0,0,1,48.41,114.79Z"/><path class="cls-5" d="M202.49,134.89c0-5.65.07-11.3,0-16.95,0-1.9.42-2.65,2.49-2.61,7,.12,14,.1,21,0,1.82,0,2.51.53,2.47,2.41-.14,6.67.65,5.43-5.3,5.52-3.49.06-7,.09-10.48,0-1.57,0-2,.5-1.94,2a36,36,0,0,1,0,5c-.13,1.61.54,2,2,1.91,3.82-.1,7.65,0,11.48-.06,1.6,0,2.24.54,2.22,2.16-.1,6.86.59,5.42-5.27,5.54-2.91.06-5.82.07-8.73,0-1.32,0-1.74.43-1.72,1.73.07,3.49,0,7,.06,10.47.05,1.77-.62,2.26-2.32,2.28-5.91.05-5.91.11-5.91-5.89Z"/><path class="cls-4" d="M158.71,115.38c4.58,0,9.16.1,13.73,0,2.13-.06,2.7.71,2.63,2.73-.19,6.15.83,5.11-5.35,5.23-2.14,0-5-.71-6.26.37-1.49,1.28-.47,4.21-.49,6.42-.06,7.15-.08,14.3,0,21.44,0,2-.6,2.76-2.7,2.74-5.8-.07-5.8,0-5.8-5.78,0-7.4-.14-14.8.08-22.19.08-2.68-.79-3.26-3.2-3.05s-4.83,0-7.24.06c-1.51,0-2.07-.52-2-2,.17-7.16-1-5.76,5.65-5.88C151.39,115.32,155.05,115.38,158.71,115.38Z"/><path class="cls-6" d="M237.5,134.63c0-5.65.05-11.3,0-16.94,0-1.68.42-2.34,2.22-2.36,6.19-.06,6.19-.13,6.19,6.15,0,10,0,19.93.05,29.9,0,2.13-.54,2.93-2.8,2.88-5.63-.1-5.63,0-5.63-5.67Z"/><path class="cls-5" d="M221,198.35c0-2.08,0-4.16,0-6.24,0-.86-.74-2.12.28-2.5,1.19-.45,3-.73,3.82.12,1,1,1.37.45,2.14.09,3-1.42,6-1.51,8.6.84.79.71,1.13.51,1.81,0a7.31,7.31,0,0,1,8.2-1c2.74,1.26,3.56,3.82,3.61,6.63.07,3.24-.09,6.49.06,9.73.11,2.2-1.25,1.87-2.58,1.89s-2.49.22-2.39-1.81c.15-3.07.06-6.15,0-9.23,0-1.85-.38-3.56-2.66-3.86-2-.26-3.49,1-4,3.29-.6,2.88-.24,5.81-.24,8.71,0,1.83.06,3-2.53,3s-2.43-1.43-2.41-3.14q.06-4,0-8c0-2-.42-3.73-2.88-3.9a3.67,3.67,0,0,0-3.86,3.75,86.12,86.12,0,0,0-.07,9.23c.1,2.14-1.16,1.9-2.54,2s-2.55,0-2.41-2c.17-2.48,0-5,0-7.48Z"/><path class="cls-5" d="M72.72,234c0-3.41.09-6.81,0-10.21-.07-1.79.58-2.3,2.28-2.21,3.07.17,6.17-.05,9.21.27,6.61.69,10.16,4.9,10.28,11.83.12,6.7-3.59,11.32-9.91,12.29-3.47.54-7,.15-10.45.28-1.38.05-1.38-.81-1.38-1.79C72.73,240.92,72.72,237.43,72.72,234Z"/><path class="cls-6" d="M191.68,134.88c0,5.66-.07,11.32,0,17,0,1.91-.64,2.4-2.46,2.4-5.87,0-5.87.06-5.87-5.71,0-10.07.05-20.14,0-30.2,0-2.17.39-3.11,2.86-3,5.47.18,5.47,0,5.47,5.59Z"/><path class="cls-5" d="M196,245.67c0,2.6-.11,4.85,0,7.08.13,2.05-1.16,1.84-2.41,1.77s-2.57.54-2.56-1.62c0-7.91-.08-15.81-.14-23.71,0-.5-.07-1.25.46-1.28,1.35-.07,3-.76,4,.4.7.83.94.47,1.52.18,6.07-3.1,11.54-.1,12.17,6.68a14,14,0,0,1-.45,5.68,8.1,8.1,0,0,1-10.45,5.53C197.58,246.2,197,246,196,245.67Z"/><path class="cls-5" d="M104.71,195.55c0-3.49.05-7,0-10.47,0-1.41.43-1.91,1.85-1.86,2.91.11,5.83-.06,8.73.13,4.87.33,7.68,3.17,7.85,7.67.18,4.78-2.51,8.07-7.26,8.89a14.32,14.32,0,0,1-1.73.2c-4.29.25-4.29.25-4.3,4.63,0,1.59.53,3.28-2.29,3.2-2.29-.06-3-.62-2.87-2.92C104.86,201.87,104.71,198.71,104.71,195.55Z"/><path class="cls-5" d="M108.75,238.82c-1.5,0-3,.08-4.49,0-2-.12-1.57.87-1,1.93,1.23,2.09,4,2.57,7.19,1.34.7-.27,1.28-1.14,2.24-.4,1.91,1.47,1.82,2.82-.33,3.89-4.23,2.1-9.53,1.46-12.31-1.49s-3.34-8.92-1.06-12.86c2.1-3.62,7.12-5.11,11.19-3.31,3.22,1.43,5.66,6.6,4.73,9.93-.23.82-.72,1-1.46,1C111.91,238.81,110.33,238.82,108.75,238.82Z"/><path class="cls-5" d="M223.46,238.82c-1.33,0-2.66,0-4,0-.59,0-1.52-.43-1.71.43a2.76,2.76,0,0,0,.64,1.8c1.3,1.86,4,2.22,7.09.89,1.06-.47,1.74-.81,2.69.41,1.29,1.65.78,2.37-.81,3.16-4.12,2-9.38,1.54-12.17-1.22s-3.6-8.4-1.72-12.37a8.78,8.78,0,0,1,11.06-4.23c3.57,1.25,6.21,6.32,5.31,10-.24,1-.84,1.08-1.65,1.07C226.62,238.81,225,238.82,223.46,238.82Z"/><path class="cls-5" d="M147.52,238.82c-1.5,0-3,.06-4.49,0s-1.65.61-1,1.78c1.19,2.21,4.05,2.77,7.33,1.44.85-.34,1.6-1.19,2.56.09,1.45,1.92,1.43,2.39-.74,3.45-4.26,2.09-9.58,1.44-12.31-1.51s-3.26-9.27-.87-13.09c2.16-3.46,7.13-4.82,11.08-3,3.19,1.45,5.63,6.7,4.69,10-.25.86-.79.94-1.49.93Z"/><path class="cls-5" d="M143.5,188.87c6.1,0,8.55,2.34,8.65,7.67,0,2.82,0,5.64.08,8.46.08,2.57-1.85,4-3.93,2.55-1.07-.76-1.44-.36-2.23,0a7.73,7.73,0,0,1-7.62-.16c-2.12-1.27-2.55-3.34-2.37-5.63a5.3,5.3,0,0,1,3.94-4.9,21.87,21.87,0,0,1,5.39-.84c.65-.05,1.67.48,1.8-.69a1.92,1.92,0,0,0-1.43-2.1,7.17,7.17,0,0,0-5.58.49c-1.86.94-2-.48-2.62-1.49-.82-1.37.18-1.75,1.11-2.16A13.61,13.61,0,0,1,143.5,188.87Z"/><path class="cls-5" d="M167.5,237c0-6.08,3.56-9.76,9.5-9.74s9.47,3.67,9.53,9.52-3.68,9.92-9.42,10S167.52,243,167.5,237Z"/><path class="cls-5" d="M183.39,198.51c0-5.94,3.6-9.61,9.4-9.64s9.67,3.81,9.67,9.71-3.83,9.82-9.6,9.82S183.37,204.54,183.39,198.51Z"/><path class="cls-7" d="M262.77,221.56a21,21,0,0,1,2.75,0c1,.13,2.56-.74,2.56,1.31,0,1.34.49,3-1.91,2.75-1-.1-.93.75-.93,1.42v13.72c0,.7.06,1.46,1,1.37,2.48-.25,1.79,1.54,1.82,2.8,0,1.88-1.46,1.18-2.37,1.22-2.16.08-4.33,0-6.49,0-1,0-1.91-.14-1.68-1.45.17-1-.79-2.61,1.28-2.55,1.37,0,1.43-.74,1.42-1.74,0-4.41,0-8.82,0-13.23,0-.7.18-1.68-1-1.6-2.32.16-1.65-1.49-1.72-2.69-.11-1.84,1.29-1.31,2.26-1.37S261.77,221.56,262.77,221.56Z"/><path class="cls-7" d="M125.82,240.57c1.31-4.14,2.41-7.68,3.55-11.21.43-1.33,4-2.32,5-1.4.57.5.17,1.07,0,1.59-1.84,5.08-3.74,10.14-5.5,15.25-.64,1.86-2,1.34-3.28,1.38s-2.41.32-3-1.39c-1.77-5.11-3.67-10.17-5.62-15.2-.63-1.61,0-1.71,1.36-1.85,2.44-.25,3.78.4,4.36,3C123.4,233.9,124.63,236.92,125.82,240.57Z"/><path class="cls-7" d="M276.87,246.19c-1,0-2,0-3,0s-2.35.42-2.24-1.41c.07-1.24-.48-2.83,1.8-2.62,1.12.1,1-.82,1-1.57,0-4.48,0-9,0-13.44,0-1-.18-1.64-1.36-1.55-2,.15-1.38-1.35-1.49-2.4-.16-1.38.58-1.68,1.79-1.65,2.32.06,4.65.05,7,0,1.14,0,2,.14,1.86,1.57-.12,1,.58,2.58-1.43,2.47-1.4-.08-1.37.77-1.36,1.75,0,4.4,0,8.8,0,13.19,0,.71-.21,1.72.95,1.62,2.5-.2,1.8,1.6,1.82,2.85,0,1.86-1.49,1.08-2.41,1.18A26.92,26.92,0,0,1,276.87,246.19Z"/><path class="cls-7" d="M172.18,200.48c0-1.58,0-3.16,0-4.74,0-1.31.13-2.56-1.85-2.3-.94.12-1-.68-1-1.37,0-.92-.12-1.95,1.19-2.07s1.56-.69,1.75-1.9a7.11,7.11,0,0,1,9.75-5.21c.71.28.95.7.63,1.31-.47.92,0,2.53-1.78,2.54a12,12,0,0,0-2,.06,1.86,1.86,0,0,0-1.68,2.11c.11,1.11,1.16.72,1.82.7,1.4-.05,2.32,0,2.32,1.92s-.81,2.14-2.26,1.94c-1.77-.26-2.05.66-2,2.17.08,3.4-.09,6.82.07,10.22.1,2-1,2.08-2.45,2-1.31-.06-2.76.32-2.56-1.9C172.31,204.15,172.18,202.31,172.18,200.48Z"/><path class="cls-7" d="M164.24,208.38c-3.82,0-5.86-1.93-6-5.76-.08-2.49,0-5,0-7.47,0-1.05-.14-1.84-1.46-1.68-1.09.13-1.5-.41-1.46-1.45s-.09-2,1.21-2.06,1.71-.85,1.68-2.14c0-2,2.23-3.85,4.18-3.7.56,0,.7.33.71.78a16.74,16.74,0,0,1,0,2.24c-.25,1.88.34,2.83,2.41,2.5,1.35-.21,2.11.14,2.12,1.82s-.64,2.25-2.19,2c-1.86-.29-2.52.41-2.37,2.31.17,2.06.05,4.15,0,6.23,0,1.34.52,2.48,2,2.28,2.49-.35,2.28,1.53,2.35,2.81.09,1.67-1.51,1-2.44,1.27A3.13,3.13,0,0,1,164.24,208.38Z"/><path class="cls-8" d="M163.08,234c0,3.5-.09,7,0,10.48.07,2.16-1.35,1.64-2.5,1.66s-2.5.35-2.47-1.73c.09-7.06.08-14.14,0-21.2,0-2.1,1.35-1.66,2.53-1.69s2.51-.3,2.44,1.76C163,226.89,163.08,230.47,163.08,234Z"/><path class="cls-9" d="M131.67,195.59c0,3.49-.1,7,0,10.48.08,2-1.12,1.8-2.39,1.79s-2.64.32-2.6-1.88q.15-10.47,0-20.94c0-2.27,1.44-1.72,2.68-1.8s2.4-.06,2.32,1.88C131.56,188.61,131.67,192.1,131.67,195.59Z"/><path class="cls-6" d="M234.14,236.61c0-2.07,0-4.15,0-6.22,0-.84-.66-2.1.43-2.44s3-.75,3.77.19c1,1.17,1.34.52,2.08,0a3.83,3.83,0,0,1,1.82-.74c1.08,0,2.8-1,3,.9.15,1.43.78,3.58-2.26,3.46-2.32-.09-3.72,1.84-3.83,4.66a73.44,73.44,0,0,0,0,7.71c.12,2-.88,2.08-2.4,2.06s-2.76,0-2.6-2.16c.18-2.47,0-5,0-7.46Z"/><path class="cls-7" d="M206.74,198.57c0-2.16,0-4.31,0-6.47,0-.86-.69-2.15.31-2.48,1.24-.41,2.94-.76,4,.26.78.76,1,.61,1.69.11a4.25,4.25,0,0,1,2-.88c1.15-.1,2.9-1.18,3.13,1,.15,1.49.55,3.32-2.25,3.28-2.45,0-3.85,1.92-3.95,4.84-.08,2.57-.14,5.15,0,7.71.12,1.9-.89,2-2.27,1.9s-2.75.41-2.62-1.83c.14-2.48,0-5,0-7.46Z"/><path class="cls-10" d="M292.11,116.53q0,18.35,0,36.69c-.4.3-.58.11-.58-.3q0-18,0-36a.53.53,0,0,1,.15-.41C291.78,116.41,292,116.5,292.11,116.53Z"/><path class="cls-11" d="M202,116.59v36.6h-.24V116.48Z"/><path class="cls-12" d="M192.17,153.19v-36.6h.24v36.69Z"/><path class="cls-13" d="M182.71,153.33V116.55h.2v36.78Z"/><path class="cls-14" d="M236.69,152.73V116.44h.25v36.31Z"/><path class="cls-15" d="M300.66,134.64c0-3.16,0-6.32,0-9.48,0-1.34.27-2,1.78-1.9,1.91.12,3.84,0,5.75.06A11.24,11.24,0,0,1,319,134.81a11.36,11.36,0,0,1-10.87,11.48c-1.91.1-3.83,0-5.74.05-1.3.06-1.77-.4-1.74-1.71C300.71,141.3,300.66,138,300.66,134.64Z"/><path class="cls-16" d="M116.1,129.19c0-.42-.15-.91,0-1.23.78-1.49-1.86-4.37,1.65-4.63,6.14-.46,9,1.15,9.39,4.92.52,4.71-1.65,7.29-6.36,7.57s-4.7.28-4.7-4.39Z"/><path class="cls-17" d="M77.77,233.8c0-2.16,0-4.31,0-6.47,0-1,.19-1.46,1.34-1.59,6.75-.79,10.34,2.38,10,8.93-.24,4.91-2.76,7.16-8.16,7.26-3.2.06-3.2.06-3.2-3.16Z"/><path class="cls-17" d="M196.09,238.19a28.37,28.37,0,0,1,0-3.09,4.17,4.17,0,0,1,4.17-3.8c2.34,0,3.42,1.54,3.73,3.59a13,13,0,0,1,0,4.18,4.44,4.44,0,0,1-7.1,2.85C195.27,240.82,196.4,239.17,196.09,238.19Z"/><path class="cls-18" d="M109.76,192.14a7.3,7.3,0,0,1,0-1.08c.31-1.19-.86-3.09.78-3.48,2-.47,4.35-.57,6.18.93a3.93,3.93,0,0,1,1.12,4.31c-.65,2.47-6.07,4.52-7.71,2.82C109.15,194.63,110,193.08,109.76,192.14Z"/><path class="cls-19" d="M106.29,231.1a3.45,3.45,0,0,1,2.45.76c.74.71,1.49,1.59,1.18,2.58s-1.44.41-2.2.5a7.31,7.31,0,0,1-2.24,0c-.92-.2-2.52.84-2.65-.75a3,3,0,0,1,2.37-2.88A5.82,5.82,0,0,1,106.29,231.1Z"/><path class="cls-20" d="M221.1,235a5.45,5.45,0,0,1-1,0c-.82-.18-2.12.55-2.38-.54s.6-2.17,1.65-2.8a3.82,3.82,0,0,1,3.36-.24,2.86,2.86,0,0,1,2,2.84c-.13,1.44-1.59.49-2.43.73A4.65,4.65,0,0,1,221.1,235Z"/><path class="cls-21" d="M145.22,235a6.31,6.31,0,0,1-1.23,0c-.8-.18-2.05.57-2.33-.62s.6-2,1.52-2.63a3.66,3.66,0,0,1,3.32-.39,2.85,2.85,0,0,1,2.2,2.95c-.17,1.37-1.63.44-2.49.69A4.08,4.08,0,0,1,145.22,235Z"/><path class="cls-22" d="M145.78,199.51c.88-.09,1.57.05,1.54,1.27a3.94,3.94,0,0,1-4,3.58,2,2,0,0,1-2.17-2.17C141.12,200.44,142.83,199.46,145.78,199.51Z"/><path class="cls-17" d="M172.53,236.86c0-3.73,1.55-5.61,4.53-5.57s4.49,2,4.48,5.7-1.61,5.71-4.46,5.75S172.51,240.7,172.53,236.86Z"/><path class="cls-17" d="M188.4,198.68c0-3.66,1.52-5.71,4.38-5.76s4.61,2,4.67,5.53-1.63,5.9-4.55,5.9S188.44,202.32,188.4,198.68Z"/></g></g></svg>