<svg xmlns="http://www.w3.org/2000/svg" viewBox="0 0 354.9 347.84"><defs><style>.cls-1{fill:#231988;}.cls-2{fill:#8e9ce8;}.cls-3{fill:#459bd4;}.cls-4{fill:#fefefe;}.cls-5{fill:#fdfdfe;}.cls-6{fill:#fdfdfd;}.cls-7{fill:#fbfafc;}.cls-8{fill:#fcfcfd;}.cls-9{fill:#1a1384;}.cls-10{fill:#231989;}.cls-11{fill:#241a89;}.cls-12{fill:#241b89;}.cls-13{fill:#251c8a;}.cls-14{fill:#291f8c;}.cls-15{fill:#271d8b;}</style></defs><g id="Capa_2" data-name="Capa 2"><g id="Capa_1-2" data-name="Capa 1"><path class="cls-1" d="M26.8,252.14l-20.55-90C4.39,154,2.47,145.82.69,137.62a25.65,25.65,0,0,1,5.08-22.33Q47.64,62.59,89.58,10A25.57,25.57,0,0,1,110.46,0q67,0,133.93,0a25.77,25.77,0,0,1,21.06,10.12Q307.23,62.56,349,115.05a25.82,25.82,0,0,1,5.21,22.76q-12.75,56.31-25.62,112.59c-.13.57-.33,1.12-.5,1.68-1,1.51-2.63,2-4.12,2.69-12.06,5.65-24,11.48-36,17.28-20.38,9.87-40.8,19.64-61.19,29.5-12,5.8-24,11.48-36,17.35-9,4.41-17.63,4.36-26.6,0C141.38,307.76,118.5,297,95.71,286q-18.1-8.74-36.25-17.39c-9.91-4.74-19.77-9.59-29.76-14.17A5.37,5.37,0,0,1,26.8,252.14Z"/><path class="cls-2" d="M26.8,252.14,140.22,306.6l25.43,12.2a26,26,0,0,0,23.59,0L305.07,263c7.64-3.68,15.32-7.29,23-10.94-1.6,7.11-2.67,14.38-5.22,21.24a23.45,23.45,0,0,1-12,13.16q-40.74,19.8-81.59,39.38c-12.74,6.15-25.53,12.19-38.17,18.54-9.17,4.61-18,4.56-27.23,0-22.46-11.06-45-21.88-67.6-32.77Q70.85,299.4,45.43,287.2c-8.39-4-13.33-10.69-15.2-19.76C29.17,262.32,28,257.24,26.8,252.14Z"/><path class="cls-3" d="M204.42,77.42c-2.19-.8-3.73.49-5.39,2.41-4.23,4.88-9.74,6.13-15.86,4.42-1.7-.48-2.46-.24-3.37,1.29a17.51,17.51,0,0,1-30.65-.78,3,3,0,0,0-3.28-1.9c-7.88.25-14-3.77-16.54-10.76-2.5-6.73-.51-14,5.37-18.83a2.75,2.75,0,0,0,1.07-3.52A19,19,0,0,1,144.26,28a18.83,18.83,0,0,1,23.18,3c1.3,1.31,2,1.5,3.58.27a17,17,0,0,1,24.64,3.56c1,1.44,1.83,1.36,3.27.9a21.3,21.3,0,0,1,27.7,21C226.24,68.41,216.65,77.57,204.42,77.42Z"/><path class="cls-4" d="M292.33,135.24V118c0-1.09-.14-2.27,1.53-2.24,5.65.1,11.35-.52,16.94.28,10.81,1.56,17.57,9.75,17,20.15-.52,10.25-8.43,17.91-19.31,18.45-4.73.23-9.48,0-14.22.1-1.79,0-2-.89-2-2.34C292.35,146.71,292.33,141,292.33,135.24Z"/><path class="cls-4" d="M107.74,135.28c0-5.73.06-11.47,0-17.21,0-1.73.5-2.39,2.27-2.3,5.14.26,10.33-.51,15.43.55,5.42,1.14,9.24,4.2,10.4,9.8s.42,10.83-4.54,14.56c-1.2.91-.89,1.41-.19,2.31,2.39,3.09,4.72,6.22,7.07,9.35.39.51,1,1,.72,1.74s-1.25.65-2,.67c-6.75.23-6.75.23-10.67-5.23a16.83,16.83,0,0,1-1.72-2.44c-1.32-2.82-3.53-3.47-6.46-3.23-1.6.13-1.94.63-1.87,2.07.1,2.16-.13,4.34.06,6.48.25,2.79-1.68,2.69-3.2,2.27-1.8-.51-5.17,2.15-5.25-2.18C107.66,146.76,107.74,141,107.74,135.28Z"/><path class="cls-4" d="M269.63,115.8c3.58,0,7.17,0,10.74,0,1.59,0,2.25.44,2.21,2.12-.18,7,1,5.71-5.76,5.82-3.33.05-6.66.08-10,0-1.45,0-1.77.46-1.8,1.84-.14,6.69-.18,6.68,6.46,6.68,2.34,0,4.67.09,7,0,1.77-.09,2.55.4,2.5,2.35-.18,6.37.76,5.19-5.26,5.29-3,0-6,.07-9,0-1.31,0-1.67.4-1.71,1.7-.18,5.31-.23,5.31,5.05,5.31,3.41,0,6.83.05,10.24,0,1.53,0,2.3.34,2.26,2.07-.18,7.11.95,5.78-5.69,5.87-6,.08-12,0-18,0-1.75,0-2.32-.56-2.31-2.3q.09-17.22,0-34.44c0-1.75.55-2.34,2.29-2.29C262.47,115.87,266.05,115.8,269.63,115.8Z"/><path class="cls-4" d="M71.15,135.15c0-5.65.06-11.3,0-17,0-1.84.54-2.46,2.42-2.44q10.6.13,21.22,0c1.7,0,2.37.46,2.33,2.24-.18,6.87.88,5.6-5.61,5.71-3.41.06-6.82.05-10.23,0-1.28,0-1.69.35-1.74,1.68-.27,6.84-.31,6.83,6.6,6.83,2.33,0,4.66.09,7,0,1.67-.08,2.34.4,2.35,2.21,0,5.44.1,5.44-5.34,5.44-3,0-6,0-9,0-1.18,0-1.53.39-1.6,1.57-.33,5.43-.37,5.43,5,5.43,3.41,0,6.82.07,10.23,0,1.66,0,2.42.38,2.38,2.2-.18,7,.86,5.66-5.54,5.75-6,.08-12,0-18,0-1.84,0-2.48-.56-2.45-2.43C71.21,146.63,71.15,140.89,71.15,135.15Z"/><path class="cls-4" d="M48.9,155.33c-11.19,0-19.28-6-21.43-15.47A20.28,20.28,0,0,1,45,115.37a29.78,29.78,0,0,1,14.91,2.15c1.55.65,2.17,1.37,1.41,3.19-2,4.8-1.91,4.84-7,3.35a17.66,17.66,0,0,0-9.12-.44,11.44,11.44,0,0,0-9.27,12.63,11.74,11.74,0,0,0,11.47,11,21.37,21.37,0,0,0,10.19-1.94c1.49-.69,2.16-.46,2.76,1.13,2.15,5.7,2,6.1-3.87,7.79A24.33,24.33,0,0,1,48.9,155.33Z"/><path class="cls-4" d="M202.46,135.06c0-5.65,0-11.3,0-17,0-1.69.49-2.36,2.27-2.34,7.16.08,14.31.07,21.47,0,1.57,0,2.25.39,2.2,2.09-.19,7.12,1,5.72-5.68,5.85-3.32.06-6.66.08-10,0-1.55,0-1.94.47-2,2-.09,7-.14,7,6.71,7h7c.82,0,1.82-.13,1.86,1.08.07,1.82.09,3.66,0,5.48-.08,1.37-1.25,1.07-2.11,1.08-3.83,0-7.66.08-11.49,0-1.57,0-2,.5-1.93,2,.1,3.49,0,7,0,10.48,0,1.49-.49,2.08-2,2-7.64-.17-6.21,1.07-6.32-6C202.41,144.21,202.46,139.64,202.46,135.06Z"/><path class="cls-4" d="M158.89,115.8c4.67,0,9.33.06,14,0,1.78,0,2.31.61,2.27,2.33-.17,6.64.89,5.49-5.45,5.64-2.14,0-4.91-.91-6.26.4s-.41,4.09-.42,6.22c-.05,7.32-.07,14.64,0,22,0,1.79-.49,2.48-2.4,2.49-6.08,0-6.08.09-6.08-6,0-7.49-.11-15,.06-22.46.06-2.33-.71-2.81-2.81-2.67-2.57.17-5.16,0-7.74,0-1.38,0-1.85-.52-1.91-1.92-.27-6-.31-6,5.75-6Z"/><path class="cls-5" d="M191.76,135.14c0,5.74-.06,11.48,0,17.21,0,1.84-.53,2.44-2.4,2.45-6,0-6,.07-6-5.83,0-10.14.06-20.28,0-30.42,0-2.21.63-2.85,2.82-2.81,5.6.12,5.6,0,5.6,5.69Z"/><path class="cls-4" d="M221,200c0-2.25,0-4.49,0-6.73,0-1-.91-2.39.26-2.93a4,4,0,0,1,3.83.08c1,.78,1.41.41,2.22,0,2.92-1.33,5.83-1.44,8.41.74.83.7,1.22.67,2,0a7.36,7.36,0,0,1,8-1c2.92,1.24,3.74,3.87,3.81,6.76.09,3.32,0,6.65,0,10,.07,2.36-1.61,1.56-2.76,1.67s-2.31.21-2.23-1.67c.13-3.07.08-6.15,0-9.23,0-1.88-.2-3.78-2.7-4-2.15-.23-3.87,1.17-4.07,3.77a67.11,67.11,0,0,0-.07,9c.11,2-.73,2.33-2.46,2.25-1.54-.06-2.72,0-2.58-2.15.19-3.07.06-6.15,0-9.23,0-1.79-.43-3.35-2.6-3.6a3.47,3.47,0,0,0-4,3.17,51.65,51.65,0,0,0-.18,9.71c.06,2-.85,2.1-2.4,2.1s-2.73,0-2.55-2.19,0-4.32,0-6.48Z"/><path class="cls-5" d="M79.89,234.56c0-3.48,0-7,0-10.46,0-1.19.22-1.88,1.63-1.82,3.48.17,7-.22,10.45.35,6.19,1,9.47,5,9.65,11.65s-3.28,11.2-9.2,12.41c-3.71.76-7.46.29-11.19.42-1.41,0-1.33-.89-1.33-1.84C79.9,241.7,79.89,238.13,79.89,234.56Z"/><path class="cls-5" d="M246.08,153.65c-.92,1.86-2.63,1.06-4,1.07-5.2,0-4.49.72-4.51-4.44,0-10.63,0-21.27-.05-31.9,0-2.11.64-2.66,2.68-2.63,5.7.09,5.7,0,5.7,5.58q0,14.71,0,29.41c0,.91.11,1.81.17,2.72Z"/><path class="cls-5" d="M198.14,241.86c-.15-3.46.24-7.62-.22-11.77-.06-.47-.27-1.2.31-1.3,1.38-.25,3.12-.73,4.08.2s1.33.38,2,0c5.1-2.55,10-.34,11.48,5.17a13.25,13.25,0,0,1,0,7.15c-1.44,5-5.7,7.43-10.64,5.81-2-.67-2.24,0-2.1,1.66.1,1.24,0,2.5,0,3.75,0,2.66-1.54,3.68-4.09,2.81-1-.35-.79-1.15-.79-1.84C198.12,249.88,198.14,246.22,198.14,241.86Z"/><path class="cls-4" d="M104.72,196.12c0-3.5.06-7,0-10.48,0-1.41.4-1.91,1.83-1.85,3.16.15,6.35-.11,9.46.29,4.69.6,7.07,3.42,7.18,7.81s-2.45,7.72-7,8.69c-.41.09-.83.09-1.24.17-1.68.3-4-.81-4.92.59-.8,1.24-.4,3.4-.2,5.12.29,2.46-1.25,2.08-2.77,2.2-1.82.14-2.49-.38-2.4-2.32C104.84,202.94,104.72,199.52,104.72,196.12Z"/><path class="cls-5" d="M115.71,239.68c-1.33,0-2.66,0-4,0-.56,0-1.34-.3-1.62.24-.37.73.21,1.43.64,2,1.35,1.83,4,2.13,7.11.88.77-.31,1.44-1.1,2.37,0,1.66,1.94,1.63,2.47-.67,3.61-4.25,2.1-9.52,1.46-12.28-1.51s-3.34-9-1.11-12.86a8.89,8.89,0,0,1,11.15-3.39c3.31,1.39,5.82,6.64,4.87,10.06-.24.88-.79.94-1.48.93Z"/><path class="cls-5" d="M152.28,201.63c0,1.41,0,2.83,0,4.24,0,.86.81,2.06-.19,2.52-1.15.52-2.9.76-3.76-.12-1-1-1.47-.36-2.2,0a8,8,0,0,1-6.05.58,5.1,5.1,0,0,1-4-4.85c-.23-3.06.77-5.08,3.19-6.15a16,16,0,0,1,6.09-1.13c.64,0,1.68.47,1.85-.63a1.94,1.94,0,0,0-1.59-2.23,7.06,7.06,0,0,0-5.12.43c-2,1.07-2.4-.32-3-1.6-.84-1.76.8-1.71,1.61-2.08a12.77,12.77,0,0,1,7.81-.81c3,.54,4.88,2.56,5.17,5.86.17,2,0,4,0,6Z"/><path class="cls-5" d="M154.67,239.68c-1.49,0-3,.07-4.48,0-1.72-.1-1.55.68-1,1.77,1.19,2.22,4,2.75,7.34,1.44.76-.29,1.44-1.15,2.41-.1,1.72,1.85,1.67,2.52-.6,3.65-4.25,2.12-9.53,1.48-12.28-1.49-2.88-3.12-3.33-9.24-1-13.09a8.9,8.9,0,0,1,11-3.14c3.24,1.37,5.62,6.3,4.85,9.85-.22,1-.77,1.14-1.6,1.13C157.83,239.67,156.25,239.68,154.67,239.68Z"/><path class="cls-5" d="M230.58,239.69c-1.58,0-3.16,0-4.74,0-1.36-.05-1.31.58-.87,1.53,1.1,2.42,4.1,3.07,7.68,1.54,1-.42,1.62-.72,2.5.39,1.32,1.65.95,2.43-.82,3.29-4.26,2.06-9.52,1.51-12.32-1.44s-3.37-9.06-1.19-12.88c1.82-3.2,5.24-4.61,9.49-3.91,3.24.53,5.61,3,6.29,6.58.18,1,.12,2,.23,3,.18,1.54-.49,2.07-2,2S232,239.69,230.58,239.69Z"/><path class="cls-5" d="M184.05,228.07c5.94,0,9.62,3.61,9.65,9.6s-3.67,9.92-9.38,10-9.58-3.82-9.65-9.73C174.6,231.87,178.17,228.11,184.05,228.07Z"/><path class="cls-5" d="M202.37,199.24c0,6-3.69,9.9-9.42,9.94s-9.56-3.93-9.61-9.81,3.62-9.79,9.48-9.81S202.36,193.2,202.37,199.24Z"/><path class="cls-6" d="M269.68,247.11a11.15,11.15,0,0,1-2.24,0c-1-.19-2.6.88-2.7-1.13-.07-1.33-.71-3.2,1.92-3,.93.08.87-.8.87-1.47,0-4.57,0-9.14,0-13.71,0-.9-.21-1.5-1.22-1.43-2.4.16-1.49-1.64-1.6-2.76-.16-1.66,1.13-1.3,2.06-1.31,2.24,0,4.49,0,6.74,0,1.19,0,2,.24,1.81,1.64-.13,1,.6,2.56-1.44,2.44-1.15-.07-1.37.54-1.36,1.54,0,4.57,0,9.14,0,13.72,0,.86.17,1.5,1.21,1.42,2.18-.17,1.47,1.45,1.59,2.55.17,1.5-.81,1.56-1.9,1.53C272.18,247.09,270.93,247.11,269.68,247.11Z"/><path class="cls-6" d="M172.21,201.32c0-1.33,0-2.65,0-4,0-1.54.63-3.47-2.19-3.25-.87.07-.65-1-.68-1.6-.05-.87,0-1.73,1.17-1.79,1.36-.06,1.64-.85,1.81-2.11.59-4.2,6.08-6.92,9.85-5a.9.9,0,0,1,.49,1.38c-.44.88-.07,2.33-1.64,2.43a18.82,18.82,0,0,0-2,.05,1.92,1.92,0,0,0-1.83,2c.07,1.39,1.25.82,1.92.8,1.48-.06,2.25.19,2.26,2s-.78,2.18-2.26,2c-1.72-.26-2.07.56-2,2.11.1,3.49-.06,7,.07,10.46.07,1.92-1,1.94-2.35,1.87s-2.78.4-2.62-1.83C172.31,205,172.21,203.15,172.21,201.32Z"/><path class="cls-5" d="M123.66,228.9a4.59,4.59,0,0,1,.75-.24c4.44-.28,4.43-.28,5.79,4,.78,2.45,1.58,4.9,2.38,7.35.08.23.21.44.55,1.15,1.12-3.58,2.12-6.79,3.13-10a3.78,3.78,0,0,1,5.13-2.49c1,.35.49.9.32,1.36-1.91,5.32-3.86,10.62-5.75,15.95-.62,1.75-2,1.08-3.16,1.13s-2.3.4-2.87-1.2C127.92,240.26,125.8,234.67,123.66,228.9Z"/><path class="cls-6" d="M158.25,199.61c0-1,0-2,0-3,.06-1.38.21-2.73-1.92-2.45-.92.12-1.05-.65-1-1.36s-.37-1.95.81-2c2.22-.15,2.13-1.53,2.09-3.1,0-1.29,3.3-3.41,4.44-2.84,1,.49.51,1.5.45,2.23-.16,2.19,0,3.81,2.94,3.23,1.47-.29,1.54.76,1.53,1.86s0,2.32-1.63,2c-2.63-.47-3.07.87-2.83,3.07a29.85,29.85,0,0,1,0,4.23c-.07,2.09,0,3.85,3,3.61,1.62-.13.94,1.62,1.31,2.5.44,1-.44,1.22-1.19,1.42-4.45,1.17-7.87-1.35-8-5.91C158.22,201.94,158.25,200.78,158.25,199.61Z"/><path class="cls-7" d="M170.29,234.77c0,3.48-.1,7,0,10.45.07,1.89-.91,2-2.31,1.9-1.22-.1-2.7.5-2.67-1.77.09-7,.1-14.11,0-21.16,0-2.14,1.2-1.87,2.56-1.91s2.52,0,2.43,2C170.18,227.79,170.29,231.28,170.29,234.77Z"/><path class="cls-6" d="M241.2,237.7c0-2.07,0-4.14,0-6.22,0-.93-.71-2.35.33-2.69,1.22-.39,3-.77,4,.28s1.16.39,1.73,0a4.4,4.4,0,0,1,2.53-.92c1,0,2.62-.77,2.51,1.25-.08,1.3.82,3.25-2,3.19-2.56-.06-4,1.77-4.06,4.67-.08,2.65-.15,5.32,0,8,.15,2.21-1.21,1.86-2.53,1.89s-2.64.18-2.49-2c.17-2.48,0-5,0-7.47Z"/><path class="cls-8" d="M206.74,199.24c0-2.08,0-4.16,0-6.24,0-.92-.74-2.25.37-2.68s3-.74,3.81.14,1.25.48,1.95.09a6.86,6.86,0,0,1,2.06-.81c.94-.16,2.3-.68,2.74.35a6.75,6.75,0,0,1,0,3.43c-.12.78-.94.41-1.47.47-2.92.3-4.35,1.71-4.46,4.66-.09,2.66-.16,5.33,0,8,.14,2.07-1,2.07-2.45,2-1.31-.07-2.71.3-2.56-1.92.17-2.48,0-5,0-7.48Z"/><path class="cls-5" d="M127,196c0-3.48.09-7,0-10.44-.08-2.06,1.21-1.76,2.44-1.73s2.52-.46,2.49,1.67q-.13,10.68,0,21.38c0,2-1.2,1.77-2.43,1.75s-2.56.41-2.49-1.69C127.07,203.29,127,199.64,127,196Z"/><path class="cls-9" d="M246.08,153.65v-.19q.06-16.85.11-33.68v-2.84c.23.12.4.17.4.21q0,18,.07,35.93a.41.41,0,0,1-.59.57Z"/><path class="cls-10" d="M300.77,135.19c0-3.15.06-6.31,0-9.46,0-1.45.27-2.16,1.9-2,1.9.14,3.82,0,5.73.08a11.23,11.23,0,0,1,10.7,11.32,11.42,11.42,0,0,1-10.37,11.68c-7.93.8-7.93.8-7.93-7.1Z"/><path class="cls-10" d="M116.18,130a5.2,5.2,0,0,1,0-1.48c.47-1.57-1.3-4,1-4.67,4.17-1.16,8.25.41,9.5,3a6.36,6.36,0,0,1-4.86,9.36c-5.39.87-5.69.62-5.69-4.73Z"/><path class="cls-11" d="M84.94,234.45c0-1.49,0-3,0-4.48.08-3.66-.79-3.37,3.51-3.32,5.43,0,7.84,2.58,7.85,8s-2.47,8-7.86,8.08c-4.33.06-3.42.29-3.5-3.33C84.91,237.77,84.94,236.11,84.94,234.45Z"/><path class="cls-11" d="M203,238.65a21.22,21.22,0,0,1,.25-3.19,3.93,3.93,0,0,1,4-3.32c2.1,0,3.12,1.24,3.62,3.08a9,9,0,0,1-.19,5.61,4.47,4.47,0,0,1-7,1.8C202.35,241.52,203.36,240,203,238.65Z"/><path class="cls-12" d="M112.24,188.12c2.53,0,4.88.06,5.54,2.94.4,1.69.25,3.36-1.29,4.49-1.88,1.38-4.08,1.09-6.23.89-.18,0-.47-.48-.47-.75a55.28,55.28,0,0,1,0-6.69C110,187.29,111.66,188.68,112.24,188.12Z"/><path class="cls-13" d="M113.53,235.77a5.61,5.61,0,0,1-1.23,0c-.81-.19-2.11.59-2.34-.54a2.89,2.89,0,0,1,1.52-2.67,3.72,3.72,0,0,1,3.55-.38,2.81,2.81,0,0,1,2.06,3c-.23,1.16-1.68.36-2.57.56A4.67,4.67,0,0,1,113.53,235.77Z"/><path class="cls-14" d="M145.49,200.25c.73.09,1.84-.41,1.85,1.15a4,4,0,0,1-4,3.7,2,2,0,0,1-2.24-2.12C141.1,201.22,142.54,200.3,145.49,200.25Z"/><path class="cls-15" d="M152.39,235.77a5.61,5.61,0,0,1-1.23,0c-.81-.18-2.08.59-2.35-.55s.57-2,1.49-2.66a3.75,3.75,0,0,1,3.54-.38,2.86,2.86,0,0,1,2.09,3c-.2,1.17-1.67.39-2.55.58A4.67,4.67,0,0,1,152.39,235.77Z"/><path class="cls-11" d="M228.22,235.77a8.67,8.67,0,0,1-1.25,0c-.77-.13-1.92.5-2.23-.43-.37-1.1.48-2.05,1.36-2.71a3.66,3.66,0,0,1,3.56-.47,2.85,2.85,0,0,1,2.12,3c-.21,1.21-1.69.36-2.57.58A4.67,4.67,0,0,1,228.22,235.77Z"/><path class="cls-11" d="M188.72,237.62a6.88,6.88,0,0,1-1.44,4.76,4.32,4.32,0,0,1-6.8-1,8.33,8.33,0,0,1-.66-5.11c.4-2.87,1.78-4.16,4.34-4.16s4,1.27,4.44,4.09C188.68,236.72,188.69,237.22,188.72,237.62Z"/><path class="cls-11" d="M197.38,199.29c-.06,1.94-.28,3.68-1.75,4.92a4.33,4.33,0,0,1-6.55-1.5,8.49,8.49,0,0,1-.56-4.88c.46-3,1.85-4.26,4.57-4.18,2.52.08,3.88,1.46,4.21,4.31C197.36,198.46,197.36,199,197.38,199.29Z"/></g></g></svg>